%TF.GenerationSoftware,KiCad,Pcbnew,(5.1.7)-1*%
%TF.CreationDate,2020-10-10T22:45:47-04:00*%
%TF.ProjectId,f122,66313232-2e6b-4696-9361-645f70636258,rev?*%
%TF.SameCoordinates,PXe1237f8PYe7db780*%
%TF.FileFunction,Soldermask,Bot*%
%TF.FilePolarity,Negative*%
%FSLAX46Y46*%
G04 Gerber Fmt 4.6, Leading zero omitted, Abs format (unit mm)*
G04 Created by KiCad (PCBNEW (5.1.7)-1) date 2020-10-10 22:45:47*
%MOMM*%
%LPD*%
G01*
G04 APERTURE LIST*
%TA.AperFunction,Profile*%
%ADD10C,0.100000*%
%TD*%
%ADD11O,1.700000X1.700000*%
%ADD12R,1.700000X1.700000*%
%ADD13C,3.500000*%
G04 APERTURE END LIST*
D10*
X-131760000Y63785000D02*
X-128760000Y66785000D01*
X125240000Y63785000D02*
X122240000Y66785000D01*
X122240000Y133785000D02*
X119240000Y136785000D01*
X122240000Y133785000D02*
X122240000Y66785000D01*
X-128760000Y133785000D02*
X-125760000Y136785000D01*
X-128760000Y133785000D02*
X-128760000Y66785000D01*
X311240000Y60785000D02*
X308240000Y63785000D01*
X-188760000Y60785000D02*
X-185760000Y63785000D01*
X308240000Y-57215000D02*
X311240000Y-54215000D01*
X-185760000Y-57215000D02*
X-188760000Y-54215000D01*
X125240000Y63785000D02*
X308240000Y63785000D01*
X-188760000Y60785000D02*
X-188760000Y-54215000D01*
X-185760000Y-57215000D02*
X308240000Y-57215000D01*
X-185760000Y63785000D02*
X-131760000Y63785000D01*
X-125760000Y136785000D02*
X119240000Y136785000D01*
X311240000Y60785000D02*
X311240000Y-54215000D01*
D11*
%TO.C,J1*%
X-9235000Y131785000D03*
X-13195000Y131785000D03*
X-17155000Y131785000D03*
X-21115000Y131785000D03*
X-25075000Y131785000D03*
X-29035000Y131785000D03*
X-32995000Y131785000D03*
X-36955000Y131785000D03*
X-40915000Y131785000D03*
X-44875000Y131785000D03*
X-48835000Y131785000D03*
X-52795000Y131785000D03*
X-56755000Y131785000D03*
X-60715000Y131785000D03*
X-64675000Y131785000D03*
X-68635000Y131785000D03*
X-72595000Y131785000D03*
X-76555000Y131785000D03*
X-80515000Y131785000D03*
X-84475000Y131785000D03*
X-88435000Y131785000D03*
X-92395000Y131785000D03*
X-96355000Y131785000D03*
X-100315000Y131785000D03*
X-104275000Y131785000D03*
X-108235000Y131785000D03*
X-112645000Y131785000D03*
X-116155000Y131785000D03*
X-120115000Y131785000D03*
D12*
X-124075000Y131785000D03*
%TD*%
D13*
%TO.C,REF\u002A\u002A*%
X102470000Y-52230000D03*
%TD*%
%TO.C,REF\u002A\u002A*%
X160720000Y-52220000D03*
%TD*%
%TO.C,REF\u002A\u002A*%
X217720000Y-52220000D03*
%TD*%
%TO.C,REF\u002A\u002A*%
X302730000Y-53220000D03*
%TD*%
%TO.C,REF\u002A\u002A*%
X56720000Y-52230000D03*
%TD*%
%TO.C,REF\u002A\u002A*%
X-14530000Y-52230000D03*
%TD*%
%TO.C,REF\u002A\u002A*%
X-90530000Y-52230000D03*
%TD*%
%TO.C,REF\u002A\u002A*%
X-161270000Y-52220000D03*
%TD*%
%TO.C,REF\u002A\u002A*%
X76970000Y-32230000D03*
%TD*%
%TO.C,REF\u002A\u002A*%
X23470000Y-11230000D03*
%TD*%
%TO.C,REF\u002A\u002A*%
X-128510000Y-32190000D03*
%TD*%
%TO.C,REF\u002A\u002A*%
X-81030000Y-32230000D03*
%TD*%
%TO.C,REF\u002A\u002A*%
X127970000Y-32230000D03*
%TD*%
%TO.C,REF\u002A\u002A*%
X99470000Y-11230000D03*
%TD*%
%TO.C,REF\u002A\u002A*%
X18720000Y-32230000D03*
%TD*%
%TO.C,REF\u002A\u002A*%
X-14530000Y-11230000D03*
%TD*%
%TO.C,REF\u002A\u002A*%
X-90530000Y-11230000D03*
%TD*%
%TO.C,REF\u002A\u002A*%
X-131520000Y9790000D03*
%TD*%
%TO.C,REF\u002A\u002A*%
X13970000Y9770000D03*
%TD*%
%TO.C,REF\u002A\u002A*%
X89970000Y9770000D03*
%TD*%
%TO.C,REF\u002A\u002A*%
X-62030000Y9770000D03*
%TD*%
%TO.C,REF\u002A\u002A*%
X-109520000Y30790000D03*
%TD*%
%TO.C,REF\u002A\u002A*%
X9220000Y30770000D03*
%TD*%
%TO.C,REF\u002A\u002A*%
X-66780000Y30770000D03*
%TD*%
%TO.C,REF\u002A\u002A*%
X85220000Y30770000D03*
%TD*%
%TO.C,REF\u002A\u002A*%
X156220000Y30780000D03*
%TD*%
%TO.C,REF\u002A\u002A*%
X198720000Y-32220000D03*
%TD*%
%TO.C,REF\u002A\u002A*%
X160720000Y9780000D03*
%TD*%
%TO.C,REF\u002A\u002A*%
X160720000Y-11220000D03*
%TD*%
%TO.C,REF\u002A\u002A*%
X160720000Y-32220000D03*
%TD*%
%TO.C,REF\u002A\u002A*%
X198720000Y-11220000D03*
%TD*%
%TO.C,REF\u002A\u002A*%
X179720000Y51780000D03*
%TD*%
%TO.C,REF\u002A\u002A*%
X245730000Y9780000D03*
%TD*%
%TO.C,REF\u002A\u002A*%
X226730000Y30780000D03*
%TD*%
%TO.C,REF\u002A\u002A*%
X245730000Y-32220000D03*
%TD*%
%TO.C,REF\u002A\u002A*%
X302730000Y-32220000D03*
%TD*%
%TO.C,REF\u002A\u002A*%
X302730000Y-11220000D03*
%TD*%
%TO.C,REF\u002A\u002A*%
X302730000Y9780000D03*
%TD*%
%TO.C,REF\u002A\u002A*%
X-180270000Y9780000D03*
%TD*%
%TO.C,REF\u002A\u002A*%
X-161270000Y51780000D03*
%TD*%
%TO.C,REF\u002A\u002A*%
X-180270000Y-32220000D03*
%TD*%
%TO.C,REF\u002A\u002A*%
X-161270000Y-11220000D03*
%TD*%
%TO.C,REF\u002A\u002A*%
X-161270000Y30780000D03*
%TD*%
%TO.C,REF\u002A\u002A*%
X264730000Y51780000D03*
%TD*%
%TO.C,REF\u002A\u002A*%
X217720000Y51780000D03*
%TD*%
%TO.C,REF\u002A\u002A*%
X198720000Y9780000D03*
%TD*%
%TO.C,REF\u002A\u002A*%
X-19280000Y51770000D03*
%TD*%
%TO.C,REF\u002A\u002A*%
X56720000Y51770000D03*
%TD*%
%TO.C,REF\u002A\u002A*%
X-95280000Y51770000D03*
%TD*%
%TO.C,REF\u002A\u002A*%
X132720000Y51770000D03*
%TD*%
%TO.C,REF\u002A\u002A*%
X56720000Y114770000D03*
%TD*%
%TO.C,REF\u002A\u002A*%
X18720000Y114770000D03*
%TD*%
%TO.C,REF\u002A\u002A*%
X94720000Y114770000D03*
%TD*%
%TO.C,REF\u002A\u002A*%
X56720000Y93770000D03*
%TD*%
%TO.C,REF\u002A\u002A*%
X-19280000Y93770000D03*
%TD*%
%TO.C,REF\u002A\u002A*%
X94720000Y72770000D03*
%TD*%
%TO.C,REF\u002A\u002A*%
X-57280000Y72770000D03*
%TD*%
%TO.C,REF\u002A\u002A*%
X-115780000Y72770000D03*
%TD*%
%TO.C,REF\u002A\u002A*%
X-115780000Y93770000D03*
%TD*%
%TO.C,REF\u002A\u002A*%
X-115780000Y114770000D03*
%TD*%
%TO.C,REF\u002A\u002A*%
X18720000Y72770000D03*
%TD*%
%TO.C,REF\u002A\u002A*%
X-57280000Y93770000D03*
%TD*%
%TO.C,REF\u002A\u002A*%
X-57280000Y114770000D03*
%TD*%
M02*
