%TF.GenerationSoftware,KiCad,Pcbnew,(5.1.7)-1*%
%TF.CreationDate,2020-10-10T22:45:47-04:00*%
%TF.ProjectId,f122,66313232-2e6b-4696-9361-645f70636258,rev?*%
%TF.SameCoordinates,PXe1237f8PYe7db780*%
%TF.FileFunction,Copper,L1,Top*%
%TF.FilePolarity,Positive*%
%FSLAX46Y46*%
G04 Gerber Fmt 4.6, Leading zero omitted, Abs format (unit mm)*
G04 Created by KiCad (PCBNEW (5.1.7)-1) date 2020-10-10 22:45:47*
%MOMM*%
%LPD*%
G01*
G04 APERTURE LIST*
%TA.AperFunction,Profile*%
%ADD10C,0.100000*%
%TD*%
%TA.AperFunction,ComponentPad*%
%ADD11O,1.700000X1.700000*%
%TD*%
%TA.AperFunction,ComponentPad*%
%ADD12R,1.700000X1.700000*%
%TD*%
%TA.AperFunction,SMDPad,CuDef*%
%ADD13R,6.985000X12.700000*%
%TD*%
%TA.AperFunction,SMDPad,CuDef*%
%ADD14R,6.350000X12.700000*%
%TD*%
%TA.AperFunction,SMDPad,CuDef*%
%ADD15C,1.588000*%
%TD*%
%TA.AperFunction,SMDPad,CuDef*%
%ADD16C,0.067000*%
%TD*%
%TA.AperFunction,SMDPad,CuDef*%
%ADD17R,2.540000X5.080000*%
%TD*%
%TA.AperFunction,Conductor*%
%ADD18C,0.750000*%
%TD*%
%TA.AperFunction,Conductor*%
%ADD19C,0.254000*%
%TD*%
%TA.AperFunction,Conductor*%
%ADD20C,0.250000*%
%TD*%
%TA.AperFunction,Conductor*%
%ADD21C,0.150000*%
%TD*%
G04 APERTURE END LIST*
D10*
X-131760000Y63785000D02*
X-128760000Y66785000D01*
X125240000Y63785000D02*
X122240000Y66785000D01*
X122240000Y133785000D02*
X119240000Y136785000D01*
X122240000Y133785000D02*
X122240000Y66785000D01*
X-128760000Y133785000D02*
X-125760000Y136785000D01*
X-128760000Y133785000D02*
X-128760000Y66785000D01*
X311240000Y60785000D02*
X308240000Y63785000D01*
X-188760000Y60785000D02*
X-185760000Y63785000D01*
X308240000Y-57215000D02*
X311240000Y-54215000D01*
X-185760000Y-57215000D02*
X-188760000Y-54215000D01*
X125240000Y63785000D02*
X308240000Y63785000D01*
X-188760000Y60785000D02*
X-188760000Y-54215000D01*
X-185760000Y-57215000D02*
X308240000Y-57215000D01*
X-185760000Y63785000D02*
X-131760000Y63785000D01*
X-125760000Y136785000D02*
X119240000Y136785000D01*
X311240000Y60785000D02*
X311240000Y-54215000D01*
D11*
%TO.P,J1,30*%
%TO.N,GND*%
X-9235000Y131785000D03*
%TO.P,J1,29*%
X-13195000Y131785000D03*
%TO.P,J1,28*%
%TO.N,COL_G*%
X-17155000Y131785000D03*
%TO.P,J1,27*%
%TO.N,COL_F*%
X-21115000Y131785000D03*
%TO.P,J1,26*%
%TO.N,COL_E*%
X-25075000Y131785000D03*
%TO.P,J1,25*%
%TO.N,COL_D*%
X-29035000Y131785000D03*
%TO.P,J1,24*%
%TO.N,COL_C*%
X-32995000Y131785000D03*
%TO.P,J1,23*%
%TO.N,COL_B*%
X-36955000Y131785000D03*
%TO.P,J1,22*%
%TO.N,COL_A*%
X-40915000Y131785000D03*
%TO.P,J1,21*%
%TO.N,COL_9*%
X-44875000Y131785000D03*
%TO.P,J1,20*%
%TO.N,COL_8*%
X-48835000Y131785000D03*
%TO.P,J1,19*%
%TO.N,COL_7*%
X-52795000Y131785000D03*
%TO.P,J1,18*%
%TO.N,COL_6*%
X-56755000Y131785000D03*
%TO.P,J1,17*%
%TO.N,COL_5*%
X-60715000Y131785000D03*
%TO.P,J1,16*%
%TO.N,COL_4*%
X-64675000Y131785000D03*
%TO.P,J1,15*%
%TO.N,COL_3*%
X-68635000Y131785000D03*
%TO.P,J1,14*%
%TO.N,COL_2*%
X-72595000Y131785000D03*
%TO.P,J1,13*%
%TO.N,COL_1*%
X-76555000Y131785000D03*
%TO.P,J1,12*%
%TO.N,GND*%
X-80515000Y131785000D03*
%TO.P,J1,11*%
X-84475000Y131785000D03*
%TO.P,J1,10*%
%TO.N,ROW_8*%
X-88435000Y131785000D03*
%TO.P,J1,9*%
%TO.N,ROW_7*%
X-92395000Y131785000D03*
%TO.P,J1,8*%
%TO.N,ROW_6*%
X-96355000Y131785000D03*
%TO.P,J1,7*%
%TO.N,ROW_5*%
X-100315000Y131785000D03*
%TO.P,J1,6*%
%TO.N,ROW_4*%
X-104275000Y131785000D03*
%TO.P,J1,5*%
%TO.N,ROW_3*%
X-108235000Y131785000D03*
%TO.P,J1,4*%
%TO.N,ROW_2*%
X-112645000Y131785000D03*
%TO.P,J1,3*%
%TO.N,ROW_1*%
X-116155000Y131785000D03*
%TO.P,J1,2*%
%TO.N,GND*%
X-120115000Y131785000D03*
D12*
%TO.P,J1,1*%
X-124075000Y131785000D03*
%TD*%
D13*
%TO.P,SW3,REF*%
%TO.N,Net-(SW3-PadREF)*%
X-70887500Y104350000D03*
D14*
%TO.P,SW3,ROW*%
%TO.N,ROW_8*%
X-62315000Y104350000D03*
D15*
%TO.P,SW3,B*%
%TO.N,Net-(SW3-PadB)*%
X-73554500Y112287000D03*
%TO.P,SW3,A*%
%TO.N,Net-(SW3-PadA)*%
X-59965500Y112287000D03*
D16*
%TO.P,SW3,E*%
%TO.N,Net-(SW3-PadE)*%
X-66760000Y98000000D03*
%TO.P,SW3,C*%
%TO.N,Net-(SW3-PadC)*%
X-66760000Y110700000D03*
%TO.P,SW3,D*%
%TO.N,Net-(SW3-PadD)*%
X-66760000Y104350000D03*
%TD*%
D17*
%TO.P,CAL1,ROW*%
%TO.N,ROW_1*%
X115295000Y-39150000D03*
%TD*%
D13*
%TO.P,SW126,REF*%
%TO.N,Net-(SW126-PadREF)*%
X270112500Y-42650000D03*
D14*
%TO.P,SW126,ROW*%
%TO.N,ROW_2*%
X278685000Y-42650000D03*
D15*
%TO.P,SW126,B*%
%TO.N,Net-(SW126-PadB)*%
X267445500Y-34713000D03*
%TO.P,SW126,A*%
%TO.N,Net-(SW126-PadA)*%
X281034500Y-34713000D03*
D16*
%TO.P,SW126,E*%
%TO.N,Net-(SW126-PadE)*%
X274240000Y-49000000D03*
%TO.P,SW126,C*%
%TO.N,Net-(SW126-PadC)*%
X274240000Y-36300000D03*
%TO.P,SW126,D*%
%TO.N,Net-(SW126-PadD)*%
X274240000Y-42650000D03*
%TD*%
D13*
%TO.P,SW124,REF*%
%TO.N,Net-(SW124-PadREF)*%
X232112500Y-42650000D03*
D14*
%TO.P,SW124,ROW*%
%TO.N,ROW_1*%
X240685000Y-42650000D03*
D15*
%TO.P,SW124,B*%
%TO.N,Net-(SW124-PadB)*%
X229445500Y-34713000D03*
%TO.P,SW124,A*%
%TO.N,Net-(SW124-PadA)*%
X243034500Y-34713000D03*
D16*
%TO.P,SW124,E*%
%TO.N,Net-(SW124-PadE)*%
X236240000Y-49000000D03*
%TO.P,SW124,C*%
%TO.N,Net-(SW124-PadC)*%
X236240000Y-36300000D03*
%TO.P,SW124,D*%
%TO.N,Net-(SW124-PadD)*%
X236240000Y-42650000D03*
%TD*%
D13*
%TO.P,SW123,REF*%
%TO.N,Net-(SW123-PadREF)*%
X185112500Y-42650000D03*
D14*
%TO.P,SW123,ROW*%
%TO.N,ROW_1*%
X193685000Y-42650000D03*
D15*
%TO.P,SW123,B*%
%TO.N,Net-(SW123-PadB)*%
X182445500Y-34713000D03*
%TO.P,SW123,A*%
%TO.N,Net-(SW123-PadA)*%
X196034500Y-34713000D03*
D16*
%TO.P,SW123,E*%
%TO.N,Net-(SW123-PadE)*%
X189240000Y-49000000D03*
%TO.P,SW123,C*%
%TO.N,Net-(SW123-PadC)*%
X189240000Y-36300000D03*
%TO.P,SW123,D*%
%TO.N,Net-(SW123-PadD)*%
X189240000Y-42650000D03*
%TD*%
D13*
%TO.P,SW121,REF*%
%TO.N,Net-(SW121-PadREF)*%
X85862500Y-42650000D03*
D14*
%TO.P,SW121,ROW*%
%TO.N,ROW_1*%
X94435000Y-42650000D03*
D15*
%TO.P,SW121,B*%
%TO.N,Net-(SW121-PadB)*%
X83195500Y-34713000D03*
%TO.P,SW121,A*%
%TO.N,Net-(SW121-PadA)*%
X96784500Y-34713000D03*
D16*
%TO.P,SW121,E*%
%TO.N,Net-(SW121-PadE)*%
X89990000Y-49000000D03*
%TO.P,SW121,C*%
%TO.N,Net-(SW121-PadC)*%
X89990000Y-36300000D03*
%TO.P,SW121,D*%
%TO.N,Net-(SW121-PadD)*%
X89990000Y-42650000D03*
%TD*%
D13*
%TO.P,SW120,REF*%
%TO.N,Net-(SW120-PadREF)*%
X5112500Y-42650000D03*
D14*
%TO.P,SW120,ROW*%
%TO.N,ROW_1*%
X13685000Y-42650000D03*
D15*
%TO.P,SW120,B*%
%TO.N,Net-(SW120-PadB)*%
X2445500Y-34713000D03*
%TO.P,SW120,A*%
%TO.N,Net-(SW120-PadA)*%
X16034500Y-34713000D03*
D16*
%TO.P,SW120,E*%
%TO.N,Net-(SW120-PadE)*%
X9240000Y-49000000D03*
%TO.P,SW120,C*%
%TO.N,Net-(SW120-PadC)*%
X9240000Y-36300000D03*
%TO.P,SW120,D*%
%TO.N,Net-(SW120-PadD)*%
X9240000Y-42650000D03*
%TD*%
D13*
%TO.P,SW119,REF*%
%TO.N,Net-(SW119-PadREF)*%
X-75637500Y-42650000D03*
D14*
%TO.P,SW119,ROW*%
%TO.N,ROW_1*%
X-67065000Y-42650000D03*
D15*
%TO.P,SW119,B*%
%TO.N,Net-(SW119-PadB)*%
X-78304500Y-34713000D03*
%TO.P,SW119,A*%
%TO.N,Net-(SW119-PadA)*%
X-64715500Y-34713000D03*
D16*
%TO.P,SW119,E*%
%TO.N,Net-(SW119-PadE)*%
X-71510000Y-49000000D03*
%TO.P,SW119,C*%
%TO.N,Net-(SW119-PadC)*%
X-71510000Y-36300000D03*
%TO.P,SW119,D*%
%TO.N,Net-(SW119-PadD)*%
X-71510000Y-42650000D03*
%TD*%
D13*
%TO.P,SW116,REF*%
%TO.N,Net-(SW116-PadREF)*%
X-174887500Y-42650000D03*
D14*
%TO.P,SW116,ROW*%
%TO.N,ROW_1*%
X-166315000Y-42650000D03*
D15*
%TO.P,SW116,B*%
%TO.N,Net-(SW116-PadB)*%
X-177554500Y-34713000D03*
%TO.P,SW116,A*%
%TO.N,Net-(SW116-PadA)*%
X-163965500Y-34713000D03*
D16*
%TO.P,SW116,E*%
%TO.N,Net-(SW116-PadE)*%
X-170760000Y-49000000D03*
%TO.P,SW116,C*%
%TO.N,Net-(SW116-PadC)*%
X-170760000Y-36300000D03*
%TO.P,SW116,D*%
%TO.N,Net-(SW116-PadD)*%
X-170760000Y-42650000D03*
%TD*%
D13*
%TO.P,SW115,REF*%
%TO.N,Net-(SW115-PadREF)*%
X289112500Y-21650000D03*
D14*
%TO.P,SW115,ROW*%
%TO.N,ROW_2*%
X297685000Y-21650000D03*
D15*
%TO.P,SW115,B*%
%TO.N,Net-(SW115-PadB)*%
X286445500Y-13713000D03*
%TO.P,SW115,A*%
%TO.N,Net-(SW115-PadA)*%
X300034500Y-13713000D03*
D16*
%TO.P,SW115,E*%
%TO.N,Net-(SW115-PadE)*%
X293240000Y-28000000D03*
%TO.P,SW115,C*%
%TO.N,Net-(SW115-PadC)*%
X293240000Y-15300000D03*
%TO.P,SW115,D*%
%TO.N,Net-(SW115-PadD)*%
X293240000Y-21650000D03*
%TD*%
D13*
%TO.P,SW112,REF*%
%TO.N,Net-(SW112-PadREF)*%
X232112500Y-21650000D03*
D14*
%TO.P,SW112,ROW*%
%TO.N,ROW_2*%
X240685000Y-21650000D03*
D15*
%TO.P,SW112,B*%
%TO.N,Net-(SW112-PadB)*%
X229445500Y-13713000D03*
%TO.P,SW112,A*%
%TO.N,Net-(SW112-PadA)*%
X243034500Y-13713000D03*
D16*
%TO.P,SW112,E*%
%TO.N,Net-(SW112-PadE)*%
X236240000Y-28000000D03*
%TO.P,SW112,C*%
%TO.N,Net-(SW112-PadC)*%
X236240000Y-15300000D03*
%TO.P,SW112,D*%
%TO.N,Net-(SW112-PadD)*%
X236240000Y-21650000D03*
%TD*%
D13*
%TO.P,SW110,REF*%
%TO.N,Net-(SW110-PadREF)*%
X185112500Y-21650000D03*
D14*
%TO.P,SW110,ROW*%
%TO.N,ROW_3*%
X193685000Y-21650000D03*
D15*
%TO.P,SW110,B*%
%TO.N,Net-(SW110-PadB)*%
X182445500Y-13713000D03*
%TO.P,SW110,A*%
%TO.N,Net-(SW110-PadA)*%
X196034500Y-13713000D03*
D16*
%TO.P,SW110,E*%
%TO.N,Net-(SW110-PadE)*%
X189240000Y-28000000D03*
%TO.P,SW110,C*%
%TO.N,Net-(SW110-PadC)*%
X189240000Y-15300000D03*
%TO.P,SW110,D*%
%TO.N,Net-(SW110-PadD)*%
X189240000Y-21650000D03*
%TD*%
D13*
%TO.P,SW106,REF*%
%TO.N,Net-(SW106-PadREF)*%
X85862500Y-21650000D03*
D14*
%TO.P,SW106,ROW*%
%TO.N,ROW_2*%
X94435000Y-21650000D03*
D15*
%TO.P,SW106,B*%
%TO.N,Net-(SW106-PadB)*%
X83195500Y-13713000D03*
%TO.P,SW106,A*%
%TO.N,Net-(SW106-PadA)*%
X96784500Y-13713000D03*
D16*
%TO.P,SW106,E*%
%TO.N,Net-(SW106-PadE)*%
X89990000Y-28000000D03*
%TO.P,SW106,C*%
%TO.N,Net-(SW106-PadC)*%
X89990000Y-15300000D03*
%TO.P,SW106,D*%
%TO.N,Net-(SW106-PadD)*%
X89990000Y-21650000D03*
%TD*%
D13*
%TO.P,SW104,REF*%
%TO.N,Net-(SW104-PadREF)*%
X47862500Y-21650000D03*
D14*
%TO.P,SW104,ROW*%
%TO.N,ROW_1*%
X56435000Y-21650000D03*
D15*
%TO.P,SW104,B*%
%TO.N,Net-(SW104-PadB)*%
X45195500Y-13713000D03*
%TO.P,SW104,A*%
%TO.N,Net-(SW104-PadA)*%
X58784500Y-13713000D03*
D16*
%TO.P,SW104,E*%
%TO.N,Net-(SW104-PadE)*%
X51990000Y-28000000D03*
%TO.P,SW104,C*%
%TO.N,Net-(SW104-PadC)*%
X51990000Y-15300000D03*
%TO.P,SW104,D*%
%TO.N,Net-(SW104-PadD)*%
X51990000Y-21650000D03*
%TD*%
D13*
%TO.P,SW103,REF*%
%TO.N,Net-(SW103-PadREF)*%
X28862500Y-21650000D03*
D14*
%TO.P,SW103,ROW*%
%TO.N,ROW_2*%
X37435000Y-21650000D03*
D15*
%TO.P,SW103,B*%
%TO.N,Net-(SW103-PadB)*%
X26195500Y-13713000D03*
%TO.P,SW103,A*%
%TO.N,Net-(SW103-PadA)*%
X39784500Y-13713000D03*
D16*
%TO.P,SW103,E*%
%TO.N,Net-(SW103-PadE)*%
X32990000Y-28000000D03*
%TO.P,SW103,C*%
%TO.N,Net-(SW103-PadC)*%
X32990000Y-15300000D03*
%TO.P,SW103,D*%
%TO.N,Net-(SW103-PadD)*%
X32990000Y-21650000D03*
%TD*%
D13*
%TO.P,SW102,REF*%
%TO.N,Net-(SW102-PadREF)*%
X9862500Y-21650000D03*
D14*
%TO.P,SW102,ROW*%
%TO.N,ROW_1*%
X18435000Y-21650000D03*
D15*
%TO.P,SW102,B*%
%TO.N,Net-(SW102-PadB)*%
X7195500Y-13713000D03*
%TO.P,SW102,A*%
%TO.N,Net-(SW102-PadA)*%
X20784500Y-13713000D03*
D16*
%TO.P,SW102,E*%
%TO.N,Net-(SW102-PadE)*%
X13990000Y-28000000D03*
%TO.P,SW102,C*%
%TO.N,Net-(SW102-PadC)*%
X13990000Y-15300000D03*
%TO.P,SW102,D*%
%TO.N,Net-(SW102-PadD)*%
X13990000Y-21650000D03*
%TD*%
D13*
%TO.P,SW100,REF*%
%TO.N,Net-(SW100-PadREF)*%
X-28137500Y-21650000D03*
D14*
%TO.P,SW100,ROW*%
%TO.N,ROW_2*%
X-19565000Y-21650000D03*
D15*
%TO.P,SW100,B*%
%TO.N,Net-(SW100-PadB)*%
X-30804500Y-13713000D03*
%TO.P,SW100,A*%
%TO.N,Net-(SW100-PadA)*%
X-17215500Y-13713000D03*
D16*
%TO.P,SW100,E*%
%TO.N,Net-(SW100-PadE)*%
X-24010000Y-28000000D03*
%TO.P,SW100,C*%
%TO.N,Net-(SW100-PadC)*%
X-24010000Y-15300000D03*
%TO.P,SW100,D*%
%TO.N,Net-(SW100-PadD)*%
X-24010000Y-21650000D03*
%TD*%
D13*
%TO.P,SW99,REF*%
%TO.N,Net-(SW99-PadREF)*%
X-47137500Y-21650000D03*
D14*
%TO.P,SW99,ROW*%
%TO.N,ROW_1*%
X-38565000Y-21650000D03*
D15*
%TO.P,SW99,B*%
%TO.N,Net-(SW99-PadB)*%
X-49804500Y-13713000D03*
%TO.P,SW99,A*%
%TO.N,Net-(SW99-PadA)*%
X-36215500Y-13713000D03*
D16*
%TO.P,SW99,E*%
%TO.N,Net-(SW99-PadE)*%
X-43010000Y-28000000D03*
%TO.P,SW99,C*%
%TO.N,Net-(SW99-PadC)*%
X-43010000Y-15300000D03*
%TO.P,SW99,D*%
%TO.N,Net-(SW99-PadD)*%
X-43010000Y-21650000D03*
%TD*%
D13*
%TO.P,SW96,REF*%
%TO.N,Net-(SW96-PadREF)*%
X-104137500Y-21650000D03*
D14*
%TO.P,SW96,ROW*%
%TO.N,ROW_3*%
X-95565000Y-21650000D03*
D15*
%TO.P,SW96,B*%
%TO.N,Net-(SW96-PadB)*%
X-106804500Y-13713000D03*
%TO.P,SW96,A*%
%TO.N,Net-(SW96-PadA)*%
X-93215500Y-13713000D03*
D16*
%TO.P,SW96,E*%
%TO.N,Net-(SW96-PadE)*%
X-100010000Y-28000000D03*
%TO.P,SW96,C*%
%TO.N,Net-(SW96-PadC)*%
X-100010000Y-15300000D03*
%TO.P,SW96,D*%
%TO.N,Net-(SW96-PadD)*%
X-100010000Y-21650000D03*
%TD*%
D13*
%TO.P,SW93,REF*%
%TO.N,Net-(SW93-PadREF)*%
X-174887500Y-21650000D03*
D14*
%TO.P,SW93,ROW*%
%TO.N,ROW_2*%
X-166315000Y-21650000D03*
D15*
%TO.P,SW93,B*%
%TO.N,Net-(SW93-PadB)*%
X-177554500Y-13713000D03*
%TO.P,SW93,A*%
%TO.N,Net-(SW93-PadA)*%
X-163965500Y-13713000D03*
D16*
%TO.P,SW93,E*%
%TO.N,Net-(SW93-PadE)*%
X-170760000Y-28000000D03*
%TO.P,SW93,C*%
%TO.N,Net-(SW93-PadC)*%
X-170760000Y-15300000D03*
%TO.P,SW93,D*%
%TO.N,Net-(SW93-PadD)*%
X-170760000Y-21650000D03*
%TD*%
D13*
%TO.P,SW91,REF*%
%TO.N,Net-(SW91-PadREF)*%
X270112500Y-650000D03*
D14*
%TO.P,SW91,ROW*%
%TO.N,ROW_5*%
X278685000Y-650000D03*
D15*
%TO.P,SW91,B*%
%TO.N,Net-(SW91-PadB)*%
X267445500Y7287000D03*
%TO.P,SW91,A*%
%TO.N,Net-(SW91-PadA)*%
X281034500Y7287000D03*
D16*
%TO.P,SW91,E*%
%TO.N,Net-(SW91-PadE)*%
X274240000Y-7000000D03*
%TO.P,SW91,C*%
%TO.N,Net-(SW91-PadC)*%
X274240000Y5700000D03*
%TO.P,SW91,D*%
%TO.N,Net-(SW91-PadD)*%
X274240000Y-650000D03*
%TD*%
D13*
%TO.P,SW89,REF*%
%TO.N,Net-(SW89-PadREF)*%
X232112500Y-650000D03*
D14*
%TO.P,SW89,ROW*%
%TO.N,ROW_4*%
X240685000Y-650000D03*
D15*
%TO.P,SW89,B*%
%TO.N,Net-(SW89-PadB)*%
X229445500Y7287000D03*
%TO.P,SW89,A*%
%TO.N,Net-(SW89-PadA)*%
X243034500Y7287000D03*
D16*
%TO.P,SW89,E*%
%TO.N,Net-(SW89-PadE)*%
X236240000Y-7000000D03*
%TO.P,SW89,C*%
%TO.N,Net-(SW89-PadC)*%
X236240000Y5700000D03*
%TO.P,SW89,D*%
%TO.N,Net-(SW89-PadD)*%
X236240000Y-650000D03*
%TD*%
D13*
%TO.P,SW88,REF*%
%TO.N,Net-(SW88-PadREF)*%
X185112500Y-650000D03*
D14*
%TO.P,SW88,ROW*%
%TO.N,ROW_4*%
X193685000Y-650000D03*
D15*
%TO.P,SW88,B*%
%TO.N,Net-(SW88-PadB)*%
X182445500Y7287000D03*
%TO.P,SW88,A*%
%TO.N,Net-(SW88-PadA)*%
X196034500Y7287000D03*
D16*
%TO.P,SW88,E*%
%TO.N,Net-(SW88-PadE)*%
X189240000Y-7000000D03*
%TO.P,SW88,C*%
%TO.N,Net-(SW88-PadC)*%
X189240000Y5700000D03*
%TO.P,SW88,D*%
%TO.N,Net-(SW88-PadD)*%
X189240000Y-650000D03*
%TD*%
D13*
%TO.P,SW86,REF*%
%TO.N,Net-(SW86-PadREF)*%
X114362500Y-650000D03*
D14*
%TO.P,SW86,ROW*%
%TO.N,ROW_4*%
X122935000Y-650000D03*
D15*
%TO.P,SW86,B*%
%TO.N,Net-(SW86-PadB)*%
X111695500Y7287000D03*
%TO.P,SW86,A*%
%TO.N,Net-(SW86-PadA)*%
X125284500Y7287000D03*
D16*
%TO.P,SW86,E*%
%TO.N,Net-(SW86-PadE)*%
X118490000Y-7000000D03*
%TO.P,SW86,C*%
%TO.N,Net-(SW86-PadC)*%
X118490000Y5700000D03*
%TO.P,SW86,D*%
%TO.N,Net-(SW86-PadD)*%
X118490000Y-650000D03*
%TD*%
D13*
%TO.P,SW84,REF*%
%TO.N,Net-(SW84-PadREF)*%
X76362500Y-650000D03*
D14*
%TO.P,SW84,ROW*%
%TO.N,ROW_4*%
X84935000Y-650000D03*
D15*
%TO.P,SW84,B*%
%TO.N,Net-(SW84-PadB)*%
X73695500Y7287000D03*
%TO.P,SW84,A*%
%TO.N,Net-(SW84-PadA)*%
X87284500Y7287000D03*
D16*
%TO.P,SW84,E*%
%TO.N,Net-(SW84-PadE)*%
X80490000Y-7000000D03*
%TO.P,SW84,C*%
%TO.N,Net-(SW84-PadC)*%
X80490000Y5700000D03*
%TO.P,SW84,D*%
%TO.N,Net-(SW84-PadD)*%
X80490000Y-650000D03*
%TD*%
D13*
%TO.P,SW82,REF*%
%TO.N,Net-(SW82-PadREF)*%
X38362500Y-650000D03*
D14*
%TO.P,SW82,ROW*%
%TO.N,ROW_2*%
X46935000Y-650000D03*
D15*
%TO.P,SW82,B*%
%TO.N,Net-(SW82-PadB)*%
X35695500Y7287000D03*
%TO.P,SW82,A*%
%TO.N,Net-(SW82-PadA)*%
X49284500Y7287000D03*
D16*
%TO.P,SW82,E*%
%TO.N,Net-(SW82-PadE)*%
X42490000Y-7000000D03*
%TO.P,SW82,C*%
%TO.N,Net-(SW82-PadC)*%
X42490000Y5700000D03*
%TO.P,SW82,D*%
%TO.N,Net-(SW82-PadD)*%
X42490000Y-650000D03*
%TD*%
D13*
%TO.P,SW80,REF*%
%TO.N,Net-(SW80-PadREF)*%
X362500Y-650000D03*
D14*
%TO.P,SW80,ROW*%
%TO.N,ROW_3*%
X8935000Y-650000D03*
D15*
%TO.P,SW80,B*%
%TO.N,Net-(SW80-PadB)*%
X-2304500Y7287000D03*
%TO.P,SW80,A*%
%TO.N,Net-(SW80-PadA)*%
X11284500Y7287000D03*
D16*
%TO.P,SW80,E*%
%TO.N,Net-(SW80-PadE)*%
X4490000Y-7000000D03*
%TO.P,SW80,C*%
%TO.N,Net-(SW80-PadC)*%
X4490000Y5700000D03*
%TO.P,SW80,D*%
%TO.N,Net-(SW80-PadD)*%
X4490000Y-650000D03*
%TD*%
D13*
%TO.P,SW78,REF*%
%TO.N,Net-(SW78-PadREF)*%
X-37637500Y-650000D03*
D14*
%TO.P,SW78,ROW*%
%TO.N,ROW_3*%
X-29065000Y-650000D03*
D15*
%TO.P,SW78,B*%
%TO.N,Net-(SW78-PadB)*%
X-40304500Y7287000D03*
%TO.P,SW78,A*%
%TO.N,Net-(SW78-PadA)*%
X-26715500Y7287000D03*
D16*
%TO.P,SW78,E*%
%TO.N,Net-(SW78-PadE)*%
X-33510000Y-7000000D03*
%TO.P,SW78,C*%
%TO.N,Net-(SW78-PadC)*%
X-33510000Y5700000D03*
%TO.P,SW78,D*%
%TO.N,Net-(SW78-PadD)*%
X-33510000Y-650000D03*
%TD*%
D13*
%TO.P,SW76,REF*%
%TO.N,Net-(SW76-PadREF)*%
X-75637500Y-650000D03*
D14*
%TO.P,SW76,ROW*%
%TO.N,ROW_3*%
X-67065000Y-650000D03*
D15*
%TO.P,SW76,B*%
%TO.N,Net-(SW76-PadB)*%
X-78304500Y7287000D03*
%TO.P,SW76,A*%
%TO.N,Net-(SW76-PadA)*%
X-64715500Y7287000D03*
D16*
%TO.P,SW76,E*%
%TO.N,Net-(SW76-PadE)*%
X-71510000Y-7000000D03*
%TO.P,SW76,C*%
%TO.N,Net-(SW76-PadC)*%
X-71510000Y5700000D03*
%TO.P,SW76,D*%
%TO.N,Net-(SW76-PadD)*%
X-71510000Y-650000D03*
%TD*%
D13*
%TO.P,SW72,REF*%
%TO.N,Net-(SW72-PadREF)*%
X-174887500Y-650000D03*
D14*
%TO.P,SW72,ROW*%
%TO.N,ROW_3*%
X-166315000Y-650000D03*
D15*
%TO.P,SW72,B*%
%TO.N,Net-(SW72-PadB)*%
X-177554500Y7287000D03*
%TO.P,SW72,A*%
%TO.N,Net-(SW72-PadA)*%
X-163965500Y7287000D03*
D16*
%TO.P,SW72,E*%
%TO.N,Net-(SW72-PadE)*%
X-170760000Y-7000000D03*
%TO.P,SW72,C*%
%TO.N,Net-(SW72-PadC)*%
X-170760000Y5700000D03*
%TO.P,SW72,D*%
%TO.N,Net-(SW72-PadD)*%
X-170760000Y-650000D03*
%TD*%
D13*
%TO.P,SW71,REF*%
%TO.N,Net-(SW71-PadREF)*%
X289112500Y20350000D03*
D14*
%TO.P,SW71,ROW*%
%TO.N,ROW_5*%
X297685000Y20350000D03*
D15*
%TO.P,SW71,B*%
%TO.N,Net-(SW71-PadB)*%
X286445500Y28287000D03*
%TO.P,SW71,A*%
%TO.N,Net-(SW71-PadA)*%
X300034500Y28287000D03*
D16*
%TO.P,SW71,E*%
%TO.N,Net-(SW71-PadE)*%
X293240000Y14000000D03*
%TO.P,SW71,C*%
%TO.N,Net-(SW71-PadC)*%
X293240000Y26700000D03*
%TO.P,SW71,D*%
%TO.N,Net-(SW71-PadD)*%
X293240000Y20350000D03*
%TD*%
D13*
%TO.P,SW68,REF*%
%TO.N,Net-(SW68-PadREF)*%
X232112500Y20350000D03*
D14*
%TO.P,SW68,ROW*%
%TO.N,ROW_5*%
X240685000Y20350000D03*
D15*
%TO.P,SW68,B*%
%TO.N,Net-(SW68-PadB)*%
X229445500Y28287000D03*
%TO.P,SW68,A*%
%TO.N,Net-(SW68-PadA)*%
X243034500Y28287000D03*
D16*
%TO.P,SW68,E*%
%TO.N,Net-(SW68-PadE)*%
X236240000Y14000000D03*
%TO.P,SW68,C*%
%TO.N,Net-(SW68-PadC)*%
X236240000Y26700000D03*
%TO.P,SW68,D*%
%TO.N,Net-(SW68-PadD)*%
X236240000Y20350000D03*
%TD*%
D13*
%TO.P,SW66,REF*%
%TO.N,Net-(SW66-PadREF)*%
X185112500Y20350000D03*
D14*
%TO.P,SW66,ROW*%
%TO.N,ROW_6*%
X193685000Y20350000D03*
D15*
%TO.P,SW66,B*%
%TO.N,Net-(SW66-PadB)*%
X182445500Y28287000D03*
%TO.P,SW66,A*%
%TO.N,Net-(SW66-PadA)*%
X196034500Y28287000D03*
D16*
%TO.P,SW66,E*%
%TO.N,Net-(SW66-PadE)*%
X189240000Y14000000D03*
%TO.P,SW66,C*%
%TO.N,Net-(SW66-PadC)*%
X189240000Y26700000D03*
%TO.P,SW66,D*%
%TO.N,Net-(SW66-PadD)*%
X189240000Y20350000D03*
%TD*%
%TO.P,SW64,D*%
%TO.N,Net-(SW64-PadD)*%
X137490000Y20350000D03*
%TO.P,SW64,C*%
%TO.N,Net-(SW64-PadC)*%
X137490000Y26700000D03*
%TO.P,SW64,E*%
%TO.N,Net-(SW64-PadE)*%
X137490000Y14000000D03*
D15*
%TO.P,SW64,A*%
%TO.N,Net-(SW64-PadA)*%
X144284500Y28287000D03*
%TO.P,SW64,B*%
%TO.N,Net-(SW64-PadB)*%
X130695500Y28287000D03*
D14*
%TO.P,SW64,ROW*%
%TO.N,ROW_5*%
X141935000Y20350000D03*
D13*
%TO.P,SW64,REF*%
%TO.N,Net-(SW64-PadREF)*%
X133362500Y20350000D03*
%TD*%
%TO.P,SW60,REF*%
%TO.N,Net-(SW60-PadREF)*%
X52612500Y20350000D03*
D14*
%TO.P,SW60,ROW*%
%TO.N,ROW_4*%
X61185000Y20350000D03*
D15*
%TO.P,SW60,B*%
%TO.N,Net-(SW60-PadB)*%
X49945500Y28287000D03*
%TO.P,SW60,A*%
%TO.N,Net-(SW60-PadA)*%
X63534500Y28287000D03*
D16*
%TO.P,SW60,E*%
%TO.N,Net-(SW60-PadE)*%
X56740000Y14000000D03*
%TO.P,SW60,C*%
%TO.N,Net-(SW60-PadC)*%
X56740000Y26700000D03*
%TO.P,SW60,D*%
%TO.N,Net-(SW60-PadD)*%
X56740000Y20350000D03*
%TD*%
D13*
%TO.P,SW57,REF*%
%TO.N,Net-(SW57-PadREF)*%
X-4387500Y20350000D03*
D14*
%TO.P,SW57,ROW*%
%TO.N,ROW_5*%
X4185000Y20350000D03*
D15*
%TO.P,SW57,B*%
%TO.N,Net-(SW57-PadB)*%
X-7054500Y28287000D03*
%TO.P,SW57,A*%
%TO.N,Net-(SW57-PadA)*%
X6534500Y28287000D03*
D16*
%TO.P,SW57,E*%
%TO.N,Net-(SW57-PadE)*%
X-260000Y14000000D03*
%TO.P,SW57,C*%
%TO.N,Net-(SW57-PadC)*%
X-260000Y26700000D03*
%TO.P,SW57,D*%
%TO.N,Net-(SW57-PadD)*%
X-260000Y20350000D03*
%TD*%
D13*
%TO.P,SW56,REF*%
%TO.N,Net-(SW56-PadREF)*%
X-23387500Y20350000D03*
D14*
%TO.P,SW56,ROW*%
%TO.N,ROW_4*%
X-14815000Y20350000D03*
D15*
%TO.P,SW56,B*%
%TO.N,Net-(SW56-PadB)*%
X-26054500Y28287000D03*
%TO.P,SW56,A*%
%TO.N,Net-(SW56-PadA)*%
X-12465500Y28287000D03*
D16*
%TO.P,SW56,E*%
%TO.N,Net-(SW56-PadE)*%
X-19260000Y14000000D03*
%TO.P,SW56,C*%
%TO.N,Net-(SW56-PadC)*%
X-19260000Y26700000D03*
%TO.P,SW56,D*%
%TO.N,Net-(SW56-PadD)*%
X-19260000Y20350000D03*
%TD*%
D13*
%TO.P,SW53,REF*%
%TO.N,Net-(SW53-PadREF)*%
X-80387500Y20350000D03*
D14*
%TO.P,SW53,ROW*%
%TO.N,ROW_5*%
X-71815000Y20350000D03*
D15*
%TO.P,SW53,B*%
%TO.N,Net-(SW53-PadB)*%
X-83054500Y28287000D03*
%TO.P,SW53,A*%
%TO.N,Net-(SW53-PadA)*%
X-69465500Y28287000D03*
D16*
%TO.P,SW53,E*%
%TO.N,Net-(SW53-PadE)*%
X-76260000Y14000000D03*
%TO.P,SW53,C*%
%TO.N,Net-(SW53-PadC)*%
X-76260000Y26700000D03*
%TO.P,SW53,D*%
%TO.N,Net-(SW53-PadD)*%
X-76260000Y20350000D03*
%TD*%
D13*
%TO.P,SW52,REF*%
%TO.N,Net-(SW52-PadREF)*%
X-99387500Y20350000D03*
D14*
%TO.P,SW52,ROW*%
%TO.N,ROW_5*%
X-90815000Y20350000D03*
D15*
%TO.P,SW52,B*%
%TO.N,Net-(SW52-PadB)*%
X-102054500Y28287000D03*
%TO.P,SW52,A*%
%TO.N,Net-(SW52-PadA)*%
X-88465500Y28287000D03*
D16*
%TO.P,SW52,E*%
%TO.N,Net-(SW52-PadE)*%
X-95260000Y14000000D03*
%TO.P,SW52,C*%
%TO.N,Net-(SW52-PadC)*%
X-95260000Y26700000D03*
%TO.P,SW52,D*%
%TO.N,Net-(SW52-PadD)*%
X-95260000Y20350000D03*
%TD*%
D13*
%TO.P,SW51,REF*%
%TO.N,Net-(SW51-PadREF)*%
X-123137500Y20350000D03*
D14*
%TO.P,SW51,ROW*%
%TO.N,ROW_5*%
X-114565000Y20350000D03*
D15*
%TO.P,SW51,B*%
%TO.N,Net-(SW51-PadB)*%
X-125804500Y28287000D03*
%TO.P,SW51,A*%
%TO.N,Net-(SW51-PadA)*%
X-112215500Y28287000D03*
D16*
%TO.P,SW51,E*%
%TO.N,Net-(SW51-PadE)*%
X-119010000Y14000000D03*
%TO.P,SW51,C*%
%TO.N,Net-(SW51-PadC)*%
X-119010000Y26700000D03*
%TO.P,SW51,D*%
%TO.N,Net-(SW51-PadD)*%
X-119010000Y20350000D03*
%TD*%
D13*
%TO.P,SW49,REF*%
%TO.N,Net-(SW49-PadREF)*%
X-174887500Y20350000D03*
D14*
%TO.P,SW49,ROW*%
%TO.N,ROW_4*%
X-166315000Y20350000D03*
D15*
%TO.P,SW49,B*%
%TO.N,Net-(SW49-PadB)*%
X-177554500Y28287000D03*
%TO.P,SW49,A*%
%TO.N,Net-(SW49-PadA)*%
X-163965500Y28287000D03*
D16*
%TO.P,SW49,E*%
%TO.N,Net-(SW49-PadE)*%
X-170760000Y14000000D03*
%TO.P,SW49,C*%
%TO.N,Net-(SW49-PadC)*%
X-170760000Y26700000D03*
%TO.P,SW49,D*%
%TO.N,Net-(SW49-PadD)*%
X-170760000Y20350000D03*
%TD*%
D13*
%TO.P,SW48,REF*%
%TO.N,Net-(SW48-PadREF)*%
X289112500Y41350000D03*
D14*
%TO.P,SW48,ROW*%
%TO.N,ROW_8*%
X297685000Y41350000D03*
D15*
%TO.P,SW48,B*%
%TO.N,Net-(SW48-PadB)*%
X286445500Y49287000D03*
%TO.P,SW48,A*%
%TO.N,Net-(SW48-PadA)*%
X300034500Y49287000D03*
D16*
%TO.P,SW48,E*%
%TO.N,Net-(SW48-PadE)*%
X293240000Y35000000D03*
%TO.P,SW48,C*%
%TO.N,Net-(SW48-PadC)*%
X293240000Y47700000D03*
%TO.P,SW48,D*%
%TO.N,Net-(SW48-PadD)*%
X293240000Y41350000D03*
%TD*%
D13*
%TO.P,SW46,REF*%
%TO.N,Net-(SW46-PadREF)*%
X251112500Y41350000D03*
D14*
%TO.P,SW46,ROW*%
%TO.N,ROW_8*%
X259685000Y41350000D03*
D15*
%TO.P,SW46,B*%
%TO.N,Net-(SW46-PadB)*%
X248445500Y49287000D03*
%TO.P,SW46,A*%
%TO.N,Net-(SW46-PadA)*%
X262034500Y49287000D03*
D16*
%TO.P,SW46,E*%
%TO.N,Net-(SW46-PadE)*%
X255240000Y35000000D03*
%TO.P,SW46,C*%
%TO.N,Net-(SW46-PadC)*%
X255240000Y47700000D03*
%TO.P,SW46,D*%
%TO.N,Net-(SW46-PadD)*%
X255240000Y41350000D03*
%TD*%
D13*
%TO.P,SW44,REF*%
%TO.N,Net-(SW44-PadREF)*%
X204112500Y41350000D03*
D14*
%TO.P,SW44,ROW*%
%TO.N,ROW_8*%
X212685000Y41350000D03*
D15*
%TO.P,SW44,B*%
%TO.N,Net-(SW44-PadB)*%
X201445500Y49287000D03*
%TO.P,SW44,A*%
%TO.N,Net-(SW44-PadA)*%
X215034500Y49287000D03*
D16*
%TO.P,SW44,E*%
%TO.N,Net-(SW44-PadE)*%
X208240000Y35000000D03*
%TO.P,SW44,C*%
%TO.N,Net-(SW44-PadC)*%
X208240000Y47700000D03*
%TO.P,SW44,D*%
%TO.N,Net-(SW44-PadD)*%
X208240000Y41350000D03*
%TD*%
D13*
%TO.P,SW42,REF*%
%TO.N,Net-(SW42-PadREF)*%
X166112500Y41350000D03*
D14*
%TO.P,SW42,ROW*%
%TO.N,ROW_8*%
X174685000Y41350000D03*
D15*
%TO.P,SW42,B*%
%TO.N,Net-(SW42-PadB)*%
X163445500Y49287000D03*
%TO.P,SW42,A*%
%TO.N,Net-(SW42-PadA)*%
X177034500Y49287000D03*
D16*
%TO.P,SW42,E*%
%TO.N,Net-(SW42-PadE)*%
X170240000Y35000000D03*
%TO.P,SW42,C*%
%TO.N,Net-(SW42-PadC)*%
X170240000Y47700000D03*
%TO.P,SW42,D*%
%TO.N,Net-(SW42-PadD)*%
X170240000Y41350000D03*
%TD*%
D13*
%TO.P,SW39,REF*%
%TO.N,Net-(SW39-PadREF)*%
X100112500Y41350000D03*
D14*
%TO.P,SW39,ROW*%
%TO.N,ROW_6*%
X108685000Y41350000D03*
D15*
%TO.P,SW39,B*%
%TO.N,Net-(SW39-PadB)*%
X97445500Y49287000D03*
%TO.P,SW39,A*%
%TO.N,Net-(SW39-PadA)*%
X111034500Y49287000D03*
D16*
%TO.P,SW39,E*%
%TO.N,Net-(SW39-PadE)*%
X104240000Y35000000D03*
%TO.P,SW39,C*%
%TO.N,Net-(SW39-PadC)*%
X104240000Y47700000D03*
%TO.P,SW39,D*%
%TO.N,Net-(SW39-PadD)*%
X104240000Y41350000D03*
%TD*%
D13*
%TO.P,SW37,REF*%
%TO.N,Net-(SW37-PadREF)*%
X62112500Y41350000D03*
D14*
%TO.P,SW37,ROW*%
%TO.N,ROW_5*%
X70685000Y41350000D03*
D15*
%TO.P,SW37,B*%
%TO.N,Net-(SW37-PadB)*%
X59445500Y49287000D03*
%TO.P,SW37,A*%
%TO.N,Net-(SW37-PadA)*%
X73034500Y49287000D03*
D16*
%TO.P,SW37,E*%
%TO.N,Net-(SW37-PadE)*%
X66240000Y35000000D03*
%TO.P,SW37,C*%
%TO.N,Net-(SW37-PadC)*%
X66240000Y47700000D03*
%TO.P,SW37,D*%
%TO.N,Net-(SW37-PadD)*%
X66240000Y41350000D03*
%TD*%
D13*
%TO.P,SW35,REF*%
%TO.N,Net-(SW35-PadREF)*%
X24112500Y41350000D03*
D14*
%TO.P,SW35,ROW*%
%TO.N,ROW_6*%
X32685000Y41350000D03*
D15*
%TO.P,SW35,B*%
%TO.N,Net-(SW35-PadB)*%
X21445500Y49287000D03*
%TO.P,SW35,A*%
%TO.N,Net-(SW35-PadA)*%
X35034500Y49287000D03*
D16*
%TO.P,SW35,E*%
%TO.N,Net-(SW35-PadE)*%
X28240000Y35000000D03*
%TO.P,SW35,C*%
%TO.N,Net-(SW35-PadC)*%
X28240000Y47700000D03*
%TO.P,SW35,D*%
%TO.N,Net-(SW35-PadD)*%
X28240000Y41350000D03*
%TD*%
D13*
%TO.P,SW33,REF*%
%TO.N,Net-(SW33-PadREF)*%
X-13887500Y41350000D03*
D14*
%TO.P,SW33,ROW*%
%TO.N,ROW_6*%
X-5315000Y41350000D03*
D15*
%TO.P,SW33,B*%
%TO.N,Net-(SW33-PadB)*%
X-16554500Y49287000D03*
%TO.P,SW33,A*%
%TO.N,Net-(SW33-PadA)*%
X-2965500Y49287000D03*
D16*
%TO.P,SW33,E*%
%TO.N,Net-(SW33-PadE)*%
X-9760000Y35000000D03*
%TO.P,SW33,C*%
%TO.N,Net-(SW33-PadC)*%
X-9760000Y47700000D03*
%TO.P,SW33,D*%
%TO.N,Net-(SW33-PadD)*%
X-9760000Y41350000D03*
%TD*%
D13*
%TO.P,SW31,REF*%
%TO.N,Net-(SW31-PadREF)*%
X-51887500Y41350000D03*
D14*
%TO.P,SW31,ROW*%
%TO.N,ROW_5*%
X-43315000Y41350000D03*
D15*
%TO.P,SW31,B*%
%TO.N,Net-(SW31-PadB)*%
X-54554500Y49287000D03*
%TO.P,SW31,A*%
%TO.N,Net-(SW31-PadA)*%
X-40965500Y49287000D03*
D16*
%TO.P,SW31,E*%
%TO.N,Net-(SW31-PadE)*%
X-47760000Y35000000D03*
%TO.P,SW31,C*%
%TO.N,Net-(SW31-PadC)*%
X-47760000Y47700000D03*
%TO.P,SW31,D*%
%TO.N,Net-(SW31-PadD)*%
X-47760000Y41350000D03*
%TD*%
D13*
%TO.P,SW29,REF*%
%TO.N,Net-(SW29-PadREF)*%
X-89887500Y41350000D03*
D14*
%TO.P,SW29,ROW*%
%TO.N,ROW_6*%
X-81315000Y41350000D03*
D15*
%TO.P,SW29,B*%
%TO.N,Net-(SW29-PadB)*%
X-92554500Y49287000D03*
%TO.P,SW29,A*%
%TO.N,Net-(SW29-PadA)*%
X-78965500Y49287000D03*
D16*
%TO.P,SW29,E*%
%TO.N,Net-(SW29-PadE)*%
X-85760000Y35000000D03*
%TO.P,SW29,C*%
%TO.N,Net-(SW29-PadC)*%
X-85760000Y47700000D03*
%TO.P,SW29,D*%
%TO.N,Net-(SW29-PadD)*%
X-85760000Y41350000D03*
%TD*%
D13*
%TO.P,SW27,REF*%
%TO.N,Net-(SW27-PadREF)*%
X-127887500Y41350000D03*
D14*
%TO.P,SW27,ROW*%
%TO.N,ROW_6*%
X-119315000Y41350000D03*
D15*
%TO.P,SW27,B*%
%TO.N,Net-(SW27-PadB)*%
X-130554500Y49287000D03*
%TO.P,SW27,A*%
%TO.N,Net-(SW27-PadA)*%
X-116965500Y49287000D03*
D16*
%TO.P,SW27,E*%
%TO.N,Net-(SW27-PadE)*%
X-123760000Y35000000D03*
%TO.P,SW27,C*%
%TO.N,Net-(SW27-PadC)*%
X-123760000Y47700000D03*
%TO.P,SW27,D*%
%TO.N,Net-(SW27-PadD)*%
X-123760000Y41350000D03*
%TD*%
D13*
%TO.P,SW25,REF*%
%TO.N,Net-(SW25-PadREF)*%
X-174887500Y41350000D03*
D14*
%TO.P,SW25,ROW*%
%TO.N,ROW_5*%
X-166315000Y41350000D03*
D15*
%TO.P,SW25,B*%
%TO.N,Net-(SW25-PadB)*%
X-177554500Y49287000D03*
%TO.P,SW25,A*%
%TO.N,Net-(SW25-PadA)*%
X-163965500Y49287000D03*
D16*
%TO.P,SW25,E*%
%TO.N,Net-(SW25-PadE)*%
X-170760000Y35000000D03*
%TO.P,SW25,C*%
%TO.N,Net-(SW25-PadC)*%
X-170760000Y47700000D03*
%TO.P,SW25,D*%
%TO.N,Net-(SW25-PadD)*%
X-170760000Y41350000D03*
%TD*%
D13*
%TO.P,SW23,REF*%
%TO.N,Net-(SW23-PadREF)*%
X81112500Y83350000D03*
D14*
%TO.P,SW23,ROW*%
%TO.N,ROW_7*%
X89685000Y83350000D03*
D15*
%TO.P,SW23,B*%
%TO.N,Net-(SW23-PadB)*%
X78445500Y91287000D03*
%TO.P,SW23,A*%
%TO.N,Net-(SW23-PadA)*%
X92034500Y91287000D03*
D16*
%TO.P,SW23,E*%
%TO.N,Net-(SW23-PadE)*%
X85240000Y77000000D03*
%TO.P,SW23,C*%
%TO.N,Net-(SW23-PadC)*%
X85240000Y89700000D03*
%TO.P,SW23,D*%
%TO.N,Net-(SW23-PadD)*%
X85240000Y83350000D03*
%TD*%
D13*
%TO.P,SW21,REF*%
%TO.N,Net-(SW21-PadREF)*%
X43112500Y83350000D03*
D14*
%TO.P,SW21,ROW*%
%TO.N,ROW_7*%
X51685000Y83350000D03*
D15*
%TO.P,SW21,B*%
%TO.N,Net-(SW21-PadB)*%
X40445500Y91287000D03*
%TO.P,SW21,A*%
%TO.N,Net-(SW21-PadA)*%
X54034500Y91287000D03*
D16*
%TO.P,SW21,E*%
%TO.N,Net-(SW21-PadE)*%
X47240000Y77000000D03*
%TO.P,SW21,C*%
%TO.N,Net-(SW21-PadC)*%
X47240000Y89700000D03*
%TO.P,SW21,D*%
%TO.N,Net-(SW21-PadD)*%
X47240000Y83350000D03*
%TD*%
D13*
%TO.P,SW19,REF*%
%TO.N,Net-(SW19-PadREF)*%
X5112500Y83350000D03*
D14*
%TO.P,SW19,ROW*%
%TO.N,ROW_7*%
X13685000Y83350000D03*
D15*
%TO.P,SW19,B*%
%TO.N,Net-(SW19-PadB)*%
X2445500Y91287000D03*
%TO.P,SW19,A*%
%TO.N,Net-(SW19-PadA)*%
X16034500Y91287000D03*
D16*
%TO.P,SW19,E*%
%TO.N,Net-(SW19-PadE)*%
X9240000Y77000000D03*
%TO.P,SW19,C*%
%TO.N,Net-(SW19-PadC)*%
X9240000Y89700000D03*
%TO.P,SW19,D*%
%TO.N,Net-(SW19-PadD)*%
X9240000Y83350000D03*
%TD*%
D13*
%TO.P,SW17,REF*%
%TO.N,Net-(SW17-PadREF)*%
X-32887500Y83350000D03*
D14*
%TO.P,SW17,ROW*%
%TO.N,ROW_7*%
X-24315000Y83350000D03*
D15*
%TO.P,SW17,B*%
%TO.N,Net-(SW17-PadB)*%
X-35554500Y91287000D03*
%TO.P,SW17,A*%
%TO.N,Net-(SW17-PadA)*%
X-21965500Y91287000D03*
D16*
%TO.P,SW17,E*%
%TO.N,Net-(SW17-PadE)*%
X-28760000Y77000000D03*
%TO.P,SW17,C*%
%TO.N,Net-(SW17-PadC)*%
X-28760000Y89700000D03*
%TO.P,SW17,D*%
%TO.N,Net-(SW17-PadD)*%
X-28760000Y83350000D03*
%TD*%
D13*
%TO.P,SW15,REF*%
%TO.N,Net-(SW15-PadREF)*%
X-70887500Y83350000D03*
D14*
%TO.P,SW15,ROW*%
%TO.N,ROW_7*%
X-62315000Y83350000D03*
D15*
%TO.P,SW15,B*%
%TO.N,Net-(SW15-PadB)*%
X-73554500Y91287000D03*
%TO.P,SW15,A*%
%TO.N,Net-(SW15-PadA)*%
X-59965500Y91287000D03*
D16*
%TO.P,SW15,E*%
%TO.N,Net-(SW15-PadE)*%
X-66760000Y77000000D03*
%TO.P,SW15,C*%
%TO.N,Net-(SW15-PadC)*%
X-66760000Y89700000D03*
%TO.P,SW15,D*%
%TO.N,Net-(SW15-PadD)*%
X-66760000Y83350000D03*
%TD*%
D13*
%TO.P,SW13,REF*%
%TO.N,Net-(SW13-PadREF)*%
X-108887500Y83350000D03*
D14*
%TO.P,SW13,ROW*%
%TO.N,ROW_7*%
X-100315000Y83350000D03*
D15*
%TO.P,SW13,B*%
%TO.N,Net-(SW13-PadB)*%
X-111554500Y91287000D03*
%TO.P,SW13,A*%
%TO.N,Net-(SW13-PadA)*%
X-97965500Y91287000D03*
D16*
%TO.P,SW13,E*%
%TO.N,Net-(SW13-PadE)*%
X-104760000Y77000000D03*
%TO.P,SW13,C*%
%TO.N,Net-(SW13-PadC)*%
X-104760000Y89700000D03*
%TO.P,SW13,D*%
%TO.N,Net-(SW13-PadD)*%
X-104760000Y83350000D03*
%TD*%
D13*
%TO.P,SW11,REF*%
%TO.N,Net-(SW11-PadREF)*%
X81112500Y104350000D03*
D14*
%TO.P,SW11,ROW*%
%TO.N,ROW_8*%
X89685000Y104350000D03*
D15*
%TO.P,SW11,B*%
%TO.N,Net-(SW11-PadB)*%
X78445500Y112287000D03*
%TO.P,SW11,A*%
%TO.N,Net-(SW11-PadA)*%
X92034500Y112287000D03*
D16*
%TO.P,SW11,E*%
%TO.N,Net-(SW11-PadE)*%
X85240000Y98000000D03*
%TO.P,SW11,C*%
%TO.N,Net-(SW11-PadC)*%
X85240000Y110700000D03*
%TO.P,SW11,D*%
%TO.N,Net-(SW11-PadD)*%
X85240000Y104350000D03*
%TD*%
D13*
%TO.P,SW9,REF*%
%TO.N,Net-(SW9-PadREF)*%
X43112500Y104350000D03*
D14*
%TO.P,SW9,ROW*%
%TO.N,ROW_8*%
X51685000Y104350000D03*
D15*
%TO.P,SW9,B*%
%TO.N,Net-(SW9-PadB)*%
X40445500Y112287000D03*
%TO.P,SW9,A*%
%TO.N,Net-(SW9-PadA)*%
X54034500Y112287000D03*
D16*
%TO.P,SW9,E*%
%TO.N,Net-(SW9-PadE)*%
X47240000Y98000000D03*
%TO.P,SW9,C*%
%TO.N,Net-(SW9-PadC)*%
X47240000Y110700000D03*
%TO.P,SW9,D*%
%TO.N,Net-(SW9-PadD)*%
X47240000Y104350000D03*
%TD*%
D13*
%TO.P,SW7,REF*%
%TO.N,Net-(SW7-PadREF)*%
X5112500Y104350000D03*
D14*
%TO.P,SW7,ROW*%
%TO.N,ROW_8*%
X13685000Y104350000D03*
D15*
%TO.P,SW7,B*%
%TO.N,Net-(SW7-PadB)*%
X2445500Y112287000D03*
%TO.P,SW7,A*%
%TO.N,Net-(SW7-PadA)*%
X16034500Y112287000D03*
D16*
%TO.P,SW7,E*%
%TO.N,Net-(SW7-PadE)*%
X9240000Y98000000D03*
%TO.P,SW7,C*%
%TO.N,Net-(SW7-PadC)*%
X9240000Y110700000D03*
%TO.P,SW7,D*%
%TO.N,Net-(SW7-PadD)*%
X9240000Y104350000D03*
%TD*%
D13*
%TO.P,SW5,REF*%
%TO.N,Net-(SW5-PadREF)*%
X-32887500Y104350000D03*
D14*
%TO.P,SW5,ROW*%
%TO.N,ROW_8*%
X-24315000Y104350000D03*
D15*
%TO.P,SW5,B*%
%TO.N,Net-(SW5-PadB)*%
X-35554500Y112287000D03*
%TO.P,SW5,A*%
%TO.N,Net-(SW5-PadA)*%
X-21965500Y112287000D03*
D16*
%TO.P,SW5,E*%
%TO.N,Net-(SW5-PadE)*%
X-28760000Y98000000D03*
%TO.P,SW5,C*%
%TO.N,Net-(SW5-PadC)*%
X-28760000Y110700000D03*
%TO.P,SW5,D*%
%TO.N,Net-(SW5-PadD)*%
X-28760000Y104350000D03*
%TD*%
D13*
%TO.P,SW1,REF*%
%TO.N,Net-(SW1-PadREF)*%
X-108887500Y104350000D03*
D14*
%TO.P,SW1,ROW*%
%TO.N,ROW_8*%
X-100315000Y104350000D03*
D15*
%TO.P,SW1,B*%
%TO.N,Net-(SW1-PadB)*%
X-111554500Y112287000D03*
%TO.P,SW1,A*%
%TO.N,Net-(SW1-PadA)*%
X-97965500Y112287000D03*
D16*
%TO.P,SW1,E*%
%TO.N,Net-(SW1-PadE)*%
X-104760000Y98000000D03*
%TO.P,SW1,C*%
%TO.N,Net-(SW1-PadC)*%
X-104760000Y110700000D03*
%TO.P,SW1,D*%
%TO.N,Net-(SW1-PadD)*%
X-104760000Y104350000D03*
%TD*%
D13*
%TO.P,SW26,REF*%
%TO.N,Net-(SW26-PadREF)*%
X-147632500Y41350000D03*
D14*
%TO.P,SW26,ROW*%
%TO.N,ROW_6*%
X-156205000Y41350000D03*
D15*
%TO.P,SW26,B*%
%TO.N,Net-(SW26-PadB)*%
X-144965500Y49287000D03*
%TO.P,SW26,A*%
%TO.N,Net-(SW26-PadA)*%
X-158554500Y49287000D03*
D16*
%TO.P,SW26,E*%
%TO.N,Net-(SW26-PadE)*%
X-151760000Y35000000D03*
%TO.P,SW26,C*%
%TO.N,Net-(SW26-PadC)*%
X-151760000Y47700000D03*
%TO.P,SW26,D*%
%TO.N,Net-(SW26-PadD)*%
X-151760000Y41350000D03*
%TD*%
D13*
%TO.P,SW28,REF*%
%TO.N,Net-(SW28-PadREF)*%
X-100632500Y41350000D03*
D14*
%TO.P,SW28,ROW*%
%TO.N,ROW_6*%
X-109205000Y41350000D03*
D15*
%TO.P,SW28,B*%
%TO.N,Net-(SW28-PadB)*%
X-97965500Y49287000D03*
%TO.P,SW28,A*%
%TO.N,Net-(SW28-PadA)*%
X-111554500Y49287000D03*
D16*
%TO.P,SW28,E*%
%TO.N,Net-(SW28-PadE)*%
X-104760000Y35000000D03*
%TO.P,SW28,C*%
%TO.N,Net-(SW28-PadC)*%
X-104760000Y47700000D03*
%TO.P,SW28,D*%
%TO.N,Net-(SW28-PadD)*%
X-104760000Y41350000D03*
%TD*%
D13*
%TO.P,SW30,REF*%
%TO.N,Net-(SW30-PadREF)*%
X-62632500Y41350000D03*
D14*
%TO.P,SW30,ROW*%
%TO.N,ROW_6*%
X-71205000Y41350000D03*
D15*
%TO.P,SW30,B*%
%TO.N,Net-(SW30-PadB)*%
X-59965500Y49287000D03*
%TO.P,SW30,A*%
%TO.N,Net-(SW30-PadA)*%
X-73554500Y49287000D03*
D16*
%TO.P,SW30,E*%
%TO.N,Net-(SW30-PadE)*%
X-66760000Y35000000D03*
%TO.P,SW30,C*%
%TO.N,Net-(SW30-PadC)*%
X-66760000Y47700000D03*
%TO.P,SW30,D*%
%TO.N,Net-(SW30-PadD)*%
X-66760000Y41350000D03*
%TD*%
D13*
%TO.P,SW32,REF*%
%TO.N,Net-(SW32-PadREF)*%
X-24632500Y41350000D03*
D14*
%TO.P,SW32,ROW*%
%TO.N,ROW_6*%
X-33205000Y41350000D03*
D15*
%TO.P,SW32,B*%
%TO.N,Net-(SW32-PadB)*%
X-21965500Y49287000D03*
%TO.P,SW32,A*%
%TO.N,Net-(SW32-PadA)*%
X-35554500Y49287000D03*
D16*
%TO.P,SW32,E*%
%TO.N,Net-(SW32-PadE)*%
X-28760000Y35000000D03*
%TO.P,SW32,C*%
%TO.N,Net-(SW32-PadC)*%
X-28760000Y47700000D03*
%TO.P,SW32,D*%
%TO.N,Net-(SW32-PadD)*%
X-28760000Y41350000D03*
%TD*%
D13*
%TO.P,SW34,REF*%
%TO.N,Net-(SW34-PadREF)*%
X13367500Y41350000D03*
D14*
%TO.P,SW34,ROW*%
%TO.N,ROW_5*%
X4795000Y41350000D03*
D15*
%TO.P,SW34,B*%
%TO.N,Net-(SW34-PadB)*%
X16034500Y49287000D03*
%TO.P,SW34,A*%
%TO.N,Net-(SW34-PadA)*%
X2445500Y49287000D03*
D16*
%TO.P,SW34,E*%
%TO.N,Net-(SW34-PadE)*%
X9240000Y35000000D03*
%TO.P,SW34,C*%
%TO.N,Net-(SW34-PadC)*%
X9240000Y47700000D03*
%TO.P,SW34,D*%
%TO.N,Net-(SW34-PadD)*%
X9240000Y41350000D03*
%TD*%
D13*
%TO.P,SW36,REF*%
%TO.N,Net-(SW36-PadREF)*%
X51367500Y41350000D03*
D14*
%TO.P,SW36,ROW*%
%TO.N,ROW_6*%
X42795000Y41350000D03*
D15*
%TO.P,SW36,B*%
%TO.N,Net-(SW36-PadB)*%
X54034500Y49287000D03*
%TO.P,SW36,A*%
%TO.N,Net-(SW36-PadA)*%
X40445500Y49287000D03*
D16*
%TO.P,SW36,E*%
%TO.N,Net-(SW36-PadE)*%
X47240000Y35000000D03*
%TO.P,SW36,C*%
%TO.N,Net-(SW36-PadC)*%
X47240000Y47700000D03*
%TO.P,SW36,D*%
%TO.N,Net-(SW36-PadD)*%
X47240000Y41350000D03*
%TD*%
D13*
%TO.P,SW38,REF*%
%TO.N,Net-(SW38-PadREF)*%
X89367500Y41350000D03*
D14*
%TO.P,SW38,ROW*%
%TO.N,ROW_6*%
X80795000Y41350000D03*
D15*
%TO.P,SW38,B*%
%TO.N,Net-(SW38-PadB)*%
X92034500Y49287000D03*
%TO.P,SW38,A*%
%TO.N,Net-(SW38-PadA)*%
X78445500Y49287000D03*
D16*
%TO.P,SW38,E*%
%TO.N,Net-(SW38-PadE)*%
X85240000Y35000000D03*
%TO.P,SW38,C*%
%TO.N,Net-(SW38-PadC)*%
X85240000Y47700000D03*
%TO.P,SW38,D*%
%TO.N,Net-(SW38-PadD)*%
X85240000Y41350000D03*
%TD*%
D13*
%TO.P,SW40,REF*%
%TO.N,Net-(SW40-PadREF)*%
X127367500Y41350000D03*
D14*
%TO.P,SW40,ROW*%
%TO.N,ROW_6*%
X118795000Y41350000D03*
D15*
%TO.P,SW40,B*%
%TO.N,Net-(SW40-PadB)*%
X130034500Y49287000D03*
%TO.P,SW40,A*%
%TO.N,Net-(SW40-PadA)*%
X116445500Y49287000D03*
D16*
%TO.P,SW40,E*%
%TO.N,Net-(SW40-PadE)*%
X123240000Y35000000D03*
%TO.P,SW40,C*%
%TO.N,Net-(SW40-PadC)*%
X123240000Y47700000D03*
%TO.P,SW40,D*%
%TO.N,Net-(SW40-PadD)*%
X123240000Y41350000D03*
%TD*%
%TO.P,SW41,D*%
%TO.N,Net-(SW41-PadD)*%
X142240000Y41350000D03*
%TO.P,SW41,C*%
%TO.N,Net-(SW41-PadC)*%
X142240000Y47700000D03*
%TO.P,SW41,E*%
%TO.N,Net-(SW41-PadE)*%
X142240000Y35000000D03*
D15*
%TO.P,SW41,A*%
%TO.N,Net-(SW41-PadA)*%
X135445500Y49287000D03*
%TO.P,SW41,B*%
%TO.N,Net-(SW41-PadB)*%
X149034500Y49287000D03*
D14*
%TO.P,SW41,ROW*%
%TO.N,ROW_7*%
X137795000Y41350000D03*
D13*
%TO.P,SW41,REF*%
%TO.N,Net-(SW41-PadREF)*%
X146367500Y41350000D03*
%TD*%
%TO.P,SW43,REF*%
%TO.N,Net-(SW43-PadREF)*%
X193367500Y41350000D03*
D14*
%TO.P,SW43,ROW*%
%TO.N,ROW_7*%
X184795000Y41350000D03*
D15*
%TO.P,SW43,B*%
%TO.N,Net-(SW43-PadB)*%
X196034500Y49287000D03*
%TO.P,SW43,A*%
%TO.N,Net-(SW43-PadA)*%
X182445500Y49287000D03*
D16*
%TO.P,SW43,E*%
%TO.N,Net-(SW43-PadE)*%
X189240000Y35000000D03*
%TO.P,SW43,C*%
%TO.N,Net-(SW43-PadC)*%
X189240000Y47700000D03*
%TO.P,SW43,D*%
%TO.N,Net-(SW43-PadD)*%
X189240000Y41350000D03*
%TD*%
D13*
%TO.P,SW45,REF*%
%TO.N,Net-(SW45-PadREF)*%
X240367500Y41350000D03*
D14*
%TO.P,SW45,ROW*%
%TO.N,ROW_7*%
X231795000Y41350000D03*
D15*
%TO.P,SW45,B*%
%TO.N,Net-(SW45-PadB)*%
X243034500Y49287000D03*
%TO.P,SW45,A*%
%TO.N,Net-(SW45-PadA)*%
X229445500Y49287000D03*
D16*
%TO.P,SW45,E*%
%TO.N,Net-(SW45-PadE)*%
X236240000Y35000000D03*
%TO.P,SW45,C*%
%TO.N,Net-(SW45-PadC)*%
X236240000Y47700000D03*
%TO.P,SW45,D*%
%TO.N,Net-(SW45-PadD)*%
X236240000Y41350000D03*
%TD*%
D13*
%TO.P,SW47,REF*%
%TO.N,Net-(SW47-PadREF)*%
X278367500Y41350000D03*
D14*
%TO.P,SW47,ROW*%
%TO.N,ROW_7*%
X269795000Y41350000D03*
D15*
%TO.P,SW47,B*%
%TO.N,Net-(SW47-PadB)*%
X281034500Y49287000D03*
%TO.P,SW47,A*%
%TO.N,Net-(SW47-PadA)*%
X267445500Y49287000D03*
D16*
%TO.P,SW47,E*%
%TO.N,Net-(SW47-PadE)*%
X274240000Y35000000D03*
%TO.P,SW47,C*%
%TO.N,Net-(SW47-PadC)*%
X274240000Y47700000D03*
%TO.P,SW47,D*%
%TO.N,Net-(SW47-PadD)*%
X274240000Y41350000D03*
%TD*%
D13*
%TO.P,SW50,REF*%
%TO.N,Net-(SW50-PadREF)*%
X-147632500Y20350000D03*
D14*
%TO.P,SW50,ROW*%
%TO.N,ROW_4*%
X-156205000Y20350000D03*
D15*
%TO.P,SW50,B*%
%TO.N,Net-(SW50-PadB)*%
X-144965500Y28287000D03*
%TO.P,SW50,A*%
%TO.N,Net-(SW50-PadA)*%
X-158554500Y28287000D03*
D16*
%TO.P,SW50,E*%
%TO.N,Net-(SW50-PadE)*%
X-151760000Y14000000D03*
%TO.P,SW50,C*%
%TO.N,Net-(SW50-PadC)*%
X-151760000Y26700000D03*
%TO.P,SW50,D*%
%TO.N,Net-(SW50-PadD)*%
X-151760000Y20350000D03*
%TD*%
D13*
%TO.P,SW54,REF*%
%TO.N,Net-(SW54-PadREF)*%
X-53132500Y20350000D03*
D14*
%TO.P,SW54,ROW*%
%TO.N,ROW_4*%
X-61705000Y20350000D03*
D15*
%TO.P,SW54,B*%
%TO.N,Net-(SW54-PadB)*%
X-50465500Y28287000D03*
%TO.P,SW54,A*%
%TO.N,Net-(SW54-PadA)*%
X-64054500Y28287000D03*
D16*
%TO.P,SW54,E*%
%TO.N,Net-(SW54-PadE)*%
X-57260000Y14000000D03*
%TO.P,SW54,C*%
%TO.N,Net-(SW54-PadC)*%
X-57260000Y26700000D03*
%TO.P,SW54,D*%
%TO.N,Net-(SW54-PadD)*%
X-57260000Y20350000D03*
%TD*%
D13*
%TO.P,SW55,REF*%
%TO.N,Net-(SW55-PadREF)*%
X-34132500Y20350000D03*
D14*
%TO.P,SW55,ROW*%
%TO.N,ROW_5*%
X-42705000Y20350000D03*
D15*
%TO.P,SW55,B*%
%TO.N,Net-(SW55-PadB)*%
X-31465500Y28287000D03*
%TO.P,SW55,A*%
%TO.N,Net-(SW55-PadA)*%
X-45054500Y28287000D03*
D16*
%TO.P,SW55,E*%
%TO.N,Net-(SW55-PadE)*%
X-38260000Y14000000D03*
%TO.P,SW55,C*%
%TO.N,Net-(SW55-PadC)*%
X-38260000Y26700000D03*
%TO.P,SW55,D*%
%TO.N,Net-(SW55-PadD)*%
X-38260000Y20350000D03*
%TD*%
D13*
%TO.P,SW58,REF*%
%TO.N,Net-(SW58-PadREF)*%
X22867500Y20350000D03*
D14*
%TO.P,SW58,ROW*%
%TO.N,ROW_4*%
X14295000Y20350000D03*
D15*
%TO.P,SW58,B*%
%TO.N,Net-(SW58-PadB)*%
X25534500Y28287000D03*
%TO.P,SW58,A*%
%TO.N,Net-(SW58-PadA)*%
X11945500Y28287000D03*
D16*
%TO.P,SW58,E*%
%TO.N,Net-(SW58-PadE)*%
X18740000Y14000000D03*
%TO.P,SW58,C*%
%TO.N,Net-(SW58-PadC)*%
X18740000Y26700000D03*
%TO.P,SW58,D*%
%TO.N,Net-(SW58-PadD)*%
X18740000Y20350000D03*
%TD*%
D13*
%TO.P,SW59,REF*%
%TO.N,Net-(SW59-PadREF)*%
X41867500Y20350000D03*
D14*
%TO.P,SW59,ROW*%
%TO.N,ROW_3*%
X33295000Y20350000D03*
D15*
%TO.P,SW59,B*%
%TO.N,Net-(SW59-PadB)*%
X44534500Y28287000D03*
%TO.P,SW59,A*%
%TO.N,Net-(SW59-PadA)*%
X30945500Y28287000D03*
D16*
%TO.P,SW59,E*%
%TO.N,Net-(SW59-PadE)*%
X37740000Y14000000D03*
%TO.P,SW59,C*%
%TO.N,Net-(SW59-PadC)*%
X37740000Y26700000D03*
%TO.P,SW59,D*%
%TO.N,Net-(SW59-PadD)*%
X37740000Y20350000D03*
%TD*%
D13*
%TO.P,SW61,REF*%
%TO.N,Net-(SW61-PadREF)*%
X79867500Y20350000D03*
D14*
%TO.P,SW61,ROW*%
%TO.N,ROW_5*%
X71295000Y20350000D03*
D15*
%TO.P,SW61,B*%
%TO.N,Net-(SW61-PadB)*%
X82534500Y28287000D03*
%TO.P,SW61,A*%
%TO.N,Net-(SW61-PadA)*%
X68945500Y28287000D03*
D16*
%TO.P,SW61,E*%
%TO.N,Net-(SW61-PadE)*%
X75740000Y14000000D03*
%TO.P,SW61,C*%
%TO.N,Net-(SW61-PadC)*%
X75740000Y26700000D03*
%TO.P,SW61,D*%
%TO.N,Net-(SW61-PadD)*%
X75740000Y20350000D03*
%TD*%
D13*
%TO.P,SW62,REF*%
%TO.N,Net-(SW62-PadREF)*%
X98867500Y20350000D03*
D14*
%TO.P,SW62,ROW*%
%TO.N,ROW_5*%
X90295000Y20350000D03*
D15*
%TO.P,SW62,B*%
%TO.N,Net-(SW62-PadB)*%
X101534500Y28287000D03*
%TO.P,SW62,A*%
%TO.N,Net-(SW62-PadA)*%
X87945500Y28287000D03*
D16*
%TO.P,SW62,E*%
%TO.N,Net-(SW62-PadE)*%
X94740000Y14000000D03*
%TO.P,SW62,C*%
%TO.N,Net-(SW62-PadC)*%
X94740000Y26700000D03*
%TO.P,SW62,D*%
%TO.N,Net-(SW62-PadD)*%
X94740000Y20350000D03*
%TD*%
D13*
%TO.P,SW63,REF*%
%TO.N,Net-(SW63-PadREF)*%
X117867500Y20350000D03*
D14*
%TO.P,SW63,ROW*%
%TO.N,ROW_4*%
X109295000Y20350000D03*
D15*
%TO.P,SW63,B*%
%TO.N,Net-(SW63-PadB)*%
X120534500Y28287000D03*
%TO.P,SW63,A*%
%TO.N,Net-(SW63-PadA)*%
X106945500Y28287000D03*
D16*
%TO.P,SW63,E*%
%TO.N,Net-(SW63-PadE)*%
X113740000Y14000000D03*
%TO.P,SW63,C*%
%TO.N,Net-(SW63-PadC)*%
X113740000Y26700000D03*
%TO.P,SW63,D*%
%TO.N,Net-(SW63-PadD)*%
X113740000Y20350000D03*
%TD*%
D13*
%TO.P,SW65,REF*%
%TO.N,Net-(SW65-PadREF)*%
X174367500Y20350000D03*
D14*
%TO.P,SW65,ROW*%
%TO.N,ROW_5*%
X165795000Y20350000D03*
D15*
%TO.P,SW65,B*%
%TO.N,Net-(SW65-PadB)*%
X177034500Y28287000D03*
%TO.P,SW65,A*%
%TO.N,Net-(SW65-PadA)*%
X163445500Y28287000D03*
D16*
%TO.P,SW65,E*%
%TO.N,Net-(SW65-PadE)*%
X170240000Y14000000D03*
%TO.P,SW65,C*%
%TO.N,Net-(SW65-PadC)*%
X170240000Y26700000D03*
%TO.P,SW65,D*%
%TO.N,Net-(SW65-PadD)*%
X170240000Y20350000D03*
%TD*%
D13*
%TO.P,SW67,REF*%
%TO.N,Net-(SW67-PadREF)*%
X212367500Y20350000D03*
D14*
%TO.P,SW67,ROW*%
%TO.N,ROW_6*%
X203795000Y20350000D03*
D15*
%TO.P,SW67,B*%
%TO.N,Net-(SW67-PadB)*%
X215034500Y28287000D03*
%TO.P,SW67,A*%
%TO.N,Net-(SW67-PadA)*%
X201445500Y28287000D03*
D16*
%TO.P,SW67,E*%
%TO.N,Net-(SW67-PadE)*%
X208240000Y14000000D03*
%TO.P,SW67,C*%
%TO.N,Net-(SW67-PadC)*%
X208240000Y26700000D03*
%TO.P,SW67,D*%
%TO.N,Net-(SW67-PadD)*%
X208240000Y20350000D03*
%TD*%
D13*
%TO.P,SW69,REF*%
%TO.N,Net-(SW69-PadREF)*%
X259367500Y20350000D03*
D14*
%TO.P,SW69,ROW*%
%TO.N,ROW_6*%
X250795000Y20350000D03*
D15*
%TO.P,SW69,B*%
%TO.N,Net-(SW69-PadB)*%
X262034500Y28287000D03*
%TO.P,SW69,A*%
%TO.N,Net-(SW69-PadA)*%
X248445500Y28287000D03*
D16*
%TO.P,SW69,E*%
%TO.N,Net-(SW69-PadE)*%
X255240000Y14000000D03*
%TO.P,SW69,C*%
%TO.N,Net-(SW69-PadC)*%
X255240000Y26700000D03*
%TO.P,SW69,D*%
%TO.N,Net-(SW69-PadD)*%
X255240000Y20350000D03*
%TD*%
D13*
%TO.P,SW70,REF*%
%TO.N,Net-(SW70-PadREF)*%
X278367500Y20350000D03*
D14*
%TO.P,SW70,ROW*%
%TO.N,ROW_6*%
X269795000Y20350000D03*
D15*
%TO.P,SW70,B*%
%TO.N,Net-(SW70-PadB)*%
X281034500Y28287000D03*
%TO.P,SW70,A*%
%TO.N,Net-(SW70-PadA)*%
X267445500Y28287000D03*
D16*
%TO.P,SW70,E*%
%TO.N,Net-(SW70-PadE)*%
X274240000Y14000000D03*
%TO.P,SW70,C*%
%TO.N,Net-(SW70-PadC)*%
X274240000Y26700000D03*
%TO.P,SW70,D*%
%TO.N,Net-(SW70-PadD)*%
X274240000Y20350000D03*
%TD*%
D13*
%TO.P,SW73,REF*%
%TO.N,Net-(SW73-PadREF)*%
X-147632500Y-650000D03*
D14*
%TO.P,SW73,ROW*%
%TO.N,ROW_3*%
X-156205000Y-650000D03*
D15*
%TO.P,SW73,B*%
%TO.N,Net-(SW73-PadB)*%
X-144965500Y7287000D03*
%TO.P,SW73,A*%
%TO.N,Net-(SW73-PadA)*%
X-158554500Y7287000D03*
D16*
%TO.P,SW73,E*%
%TO.N,Net-(SW73-PadE)*%
X-151760000Y-7000000D03*
%TO.P,SW73,C*%
%TO.N,Net-(SW73-PadC)*%
X-151760000Y5700000D03*
%TO.P,SW73,D*%
%TO.N,Net-(SW73-PadD)*%
X-151760000Y-650000D03*
%TD*%
D13*
%TO.P,SW74,REF*%
%TO.N,Net-(SW74-PadREF)*%
X-114882500Y-650000D03*
D14*
%TO.P,SW74,ROW*%
%TO.N,ROW_4*%
X-123455000Y-650000D03*
D15*
%TO.P,SW74,B*%
%TO.N,Net-(SW74-PadB)*%
X-112215500Y7287000D03*
%TO.P,SW74,A*%
%TO.N,Net-(SW74-PadA)*%
X-125804500Y7287000D03*
D16*
%TO.P,SW74,E*%
%TO.N,Net-(SW74-PadE)*%
X-119010000Y-7000000D03*
%TO.P,SW74,C*%
%TO.N,Net-(SW74-PadC)*%
X-119010000Y5700000D03*
%TO.P,SW74,D*%
%TO.N,Net-(SW74-PadD)*%
X-119010000Y-650000D03*
%TD*%
D13*
%TO.P,SW75,REF*%
%TO.N,Net-(SW75-PadREF)*%
X-86382500Y-650000D03*
D14*
%TO.P,SW75,ROW*%
%TO.N,ROW_4*%
X-94955000Y-650000D03*
D15*
%TO.P,SW75,B*%
%TO.N,Net-(SW75-PadB)*%
X-83715500Y7287000D03*
%TO.P,SW75,A*%
%TO.N,Net-(SW75-PadA)*%
X-97304500Y7287000D03*
D16*
%TO.P,SW75,E*%
%TO.N,Net-(SW75-PadE)*%
X-90510000Y-7000000D03*
%TO.P,SW75,C*%
%TO.N,Net-(SW75-PadC)*%
X-90510000Y5700000D03*
%TO.P,SW75,D*%
%TO.N,Net-(SW75-PadD)*%
X-90510000Y-650000D03*
%TD*%
D13*
%TO.P,SW77,REF*%
%TO.N,Net-(SW77-PadREF)*%
X-48382500Y-650000D03*
D14*
%TO.P,SW77,ROW*%
%TO.N,ROW_3*%
X-56955000Y-650000D03*
D15*
%TO.P,SW77,B*%
%TO.N,Net-(SW77-PadB)*%
X-45715500Y7287000D03*
%TO.P,SW77,A*%
%TO.N,Net-(SW77-PadA)*%
X-59304500Y7287000D03*
D16*
%TO.P,SW77,E*%
%TO.N,Net-(SW77-PadE)*%
X-52510000Y-7000000D03*
%TO.P,SW77,C*%
%TO.N,Net-(SW77-PadC)*%
X-52510000Y5700000D03*
%TO.P,SW77,D*%
%TO.N,Net-(SW77-PadD)*%
X-52510000Y-650000D03*
%TD*%
D13*
%TO.P,SW79,REF*%
%TO.N,Net-(SW79-PadREF)*%
X-10382500Y-650000D03*
D14*
%TO.P,SW79,ROW*%
%TO.N,ROW_4*%
X-18955000Y-650000D03*
D15*
%TO.P,SW79,B*%
%TO.N,Net-(SW79-PadB)*%
X-7715500Y7287000D03*
%TO.P,SW79,A*%
%TO.N,Net-(SW79-PadA)*%
X-21304500Y7287000D03*
D16*
%TO.P,SW79,E*%
%TO.N,Net-(SW79-PadE)*%
X-14510000Y-7000000D03*
%TO.P,SW79,C*%
%TO.N,Net-(SW79-PadC)*%
X-14510000Y5700000D03*
%TO.P,SW79,D*%
%TO.N,Net-(SW79-PadD)*%
X-14510000Y-650000D03*
%TD*%
D13*
%TO.P,SW81,REF*%
%TO.N,Net-(SW81-PadREF)*%
X27617500Y-650000D03*
D14*
%TO.P,SW81,ROW*%
%TO.N,ROW_3*%
X19045000Y-650000D03*
D15*
%TO.P,SW81,B*%
%TO.N,Net-(SW81-PadB)*%
X30284500Y7287000D03*
%TO.P,SW81,A*%
%TO.N,Net-(SW81-PadA)*%
X16695500Y7287000D03*
D16*
%TO.P,SW81,E*%
%TO.N,Net-(SW81-PadE)*%
X23490000Y-7000000D03*
%TO.P,SW81,C*%
%TO.N,Net-(SW81-PadC)*%
X23490000Y5700000D03*
%TO.P,SW81,D*%
%TO.N,Net-(SW81-PadD)*%
X23490000Y-650000D03*
%TD*%
D13*
%TO.P,SW83,REF*%
%TO.N,Net-(SW83-PadREF)*%
X65617500Y-650000D03*
D14*
%TO.P,SW83,ROW*%
%TO.N,ROW_3*%
X57045000Y-650000D03*
D15*
%TO.P,SW83,B*%
%TO.N,Net-(SW83-PadB)*%
X68284500Y7287000D03*
%TO.P,SW83,A*%
%TO.N,Net-(SW83-PadA)*%
X54695500Y7287000D03*
D16*
%TO.P,SW83,E*%
%TO.N,Net-(SW83-PadE)*%
X61490000Y-7000000D03*
%TO.P,SW83,C*%
%TO.N,Net-(SW83-PadC)*%
X61490000Y5700000D03*
%TO.P,SW83,D*%
%TO.N,Net-(SW83-PadD)*%
X61490000Y-650000D03*
%TD*%
D13*
%TO.P,SW85,REF*%
%TO.N,Net-(SW85-PadREF)*%
X103617500Y-650000D03*
D14*
%TO.P,SW85,ROW*%
%TO.N,ROW_3*%
X95045000Y-650000D03*
D15*
%TO.P,SW85,B*%
%TO.N,Net-(SW85-PadB)*%
X106284500Y7287000D03*
%TO.P,SW85,A*%
%TO.N,Net-(SW85-PadA)*%
X92695500Y7287000D03*
D16*
%TO.P,SW85,E*%
%TO.N,Net-(SW85-PadE)*%
X99490000Y-7000000D03*
%TO.P,SW85,C*%
%TO.N,Net-(SW85-PadC)*%
X99490000Y5700000D03*
%TO.P,SW85,D*%
%TO.N,Net-(SW85-PadD)*%
X99490000Y-650000D03*
%TD*%
D13*
%TO.P,SW87,REF*%
%TO.N,Net-(SW87-PadREF)*%
X143992500Y-650000D03*
D14*
%TO.P,SW87,ROW*%
%TO.N,ROW_3*%
X135420000Y-650000D03*
D15*
%TO.P,SW87,B*%
%TO.N,Net-(SW87-PadB)*%
X146659500Y7287000D03*
%TO.P,SW87,A*%
%TO.N,Net-(SW87-PadA)*%
X133070500Y7287000D03*
D16*
%TO.P,SW87,E*%
%TO.N,Net-(SW87-PadE)*%
X139865000Y-7000000D03*
%TO.P,SW87,C*%
%TO.N,Net-(SW87-PadC)*%
X139865000Y5700000D03*
%TO.P,SW87,D*%
%TO.N,Net-(SW87-PadD)*%
X139865000Y-650000D03*
%TD*%
D13*
%TO.P,SW90,REF*%
%TO.N,Net-(SW90-PadREF)*%
X259367500Y-650000D03*
D14*
%TO.P,SW90,ROW*%
%TO.N,ROW_4*%
X250795000Y-650000D03*
D15*
%TO.P,SW90,B*%
%TO.N,Net-(SW90-PadB)*%
X262034500Y7287000D03*
%TO.P,SW90,A*%
%TO.N,Net-(SW90-PadA)*%
X248445500Y7287000D03*
D16*
%TO.P,SW90,E*%
%TO.N,Net-(SW90-PadE)*%
X255240000Y-7000000D03*
%TO.P,SW90,C*%
%TO.N,Net-(SW90-PadC)*%
X255240000Y5700000D03*
%TO.P,SW90,D*%
%TO.N,Net-(SW90-PadD)*%
X255240000Y-650000D03*
%TD*%
D13*
%TO.P,SW92,REF*%
%TO.N,Net-(SW92-PadREF)*%
X297367500Y-650000D03*
D14*
%TO.P,SW92,ROW*%
%TO.N,ROW_4*%
X288795000Y-650000D03*
D15*
%TO.P,SW92,B*%
%TO.N,Net-(SW92-PadB)*%
X300034500Y7287000D03*
%TO.P,SW92,A*%
%TO.N,Net-(SW92-PadA)*%
X286445500Y7287000D03*
D16*
%TO.P,SW92,E*%
%TO.N,Net-(SW92-PadE)*%
X293240000Y-7000000D03*
%TO.P,SW92,C*%
%TO.N,Net-(SW92-PadC)*%
X293240000Y5700000D03*
%TO.P,SW92,D*%
%TO.N,Net-(SW92-PadD)*%
X293240000Y-650000D03*
%TD*%
D13*
%TO.P,SW94,REF*%
%TO.N,Net-(SW94-PadREF)*%
X-147632500Y-21650000D03*
D14*
%TO.P,SW94,ROW*%
%TO.N,ROW_2*%
X-156205000Y-21650000D03*
D15*
%TO.P,SW94,B*%
%TO.N,Net-(SW94-PadB)*%
X-144965500Y-13713000D03*
%TO.P,SW94,A*%
%TO.N,Net-(SW94-PadA)*%
X-158554500Y-13713000D03*
D16*
%TO.P,SW94,E*%
%TO.N,Net-(SW94-PadE)*%
X-151760000Y-28000000D03*
%TO.P,SW94,C*%
%TO.N,Net-(SW94-PadC)*%
X-151760000Y-15300000D03*
%TO.P,SW94,D*%
%TO.N,Net-(SW94-PadD)*%
X-151760000Y-21650000D03*
%TD*%
D13*
%TO.P,SW95,REF*%
%TO.N,Net-(SW95-PadREF)*%
X-117257500Y-21650000D03*
D14*
%TO.P,SW95,ROW*%
%TO.N,ROW_2*%
X-125830000Y-21650000D03*
D15*
%TO.P,SW95,B*%
%TO.N,Net-(SW95-PadB)*%
X-114590500Y-13713000D03*
%TO.P,SW95,A*%
%TO.N,Net-(SW95-PadA)*%
X-128179500Y-13713000D03*
D16*
%TO.P,SW95,E*%
%TO.N,Net-(SW95-PadE)*%
X-121385000Y-28000000D03*
%TO.P,SW95,C*%
%TO.N,Net-(SW95-PadC)*%
X-121385000Y-15300000D03*
%TO.P,SW95,D*%
%TO.N,Net-(SW95-PadD)*%
X-121385000Y-21650000D03*
%TD*%
D13*
%TO.P,SW97,REF*%
%TO.N,Net-(SW97-PadREF)*%
X-76882500Y-21650000D03*
D14*
%TO.P,SW97,ROW*%
%TO.N,ROW_2*%
X-85455000Y-21650000D03*
D15*
%TO.P,SW97,B*%
%TO.N,Net-(SW97-PadB)*%
X-74215500Y-13713000D03*
%TO.P,SW97,A*%
%TO.N,Net-(SW97-PadA)*%
X-87804500Y-13713000D03*
D16*
%TO.P,SW97,E*%
%TO.N,Net-(SW97-PadE)*%
X-81010000Y-28000000D03*
%TO.P,SW97,C*%
%TO.N,Net-(SW97-PadC)*%
X-81010000Y-15300000D03*
%TO.P,SW97,D*%
%TO.N,Net-(SW97-PadD)*%
X-81010000Y-21650000D03*
%TD*%
D13*
%TO.P,SW98,REF*%
%TO.N,Net-(SW98-PadREF)*%
X-57882500Y-21650000D03*
D14*
%TO.P,SW98,ROW*%
%TO.N,ROW_2*%
X-66455000Y-21650000D03*
D15*
%TO.P,SW98,B*%
%TO.N,Net-(SW98-PadB)*%
X-55215500Y-13713000D03*
%TO.P,SW98,A*%
%TO.N,Net-(SW98-PadA)*%
X-68804500Y-13713000D03*
D16*
%TO.P,SW98,E*%
%TO.N,Net-(SW98-PadE)*%
X-62010000Y-28000000D03*
%TO.P,SW98,C*%
%TO.N,Net-(SW98-PadC)*%
X-62010000Y-15300000D03*
%TO.P,SW98,D*%
%TO.N,Net-(SW98-PadD)*%
X-62010000Y-21650000D03*
%TD*%
D13*
%TO.P,SW101,REF*%
%TO.N,Net-(SW101-PadREF)*%
X-882500Y-21650000D03*
D14*
%TO.P,SW101,ROW*%
%TO.N,ROW_2*%
X-9455000Y-21650000D03*
D15*
%TO.P,SW101,B*%
%TO.N,Net-(SW101-PadB)*%
X1784500Y-13713000D03*
%TO.P,SW101,A*%
%TO.N,Net-(SW101-PadA)*%
X-11804500Y-13713000D03*
D16*
%TO.P,SW101,E*%
%TO.N,Net-(SW101-PadE)*%
X-5010000Y-28000000D03*
%TO.P,SW101,C*%
%TO.N,Net-(SW101-PadC)*%
X-5010000Y-15300000D03*
%TO.P,SW101,D*%
%TO.N,Net-(SW101-PadD)*%
X-5010000Y-21650000D03*
%TD*%
D13*
%TO.P,SW105,REF*%
%TO.N,Net-(SW105-PadREF)*%
X75117500Y-21650000D03*
D14*
%TO.P,SW105,ROW*%
%TO.N,ROW_1*%
X66545000Y-21650000D03*
D15*
%TO.P,SW105,B*%
%TO.N,Net-(SW105-PadB)*%
X77784500Y-13713000D03*
%TO.P,SW105,A*%
%TO.N,Net-(SW105-PadA)*%
X64195500Y-13713000D03*
D16*
%TO.P,SW105,E*%
%TO.N,Net-(SW105-PadE)*%
X70990000Y-28000000D03*
%TO.P,SW105,C*%
%TO.N,Net-(SW105-PadC)*%
X70990000Y-15300000D03*
%TO.P,SW105,D*%
%TO.N,Net-(SW105-PadD)*%
X70990000Y-21650000D03*
%TD*%
D13*
%TO.P,SW107,REF*%
%TO.N,Net-(SW107-PadREF)*%
X113117500Y-21650000D03*
D14*
%TO.P,SW107,ROW*%
%TO.N,ROW_2*%
X104545000Y-21650000D03*
D15*
%TO.P,SW107,B*%
%TO.N,Net-(SW107-PadB)*%
X115784500Y-13713000D03*
%TO.P,SW107,A*%
%TO.N,Net-(SW107-PadA)*%
X102195500Y-13713000D03*
D16*
%TO.P,SW107,E*%
%TO.N,Net-(SW107-PadE)*%
X108990000Y-28000000D03*
%TO.P,SW107,C*%
%TO.N,Net-(SW107-PadC)*%
X108990000Y-15300000D03*
%TO.P,SW107,D*%
%TO.N,Net-(SW107-PadD)*%
X108990000Y-21650000D03*
%TD*%
D13*
%TO.P,SW108,REF*%
%TO.N,Net-(SW108-PadREF)*%
X137617500Y-21650000D03*
D14*
%TO.P,SW108,ROW*%
%TO.N,ROW_2*%
X129045000Y-21650000D03*
D15*
%TO.P,SW108,B*%
%TO.N,Net-(SW108-PadB)*%
X140284500Y-13713000D03*
%TO.P,SW108,A*%
%TO.N,Net-(SW108-PadA)*%
X126695500Y-13713000D03*
D16*
%TO.P,SW108,E*%
%TO.N,Net-(SW108-PadE)*%
X133490000Y-28000000D03*
%TO.P,SW108,C*%
%TO.N,Net-(SW108-PadC)*%
X133490000Y-15300000D03*
%TO.P,SW108,D*%
%TO.N,Net-(SW108-PadD)*%
X133490000Y-21650000D03*
%TD*%
D13*
%TO.P,SW109,REF*%
%TO.N,Net-(SW109-PadREF)*%
X174367500Y-21650000D03*
D14*
%TO.P,SW109,ROW*%
%TO.N,ROW_2*%
X165795000Y-21650000D03*
D15*
%TO.P,SW109,B*%
%TO.N,Net-(SW109-PadB)*%
X177034500Y-13713000D03*
%TO.P,SW109,A*%
%TO.N,Net-(SW109-PadA)*%
X163445500Y-13713000D03*
D16*
%TO.P,SW109,E*%
%TO.N,Net-(SW109-PadE)*%
X170240000Y-28000000D03*
%TO.P,SW109,C*%
%TO.N,Net-(SW109-PadC)*%
X170240000Y-15300000D03*
%TO.P,SW109,D*%
%TO.N,Net-(SW109-PadD)*%
X170240000Y-21650000D03*
%TD*%
D13*
%TO.P,SW111,REF*%
%TO.N,Net-(SW111-PadREF)*%
X212367500Y-21650000D03*
D14*
%TO.P,SW111,ROW*%
%TO.N,ROW_3*%
X203795000Y-21650000D03*
D15*
%TO.P,SW111,B*%
%TO.N,Net-(SW111-PadB)*%
X215034500Y-13713000D03*
%TO.P,SW111,A*%
%TO.N,Net-(SW111-PadA)*%
X201445500Y-13713000D03*
D16*
%TO.P,SW111,E*%
%TO.N,Net-(SW111-PadE)*%
X208240000Y-28000000D03*
%TO.P,SW111,C*%
%TO.N,Net-(SW111-PadC)*%
X208240000Y-15300000D03*
%TO.P,SW111,D*%
%TO.N,Net-(SW111-PadD)*%
X208240000Y-21650000D03*
%TD*%
D13*
%TO.P,SW113,REF*%
%TO.N,Net-(SW113-PadREF)*%
X259367500Y-21650000D03*
D14*
%TO.P,SW113,ROW*%
%TO.N,ROW_3*%
X250795000Y-21650000D03*
D15*
%TO.P,SW113,B*%
%TO.N,Net-(SW113-PadB)*%
X262034500Y-13713000D03*
%TO.P,SW113,A*%
%TO.N,Net-(SW113-PadA)*%
X248445500Y-13713000D03*
D16*
%TO.P,SW113,E*%
%TO.N,Net-(SW113-PadE)*%
X255240000Y-28000000D03*
%TO.P,SW113,C*%
%TO.N,Net-(SW113-PadC)*%
X255240000Y-15300000D03*
%TO.P,SW113,D*%
%TO.N,Net-(SW113-PadD)*%
X255240000Y-21650000D03*
%TD*%
D13*
%TO.P,SW114,REF*%
%TO.N,Net-(SW114-PadREF)*%
X278367500Y-21650000D03*
D14*
%TO.P,SW114,ROW*%
%TO.N,ROW_3*%
X269795000Y-21650000D03*
D15*
%TO.P,SW114,B*%
%TO.N,Net-(SW114-PadB)*%
X281034500Y-13713000D03*
%TO.P,SW114,A*%
%TO.N,Net-(SW114-PadA)*%
X267445500Y-13713000D03*
D16*
%TO.P,SW114,E*%
%TO.N,Net-(SW114-PadE)*%
X274240000Y-28000000D03*
%TO.P,SW114,C*%
%TO.N,Net-(SW114-PadC)*%
X274240000Y-15300000D03*
%TO.P,SW114,D*%
%TO.N,Net-(SW114-PadD)*%
X274240000Y-21650000D03*
%TD*%
D13*
%TO.P,SW117,REF*%
%TO.N,Net-(SW117-PadREF)*%
X-147632500Y-42650000D03*
D14*
%TO.P,SW117,ROW*%
%TO.N,ROW_1*%
X-156205000Y-42650000D03*
D15*
%TO.P,SW117,B*%
%TO.N,Net-(SW117-PadB)*%
X-144965500Y-34713000D03*
%TO.P,SW117,A*%
%TO.N,Net-(SW117-PadA)*%
X-158554500Y-34713000D03*
D16*
%TO.P,SW117,E*%
%TO.N,Net-(SW117-PadE)*%
X-151760000Y-49000000D03*
%TO.P,SW117,C*%
%TO.N,Net-(SW117-PadC)*%
X-151760000Y-36300000D03*
%TO.P,SW117,D*%
%TO.N,Net-(SW117-PadD)*%
X-151760000Y-42650000D03*
%TD*%
D13*
%TO.P,SW118,REF*%
%TO.N,Net-(SW118-PadREF)*%
X-114882500Y-42650000D03*
D14*
%TO.P,SW118,ROW*%
%TO.N,ROW_1*%
X-123455000Y-42650000D03*
D15*
%TO.P,SW118,B*%
%TO.N,Net-(SW118-PadB)*%
X-112215500Y-34713000D03*
%TO.P,SW118,A*%
%TO.N,Net-(SW118-PadA)*%
X-125804500Y-34713000D03*
D16*
%TO.P,SW118,E*%
%TO.N,Net-(SW118-PadE)*%
X-119010000Y-49000000D03*
%TO.P,SW118,C*%
%TO.N,Net-(SW118-PadC)*%
X-119010000Y-36300000D03*
%TO.P,SW118,D*%
%TO.N,Net-(SW118-PadD)*%
X-119010000Y-42650000D03*
%TD*%
%TO.P,SW122,D*%
%TO.N,Net-(SW122-PadD)*%
X137490000Y-42650000D03*
%TO.P,SW122,C*%
%TO.N,Net-(SW122-PadC)*%
X137490000Y-36300000D03*
%TO.P,SW122,E*%
%TO.N,Net-(SW122-PadE)*%
X137490000Y-49000000D03*
D15*
%TO.P,SW122,A*%
%TO.N,Net-(SW122-PadA)*%
X130695500Y-34713000D03*
%TO.P,SW122,B*%
%TO.N,Net-(SW122-PadB)*%
X144284500Y-34713000D03*
D14*
%TO.P,SW122,ROW*%
%TO.N,ROW_1*%
X133045000Y-42650000D03*
D13*
%TO.P,SW122,REF*%
%TO.N,Net-(SW122-PadREF)*%
X141617500Y-42650000D03*
%TD*%
%TO.P,SW125,REF*%
%TO.N,Net-(SW125-PadREF)*%
X259367500Y-42650000D03*
D14*
%TO.P,SW125,ROW*%
%TO.N,ROW_1*%
X250795000Y-42650000D03*
D15*
%TO.P,SW125,B*%
%TO.N,Net-(SW125-PadB)*%
X262034500Y-34713000D03*
%TO.P,SW125,A*%
%TO.N,Net-(SW125-PadA)*%
X248445500Y-34713000D03*
D16*
%TO.P,SW125,E*%
%TO.N,Net-(SW125-PadE)*%
X255240000Y-49000000D03*
%TO.P,SW125,C*%
%TO.N,Net-(SW125-PadC)*%
X255240000Y-36300000D03*
%TO.P,SW125,D*%
%TO.N,Net-(SW125-PadD)*%
X255240000Y-42650000D03*
%TD*%
D13*
%TO.P,SW127,REF*%
%TO.N,Net-(SW127-PadREF)*%
X297367500Y-42650000D03*
D14*
%TO.P,SW127,ROW*%
%TO.N,ROW_1*%
X288795000Y-42650000D03*
D15*
%TO.P,SW127,B*%
%TO.N,Net-(SW127-PadB)*%
X300034500Y-34713000D03*
%TO.P,SW127,A*%
%TO.N,Net-(SW127-PadA)*%
X286445500Y-34713000D03*
D16*
%TO.P,SW127,E*%
%TO.N,Net-(SW127-PadE)*%
X293240000Y-49000000D03*
%TO.P,SW127,C*%
%TO.N,Net-(SW127-PadC)*%
X293240000Y-36300000D03*
%TO.P,SW127,D*%
%TO.N,Net-(SW127-PadD)*%
X293240000Y-42650000D03*
%TD*%
D13*
%TO.P,SW14,REF*%
%TO.N,Net-(SW14-PadREF)*%
X-81632500Y83350000D03*
D14*
%TO.P,SW14,ROW*%
%TO.N,ROW_7*%
X-90205000Y83350000D03*
D15*
%TO.P,SW14,B*%
%TO.N,Net-(SW14-PadB)*%
X-78965500Y91287000D03*
%TO.P,SW14,A*%
%TO.N,Net-(SW14-PadA)*%
X-92554500Y91287000D03*
D16*
%TO.P,SW14,E*%
%TO.N,Net-(SW14-PadE)*%
X-85760000Y77000000D03*
%TO.P,SW14,C*%
%TO.N,Net-(SW14-PadC)*%
X-85760000Y89700000D03*
%TO.P,SW14,D*%
%TO.N,Net-(SW14-PadD)*%
X-85760000Y83350000D03*
%TD*%
D13*
%TO.P,SW12,REF*%
%TO.N,Net-(SW12-PadREF)*%
X108367500Y104350000D03*
D14*
%TO.P,SW12,ROW*%
%TO.N,ROW_8*%
X99795000Y104350000D03*
D15*
%TO.P,SW12,B*%
%TO.N,Net-(SW12-PadB)*%
X111034500Y112287000D03*
%TO.P,SW12,A*%
%TO.N,Net-(SW12-PadA)*%
X97445500Y112287000D03*
D16*
%TO.P,SW12,E*%
%TO.N,Net-(SW12-PadE)*%
X104240000Y98000000D03*
%TO.P,SW12,C*%
%TO.N,Net-(SW12-PadC)*%
X104240000Y110700000D03*
%TO.P,SW12,D*%
%TO.N,Net-(SW12-PadD)*%
X104240000Y104350000D03*
%TD*%
D13*
%TO.P,SW4,REF*%
%TO.N,Net-(SW4-PadREF)*%
X-43632500Y104350000D03*
D14*
%TO.P,SW4,ROW*%
%TO.N,ROW_8*%
X-52205000Y104350000D03*
D15*
%TO.P,SW4,B*%
%TO.N,Net-(SW4-PadB)*%
X-40965500Y112287000D03*
%TO.P,SW4,A*%
%TO.N,Net-(SW4-PadA)*%
X-54554500Y112287000D03*
D16*
%TO.P,SW4,E*%
%TO.N,Net-(SW4-PadE)*%
X-47760000Y98000000D03*
%TO.P,SW4,C*%
%TO.N,Net-(SW4-PadC)*%
X-47760000Y110700000D03*
%TO.P,SW4,D*%
%TO.N,Net-(SW4-PadD)*%
X-47760000Y104350000D03*
%TD*%
D13*
%TO.P,SW16,REF*%
%TO.N,Net-(SW16-PadREF)*%
X-43632500Y83350000D03*
D14*
%TO.P,SW16,ROW*%
%TO.N,ROW_7*%
X-52205000Y83350000D03*
D15*
%TO.P,SW16,B*%
%TO.N,Net-(SW16-PadB)*%
X-40965500Y91287000D03*
%TO.P,SW16,A*%
%TO.N,Net-(SW16-PadA)*%
X-54554500Y91287000D03*
D16*
%TO.P,SW16,E*%
%TO.N,Net-(SW16-PadE)*%
X-47760000Y77000000D03*
%TO.P,SW16,C*%
%TO.N,Net-(SW16-PadC)*%
X-47760000Y89700000D03*
%TO.P,SW16,D*%
%TO.N,Net-(SW16-PadD)*%
X-47760000Y83350000D03*
%TD*%
D13*
%TO.P,SW2,REF*%
%TO.N,Net-(SW2-PadREF)*%
X-81632500Y104350000D03*
D14*
%TO.P,SW2,ROW*%
%TO.N,ROW_8*%
X-90205000Y104350000D03*
D15*
%TO.P,SW2,B*%
%TO.N,Net-(SW2-PadB)*%
X-78965500Y112287000D03*
%TO.P,SW2,A*%
%TO.N,Net-(SW2-PadA)*%
X-92554500Y112287000D03*
D16*
%TO.P,SW2,E*%
%TO.N,Net-(SW2-PadE)*%
X-85760000Y98000000D03*
%TO.P,SW2,C*%
%TO.N,Net-(SW2-PadC)*%
X-85760000Y110700000D03*
%TO.P,SW2,D*%
%TO.N,Net-(SW2-PadD)*%
X-85760000Y104350000D03*
%TD*%
D13*
%TO.P,SW18,REF*%
%TO.N,Net-(SW18-PadREF)*%
X-5632500Y83350000D03*
D14*
%TO.P,SW18,ROW*%
%TO.N,ROW_7*%
X-14205000Y83350000D03*
D15*
%TO.P,SW18,B*%
%TO.N,Net-(SW18-PadB)*%
X-2965500Y91287000D03*
%TO.P,SW18,A*%
%TO.N,Net-(SW18-PadA)*%
X-16554500Y91287000D03*
D16*
%TO.P,SW18,E*%
%TO.N,Net-(SW18-PadE)*%
X-9760000Y77000000D03*
%TO.P,SW18,C*%
%TO.N,Net-(SW18-PadC)*%
X-9760000Y89700000D03*
%TO.P,SW18,D*%
%TO.N,Net-(SW18-PadD)*%
X-9760000Y83350000D03*
%TD*%
D13*
%TO.P,SW24,REF*%
%TO.N,Net-(SW24-PadREF)*%
X108367500Y83350000D03*
D14*
%TO.P,SW24,ROW*%
%TO.N,ROW_7*%
X99795000Y83350000D03*
D15*
%TO.P,SW24,B*%
%TO.N,Net-(SW24-PadB)*%
X111034500Y91287000D03*
%TO.P,SW24,A*%
%TO.N,Net-(SW24-PadA)*%
X97445500Y91287000D03*
D16*
%TO.P,SW24,E*%
%TO.N,Net-(SW24-PadE)*%
X104240000Y77000000D03*
%TO.P,SW24,C*%
%TO.N,Net-(SW24-PadC)*%
X104240000Y89700000D03*
%TO.P,SW24,D*%
%TO.N,Net-(SW24-PadD)*%
X104240000Y83350000D03*
%TD*%
D13*
%TO.P,SW22,REF*%
%TO.N,Net-(SW22-PadREF)*%
X70367500Y83350000D03*
D14*
%TO.P,SW22,ROW*%
%TO.N,ROW_7*%
X61795000Y83350000D03*
D15*
%TO.P,SW22,B*%
%TO.N,Net-(SW22-PadB)*%
X73034500Y91287000D03*
%TO.P,SW22,A*%
%TO.N,Net-(SW22-PadA)*%
X59445500Y91287000D03*
D16*
%TO.P,SW22,E*%
%TO.N,Net-(SW22-PadE)*%
X66240000Y77000000D03*
%TO.P,SW22,C*%
%TO.N,Net-(SW22-PadC)*%
X66240000Y89700000D03*
%TO.P,SW22,D*%
%TO.N,Net-(SW22-PadD)*%
X66240000Y83350000D03*
%TD*%
D13*
%TO.P,SW6,REF*%
%TO.N,Net-(SW6-PadREF)*%
X-5632500Y104350000D03*
D14*
%TO.P,SW6,ROW*%
%TO.N,ROW_8*%
X-14205000Y104350000D03*
D15*
%TO.P,SW6,B*%
%TO.N,Net-(SW6-PadB)*%
X-2965500Y112287000D03*
%TO.P,SW6,A*%
%TO.N,Net-(SW6-PadA)*%
X-16554500Y112287000D03*
D16*
%TO.P,SW6,E*%
%TO.N,Net-(SW6-PadE)*%
X-9760000Y98000000D03*
%TO.P,SW6,C*%
%TO.N,Net-(SW6-PadC)*%
X-9760000Y110700000D03*
%TO.P,SW6,D*%
%TO.N,Net-(SW6-PadD)*%
X-9760000Y104350000D03*
%TD*%
D13*
%TO.P,SW10,REF*%
%TO.N,Net-(SW10-PadREF)*%
X70367500Y104350000D03*
D14*
%TO.P,SW10,ROW*%
%TO.N,ROW_8*%
X61795000Y104350000D03*
D15*
%TO.P,SW10,B*%
%TO.N,Net-(SW10-PadB)*%
X73034500Y112287000D03*
%TO.P,SW10,A*%
%TO.N,Net-(SW10-PadA)*%
X59445500Y112287000D03*
D16*
%TO.P,SW10,E*%
%TO.N,Net-(SW10-PadE)*%
X66240000Y98000000D03*
%TO.P,SW10,C*%
%TO.N,Net-(SW10-PadC)*%
X66240000Y110700000D03*
%TO.P,SW10,D*%
%TO.N,Net-(SW10-PadD)*%
X66240000Y104350000D03*
%TD*%
D13*
%TO.P,SW8,REF*%
%TO.N,Net-(SW8-PadREF)*%
X32367500Y104350000D03*
D14*
%TO.P,SW8,ROW*%
%TO.N,ROW_8*%
X23795000Y104350000D03*
D15*
%TO.P,SW8,B*%
%TO.N,Net-(SW8-PadB)*%
X35034500Y112287000D03*
%TO.P,SW8,A*%
%TO.N,Net-(SW8-PadA)*%
X21445500Y112287000D03*
D16*
%TO.P,SW8,E*%
%TO.N,Net-(SW8-PadE)*%
X28240000Y98000000D03*
%TO.P,SW8,C*%
%TO.N,Net-(SW8-PadC)*%
X28240000Y110700000D03*
%TO.P,SW8,D*%
%TO.N,Net-(SW8-PadD)*%
X28240000Y104350000D03*
%TD*%
D13*
%TO.P,SW20,REF*%
%TO.N,Net-(SW20-PadREF)*%
X32367500Y83350000D03*
D14*
%TO.P,SW20,ROW*%
%TO.N,ROW_7*%
X23795000Y83350000D03*
D15*
%TO.P,SW20,B*%
%TO.N,Net-(SW20-PadB)*%
X35034500Y91287000D03*
%TO.P,SW20,A*%
%TO.N,Net-(SW20-PadA)*%
X21445500Y91287000D03*
D16*
%TO.P,SW20,E*%
%TO.N,Net-(SW20-PadE)*%
X28240000Y77000000D03*
%TO.P,SW20,C*%
%TO.N,Net-(SW20-PadC)*%
X28240000Y89700000D03*
%TO.P,SW20,D*%
%TO.N,Net-(SW20-PadD)*%
X28240000Y83350000D03*
%TD*%
D18*
%TO.N,GND*%
X-173125000Y62720000D02*
X-172025000Y62720000D01*
D19*
%TO.N,ROW_8*%
X-90205000Y104350000D02*
X-100315000Y104350000D01*
X-52205000Y104350000D02*
X-62315000Y104350000D01*
X-24315000Y104350000D02*
X-14205000Y104350000D01*
X23795000Y104350000D02*
X13685000Y104350000D01*
X89685000Y104350000D02*
X99795000Y104350000D01*
X51685000Y104350000D02*
X61795000Y104350000D01*
D20*
X174685000Y41350000D02*
X174685000Y50620000D01*
X174685000Y50620000D02*
X174685000Y51120000D01*
X212685000Y41350000D02*
X212685000Y51120000D01*
X259685000Y41350000D02*
X259685000Y51120000D01*
X-100315000Y104350000D02*
X-100315000Y94120000D01*
X89685000Y104350000D02*
X89685000Y94120000D01*
X51685000Y104350000D02*
X51685000Y94120000D01*
X13685000Y104350000D02*
X13685000Y94120000D01*
X-62315000Y104350000D02*
X-62315000Y94120000D01*
X-24315000Y104350000D02*
X-24315000Y94120000D01*
X-119575000Y98120000D02*
X-119575000Y112620000D01*
X-118325000Y96870000D02*
X-119575000Y98120000D01*
X-114075000Y96870000D02*
X-118325000Y96870000D01*
X-61825000Y94120000D02*
X-111325000Y94120000D01*
X-59075000Y96870000D02*
X-61825000Y94120000D01*
X-55575000Y96870000D02*
X-59075000Y96870000D01*
X183925000Y51120000D02*
X180925000Y54120000D01*
X268925000Y51120000D02*
X265925000Y54120000D01*
X218925000Y54120000D02*
X216425000Y54120000D01*
X260425000Y51120000D02*
X221925000Y51120000D01*
X216425000Y54120000D02*
X213425000Y51120000D01*
X-52825000Y94120000D02*
X-55575000Y96870000D01*
X297685000Y50860000D02*
X297425000Y51120000D01*
X263425000Y54120000D02*
X260425000Y51120000D01*
X297685000Y41350000D02*
X297685000Y50860000D01*
X122425000Y56370000D02*
X114425000Y64370000D01*
X213425000Y51120000D02*
X183925000Y51120000D01*
X-23825000Y94120000D02*
X-52825000Y94120000D01*
X175425000Y51120000D02*
X138175000Y51120000D01*
X114425000Y64370000D02*
X114425000Y92120000D01*
X-14825000Y94120000D02*
X-17575000Y96870000D01*
X265925000Y54120000D02*
X263425000Y54120000D01*
X138175000Y51120000D02*
X132925000Y56370000D01*
X297425000Y51120000D02*
X268925000Y51120000D01*
X178425000Y54120000D02*
X175425000Y51120000D01*
X-21075000Y96870000D02*
X-23825000Y94120000D01*
X221925000Y51120000D02*
X218925000Y54120000D01*
X54925000Y96870000D02*
X52175000Y94120000D01*
X132925000Y56370000D02*
X122425000Y56370000D01*
X114425000Y92120000D02*
X112425000Y94120000D01*
X112425000Y94120000D02*
X61175000Y94120000D01*
X180925000Y54120000D02*
X178425000Y54120000D01*
X61175000Y94120000D02*
X58425000Y96870000D01*
X58425000Y96870000D02*
X54925000Y96870000D01*
X52175000Y94120000D02*
X-14825000Y94120000D01*
X-111325000Y94120000D02*
X-114075000Y96870000D01*
X-17575000Y96870000D02*
X-21075000Y96870000D01*
D19*
X-115325000Y124120000D02*
X-96100000Y124120000D01*
X-96100000Y124120000D02*
X-88435000Y131785000D01*
X-119575000Y119870000D02*
X-115325000Y124120000D01*
X-119575000Y112620000D02*
X-119575000Y119870000D01*
%TO.N,ROW_6*%
X-81315000Y41350000D02*
X-71205000Y41350000D01*
X-115886000Y41350000D02*
X-109205000Y41350000D01*
X-119315000Y41350000D02*
X-115886000Y41350000D01*
D20*
X-33205000Y41350000D02*
X-33205000Y51120000D01*
X-5315000Y41350000D02*
X-5315000Y51120000D01*
X42795000Y41350000D02*
X42795000Y51120000D01*
X32685000Y41350000D02*
X32685000Y51120000D01*
X80795000Y41350000D02*
X80795000Y51120000D01*
X108685000Y41350000D02*
X108685000Y51120000D01*
X250795000Y20350000D02*
X250795000Y30120000D01*
X203795000Y20350000D02*
X203795000Y30120000D01*
X193685000Y20350000D02*
X193685000Y30120000D01*
X118425000Y51120000D02*
X118795000Y50750000D01*
X118795000Y50750000D02*
X118795000Y41350000D01*
X60925000Y51120000D02*
X118425000Y51120000D01*
X57925000Y54120000D02*
X60925000Y51120000D01*
X55425000Y54120000D02*
X57925000Y54120000D01*
X-18075000Y54120000D02*
X-15075000Y51120000D01*
X-20575000Y54120000D02*
X-18075000Y54120000D01*
X-23575000Y51120000D02*
X-20575000Y54120000D01*
X52425000Y51120000D02*
X55425000Y54120000D01*
X-15075000Y51120000D02*
X52425000Y51120000D01*
X-70825000Y51120000D02*
X-23575000Y51120000D01*
X-71205000Y50740000D02*
X-70825000Y51120000D01*
X-71205000Y41350000D02*
X-71205000Y50740000D01*
X119175000Y31120000D02*
X118795000Y31500000D01*
X141925000Y31120000D02*
X119175000Y31120000D01*
X269425000Y30120000D02*
X230925000Y30120000D01*
X269795000Y29750000D02*
X269425000Y30120000D01*
X230925000Y30120000D02*
X227925000Y33120000D01*
X227925000Y33120000D02*
X225425000Y33120000D01*
X160425000Y30120000D02*
X157425000Y33120000D01*
X269795000Y20350000D02*
X269795000Y29750000D01*
X225425000Y33120000D02*
X222425000Y30120000D01*
X222425000Y30120000D02*
X160425000Y30120000D01*
X151925000Y30120000D02*
X142925000Y30120000D01*
X157425000Y33120000D02*
X154925000Y33120000D01*
X154925000Y33120000D02*
X151925000Y30120000D01*
X118795000Y31500000D02*
X118795000Y41350000D01*
X142925000Y30120000D02*
X141925000Y31120000D01*
X-109205000Y41350000D02*
X-109205000Y34250000D01*
D19*
X-109205000Y34250000D02*
X-109205000Y33870000D01*
D20*
X-71575000Y31120000D02*
X-71205000Y31490000D01*
X-105325000Y31120000D02*
X-71575000Y31120000D01*
X-108075000Y33870000D02*
X-105325000Y31120000D01*
X-111075000Y33870000D02*
X-108075000Y33870000D01*
X-155825000Y31120000D02*
X-113825000Y31120000D01*
X-71205000Y31490000D02*
X-71205000Y41350000D01*
X-113825000Y31120000D02*
X-111075000Y33870000D01*
X-156205000Y31500000D02*
X-155825000Y31120000D01*
X-156205000Y41350000D02*
X-156205000Y31500000D01*
D19*
X-102020000Y126120000D02*
X-96355000Y131785000D01*
X-115825000Y126120000D02*
X-102020000Y126120000D01*
X-121575000Y120370000D02*
X-115825000Y126120000D01*
X-121575000Y112620000D02*
X-121575000Y120370000D01*
D20*
X-156205000Y41350000D02*
X-156205000Y56240000D01*
X-155825000Y56620000D02*
X-129575000Y56620000D01*
X-156205000Y56240000D02*
X-155825000Y56620000D01*
X-129575000Y56620000D02*
X-121575000Y64620000D01*
X-121575000Y64620000D02*
X-121575000Y112620000D01*
D19*
%TO.N,ROW_4*%
X-166315000Y20350000D02*
X-156205000Y20350000D01*
D20*
X-166315000Y20350000D02*
X-166315000Y10620000D01*
X14295000Y20350000D02*
X14295000Y14990000D01*
X-14815000Y20350000D02*
X-14815000Y10620000D01*
X-18955000Y-650000D02*
X-18955000Y10620000D01*
X-61705000Y20350000D02*
X-61705000Y12120000D01*
X-94955000Y-650000D02*
X-94955000Y10620000D01*
X-123455000Y-650000D02*
X-123455000Y10620000D01*
X84935000Y-650000D02*
X84935000Y9620000D01*
X109295000Y20350000D02*
X109295000Y9620000D01*
X122935000Y-650000D02*
X122935000Y9620000D01*
X250795000Y-650000D02*
X250795000Y-10380000D01*
X240685000Y-650000D02*
X240685000Y-10380000D01*
X61185000Y29360000D02*
X61185000Y20350000D01*
X60925000Y30120000D02*
X61185000Y29860000D01*
X14675000Y30120000D02*
X60925000Y30120000D01*
X14295000Y29740000D02*
X14675000Y30120000D01*
X61185000Y29860000D02*
X61185000Y29360000D01*
X14295000Y20350000D02*
X14295000Y29740000D01*
X61185000Y11360000D02*
X61185000Y20350000D01*
X193685000Y-650000D02*
X193685000Y9360000D01*
X193425000Y9620000D02*
X164425000Y9620000D01*
X93425000Y9620000D02*
X90925000Y12120000D01*
X164425000Y9620000D02*
X161925000Y12120000D01*
X161925000Y12120000D02*
X159425000Y12120000D01*
X88925000Y12120000D02*
X86425000Y9620000D01*
X193685000Y9360000D02*
X193425000Y9620000D01*
X159425000Y12120000D02*
X156925000Y9620000D01*
X156925000Y9620000D02*
X93425000Y9620000D01*
X90925000Y12120000D02*
X88925000Y12120000D01*
X86425000Y9620000D02*
X61675000Y9620000D01*
X61675000Y9620000D02*
X61185000Y10110000D01*
X61185000Y10110000D02*
X61185000Y11360000D01*
X288425000Y-10380000D02*
X288795000Y-10010000D01*
X202675000Y-10380000D02*
X288425000Y-10380000D01*
X200425000Y-8130000D02*
X202675000Y-10380000D01*
X288795000Y-10010000D02*
X288795000Y-650000D01*
X196862500Y-8130000D02*
X200425000Y-8130000D01*
X194612500Y-10380000D02*
X196862500Y-8130000D01*
X193925000Y-10380000D02*
X194612500Y-10380000D01*
X193685000Y-10140000D02*
X193925000Y-10380000D01*
X193685000Y-650000D02*
X193685000Y-10140000D01*
D19*
X-116325000Y128120000D02*
X-107940000Y128120000D01*
X-123575000Y120870000D02*
X-116325000Y128120000D01*
X-107940000Y128120000D02*
X-104275000Y131785000D01*
X-123575000Y112620000D02*
X-123575000Y120870000D01*
D20*
X-123575000Y65120000D02*
X-123575000Y112620000D01*
X-130075000Y58620000D02*
X-123575000Y65120000D01*
X-174075000Y58620000D02*
X-130075000Y58620000D01*
X-183575000Y49120000D02*
X-174075000Y58620000D01*
X-183575000Y12620000D02*
X-183575000Y49120000D01*
X-183325000Y12370000D02*
X-183575000Y12620000D01*
X14295000Y20350000D02*
X12425000Y18480000D01*
X-59575000Y10620000D02*
X-61075000Y12120000D01*
X-179325000Y12370000D02*
X-183325000Y12370000D01*
X12425000Y18480000D02*
X12425000Y13120000D01*
X-134075000Y10620000D02*
X-177575000Y10620000D01*
X12425000Y13120000D02*
X9925000Y10620000D01*
X9925000Y10620000D02*
X-59575000Y10620000D01*
X-61075000Y12120000D02*
X-63075000Y12120000D01*
X-63075000Y12120000D02*
X-64575000Y10620000D01*
X-129075000Y10620000D02*
X-130575000Y12120000D01*
X-64575000Y10620000D02*
X-129075000Y10620000D01*
X-130575000Y12120000D02*
X-132575000Y12120000D01*
X-132575000Y12120000D02*
X-134075000Y10620000D01*
X-177575000Y10620000D02*
X-179325000Y12370000D01*
D19*
%TO.N,ROW_2*%
X-166315000Y-21650000D02*
X-156205000Y-21650000D01*
D20*
X-166315000Y-21650000D02*
X-166315000Y-31380000D01*
X-85455000Y-21650000D02*
X-85455000Y-31380000D01*
X-74075000Y-31380000D02*
X-73575000Y-31380000D01*
X-19565000Y-21650000D02*
X-19565000Y-11380000D01*
X-9455000Y-21650000D02*
X-9455000Y-11380000D01*
X104545000Y-21650000D02*
X104545000Y-11380000D01*
X94435000Y-21650000D02*
X94435000Y-11380000D01*
X37435000Y-21650000D02*
X37435000Y-11380000D01*
X46935000Y-650000D02*
X46935000Y-11380000D01*
X165795000Y-21650000D02*
X165795000Y-31380000D01*
X240685000Y-21650000D02*
X240685000Y-31380000D01*
X278685000Y-42650000D02*
X278685000Y-31380000D01*
X-125830000Y-30375000D02*
X-125825000Y-30380000D01*
X-125830000Y-21650000D02*
X-125830000Y-30375000D01*
X-66455000Y-21650000D02*
X-66455000Y-31010000D01*
X-66455000Y-31010000D02*
X-66825000Y-31380000D01*
X-66825000Y-31380000D02*
X-74075000Y-31380000D01*
X131675000Y-31380000D02*
X129045000Y-28750000D01*
X156675000Y-31380000D02*
X131675000Y-31380000D01*
X158925000Y-29130000D02*
X156675000Y-31380000D01*
X297685000Y-21650000D02*
X297685000Y-31120000D01*
X297685000Y-31120000D02*
X297425000Y-31380000D01*
X297425000Y-31380000D02*
X249675000Y-31380000D01*
X164675000Y-31380000D02*
X162425000Y-29130000D01*
X249675000Y-31380000D02*
X247425000Y-29130000D01*
X247425000Y-29130000D02*
X243925000Y-29130000D01*
X243925000Y-29130000D02*
X241675000Y-31380000D01*
X200425000Y-29130000D02*
X196925000Y-29130000D01*
X241675000Y-31380000D02*
X202675000Y-31380000D01*
X129045000Y-28750000D02*
X129045000Y-21650000D01*
X196925000Y-29130000D02*
X194675000Y-31380000D01*
X202675000Y-31380000D02*
X200425000Y-29130000D01*
X162425000Y-29130000D02*
X158925000Y-29130000D01*
X194675000Y-31380000D02*
X164675000Y-31380000D01*
D19*
X-116825000Y130120000D02*
X-114310000Y130120000D01*
X-125575000Y121370000D02*
X-116825000Y130120000D01*
X-125575000Y113120000D02*
X-125575000Y121370000D01*
X-114310000Y130120000D02*
X-112645000Y131785000D01*
D20*
X-125575000Y65620000D02*
X-125575000Y113120000D01*
X-174575000Y60620000D02*
X-130575000Y60620000D01*
X-185575000Y49620000D02*
X-174575000Y60620000D01*
X-74075000Y-31380000D02*
X-77325000Y-31380000D01*
X-77325000Y-31380000D02*
X-79575000Y-29130000D01*
X-79575000Y-29130000D02*
X-82575000Y-29130000D01*
X-84825000Y-31380000D02*
X-124825000Y-31380000D01*
X-124825000Y-31380000D02*
X-127075000Y-29130000D01*
X-127075000Y-29130000D02*
X-130075000Y-29130000D01*
X-130075000Y-29130000D02*
X-132325000Y-31380000D01*
X-132325000Y-31380000D02*
X-176325000Y-31380000D01*
X-82575000Y-29130000D02*
X-84825000Y-31380000D01*
X-176325000Y-31380000D02*
X-178825000Y-28880000D01*
X-178825000Y-28880000D02*
X-185325000Y-28880000D01*
X-185325000Y-28880000D02*
X-185575000Y-28630000D01*
X-130575000Y60620000D02*
X-125575000Y65620000D01*
X-185575000Y-28630000D02*
X-185575000Y49620000D01*
X-66455000Y-11760000D02*
X-66455000Y-21650000D01*
X-15575000Y-8880000D02*
X-18075000Y-11380000D01*
X-18075000Y-11380000D02*
X-66075000Y-11380000D01*
X-11075000Y-11380000D02*
X-13575000Y-8880000D01*
X-9325000Y-11380000D02*
X-11075000Y-11380000D01*
X129045000Y-21650000D02*
X129045000Y-11750000D01*
X100425000Y-8880000D02*
X98425000Y-8880000D01*
X98425000Y-8880000D02*
X95925000Y-11380000D01*
X26925000Y-11380000D02*
X24425000Y-8880000D01*
X-66075000Y-11380000D02*
X-66455000Y-11760000D01*
X19925000Y-11380000D02*
X-1075000Y-11380000D01*
X129045000Y-11750000D02*
X128675000Y-11380000D01*
X-1075000Y-11380000D02*
X-2075000Y-12380000D01*
X-13575000Y-8880000D02*
X-15575000Y-8880000D01*
X128675000Y-11380000D02*
X102925000Y-11380000D01*
X102925000Y-11380000D02*
X100425000Y-8880000D01*
X-8325000Y-12380000D02*
X-9325000Y-11380000D01*
X95925000Y-11380000D02*
X26925000Y-11380000D01*
X24425000Y-8880000D02*
X22425000Y-8880000D01*
X22425000Y-8880000D02*
X19925000Y-11380000D01*
X-2075000Y-12380000D02*
X-8325000Y-12380000D01*
D19*
%TO.N,ROW_7*%
X13685000Y83350000D02*
X23795000Y83350000D01*
X-24315000Y83350000D02*
X-14205000Y83350000D01*
X51685000Y83350000D02*
X61795000Y83350000D01*
X-100315000Y83350000D02*
X-90205000Y83350000D01*
X89685000Y83350000D02*
X99795000Y83350000D01*
X-62315000Y83350000D02*
X-52205000Y83350000D01*
D20*
X231795000Y41350000D02*
X231795000Y31120000D01*
X184795000Y41350000D02*
X184795000Y31120000D01*
X-100315000Y83350000D02*
X-100315000Y93120000D01*
X89685000Y83350000D02*
X89685000Y93120000D01*
X51685000Y83350000D02*
X51685000Y93120000D01*
X13685000Y83350000D02*
X13685000Y93120000D01*
X-62315000Y83350000D02*
X-62315000Y93120000D01*
X-24315000Y83350000D02*
X-24315000Y93120000D01*
X269795000Y41350000D02*
X269795000Y31490000D01*
X269795000Y31490000D02*
X269425000Y31120000D01*
X224925000Y33870000D02*
X222175000Y31120000D01*
X269425000Y31120000D02*
X231175000Y31120000D01*
X231175000Y31120000D02*
X228425000Y33870000D01*
X160675000Y31120000D02*
X157925000Y33870000D01*
X228425000Y33870000D02*
X224925000Y33870000D01*
X157925000Y33870000D02*
X154425000Y33870000D01*
X154425000Y33870000D02*
X151675000Y31120000D01*
X222175000Y31120000D02*
X160675000Y31120000D01*
X151675000Y31120000D02*
X143425000Y31120000D01*
X143425000Y31120000D02*
X142425000Y32120000D01*
X142425000Y32120000D02*
X138425000Y32120000D01*
X138425000Y32120000D02*
X137795000Y32750000D01*
X137795000Y32750000D02*
X137795000Y41350000D01*
X-120575000Y97870000D02*
X-120575000Y112620000D01*
X-118825000Y96120000D02*
X-120575000Y97870000D01*
X-114575000Y96120000D02*
X-118825000Y96120000D01*
X-58575000Y96120000D02*
X-61575000Y93120000D01*
X-61575000Y93120000D02*
X-111575000Y93120000D01*
X-56075000Y96120000D02*
X-58575000Y96120000D01*
X-53075000Y93120000D02*
X-56075000Y96120000D01*
X-23575000Y93120000D02*
X-53075000Y93120000D01*
X-20575000Y96120000D02*
X-23575000Y93120000D01*
X137795000Y41350000D02*
X137795000Y50250000D01*
X137795000Y50250000D02*
X132675000Y55370000D01*
X60925000Y93120000D02*
X57925000Y96120000D01*
X55425000Y96120000D02*
X52425000Y93120000D01*
X122175000Y55370000D02*
X113425000Y64120000D01*
X113425000Y64120000D02*
X113425000Y91870000D01*
X113425000Y91870000D02*
X112175000Y93120000D01*
X-15075000Y93120000D02*
X-18075000Y96120000D01*
X112175000Y93120000D02*
X60925000Y93120000D01*
X132675000Y55370000D02*
X122175000Y55370000D01*
X57925000Y96120000D02*
X55425000Y96120000D01*
X-111575000Y93120000D02*
X-114575000Y96120000D01*
X52425000Y93120000D02*
X-15075000Y93120000D01*
X-18075000Y96120000D02*
X-20575000Y96120000D01*
D19*
X-99060000Y125120000D02*
X-92395000Y131785000D01*
X-115575000Y125120000D02*
X-99060000Y125120000D01*
X-120575000Y120120000D02*
X-115575000Y125120000D01*
X-120575000Y112620000D02*
X-120575000Y120120000D01*
D20*
%TO.N,ROW_5*%
X4795000Y41350000D02*
X4795000Y30120000D01*
X4185000Y20350000D02*
X4185000Y30120000D01*
X-43315000Y41350000D02*
X-43315000Y30120000D01*
X-42705000Y20350000D02*
X-42705000Y30120000D01*
X-71815000Y20350000D02*
X-71815000Y30120000D01*
X-90815000Y20350000D02*
X-90815000Y30120000D01*
X-114565000Y20350000D02*
X-114565000Y30120000D01*
X70685000Y41350000D02*
X70685000Y31120000D01*
X71295000Y20350000D02*
X71295000Y31120000D01*
X278685000Y-650000D02*
X278685000Y10620000D01*
X240685000Y20350000D02*
X240685000Y10620000D01*
X165795000Y20350000D02*
X165795000Y10620000D01*
D19*
X90295000Y20350000D02*
X90295000Y33120000D01*
D20*
X141935000Y20350000D02*
X141881499Y20403501D01*
X141881499Y20403501D02*
X141881499Y29663501D01*
X141881499Y29663501D02*
X141425000Y30120000D01*
X73295000Y33120000D02*
X71295000Y31120000D01*
X141425000Y30120000D02*
X93925000Y30120000D01*
X93925000Y30120000D02*
X90925000Y33120000D01*
X90925000Y33120000D02*
X73295000Y33120000D01*
X-166315000Y33860000D02*
X-166315000Y41350000D01*
X-165575000Y33120000D02*
X-166315000Y33860000D01*
X-156075000Y30120000D02*
X-159075000Y33120000D01*
X-159075000Y33120000D02*
X-165575000Y33120000D01*
X71295000Y31120000D02*
X12425000Y31120000D01*
X-65575000Y33120000D02*
X-68075000Y33120000D01*
X4925000Y30120000D02*
X-62575000Y30120000D01*
X-62575000Y30120000D02*
X-65575000Y33120000D01*
X10425000Y33120000D02*
X7925000Y33120000D01*
X12425000Y31120000D02*
X10425000Y33120000D01*
X7925000Y33120000D02*
X4925000Y30120000D01*
X-68075000Y33120000D02*
X-71075000Y30120000D01*
X-105575000Y30120000D02*
X-108575000Y33120000D01*
X-71075000Y30120000D02*
X-105575000Y30120000D01*
X-108575000Y33120000D02*
X-110575000Y33120000D01*
X-110575000Y33120000D02*
X-113575000Y30120000D01*
X-113575000Y30120000D02*
X-156075000Y30120000D01*
X142175000Y10620000D02*
X141935000Y10860000D01*
X156675000Y10620000D02*
X142175000Y10620000D01*
X158925000Y12870000D02*
X156675000Y10620000D01*
X297685000Y20350000D02*
X297685000Y11005000D01*
X141935000Y10860000D02*
X141935000Y20350000D01*
X297685000Y11005000D02*
X297300000Y10620000D01*
X297300000Y10620000D02*
X248425000Y10620000D01*
X195925000Y10620000D02*
X164675000Y10620000D01*
X248425000Y10620000D02*
X246925000Y12120000D01*
X164675000Y10620000D02*
X162425000Y12870000D01*
X246925000Y12120000D02*
X244425000Y12120000D01*
X244425000Y12120000D02*
X242925000Y10620000D01*
X199925000Y12120000D02*
X197425000Y12120000D01*
X197425000Y12120000D02*
X195925000Y10620000D01*
X242925000Y10620000D02*
X201425000Y10620000D01*
X201425000Y10620000D02*
X199925000Y12120000D01*
X162425000Y12870000D02*
X158925000Y12870000D01*
D19*
X-104980000Y127120000D02*
X-100315000Y131785000D01*
X-116075000Y127120000D02*
X-104980000Y127120000D01*
X-122575000Y120620000D02*
X-116075000Y127120000D01*
X-122575000Y112620000D02*
X-122575000Y120620000D01*
D20*
X-166315000Y41350000D02*
X-166315000Y57380000D01*
X-166315000Y57380000D02*
X-166075000Y57620000D01*
X-166075000Y57620000D02*
X-129825000Y57620000D01*
X-129825000Y57620000D02*
X-122575000Y64870000D01*
X-122575000Y64870000D02*
X-122575000Y112620000D01*
D19*
%TO.N,ROW_3*%
X-166315000Y-650000D02*
X-156205000Y-650000D01*
X-67065000Y-650000D02*
X-56955000Y-650000D01*
D20*
X-166315000Y-650000D02*
X-166315000Y-10380000D01*
X-29065000Y-650000D02*
X-29065000Y-10380000D01*
X-67065000Y-650000D02*
X-67065000Y-10380000D01*
X-95565000Y-21650000D02*
X-95565000Y-10380000D01*
X19045000Y-650000D02*
X8935000Y-650000D01*
X33295000Y20350000D02*
X33295000Y9620000D01*
X203795000Y-21650000D02*
X203795000Y-11380000D01*
X193685000Y-11380000D02*
X193685000Y-21650000D01*
X250795000Y-21650000D02*
X250795000Y-11380000D01*
X95045000Y-650000D02*
X95045000Y-10380000D01*
X8935000Y8130000D02*
X8935000Y-650000D01*
X12925000Y12120000D02*
X8935000Y8130000D01*
X14925000Y12120000D02*
X12925000Y12120000D01*
X17425000Y9620000D02*
X14925000Y12120000D01*
X56675000Y9620000D02*
X17425000Y9620000D01*
X57045000Y9250000D02*
X56675000Y9620000D01*
X57045000Y-650000D02*
X57045000Y9250000D01*
X194925000Y-11380000D02*
X193685000Y-11380000D01*
X197425000Y-8880000D02*
X194925000Y-11380000D01*
X199925000Y-8880000D02*
X197425000Y-8880000D01*
X202425000Y-11380000D02*
X199925000Y-8880000D01*
X269425000Y-11380000D02*
X202425000Y-11380000D01*
X269795000Y-11750000D02*
X269425000Y-11380000D01*
X269795000Y-21650000D02*
X269795000Y-11750000D01*
X161925000Y-8880000D02*
X164425000Y-11380000D01*
X157925000Y-10380000D02*
X159425000Y-8880000D01*
X103175000Y-10380000D02*
X157925000Y-10380000D01*
X97925000Y-8130000D02*
X100925000Y-8130000D01*
X100925000Y-8130000D02*
X103175000Y-10380000D01*
X95675000Y-10380000D02*
X97925000Y-8130000D01*
X164425000Y-11380000D02*
X193685000Y-11380000D01*
X57425000Y-10380000D02*
X95675000Y-10380000D01*
X159425000Y-8880000D02*
X161925000Y-8880000D01*
X57045000Y-10000000D02*
X57425000Y-10380000D01*
X57045000Y-650000D02*
X57045000Y-10000000D01*
X135420000Y-650000D02*
X135420000Y-10380000D01*
D19*
X-110900000Y129120000D02*
X-108235000Y131785000D01*
X-116575000Y129120000D02*
X-110900000Y129120000D01*
X-124575000Y121120000D02*
X-116575000Y129120000D01*
X-124575000Y116045000D02*
X-124575000Y121120000D01*
D20*
X-184575000Y49370000D02*
X-174325000Y59620000D01*
X-160075000Y-8880000D02*
X-162575000Y-8880000D01*
X-174325000Y59620000D02*
X-130325000Y59620000D01*
X-93075000Y-10380000D02*
X-158575000Y-10380000D01*
X-91575000Y-8880000D02*
X-93075000Y-10380000D01*
X8935000Y-650000D02*
X8935000Y-9995000D01*
X-164075000Y-10380000D02*
X-184325000Y-10380000D01*
X-89575000Y-8880000D02*
X-91575000Y-8880000D01*
X8935000Y-9995000D02*
X8550000Y-10380000D01*
X-184575000Y-10130000D02*
X-184575000Y49370000D01*
X-158575000Y-10380000D02*
X-160075000Y-8880000D01*
X-2325000Y-11380000D02*
X-7825000Y-11380000D01*
X8550000Y-10380000D02*
X-1325000Y-10380000D01*
X-88075000Y-10380000D02*
X-89575000Y-8880000D01*
X-130325000Y59620000D02*
X-124575000Y65370000D01*
X-162575000Y-8880000D02*
X-164075000Y-10380000D01*
X-7825000Y-11380000D02*
X-8825000Y-10380000D01*
X-8825000Y-10380000D02*
X-10825000Y-10380000D01*
X-10825000Y-10380000D02*
X-13075000Y-8130000D01*
X-124575000Y65370000D02*
X-124575000Y116045000D01*
X-184325000Y-10380000D02*
X-184575000Y-10130000D01*
X-13075000Y-8130000D02*
X-16075000Y-8130000D01*
X-16075000Y-8130000D02*
X-18325000Y-10380000D01*
X-1325000Y-10380000D02*
X-2325000Y-11380000D01*
X-18325000Y-10380000D02*
X-88075000Y-10380000D01*
D19*
%TO.N,ROW_1*%
X-166315000Y-42650000D02*
X-156205000Y-42650000D01*
D20*
X-166315000Y-42650000D02*
X-166315000Y-32380000D01*
X66545000Y-21650000D02*
X66545000Y-32380000D01*
X56435000Y-21650000D02*
X56435000Y-32380000D01*
X13685000Y-42650000D02*
X13685000Y-32380000D01*
X-38565000Y-21650000D02*
X-38565000Y-32380000D01*
X-67065000Y-42650000D02*
X-67065000Y-32380000D01*
X-123455000Y-42650000D02*
X-123455000Y-32380000D01*
X240685000Y-42650000D02*
X240685000Y-32380000D01*
X193685000Y-42650000D02*
X193685000Y-32380000D01*
X94435000Y-42650000D02*
X94435000Y-32380000D01*
X110925000Y-38880000D02*
X110925000Y-32380000D01*
X111195000Y-39150000D02*
X110925000Y-38880000D01*
X115295000Y-39150000D02*
X111195000Y-39150000D01*
X250795000Y-52000000D02*
X250795000Y-42650000D01*
X251175000Y-52380000D02*
X250795000Y-52000000D01*
X288425000Y-52380000D02*
X251175000Y-52380000D01*
X288795000Y-52010000D02*
X288425000Y-52380000D01*
X288795000Y-42650000D02*
X288795000Y-52010000D01*
X124425000Y-32380000D02*
X110925000Y-32380000D01*
X126925000Y-29880000D02*
X124425000Y-32380000D01*
X128925000Y-29880000D02*
X126925000Y-29880000D01*
X131425000Y-32380000D02*
X128925000Y-29880000D01*
X156925000Y-32380000D02*
X131425000Y-32380000D01*
X159425000Y-29880000D02*
X156925000Y-32380000D01*
X250425000Y-32380000D02*
X249425000Y-32380000D01*
X250795000Y-32750000D02*
X250425000Y-32380000D01*
X197425000Y-29880000D02*
X194925000Y-32380000D01*
X249425000Y-32380000D02*
X246925000Y-29880000D01*
X246925000Y-29880000D02*
X244425000Y-29880000D01*
X202425000Y-32380000D02*
X199925000Y-29880000D01*
X244425000Y-29880000D02*
X241925000Y-32380000D01*
X241925000Y-32380000D02*
X202425000Y-32380000D01*
X199925000Y-29880000D02*
X197425000Y-29880000D01*
X250795000Y-42650000D02*
X250795000Y-32750000D01*
X194925000Y-32380000D02*
X164425000Y-32380000D01*
X164425000Y-32380000D02*
X161925000Y-29880000D01*
X161925000Y-29880000D02*
X159425000Y-29880000D01*
X18435000Y-29620000D02*
X18425000Y-29630000D01*
X18435000Y-21650000D02*
X18435000Y-29620000D01*
X133045000Y-42650000D02*
X133045000Y-32380000D01*
D19*
X-116407500Y131785000D02*
X-116155000Y131785000D01*
X-126575000Y121617500D02*
X-116407500Y131785000D01*
X-126575000Y112620000D02*
X-126575000Y121617500D01*
D20*
X-130825000Y61620000D02*
X-126575000Y65870000D01*
X-186575000Y-29430000D02*
X-186575000Y49870000D01*
X-129575000Y-29880000D02*
X-132075000Y-32380000D01*
X-176575000Y-32380000D02*
X-179275000Y-29680000D01*
X-127575000Y-29880000D02*
X-129575000Y-29880000D01*
X-125075000Y-32380000D02*
X-127575000Y-29880000D01*
X110925000Y-32380000D02*
X80425000Y-32380000D01*
X-174825000Y61620000D02*
X-130825000Y61620000D01*
X80425000Y-32380000D02*
X77675000Y-29630000D01*
X22425000Y-32380000D02*
X19675000Y-29630000D01*
X77675000Y-29630000D02*
X76175000Y-29630000D01*
X76175000Y-29630000D02*
X73425000Y-32380000D01*
X-179275000Y-29680000D02*
X-186325000Y-29680000D01*
X17675000Y-29630000D02*
X14925000Y-32380000D01*
X73425000Y-32380000D02*
X22425000Y-32380000D01*
X-132075000Y-32380000D02*
X-176575000Y-32380000D01*
X19675000Y-29630000D02*
X17675000Y-29630000D01*
X14925000Y-32380000D02*
X-77575000Y-32380000D01*
X-126575000Y65870000D02*
X-126575000Y112620000D01*
X-77575000Y-32380000D02*
X-80075000Y-29880000D01*
X-186325000Y-29680000D02*
X-186575000Y-29430000D01*
X-80075000Y-29880000D02*
X-82075000Y-29880000D01*
X-186575000Y49870000D02*
X-174825000Y61620000D01*
X-82075000Y-29880000D02*
X-84575000Y-32380000D01*
X-84575000Y-32380000D02*
X-125075000Y-32380000D01*
%TD*%
D19*
%TO.N,GND*%
X121555000Y133501264D02*
X121555001Y66818649D01*
X121551687Y66785000D01*
X121564912Y66650717D01*
X121604082Y66521594D01*
X121667689Y66402593D01*
X121683214Y66383676D01*
X121731840Y66324424D01*
X121731847Y66324417D01*
X121753290Y66298289D01*
X121779418Y66276846D01*
X124731840Y63324424D01*
X124753289Y63298289D01*
X124857593Y63212688D01*
X124935142Y63171237D01*
X124976593Y63149081D01*
X125105717Y63109912D01*
X125206353Y63100000D01*
X125206361Y63100000D01*
X125240000Y63096687D01*
X125273639Y63100000D01*
X307956264Y63100000D01*
X310555000Y60501264D01*
X310555001Y-53931263D01*
X307956264Y-56530000D01*
X-185476264Y-56530000D01*
X-188075000Y-53931264D01*
X-188075000Y60501264D01*
X-185476264Y63100000D01*
X-173202000Y63100000D01*
X-173202000Y62380000D01*
X-174787678Y62380000D01*
X-174825001Y62383676D01*
X-174862324Y62380000D01*
X-174862333Y62380000D01*
X-174973986Y62369003D01*
X-175117247Y62325546D01*
X-175249276Y62254974D01*
X-175365001Y62160001D01*
X-175388799Y62131003D01*
X-187086002Y50433799D01*
X-187115000Y50410001D01*
X-187138798Y50381003D01*
X-187138799Y50381002D01*
X-187209974Y50294276D01*
X-187280546Y50162246D01*
X-187324002Y50018985D01*
X-187338676Y49870000D01*
X-187334999Y49832667D01*
X-187335000Y-29392678D01*
X-187338676Y-29430000D01*
X-187335000Y-29467322D01*
X-187335000Y-29467332D01*
X-187324003Y-29578985D01*
X-187296560Y-29669454D01*
X-187280546Y-29722246D01*
X-187209974Y-29854276D01*
X-187188539Y-29880394D01*
X-187184501Y-53880021D01*
X-187182057Y-53904797D01*
X-187174826Y-53928621D01*
X-187163086Y-53950575D01*
X-187147304Y-53969803D01*
X-185147304Y-55969803D01*
X-185128058Y-55985597D01*
X-185106102Y-55997333D01*
X-185082277Y-56004560D01*
X-185057501Y-56007000D01*
X307925000Y-56007000D01*
X307949776Y-56004560D01*
X307973601Y-55997333D01*
X307995557Y-55985597D01*
X308014803Y-55969803D01*
X310014803Y-53969803D01*
X310030597Y-53950557D01*
X310042333Y-53928601D01*
X310049560Y-53904776D01*
X310052000Y-53880000D01*
X310052000Y55120000D01*
X310049560Y55144776D01*
X310042333Y55168601D01*
X310030597Y55190557D01*
X310014803Y55209803D01*
X309995557Y55225597D01*
X309973601Y55237333D01*
X309949776Y55244560D01*
X309925000Y55247000D01*
X135122801Y55247000D01*
X133488804Y56880997D01*
X133465001Y56910001D01*
X133349276Y57004974D01*
X133217247Y57075546D01*
X133073986Y57119003D01*
X132962333Y57130000D01*
X132962322Y57130000D01*
X132925000Y57133676D01*
X132887678Y57130000D01*
X132094606Y57130000D01*
X132014803Y57209803D01*
X131995557Y57225597D01*
X131973601Y57237333D01*
X131949776Y57244560D01*
X131925000Y57247000D01*
X122728871Y57247000D01*
X115552000Y64671349D01*
X115552000Y112370000D01*
X115549560Y112394776D01*
X115542333Y112418601D01*
X115530597Y112440557D01*
X115514803Y112459803D01*
X109764803Y118209803D01*
X109745557Y118225597D01*
X109723601Y118237333D01*
X109699776Y118244560D01*
X109675000Y118247000D01*
X-109075000Y118247000D01*
X-109099776Y118244560D01*
X-109123601Y118237333D01*
X-109145557Y118225597D01*
X-109169921Y118204374D01*
X-113169921Y113704374D01*
X-113184558Y113684235D01*
X-113194984Y113661627D01*
X-113200800Y113637419D01*
X-113202000Y113619873D01*
X-113185436Y97055237D01*
X-113511196Y97380997D01*
X-113534999Y97410001D01*
X-113650724Y97504974D01*
X-113782753Y97575546D01*
X-113926014Y97619003D01*
X-114037667Y97630000D01*
X-114037678Y97630000D01*
X-114075000Y97633676D01*
X-114112322Y97630000D01*
X-118010198Y97630000D01*
X-118815000Y98434801D01*
X-118815000Y112562267D01*
X-118813000Y112582574D01*
X-118813000Y115004902D01*
X-118165000Y115004902D01*
X-118165000Y114535098D01*
X-118073346Y114074321D01*
X-117893560Y113640279D01*
X-117632550Y113249651D01*
X-117300349Y112917450D01*
X-116909721Y112656440D01*
X-116475679Y112476654D01*
X-116014902Y112385000D01*
X-115545098Y112385000D01*
X-115084321Y112476654D01*
X-114650279Y112656440D01*
X-114259651Y112917450D01*
X-113927450Y113249651D01*
X-113666440Y113640279D01*
X-113486654Y114074321D01*
X-113395000Y114535098D01*
X-113395000Y115004902D01*
X-113486654Y115465679D01*
X-113666440Y115899721D01*
X-113927450Y116290349D01*
X-114259651Y116622550D01*
X-114650279Y116883560D01*
X-115084321Y117063346D01*
X-115545098Y117155000D01*
X-116014902Y117155000D01*
X-116475679Y117063346D01*
X-116909721Y116883560D01*
X-117300349Y116622550D01*
X-117632550Y116290349D01*
X-117893560Y115899721D01*
X-118073346Y115465679D01*
X-118165000Y115004902D01*
X-118813000Y115004902D01*
X-118813000Y119554370D01*
X-115009370Y123358000D01*
X-96137423Y123358000D01*
X-96100000Y123354314D01*
X-96062577Y123358000D01*
X-96062574Y123358000D01*
X-95950622Y123369026D01*
X-95806985Y123412598D01*
X-95674608Y123483355D01*
X-95558578Y123578578D01*
X-95534716Y123607654D01*
X-88799048Y130343321D01*
X-88581260Y130300000D01*
X-88288740Y130300000D01*
X-88001842Y130357068D01*
X-87731589Y130469010D01*
X-87488368Y130631525D01*
X-87281525Y130838368D01*
X-87119010Y131081589D01*
X-87007068Y131351842D01*
X-86991898Y131428109D01*
X-85916481Y131428109D01*
X-85819157Y131153748D01*
X-85670178Y130903645D01*
X-85475269Y130687412D01*
X-85241920Y130513359D01*
X-84979099Y130388175D01*
X-84831890Y130343524D01*
X-84602000Y130464845D01*
X-84602000Y131658000D01*
X-84348000Y131658000D01*
X-84348000Y130464845D01*
X-84118110Y130343524D01*
X-83970901Y130388175D01*
X-83708080Y130513359D01*
X-83474731Y130687412D01*
X-83279822Y130903645D01*
X-83130843Y131153748D01*
X-83033519Y131428109D01*
X-81956481Y131428109D01*
X-81859157Y131153748D01*
X-81710178Y130903645D01*
X-81515269Y130687412D01*
X-81281920Y130513359D01*
X-81019099Y130388175D01*
X-80871890Y130343524D01*
X-80642000Y130464845D01*
X-80642000Y131658000D01*
X-80388000Y131658000D01*
X-80388000Y130464845D01*
X-80158110Y130343524D01*
X-80010901Y130388175D01*
X-79748080Y130513359D01*
X-79514731Y130687412D01*
X-79319822Y130903645D01*
X-79170843Y131153748D01*
X-79073519Y131428109D01*
X-79194186Y131658000D01*
X-80388000Y131658000D01*
X-80642000Y131658000D01*
X-81835814Y131658000D01*
X-81956481Y131428109D01*
X-83033519Y131428109D01*
X-83154186Y131658000D01*
X-84348000Y131658000D01*
X-84602000Y131658000D01*
X-85795814Y131658000D01*
X-85916481Y131428109D01*
X-86991898Y131428109D01*
X-86950000Y131638740D01*
X-86950000Y131931260D01*
X-86991897Y132141891D01*
X-85916481Y132141891D01*
X-85795814Y131912000D01*
X-84602000Y131912000D01*
X-84602000Y133105155D01*
X-84348000Y133105155D01*
X-84348000Y131912000D01*
X-83154186Y131912000D01*
X-83033519Y132141891D01*
X-81956481Y132141891D01*
X-81835814Y131912000D01*
X-80642000Y131912000D01*
X-80642000Y133105155D01*
X-80388000Y133105155D01*
X-80388000Y131912000D01*
X-79194186Y131912000D01*
X-79184077Y131931260D01*
X-78040000Y131931260D01*
X-78040000Y131638740D01*
X-77982932Y131351842D01*
X-77870990Y131081589D01*
X-77708475Y130838368D01*
X-77501632Y130631525D01*
X-77258411Y130469010D01*
X-76988158Y130357068D01*
X-76701260Y130300000D01*
X-76408740Y130300000D01*
X-76121842Y130357068D01*
X-75851589Y130469010D01*
X-75608368Y130631525D01*
X-75401525Y130838368D01*
X-75239010Y131081589D01*
X-75127068Y131351842D01*
X-75070000Y131638740D01*
X-75070000Y131931260D01*
X-74080000Y131931260D01*
X-74080000Y131638740D01*
X-74022932Y131351842D01*
X-73910990Y131081589D01*
X-73748475Y130838368D01*
X-73541632Y130631525D01*
X-73298411Y130469010D01*
X-73028158Y130357068D01*
X-72741260Y130300000D01*
X-72448740Y130300000D01*
X-72161842Y130357068D01*
X-71891589Y130469010D01*
X-71648368Y130631525D01*
X-71441525Y130838368D01*
X-71279010Y131081589D01*
X-71167068Y131351842D01*
X-71110000Y131638740D01*
X-71110000Y131931260D01*
X-70120000Y131931260D01*
X-70120000Y131638740D01*
X-70062932Y131351842D01*
X-69950990Y131081589D01*
X-69788475Y130838368D01*
X-69581632Y130631525D01*
X-69338411Y130469010D01*
X-69068158Y130357068D01*
X-68781260Y130300000D01*
X-68488740Y130300000D01*
X-68201842Y130357068D01*
X-67931589Y130469010D01*
X-67688368Y130631525D01*
X-67481525Y130838368D01*
X-67319010Y131081589D01*
X-67207068Y131351842D01*
X-67150000Y131638740D01*
X-67150000Y131931260D01*
X-66160000Y131931260D01*
X-66160000Y131638740D01*
X-66102932Y131351842D01*
X-65990990Y131081589D01*
X-65828475Y130838368D01*
X-65621632Y130631525D01*
X-65378411Y130469010D01*
X-65108158Y130357068D01*
X-64821260Y130300000D01*
X-64528740Y130300000D01*
X-64241842Y130357068D01*
X-63971589Y130469010D01*
X-63728368Y130631525D01*
X-63521525Y130838368D01*
X-63359010Y131081589D01*
X-63247068Y131351842D01*
X-63190000Y131638740D01*
X-63190000Y131931260D01*
X-62200000Y131931260D01*
X-62200000Y131638740D01*
X-62142932Y131351842D01*
X-62030990Y131081589D01*
X-61868475Y130838368D01*
X-61661632Y130631525D01*
X-61418411Y130469010D01*
X-61148158Y130357068D01*
X-60861260Y130300000D01*
X-60568740Y130300000D01*
X-60281842Y130357068D01*
X-60011589Y130469010D01*
X-59768368Y130631525D01*
X-59561525Y130838368D01*
X-59399010Y131081589D01*
X-59287068Y131351842D01*
X-59230000Y131638740D01*
X-59230000Y131931260D01*
X-58240000Y131931260D01*
X-58240000Y131638740D01*
X-58182932Y131351842D01*
X-58070990Y131081589D01*
X-57908475Y130838368D01*
X-57701632Y130631525D01*
X-57458411Y130469010D01*
X-57188158Y130357068D01*
X-56901260Y130300000D01*
X-56608740Y130300000D01*
X-56321842Y130357068D01*
X-56051589Y130469010D01*
X-55808368Y130631525D01*
X-55601525Y130838368D01*
X-55439010Y131081589D01*
X-55327068Y131351842D01*
X-55270000Y131638740D01*
X-55270000Y131931260D01*
X-54280000Y131931260D01*
X-54280000Y131638740D01*
X-54222932Y131351842D01*
X-54110990Y131081589D01*
X-53948475Y130838368D01*
X-53741632Y130631525D01*
X-53498411Y130469010D01*
X-53228158Y130357068D01*
X-52941260Y130300000D01*
X-52648740Y130300000D01*
X-52361842Y130357068D01*
X-52091589Y130469010D01*
X-51848368Y130631525D01*
X-51641525Y130838368D01*
X-51479010Y131081589D01*
X-51367068Y131351842D01*
X-51310000Y131638740D01*
X-51310000Y131931260D01*
X-50320000Y131931260D01*
X-50320000Y131638740D01*
X-50262932Y131351842D01*
X-50150990Y131081589D01*
X-49988475Y130838368D01*
X-49781632Y130631525D01*
X-49538411Y130469010D01*
X-49268158Y130357068D01*
X-48981260Y130300000D01*
X-48688740Y130300000D01*
X-48401842Y130357068D01*
X-48131589Y130469010D01*
X-47888368Y130631525D01*
X-47681525Y130838368D01*
X-47519010Y131081589D01*
X-47407068Y131351842D01*
X-47350000Y131638740D01*
X-47350000Y131931260D01*
X-46360000Y131931260D01*
X-46360000Y131638740D01*
X-46302932Y131351842D01*
X-46190990Y131081589D01*
X-46028475Y130838368D01*
X-45821632Y130631525D01*
X-45578411Y130469010D01*
X-45308158Y130357068D01*
X-45021260Y130300000D01*
X-44728740Y130300000D01*
X-44441842Y130357068D01*
X-44171589Y130469010D01*
X-43928368Y130631525D01*
X-43721525Y130838368D01*
X-43559010Y131081589D01*
X-43447068Y131351842D01*
X-43390000Y131638740D01*
X-43390000Y131931260D01*
X-42400000Y131931260D01*
X-42400000Y131638740D01*
X-42342932Y131351842D01*
X-42230990Y131081589D01*
X-42068475Y130838368D01*
X-41861632Y130631525D01*
X-41618411Y130469010D01*
X-41348158Y130357068D01*
X-41061260Y130300000D01*
X-40768740Y130300000D01*
X-40481842Y130357068D01*
X-40211589Y130469010D01*
X-39968368Y130631525D01*
X-39761525Y130838368D01*
X-39599010Y131081589D01*
X-39487068Y131351842D01*
X-39430000Y131638740D01*
X-39430000Y131931260D01*
X-38440000Y131931260D01*
X-38440000Y131638740D01*
X-38382932Y131351842D01*
X-38270990Y131081589D01*
X-38108475Y130838368D01*
X-37901632Y130631525D01*
X-37658411Y130469010D01*
X-37388158Y130357068D01*
X-37101260Y130300000D01*
X-36808740Y130300000D01*
X-36521842Y130357068D01*
X-36251589Y130469010D01*
X-36008368Y130631525D01*
X-35801525Y130838368D01*
X-35639010Y131081589D01*
X-35527068Y131351842D01*
X-35470000Y131638740D01*
X-35470000Y131931260D01*
X-34480000Y131931260D01*
X-34480000Y131638740D01*
X-34422932Y131351842D01*
X-34310990Y131081589D01*
X-34148475Y130838368D01*
X-33941632Y130631525D01*
X-33698411Y130469010D01*
X-33428158Y130357068D01*
X-33141260Y130300000D01*
X-32848740Y130300000D01*
X-32561842Y130357068D01*
X-32291589Y130469010D01*
X-32048368Y130631525D01*
X-31841525Y130838368D01*
X-31679010Y131081589D01*
X-31567068Y131351842D01*
X-31510000Y131638740D01*
X-31510000Y131931260D01*
X-30520000Y131931260D01*
X-30520000Y131638740D01*
X-30462932Y131351842D01*
X-30350990Y131081589D01*
X-30188475Y130838368D01*
X-29981632Y130631525D01*
X-29738411Y130469010D01*
X-29468158Y130357068D01*
X-29181260Y130300000D01*
X-28888740Y130300000D01*
X-28601842Y130357068D01*
X-28331589Y130469010D01*
X-28088368Y130631525D01*
X-27881525Y130838368D01*
X-27719010Y131081589D01*
X-27607068Y131351842D01*
X-27550000Y131638740D01*
X-27550000Y131931260D01*
X-26560000Y131931260D01*
X-26560000Y131638740D01*
X-26502932Y131351842D01*
X-26390990Y131081589D01*
X-26228475Y130838368D01*
X-26021632Y130631525D01*
X-25778411Y130469010D01*
X-25508158Y130357068D01*
X-25221260Y130300000D01*
X-24928740Y130300000D01*
X-24641842Y130357068D01*
X-24371589Y130469010D01*
X-24128368Y130631525D01*
X-23921525Y130838368D01*
X-23759010Y131081589D01*
X-23647068Y131351842D01*
X-23590000Y131638740D01*
X-23590000Y131931260D01*
X-22600000Y131931260D01*
X-22600000Y131638740D01*
X-22542932Y131351842D01*
X-22430990Y131081589D01*
X-22268475Y130838368D01*
X-22061632Y130631525D01*
X-21818411Y130469010D01*
X-21548158Y130357068D01*
X-21261260Y130300000D01*
X-20968740Y130300000D01*
X-20681842Y130357068D01*
X-20411589Y130469010D01*
X-20168368Y130631525D01*
X-19961525Y130838368D01*
X-19799010Y131081589D01*
X-19687068Y131351842D01*
X-19630000Y131638740D01*
X-19630000Y131931260D01*
X-18640000Y131931260D01*
X-18640000Y131638740D01*
X-18582932Y131351842D01*
X-18470990Y131081589D01*
X-18308475Y130838368D01*
X-18101632Y130631525D01*
X-17858411Y130469010D01*
X-17588158Y130357068D01*
X-17301260Y130300000D01*
X-17008740Y130300000D01*
X-16721842Y130357068D01*
X-16451589Y130469010D01*
X-16208368Y130631525D01*
X-16001525Y130838368D01*
X-15839010Y131081589D01*
X-15727068Y131351842D01*
X-15711898Y131428109D01*
X-14636481Y131428109D01*
X-14539157Y131153748D01*
X-14390178Y130903645D01*
X-14195269Y130687412D01*
X-13961920Y130513359D01*
X-13699099Y130388175D01*
X-13551890Y130343524D01*
X-13322000Y130464845D01*
X-13322000Y131658000D01*
X-13068000Y131658000D01*
X-13068000Y130464845D01*
X-12838110Y130343524D01*
X-12690901Y130388175D01*
X-12428080Y130513359D01*
X-12194731Y130687412D01*
X-11999822Y130903645D01*
X-11850843Y131153748D01*
X-11753519Y131428109D01*
X-10676481Y131428109D01*
X-10579157Y131153748D01*
X-10430178Y130903645D01*
X-10235269Y130687412D01*
X-10001920Y130513359D01*
X-9739099Y130388175D01*
X-9591890Y130343524D01*
X-9362000Y130464845D01*
X-9362000Y131658000D01*
X-9108000Y131658000D01*
X-9108000Y130464845D01*
X-8878110Y130343524D01*
X-8730901Y130388175D01*
X-8468080Y130513359D01*
X-8234731Y130687412D01*
X-8039822Y130903645D01*
X-7890843Y131153748D01*
X-7793519Y131428109D01*
X-7914186Y131658000D01*
X-9108000Y131658000D01*
X-9362000Y131658000D01*
X-10555814Y131658000D01*
X-10676481Y131428109D01*
X-11753519Y131428109D01*
X-11874186Y131658000D01*
X-13068000Y131658000D01*
X-13322000Y131658000D01*
X-14515814Y131658000D01*
X-14636481Y131428109D01*
X-15711898Y131428109D01*
X-15670000Y131638740D01*
X-15670000Y131931260D01*
X-15711897Y132141891D01*
X-14636481Y132141891D01*
X-14515814Y131912000D01*
X-13322000Y131912000D01*
X-13322000Y133105155D01*
X-13068000Y133105155D01*
X-13068000Y131912000D01*
X-11874186Y131912000D01*
X-11753519Y132141891D01*
X-10676481Y132141891D01*
X-10555814Y131912000D01*
X-9362000Y131912000D01*
X-9362000Y133105155D01*
X-9108000Y133105155D01*
X-9108000Y131912000D01*
X-7914186Y131912000D01*
X-7793519Y132141891D01*
X-7890843Y132416252D01*
X-8039822Y132666355D01*
X-8234731Y132882588D01*
X-8468080Y133056641D01*
X-8730901Y133181825D01*
X-8878110Y133226476D01*
X-9108000Y133105155D01*
X-9362000Y133105155D01*
X-9591890Y133226476D01*
X-9739099Y133181825D01*
X-10001920Y133056641D01*
X-10235269Y132882588D01*
X-10430178Y132666355D01*
X-10579157Y132416252D01*
X-10676481Y132141891D01*
X-11753519Y132141891D01*
X-11850843Y132416252D01*
X-11999822Y132666355D01*
X-12194731Y132882588D01*
X-12428080Y133056641D01*
X-12690901Y133181825D01*
X-12838110Y133226476D01*
X-13068000Y133105155D01*
X-13322000Y133105155D01*
X-13551890Y133226476D01*
X-13699099Y133181825D01*
X-13961920Y133056641D01*
X-14195269Y132882588D01*
X-14390178Y132666355D01*
X-14539157Y132416252D01*
X-14636481Y132141891D01*
X-15711897Y132141891D01*
X-15727068Y132218158D01*
X-15839010Y132488411D01*
X-16001525Y132731632D01*
X-16208368Y132938475D01*
X-16451589Y133100990D01*
X-16721842Y133212932D01*
X-17008740Y133270000D01*
X-17301260Y133270000D01*
X-17588158Y133212932D01*
X-17858411Y133100990D01*
X-18101632Y132938475D01*
X-18308475Y132731632D01*
X-18470990Y132488411D01*
X-18582932Y132218158D01*
X-18640000Y131931260D01*
X-19630000Y131931260D01*
X-19687068Y132218158D01*
X-19799010Y132488411D01*
X-19961525Y132731632D01*
X-20168368Y132938475D01*
X-20411589Y133100990D01*
X-20681842Y133212932D01*
X-20968740Y133270000D01*
X-21261260Y133270000D01*
X-21548158Y133212932D01*
X-21818411Y133100990D01*
X-22061632Y132938475D01*
X-22268475Y132731632D01*
X-22430990Y132488411D01*
X-22542932Y132218158D01*
X-22600000Y131931260D01*
X-23590000Y131931260D01*
X-23647068Y132218158D01*
X-23759010Y132488411D01*
X-23921525Y132731632D01*
X-24128368Y132938475D01*
X-24371589Y133100990D01*
X-24641842Y133212932D01*
X-24928740Y133270000D01*
X-25221260Y133270000D01*
X-25508158Y133212932D01*
X-25778411Y133100990D01*
X-26021632Y132938475D01*
X-26228475Y132731632D01*
X-26390990Y132488411D01*
X-26502932Y132218158D01*
X-26560000Y131931260D01*
X-27550000Y131931260D01*
X-27607068Y132218158D01*
X-27719010Y132488411D01*
X-27881525Y132731632D01*
X-28088368Y132938475D01*
X-28331589Y133100990D01*
X-28601842Y133212932D01*
X-28888740Y133270000D01*
X-29181260Y133270000D01*
X-29468158Y133212932D01*
X-29738411Y133100990D01*
X-29981632Y132938475D01*
X-30188475Y132731632D01*
X-30350990Y132488411D01*
X-30462932Y132218158D01*
X-30520000Y131931260D01*
X-31510000Y131931260D01*
X-31567068Y132218158D01*
X-31679010Y132488411D01*
X-31841525Y132731632D01*
X-32048368Y132938475D01*
X-32291589Y133100990D01*
X-32561842Y133212932D01*
X-32848740Y133270000D01*
X-33141260Y133270000D01*
X-33428158Y133212932D01*
X-33698411Y133100990D01*
X-33941632Y132938475D01*
X-34148475Y132731632D01*
X-34310990Y132488411D01*
X-34422932Y132218158D01*
X-34480000Y131931260D01*
X-35470000Y131931260D01*
X-35527068Y132218158D01*
X-35639010Y132488411D01*
X-35801525Y132731632D01*
X-36008368Y132938475D01*
X-36251589Y133100990D01*
X-36521842Y133212932D01*
X-36808740Y133270000D01*
X-37101260Y133270000D01*
X-37388158Y133212932D01*
X-37658411Y133100990D01*
X-37901632Y132938475D01*
X-38108475Y132731632D01*
X-38270990Y132488411D01*
X-38382932Y132218158D01*
X-38440000Y131931260D01*
X-39430000Y131931260D01*
X-39487068Y132218158D01*
X-39599010Y132488411D01*
X-39761525Y132731632D01*
X-39968368Y132938475D01*
X-40211589Y133100990D01*
X-40481842Y133212932D01*
X-40768740Y133270000D01*
X-41061260Y133270000D01*
X-41348158Y133212932D01*
X-41618411Y133100990D01*
X-41861632Y132938475D01*
X-42068475Y132731632D01*
X-42230990Y132488411D01*
X-42342932Y132218158D01*
X-42400000Y131931260D01*
X-43390000Y131931260D01*
X-43447068Y132218158D01*
X-43559010Y132488411D01*
X-43721525Y132731632D01*
X-43928368Y132938475D01*
X-44171589Y133100990D01*
X-44441842Y133212932D01*
X-44728740Y133270000D01*
X-45021260Y133270000D01*
X-45308158Y133212932D01*
X-45578411Y133100990D01*
X-45821632Y132938475D01*
X-46028475Y132731632D01*
X-46190990Y132488411D01*
X-46302932Y132218158D01*
X-46360000Y131931260D01*
X-47350000Y131931260D01*
X-47407068Y132218158D01*
X-47519010Y132488411D01*
X-47681525Y132731632D01*
X-47888368Y132938475D01*
X-48131589Y133100990D01*
X-48401842Y133212932D01*
X-48688740Y133270000D01*
X-48981260Y133270000D01*
X-49268158Y133212932D01*
X-49538411Y133100990D01*
X-49781632Y132938475D01*
X-49988475Y132731632D01*
X-50150990Y132488411D01*
X-50262932Y132218158D01*
X-50320000Y131931260D01*
X-51310000Y131931260D01*
X-51367068Y132218158D01*
X-51479010Y132488411D01*
X-51641525Y132731632D01*
X-51848368Y132938475D01*
X-52091589Y133100990D01*
X-52361842Y133212932D01*
X-52648740Y133270000D01*
X-52941260Y133270000D01*
X-53228158Y133212932D01*
X-53498411Y133100990D01*
X-53741632Y132938475D01*
X-53948475Y132731632D01*
X-54110990Y132488411D01*
X-54222932Y132218158D01*
X-54280000Y131931260D01*
X-55270000Y131931260D01*
X-55327068Y132218158D01*
X-55439010Y132488411D01*
X-55601525Y132731632D01*
X-55808368Y132938475D01*
X-56051589Y133100990D01*
X-56321842Y133212932D01*
X-56608740Y133270000D01*
X-56901260Y133270000D01*
X-57188158Y133212932D01*
X-57458411Y133100990D01*
X-57701632Y132938475D01*
X-57908475Y132731632D01*
X-58070990Y132488411D01*
X-58182932Y132218158D01*
X-58240000Y131931260D01*
X-59230000Y131931260D01*
X-59287068Y132218158D01*
X-59399010Y132488411D01*
X-59561525Y132731632D01*
X-59768368Y132938475D01*
X-60011589Y133100990D01*
X-60281842Y133212932D01*
X-60568740Y133270000D01*
X-60861260Y133270000D01*
X-61148158Y133212932D01*
X-61418411Y133100990D01*
X-61661632Y132938475D01*
X-61868475Y132731632D01*
X-62030990Y132488411D01*
X-62142932Y132218158D01*
X-62200000Y131931260D01*
X-63190000Y131931260D01*
X-63247068Y132218158D01*
X-63359010Y132488411D01*
X-63521525Y132731632D01*
X-63728368Y132938475D01*
X-63971589Y133100990D01*
X-64241842Y133212932D01*
X-64528740Y133270000D01*
X-64821260Y133270000D01*
X-65108158Y133212932D01*
X-65378411Y133100990D01*
X-65621632Y132938475D01*
X-65828475Y132731632D01*
X-65990990Y132488411D01*
X-66102932Y132218158D01*
X-66160000Y131931260D01*
X-67150000Y131931260D01*
X-67207068Y132218158D01*
X-67319010Y132488411D01*
X-67481525Y132731632D01*
X-67688368Y132938475D01*
X-67931589Y133100990D01*
X-68201842Y133212932D01*
X-68488740Y133270000D01*
X-68781260Y133270000D01*
X-69068158Y133212932D01*
X-69338411Y133100990D01*
X-69581632Y132938475D01*
X-69788475Y132731632D01*
X-69950990Y132488411D01*
X-70062932Y132218158D01*
X-70120000Y131931260D01*
X-71110000Y131931260D01*
X-71167068Y132218158D01*
X-71279010Y132488411D01*
X-71441525Y132731632D01*
X-71648368Y132938475D01*
X-71891589Y133100990D01*
X-72161842Y133212932D01*
X-72448740Y133270000D01*
X-72741260Y133270000D01*
X-73028158Y133212932D01*
X-73298411Y133100990D01*
X-73541632Y132938475D01*
X-73748475Y132731632D01*
X-73910990Y132488411D01*
X-74022932Y132218158D01*
X-74080000Y131931260D01*
X-75070000Y131931260D01*
X-75127068Y132218158D01*
X-75239010Y132488411D01*
X-75401525Y132731632D01*
X-75608368Y132938475D01*
X-75851589Y133100990D01*
X-76121842Y133212932D01*
X-76408740Y133270000D01*
X-76701260Y133270000D01*
X-76988158Y133212932D01*
X-77258411Y133100990D01*
X-77501632Y132938475D01*
X-77708475Y132731632D01*
X-77870990Y132488411D01*
X-77982932Y132218158D01*
X-78040000Y131931260D01*
X-79184077Y131931260D01*
X-79073519Y132141891D01*
X-79170843Y132416252D01*
X-79319822Y132666355D01*
X-79514731Y132882588D01*
X-79748080Y133056641D01*
X-80010901Y133181825D01*
X-80158110Y133226476D01*
X-80388000Y133105155D01*
X-80642000Y133105155D01*
X-80871890Y133226476D01*
X-81019099Y133181825D01*
X-81281920Y133056641D01*
X-81515269Y132882588D01*
X-81710178Y132666355D01*
X-81859157Y132416252D01*
X-81956481Y132141891D01*
X-83033519Y132141891D01*
X-83130843Y132416252D01*
X-83279822Y132666355D01*
X-83474731Y132882588D01*
X-83708080Y133056641D01*
X-83970901Y133181825D01*
X-84118110Y133226476D01*
X-84348000Y133105155D01*
X-84602000Y133105155D01*
X-84831890Y133226476D01*
X-84979099Y133181825D01*
X-85241920Y133056641D01*
X-85475269Y132882588D01*
X-85670178Y132666355D01*
X-85819157Y132416252D01*
X-85916481Y132141891D01*
X-86991897Y132141891D01*
X-87007068Y132218158D01*
X-87119010Y132488411D01*
X-87281525Y132731632D01*
X-87488368Y132938475D01*
X-87731589Y133100990D01*
X-88001842Y133212932D01*
X-88288740Y133270000D01*
X-88581260Y133270000D01*
X-88868158Y133212932D01*
X-89138411Y133100990D01*
X-89381632Y132938475D01*
X-89588475Y132731632D01*
X-89750990Y132488411D01*
X-89862932Y132218158D01*
X-89903985Y132011772D01*
X-90927920Y132021347D01*
X-90967068Y132218158D01*
X-91079010Y132488411D01*
X-91241525Y132731632D01*
X-91448368Y132938475D01*
X-91691589Y133100990D01*
X-91961842Y133212932D01*
X-92248740Y133270000D01*
X-92541260Y133270000D01*
X-92828158Y133212932D01*
X-93098411Y133100990D01*
X-93341632Y132938475D01*
X-93548475Y132731632D01*
X-93710990Y132488411D01*
X-93822932Y132218158D01*
X-93856632Y132048736D01*
X-94895300Y132058450D01*
X-94927068Y132218158D01*
X-95039010Y132488411D01*
X-95201525Y132731632D01*
X-95408368Y132938475D01*
X-95651589Y133100990D01*
X-95921842Y133212932D01*
X-96208740Y133270000D01*
X-96501260Y133270000D01*
X-96788158Y133212932D01*
X-97058411Y133100990D01*
X-97301632Y132938475D01*
X-97508475Y132731632D01*
X-97670990Y132488411D01*
X-97782932Y132218158D01*
X-97809279Y132085701D01*
X-98862680Y132095553D01*
X-98887068Y132218158D01*
X-98999010Y132488411D01*
X-99161525Y132731632D01*
X-99368368Y132938475D01*
X-99611589Y133100990D01*
X-99881842Y133212932D01*
X-100168740Y133270000D01*
X-100461260Y133270000D01*
X-100748158Y133212932D01*
X-101018411Y133100990D01*
X-101261632Y132938475D01*
X-101468475Y132731632D01*
X-101630990Y132488411D01*
X-101742932Y132218158D01*
X-101761927Y132122666D01*
X-102830060Y132132655D01*
X-102847068Y132218158D01*
X-102959010Y132488411D01*
X-103121525Y132731632D01*
X-103328368Y132938475D01*
X-103571589Y133100990D01*
X-103841842Y133212932D01*
X-104128740Y133270000D01*
X-104421260Y133270000D01*
X-104708158Y133212932D01*
X-104978411Y133100990D01*
X-105221632Y132938475D01*
X-105428475Y132731632D01*
X-105590990Y132488411D01*
X-105702932Y132218158D01*
X-105714574Y132159631D01*
X-106797441Y132169758D01*
X-106807068Y132218158D01*
X-106919010Y132488411D01*
X-107081525Y132731632D01*
X-107288368Y132938475D01*
X-107531589Y133100990D01*
X-107801842Y133212932D01*
X-108088740Y133270000D01*
X-108381260Y133270000D01*
X-108668158Y133212932D01*
X-108938411Y133100990D01*
X-109181632Y132938475D01*
X-109388475Y132731632D01*
X-109550990Y132488411D01*
X-109662932Y132218158D01*
X-109667221Y132196596D01*
X-111215659Y132211077D01*
X-111217068Y132218158D01*
X-111329010Y132488411D01*
X-111491525Y132731632D01*
X-111698368Y132938475D01*
X-111941589Y133100990D01*
X-112211842Y133212932D01*
X-112498740Y133270000D01*
X-112791260Y133270000D01*
X-113078158Y133212932D01*
X-113348411Y133100990D01*
X-113591632Y132938475D01*
X-113798475Y132731632D01*
X-113960990Y132488411D01*
X-114064828Y132237722D01*
X-114737778Y132244015D01*
X-114839010Y132488411D01*
X-115001525Y132731632D01*
X-115208368Y132938475D01*
X-115451589Y133100990D01*
X-115721842Y133212932D01*
X-116008740Y133270000D01*
X-116301260Y133270000D01*
X-116588158Y133212932D01*
X-116858411Y133100990D01*
X-117101632Y132938475D01*
X-117308475Y132731632D01*
X-117470990Y132488411D01*
X-117582932Y132218158D01*
X-117640000Y131931260D01*
X-117640000Y131638740D01*
X-117638572Y131631559D01*
X-127087351Y122182779D01*
X-127116421Y122158922D01*
X-127140278Y122129852D01*
X-127140279Y122129851D01*
X-127211645Y122042892D01*
X-127282401Y121910515D01*
X-127325973Y121766878D01*
X-127340686Y121617500D01*
X-127336999Y121580067D01*
X-127337000Y112582575D01*
X-127334999Y112562258D01*
X-127335000Y66184802D01*
X-131139801Y62380000D01*
X-171948000Y62380000D01*
X-171948000Y63100000D01*
X-131793639Y63100000D01*
X-131760000Y63096687D01*
X-131726361Y63100000D01*
X-131726353Y63100000D01*
X-131625717Y63109912D01*
X-131496594Y63149081D01*
X-131377593Y63212688D01*
X-131273289Y63298289D01*
X-131251840Y63324424D01*
X-128299422Y66276842D01*
X-128273289Y66298289D01*
X-128250919Y66325546D01*
X-128215256Y66369002D01*
X-128187688Y66402593D01*
X-128146237Y66480142D01*
X-128124081Y66521593D01*
X-128084912Y66650717D01*
X-128075000Y66751353D01*
X-128075000Y66751361D01*
X-128071687Y66785000D01*
X-128075000Y66818639D01*
X-128075000Y130935000D01*
X-125563072Y130935000D01*
X-125550812Y130810518D01*
X-125514502Y130690820D01*
X-125455537Y130580506D01*
X-125376185Y130483815D01*
X-125279494Y130404463D01*
X-125169180Y130345498D01*
X-125049482Y130309188D01*
X-124925000Y130296928D01*
X-124360750Y130300000D01*
X-124202000Y130458750D01*
X-124202000Y131658000D01*
X-123948000Y131658000D01*
X-123948000Y130458750D01*
X-123789250Y130300000D01*
X-123225000Y130296928D01*
X-123100518Y130309188D01*
X-122980820Y130345498D01*
X-122870506Y130404463D01*
X-122773815Y130483815D01*
X-122694463Y130580506D01*
X-122635498Y130690820D01*
X-122599188Y130810518D01*
X-122586928Y130935000D01*
X-122589612Y131428109D01*
X-121556481Y131428109D01*
X-121459157Y131153748D01*
X-121310178Y130903645D01*
X-121115269Y130687412D01*
X-120881920Y130513359D01*
X-120619099Y130388175D01*
X-120471890Y130343524D01*
X-120242000Y130464845D01*
X-120242000Y131658000D01*
X-119988000Y131658000D01*
X-119988000Y130464845D01*
X-119758110Y130343524D01*
X-119610901Y130388175D01*
X-119348080Y130513359D01*
X-119114731Y130687412D01*
X-118919822Y130903645D01*
X-118770843Y131153748D01*
X-118673519Y131428109D01*
X-118794186Y131658000D01*
X-119988000Y131658000D01*
X-120242000Y131658000D01*
X-121435814Y131658000D01*
X-121556481Y131428109D01*
X-122589612Y131428109D01*
X-122590000Y131499250D01*
X-122748750Y131658000D01*
X-123948000Y131658000D01*
X-124202000Y131658000D01*
X-125401250Y131658000D01*
X-125560000Y131499250D01*
X-125563072Y130935000D01*
X-128075000Y130935000D01*
X-128075000Y132635000D01*
X-125563072Y132635000D01*
X-125560000Y132070750D01*
X-125401250Y131912000D01*
X-124202000Y131912000D01*
X-124202000Y133111250D01*
X-123948000Y133111250D01*
X-123948000Y131912000D01*
X-122748750Y131912000D01*
X-122590000Y132070750D01*
X-122589613Y132141891D01*
X-121556481Y132141891D01*
X-121435814Y131912000D01*
X-120242000Y131912000D01*
X-120242000Y133105155D01*
X-119988000Y133105155D01*
X-119988000Y131912000D01*
X-118794186Y131912000D01*
X-118673519Y132141891D01*
X-118770843Y132416252D01*
X-118919822Y132666355D01*
X-119114731Y132882588D01*
X-119348080Y133056641D01*
X-119610901Y133181825D01*
X-119758110Y133226476D01*
X-119988000Y133105155D01*
X-120242000Y133105155D01*
X-120471890Y133226476D01*
X-120619099Y133181825D01*
X-120881920Y133056641D01*
X-121115269Y132882588D01*
X-121310178Y132666355D01*
X-121459157Y132416252D01*
X-121556481Y132141891D01*
X-122589613Y132141891D01*
X-122586928Y132635000D01*
X-122599188Y132759482D01*
X-122635498Y132879180D01*
X-122694463Y132989494D01*
X-122773815Y133086185D01*
X-122870506Y133165537D01*
X-122980820Y133224502D01*
X-123100518Y133260812D01*
X-123225000Y133273072D01*
X-123789250Y133270000D01*
X-123948000Y133111250D01*
X-124202000Y133111250D01*
X-124360750Y133270000D01*
X-124925000Y133273072D01*
X-125049482Y133260812D01*
X-125169180Y133224502D01*
X-125279494Y133165537D01*
X-125376185Y133086185D01*
X-125455537Y132989494D01*
X-125514502Y132879180D01*
X-125550812Y132759482D01*
X-125563072Y132635000D01*
X-128075000Y132635000D01*
X-128075000Y133501264D01*
X-125476264Y136100000D01*
X118956264Y136100000D01*
X121555000Y133501264D01*
%TA.AperFunction,Conductor*%
D21*
G36*
X121555000Y133501264D02*
G01*
X121555001Y66818649D01*
X121551687Y66785000D01*
X121564912Y66650717D01*
X121604082Y66521594D01*
X121667689Y66402593D01*
X121683214Y66383676D01*
X121731840Y66324424D01*
X121731847Y66324417D01*
X121753290Y66298289D01*
X121779418Y66276846D01*
X124731840Y63324424D01*
X124753289Y63298289D01*
X124857593Y63212688D01*
X124935142Y63171237D01*
X124976593Y63149081D01*
X125105717Y63109912D01*
X125206353Y63100000D01*
X125206361Y63100000D01*
X125240000Y63096687D01*
X125273639Y63100000D01*
X307956264Y63100000D01*
X310555000Y60501264D01*
X310555001Y-53931263D01*
X307956264Y-56530000D01*
X-185476264Y-56530000D01*
X-188075000Y-53931264D01*
X-188075000Y60501264D01*
X-185476264Y63100000D01*
X-173202000Y63100000D01*
X-173202000Y62380000D01*
X-174787678Y62380000D01*
X-174825001Y62383676D01*
X-174862324Y62380000D01*
X-174862333Y62380000D01*
X-174973986Y62369003D01*
X-175117247Y62325546D01*
X-175249276Y62254974D01*
X-175365001Y62160001D01*
X-175388799Y62131003D01*
X-187086002Y50433799D01*
X-187115000Y50410001D01*
X-187138798Y50381003D01*
X-187138799Y50381002D01*
X-187209974Y50294276D01*
X-187280546Y50162246D01*
X-187324002Y50018985D01*
X-187338676Y49870000D01*
X-187334999Y49832667D01*
X-187335000Y-29392678D01*
X-187338676Y-29430000D01*
X-187335000Y-29467322D01*
X-187335000Y-29467332D01*
X-187324003Y-29578985D01*
X-187296560Y-29669454D01*
X-187280546Y-29722246D01*
X-187209974Y-29854276D01*
X-187188539Y-29880394D01*
X-187184501Y-53880021D01*
X-187182057Y-53904797D01*
X-187174826Y-53928621D01*
X-187163086Y-53950575D01*
X-187147304Y-53969803D01*
X-185147304Y-55969803D01*
X-185128058Y-55985597D01*
X-185106102Y-55997333D01*
X-185082277Y-56004560D01*
X-185057501Y-56007000D01*
X307925000Y-56007000D01*
X307949776Y-56004560D01*
X307973601Y-55997333D01*
X307995557Y-55985597D01*
X308014803Y-55969803D01*
X310014803Y-53969803D01*
X310030597Y-53950557D01*
X310042333Y-53928601D01*
X310049560Y-53904776D01*
X310052000Y-53880000D01*
X310052000Y55120000D01*
X310049560Y55144776D01*
X310042333Y55168601D01*
X310030597Y55190557D01*
X310014803Y55209803D01*
X309995557Y55225597D01*
X309973601Y55237333D01*
X309949776Y55244560D01*
X309925000Y55247000D01*
X135122801Y55247000D01*
X133488804Y56880997D01*
X133465001Y56910001D01*
X133349276Y57004974D01*
X133217247Y57075546D01*
X133073986Y57119003D01*
X132962333Y57130000D01*
X132962322Y57130000D01*
X132925000Y57133676D01*
X132887678Y57130000D01*
X132094606Y57130000D01*
X132014803Y57209803D01*
X131995557Y57225597D01*
X131973601Y57237333D01*
X131949776Y57244560D01*
X131925000Y57247000D01*
X122728871Y57247000D01*
X115552000Y64671349D01*
X115552000Y112370000D01*
X115549560Y112394776D01*
X115542333Y112418601D01*
X115530597Y112440557D01*
X115514803Y112459803D01*
X109764803Y118209803D01*
X109745557Y118225597D01*
X109723601Y118237333D01*
X109699776Y118244560D01*
X109675000Y118247000D01*
X-109075000Y118247000D01*
X-109099776Y118244560D01*
X-109123601Y118237333D01*
X-109145557Y118225597D01*
X-109169921Y118204374D01*
X-113169921Y113704374D01*
X-113184558Y113684235D01*
X-113194984Y113661627D01*
X-113200800Y113637419D01*
X-113202000Y113619873D01*
X-113185436Y97055237D01*
X-113511196Y97380997D01*
X-113534999Y97410001D01*
X-113650724Y97504974D01*
X-113782753Y97575546D01*
X-113926014Y97619003D01*
X-114037667Y97630000D01*
X-114037678Y97630000D01*
X-114075000Y97633676D01*
X-114112322Y97630000D01*
X-118010198Y97630000D01*
X-118815000Y98434801D01*
X-118815000Y112562267D01*
X-118813000Y112582574D01*
X-118813000Y115004902D01*
X-118165000Y115004902D01*
X-118165000Y114535098D01*
X-118073346Y114074321D01*
X-117893560Y113640279D01*
X-117632550Y113249651D01*
X-117300349Y112917450D01*
X-116909721Y112656440D01*
X-116475679Y112476654D01*
X-116014902Y112385000D01*
X-115545098Y112385000D01*
X-115084321Y112476654D01*
X-114650279Y112656440D01*
X-114259651Y112917450D01*
X-113927450Y113249651D01*
X-113666440Y113640279D01*
X-113486654Y114074321D01*
X-113395000Y114535098D01*
X-113395000Y115004902D01*
X-113486654Y115465679D01*
X-113666440Y115899721D01*
X-113927450Y116290349D01*
X-114259651Y116622550D01*
X-114650279Y116883560D01*
X-115084321Y117063346D01*
X-115545098Y117155000D01*
X-116014902Y117155000D01*
X-116475679Y117063346D01*
X-116909721Y116883560D01*
X-117300349Y116622550D01*
X-117632550Y116290349D01*
X-117893560Y115899721D01*
X-118073346Y115465679D01*
X-118165000Y115004902D01*
X-118813000Y115004902D01*
X-118813000Y119554370D01*
X-115009370Y123358000D01*
X-96137423Y123358000D01*
X-96100000Y123354314D01*
X-96062577Y123358000D01*
X-96062574Y123358000D01*
X-95950622Y123369026D01*
X-95806985Y123412598D01*
X-95674608Y123483355D01*
X-95558578Y123578578D01*
X-95534716Y123607654D01*
X-88799048Y130343321D01*
X-88581260Y130300000D01*
X-88288740Y130300000D01*
X-88001842Y130357068D01*
X-87731589Y130469010D01*
X-87488368Y130631525D01*
X-87281525Y130838368D01*
X-87119010Y131081589D01*
X-87007068Y131351842D01*
X-86991898Y131428109D01*
X-85916481Y131428109D01*
X-85819157Y131153748D01*
X-85670178Y130903645D01*
X-85475269Y130687412D01*
X-85241920Y130513359D01*
X-84979099Y130388175D01*
X-84831890Y130343524D01*
X-84602000Y130464845D01*
X-84602000Y131658000D01*
X-84348000Y131658000D01*
X-84348000Y130464845D01*
X-84118110Y130343524D01*
X-83970901Y130388175D01*
X-83708080Y130513359D01*
X-83474731Y130687412D01*
X-83279822Y130903645D01*
X-83130843Y131153748D01*
X-83033519Y131428109D01*
X-81956481Y131428109D01*
X-81859157Y131153748D01*
X-81710178Y130903645D01*
X-81515269Y130687412D01*
X-81281920Y130513359D01*
X-81019099Y130388175D01*
X-80871890Y130343524D01*
X-80642000Y130464845D01*
X-80642000Y131658000D01*
X-80388000Y131658000D01*
X-80388000Y130464845D01*
X-80158110Y130343524D01*
X-80010901Y130388175D01*
X-79748080Y130513359D01*
X-79514731Y130687412D01*
X-79319822Y130903645D01*
X-79170843Y131153748D01*
X-79073519Y131428109D01*
X-79194186Y131658000D01*
X-80388000Y131658000D01*
X-80642000Y131658000D01*
X-81835814Y131658000D01*
X-81956481Y131428109D01*
X-83033519Y131428109D01*
X-83154186Y131658000D01*
X-84348000Y131658000D01*
X-84602000Y131658000D01*
X-85795814Y131658000D01*
X-85916481Y131428109D01*
X-86991898Y131428109D01*
X-86950000Y131638740D01*
X-86950000Y131931260D01*
X-86991897Y132141891D01*
X-85916481Y132141891D01*
X-85795814Y131912000D01*
X-84602000Y131912000D01*
X-84602000Y133105155D01*
X-84348000Y133105155D01*
X-84348000Y131912000D01*
X-83154186Y131912000D01*
X-83033519Y132141891D01*
X-81956481Y132141891D01*
X-81835814Y131912000D01*
X-80642000Y131912000D01*
X-80642000Y133105155D01*
X-80388000Y133105155D01*
X-80388000Y131912000D01*
X-79194186Y131912000D01*
X-79184077Y131931260D01*
X-78040000Y131931260D01*
X-78040000Y131638740D01*
X-77982932Y131351842D01*
X-77870990Y131081589D01*
X-77708475Y130838368D01*
X-77501632Y130631525D01*
X-77258411Y130469010D01*
X-76988158Y130357068D01*
X-76701260Y130300000D01*
X-76408740Y130300000D01*
X-76121842Y130357068D01*
X-75851589Y130469010D01*
X-75608368Y130631525D01*
X-75401525Y130838368D01*
X-75239010Y131081589D01*
X-75127068Y131351842D01*
X-75070000Y131638740D01*
X-75070000Y131931260D01*
X-74080000Y131931260D01*
X-74080000Y131638740D01*
X-74022932Y131351842D01*
X-73910990Y131081589D01*
X-73748475Y130838368D01*
X-73541632Y130631525D01*
X-73298411Y130469010D01*
X-73028158Y130357068D01*
X-72741260Y130300000D01*
X-72448740Y130300000D01*
X-72161842Y130357068D01*
X-71891589Y130469010D01*
X-71648368Y130631525D01*
X-71441525Y130838368D01*
X-71279010Y131081589D01*
X-71167068Y131351842D01*
X-71110000Y131638740D01*
X-71110000Y131931260D01*
X-70120000Y131931260D01*
X-70120000Y131638740D01*
X-70062932Y131351842D01*
X-69950990Y131081589D01*
X-69788475Y130838368D01*
X-69581632Y130631525D01*
X-69338411Y130469010D01*
X-69068158Y130357068D01*
X-68781260Y130300000D01*
X-68488740Y130300000D01*
X-68201842Y130357068D01*
X-67931589Y130469010D01*
X-67688368Y130631525D01*
X-67481525Y130838368D01*
X-67319010Y131081589D01*
X-67207068Y131351842D01*
X-67150000Y131638740D01*
X-67150000Y131931260D01*
X-66160000Y131931260D01*
X-66160000Y131638740D01*
X-66102932Y131351842D01*
X-65990990Y131081589D01*
X-65828475Y130838368D01*
X-65621632Y130631525D01*
X-65378411Y130469010D01*
X-65108158Y130357068D01*
X-64821260Y130300000D01*
X-64528740Y130300000D01*
X-64241842Y130357068D01*
X-63971589Y130469010D01*
X-63728368Y130631525D01*
X-63521525Y130838368D01*
X-63359010Y131081589D01*
X-63247068Y131351842D01*
X-63190000Y131638740D01*
X-63190000Y131931260D01*
X-62200000Y131931260D01*
X-62200000Y131638740D01*
X-62142932Y131351842D01*
X-62030990Y131081589D01*
X-61868475Y130838368D01*
X-61661632Y130631525D01*
X-61418411Y130469010D01*
X-61148158Y130357068D01*
X-60861260Y130300000D01*
X-60568740Y130300000D01*
X-60281842Y130357068D01*
X-60011589Y130469010D01*
X-59768368Y130631525D01*
X-59561525Y130838368D01*
X-59399010Y131081589D01*
X-59287068Y131351842D01*
X-59230000Y131638740D01*
X-59230000Y131931260D01*
X-58240000Y131931260D01*
X-58240000Y131638740D01*
X-58182932Y131351842D01*
X-58070990Y131081589D01*
X-57908475Y130838368D01*
X-57701632Y130631525D01*
X-57458411Y130469010D01*
X-57188158Y130357068D01*
X-56901260Y130300000D01*
X-56608740Y130300000D01*
X-56321842Y130357068D01*
X-56051589Y130469010D01*
X-55808368Y130631525D01*
X-55601525Y130838368D01*
X-55439010Y131081589D01*
X-55327068Y131351842D01*
X-55270000Y131638740D01*
X-55270000Y131931260D01*
X-54280000Y131931260D01*
X-54280000Y131638740D01*
X-54222932Y131351842D01*
X-54110990Y131081589D01*
X-53948475Y130838368D01*
X-53741632Y130631525D01*
X-53498411Y130469010D01*
X-53228158Y130357068D01*
X-52941260Y130300000D01*
X-52648740Y130300000D01*
X-52361842Y130357068D01*
X-52091589Y130469010D01*
X-51848368Y130631525D01*
X-51641525Y130838368D01*
X-51479010Y131081589D01*
X-51367068Y131351842D01*
X-51310000Y131638740D01*
X-51310000Y131931260D01*
X-50320000Y131931260D01*
X-50320000Y131638740D01*
X-50262932Y131351842D01*
X-50150990Y131081589D01*
X-49988475Y130838368D01*
X-49781632Y130631525D01*
X-49538411Y130469010D01*
X-49268158Y130357068D01*
X-48981260Y130300000D01*
X-48688740Y130300000D01*
X-48401842Y130357068D01*
X-48131589Y130469010D01*
X-47888368Y130631525D01*
X-47681525Y130838368D01*
X-47519010Y131081589D01*
X-47407068Y131351842D01*
X-47350000Y131638740D01*
X-47350000Y131931260D01*
X-46360000Y131931260D01*
X-46360000Y131638740D01*
X-46302932Y131351842D01*
X-46190990Y131081589D01*
X-46028475Y130838368D01*
X-45821632Y130631525D01*
X-45578411Y130469010D01*
X-45308158Y130357068D01*
X-45021260Y130300000D01*
X-44728740Y130300000D01*
X-44441842Y130357068D01*
X-44171589Y130469010D01*
X-43928368Y130631525D01*
X-43721525Y130838368D01*
X-43559010Y131081589D01*
X-43447068Y131351842D01*
X-43390000Y131638740D01*
X-43390000Y131931260D01*
X-42400000Y131931260D01*
X-42400000Y131638740D01*
X-42342932Y131351842D01*
X-42230990Y131081589D01*
X-42068475Y130838368D01*
X-41861632Y130631525D01*
X-41618411Y130469010D01*
X-41348158Y130357068D01*
X-41061260Y130300000D01*
X-40768740Y130300000D01*
X-40481842Y130357068D01*
X-40211589Y130469010D01*
X-39968368Y130631525D01*
X-39761525Y130838368D01*
X-39599010Y131081589D01*
X-39487068Y131351842D01*
X-39430000Y131638740D01*
X-39430000Y131931260D01*
X-38440000Y131931260D01*
X-38440000Y131638740D01*
X-38382932Y131351842D01*
X-38270990Y131081589D01*
X-38108475Y130838368D01*
X-37901632Y130631525D01*
X-37658411Y130469010D01*
X-37388158Y130357068D01*
X-37101260Y130300000D01*
X-36808740Y130300000D01*
X-36521842Y130357068D01*
X-36251589Y130469010D01*
X-36008368Y130631525D01*
X-35801525Y130838368D01*
X-35639010Y131081589D01*
X-35527068Y131351842D01*
X-35470000Y131638740D01*
X-35470000Y131931260D01*
X-34480000Y131931260D01*
X-34480000Y131638740D01*
X-34422932Y131351842D01*
X-34310990Y131081589D01*
X-34148475Y130838368D01*
X-33941632Y130631525D01*
X-33698411Y130469010D01*
X-33428158Y130357068D01*
X-33141260Y130300000D01*
X-32848740Y130300000D01*
X-32561842Y130357068D01*
X-32291589Y130469010D01*
X-32048368Y130631525D01*
X-31841525Y130838368D01*
X-31679010Y131081589D01*
X-31567068Y131351842D01*
X-31510000Y131638740D01*
X-31510000Y131931260D01*
X-30520000Y131931260D01*
X-30520000Y131638740D01*
X-30462932Y131351842D01*
X-30350990Y131081589D01*
X-30188475Y130838368D01*
X-29981632Y130631525D01*
X-29738411Y130469010D01*
X-29468158Y130357068D01*
X-29181260Y130300000D01*
X-28888740Y130300000D01*
X-28601842Y130357068D01*
X-28331589Y130469010D01*
X-28088368Y130631525D01*
X-27881525Y130838368D01*
X-27719010Y131081589D01*
X-27607068Y131351842D01*
X-27550000Y131638740D01*
X-27550000Y131931260D01*
X-26560000Y131931260D01*
X-26560000Y131638740D01*
X-26502932Y131351842D01*
X-26390990Y131081589D01*
X-26228475Y130838368D01*
X-26021632Y130631525D01*
X-25778411Y130469010D01*
X-25508158Y130357068D01*
X-25221260Y130300000D01*
X-24928740Y130300000D01*
X-24641842Y130357068D01*
X-24371589Y130469010D01*
X-24128368Y130631525D01*
X-23921525Y130838368D01*
X-23759010Y131081589D01*
X-23647068Y131351842D01*
X-23590000Y131638740D01*
X-23590000Y131931260D01*
X-22600000Y131931260D01*
X-22600000Y131638740D01*
X-22542932Y131351842D01*
X-22430990Y131081589D01*
X-22268475Y130838368D01*
X-22061632Y130631525D01*
X-21818411Y130469010D01*
X-21548158Y130357068D01*
X-21261260Y130300000D01*
X-20968740Y130300000D01*
X-20681842Y130357068D01*
X-20411589Y130469010D01*
X-20168368Y130631525D01*
X-19961525Y130838368D01*
X-19799010Y131081589D01*
X-19687068Y131351842D01*
X-19630000Y131638740D01*
X-19630000Y131931260D01*
X-18640000Y131931260D01*
X-18640000Y131638740D01*
X-18582932Y131351842D01*
X-18470990Y131081589D01*
X-18308475Y130838368D01*
X-18101632Y130631525D01*
X-17858411Y130469010D01*
X-17588158Y130357068D01*
X-17301260Y130300000D01*
X-17008740Y130300000D01*
X-16721842Y130357068D01*
X-16451589Y130469010D01*
X-16208368Y130631525D01*
X-16001525Y130838368D01*
X-15839010Y131081589D01*
X-15727068Y131351842D01*
X-15711898Y131428109D01*
X-14636481Y131428109D01*
X-14539157Y131153748D01*
X-14390178Y130903645D01*
X-14195269Y130687412D01*
X-13961920Y130513359D01*
X-13699099Y130388175D01*
X-13551890Y130343524D01*
X-13322000Y130464845D01*
X-13322000Y131658000D01*
X-13068000Y131658000D01*
X-13068000Y130464845D01*
X-12838110Y130343524D01*
X-12690901Y130388175D01*
X-12428080Y130513359D01*
X-12194731Y130687412D01*
X-11999822Y130903645D01*
X-11850843Y131153748D01*
X-11753519Y131428109D01*
X-10676481Y131428109D01*
X-10579157Y131153748D01*
X-10430178Y130903645D01*
X-10235269Y130687412D01*
X-10001920Y130513359D01*
X-9739099Y130388175D01*
X-9591890Y130343524D01*
X-9362000Y130464845D01*
X-9362000Y131658000D01*
X-9108000Y131658000D01*
X-9108000Y130464845D01*
X-8878110Y130343524D01*
X-8730901Y130388175D01*
X-8468080Y130513359D01*
X-8234731Y130687412D01*
X-8039822Y130903645D01*
X-7890843Y131153748D01*
X-7793519Y131428109D01*
X-7914186Y131658000D01*
X-9108000Y131658000D01*
X-9362000Y131658000D01*
X-10555814Y131658000D01*
X-10676481Y131428109D01*
X-11753519Y131428109D01*
X-11874186Y131658000D01*
X-13068000Y131658000D01*
X-13322000Y131658000D01*
X-14515814Y131658000D01*
X-14636481Y131428109D01*
X-15711898Y131428109D01*
X-15670000Y131638740D01*
X-15670000Y131931260D01*
X-15711897Y132141891D01*
X-14636481Y132141891D01*
X-14515814Y131912000D01*
X-13322000Y131912000D01*
X-13322000Y133105155D01*
X-13068000Y133105155D01*
X-13068000Y131912000D01*
X-11874186Y131912000D01*
X-11753519Y132141891D01*
X-10676481Y132141891D01*
X-10555814Y131912000D01*
X-9362000Y131912000D01*
X-9362000Y133105155D01*
X-9108000Y133105155D01*
X-9108000Y131912000D01*
X-7914186Y131912000D01*
X-7793519Y132141891D01*
X-7890843Y132416252D01*
X-8039822Y132666355D01*
X-8234731Y132882588D01*
X-8468080Y133056641D01*
X-8730901Y133181825D01*
X-8878110Y133226476D01*
X-9108000Y133105155D01*
X-9362000Y133105155D01*
X-9591890Y133226476D01*
X-9739099Y133181825D01*
X-10001920Y133056641D01*
X-10235269Y132882588D01*
X-10430178Y132666355D01*
X-10579157Y132416252D01*
X-10676481Y132141891D01*
X-11753519Y132141891D01*
X-11850843Y132416252D01*
X-11999822Y132666355D01*
X-12194731Y132882588D01*
X-12428080Y133056641D01*
X-12690901Y133181825D01*
X-12838110Y133226476D01*
X-13068000Y133105155D01*
X-13322000Y133105155D01*
X-13551890Y133226476D01*
X-13699099Y133181825D01*
X-13961920Y133056641D01*
X-14195269Y132882588D01*
X-14390178Y132666355D01*
X-14539157Y132416252D01*
X-14636481Y132141891D01*
X-15711897Y132141891D01*
X-15727068Y132218158D01*
X-15839010Y132488411D01*
X-16001525Y132731632D01*
X-16208368Y132938475D01*
X-16451589Y133100990D01*
X-16721842Y133212932D01*
X-17008740Y133270000D01*
X-17301260Y133270000D01*
X-17588158Y133212932D01*
X-17858411Y133100990D01*
X-18101632Y132938475D01*
X-18308475Y132731632D01*
X-18470990Y132488411D01*
X-18582932Y132218158D01*
X-18640000Y131931260D01*
X-19630000Y131931260D01*
X-19687068Y132218158D01*
X-19799010Y132488411D01*
X-19961525Y132731632D01*
X-20168368Y132938475D01*
X-20411589Y133100990D01*
X-20681842Y133212932D01*
X-20968740Y133270000D01*
X-21261260Y133270000D01*
X-21548158Y133212932D01*
X-21818411Y133100990D01*
X-22061632Y132938475D01*
X-22268475Y132731632D01*
X-22430990Y132488411D01*
X-22542932Y132218158D01*
X-22600000Y131931260D01*
X-23590000Y131931260D01*
X-23647068Y132218158D01*
X-23759010Y132488411D01*
X-23921525Y132731632D01*
X-24128368Y132938475D01*
X-24371589Y133100990D01*
X-24641842Y133212932D01*
X-24928740Y133270000D01*
X-25221260Y133270000D01*
X-25508158Y133212932D01*
X-25778411Y133100990D01*
X-26021632Y132938475D01*
X-26228475Y132731632D01*
X-26390990Y132488411D01*
X-26502932Y132218158D01*
X-26560000Y131931260D01*
X-27550000Y131931260D01*
X-27607068Y132218158D01*
X-27719010Y132488411D01*
X-27881525Y132731632D01*
X-28088368Y132938475D01*
X-28331589Y133100990D01*
X-28601842Y133212932D01*
X-28888740Y133270000D01*
X-29181260Y133270000D01*
X-29468158Y133212932D01*
X-29738411Y133100990D01*
X-29981632Y132938475D01*
X-30188475Y132731632D01*
X-30350990Y132488411D01*
X-30462932Y132218158D01*
X-30520000Y131931260D01*
X-31510000Y131931260D01*
X-31567068Y132218158D01*
X-31679010Y132488411D01*
X-31841525Y132731632D01*
X-32048368Y132938475D01*
X-32291589Y133100990D01*
X-32561842Y133212932D01*
X-32848740Y133270000D01*
X-33141260Y133270000D01*
X-33428158Y133212932D01*
X-33698411Y133100990D01*
X-33941632Y132938475D01*
X-34148475Y132731632D01*
X-34310990Y132488411D01*
X-34422932Y132218158D01*
X-34480000Y131931260D01*
X-35470000Y131931260D01*
X-35527068Y132218158D01*
X-35639010Y132488411D01*
X-35801525Y132731632D01*
X-36008368Y132938475D01*
X-36251589Y133100990D01*
X-36521842Y133212932D01*
X-36808740Y133270000D01*
X-37101260Y133270000D01*
X-37388158Y133212932D01*
X-37658411Y133100990D01*
X-37901632Y132938475D01*
X-38108475Y132731632D01*
X-38270990Y132488411D01*
X-38382932Y132218158D01*
X-38440000Y131931260D01*
X-39430000Y131931260D01*
X-39487068Y132218158D01*
X-39599010Y132488411D01*
X-39761525Y132731632D01*
X-39968368Y132938475D01*
X-40211589Y133100990D01*
X-40481842Y133212932D01*
X-40768740Y133270000D01*
X-41061260Y133270000D01*
X-41348158Y133212932D01*
X-41618411Y133100990D01*
X-41861632Y132938475D01*
X-42068475Y132731632D01*
X-42230990Y132488411D01*
X-42342932Y132218158D01*
X-42400000Y131931260D01*
X-43390000Y131931260D01*
X-43447068Y132218158D01*
X-43559010Y132488411D01*
X-43721525Y132731632D01*
X-43928368Y132938475D01*
X-44171589Y133100990D01*
X-44441842Y133212932D01*
X-44728740Y133270000D01*
X-45021260Y133270000D01*
X-45308158Y133212932D01*
X-45578411Y133100990D01*
X-45821632Y132938475D01*
X-46028475Y132731632D01*
X-46190990Y132488411D01*
X-46302932Y132218158D01*
X-46360000Y131931260D01*
X-47350000Y131931260D01*
X-47407068Y132218158D01*
X-47519010Y132488411D01*
X-47681525Y132731632D01*
X-47888368Y132938475D01*
X-48131589Y133100990D01*
X-48401842Y133212932D01*
X-48688740Y133270000D01*
X-48981260Y133270000D01*
X-49268158Y133212932D01*
X-49538411Y133100990D01*
X-49781632Y132938475D01*
X-49988475Y132731632D01*
X-50150990Y132488411D01*
X-50262932Y132218158D01*
X-50320000Y131931260D01*
X-51310000Y131931260D01*
X-51367068Y132218158D01*
X-51479010Y132488411D01*
X-51641525Y132731632D01*
X-51848368Y132938475D01*
X-52091589Y133100990D01*
X-52361842Y133212932D01*
X-52648740Y133270000D01*
X-52941260Y133270000D01*
X-53228158Y133212932D01*
X-53498411Y133100990D01*
X-53741632Y132938475D01*
X-53948475Y132731632D01*
X-54110990Y132488411D01*
X-54222932Y132218158D01*
X-54280000Y131931260D01*
X-55270000Y131931260D01*
X-55327068Y132218158D01*
X-55439010Y132488411D01*
X-55601525Y132731632D01*
X-55808368Y132938475D01*
X-56051589Y133100990D01*
X-56321842Y133212932D01*
X-56608740Y133270000D01*
X-56901260Y133270000D01*
X-57188158Y133212932D01*
X-57458411Y133100990D01*
X-57701632Y132938475D01*
X-57908475Y132731632D01*
X-58070990Y132488411D01*
X-58182932Y132218158D01*
X-58240000Y131931260D01*
X-59230000Y131931260D01*
X-59287068Y132218158D01*
X-59399010Y132488411D01*
X-59561525Y132731632D01*
X-59768368Y132938475D01*
X-60011589Y133100990D01*
X-60281842Y133212932D01*
X-60568740Y133270000D01*
X-60861260Y133270000D01*
X-61148158Y133212932D01*
X-61418411Y133100990D01*
X-61661632Y132938475D01*
X-61868475Y132731632D01*
X-62030990Y132488411D01*
X-62142932Y132218158D01*
X-62200000Y131931260D01*
X-63190000Y131931260D01*
X-63247068Y132218158D01*
X-63359010Y132488411D01*
X-63521525Y132731632D01*
X-63728368Y132938475D01*
X-63971589Y133100990D01*
X-64241842Y133212932D01*
X-64528740Y133270000D01*
X-64821260Y133270000D01*
X-65108158Y133212932D01*
X-65378411Y133100990D01*
X-65621632Y132938475D01*
X-65828475Y132731632D01*
X-65990990Y132488411D01*
X-66102932Y132218158D01*
X-66160000Y131931260D01*
X-67150000Y131931260D01*
X-67207068Y132218158D01*
X-67319010Y132488411D01*
X-67481525Y132731632D01*
X-67688368Y132938475D01*
X-67931589Y133100990D01*
X-68201842Y133212932D01*
X-68488740Y133270000D01*
X-68781260Y133270000D01*
X-69068158Y133212932D01*
X-69338411Y133100990D01*
X-69581632Y132938475D01*
X-69788475Y132731632D01*
X-69950990Y132488411D01*
X-70062932Y132218158D01*
X-70120000Y131931260D01*
X-71110000Y131931260D01*
X-71167068Y132218158D01*
X-71279010Y132488411D01*
X-71441525Y132731632D01*
X-71648368Y132938475D01*
X-71891589Y133100990D01*
X-72161842Y133212932D01*
X-72448740Y133270000D01*
X-72741260Y133270000D01*
X-73028158Y133212932D01*
X-73298411Y133100990D01*
X-73541632Y132938475D01*
X-73748475Y132731632D01*
X-73910990Y132488411D01*
X-74022932Y132218158D01*
X-74080000Y131931260D01*
X-75070000Y131931260D01*
X-75127068Y132218158D01*
X-75239010Y132488411D01*
X-75401525Y132731632D01*
X-75608368Y132938475D01*
X-75851589Y133100990D01*
X-76121842Y133212932D01*
X-76408740Y133270000D01*
X-76701260Y133270000D01*
X-76988158Y133212932D01*
X-77258411Y133100990D01*
X-77501632Y132938475D01*
X-77708475Y132731632D01*
X-77870990Y132488411D01*
X-77982932Y132218158D01*
X-78040000Y131931260D01*
X-79184077Y131931260D01*
X-79073519Y132141891D01*
X-79170843Y132416252D01*
X-79319822Y132666355D01*
X-79514731Y132882588D01*
X-79748080Y133056641D01*
X-80010901Y133181825D01*
X-80158110Y133226476D01*
X-80388000Y133105155D01*
X-80642000Y133105155D01*
X-80871890Y133226476D01*
X-81019099Y133181825D01*
X-81281920Y133056641D01*
X-81515269Y132882588D01*
X-81710178Y132666355D01*
X-81859157Y132416252D01*
X-81956481Y132141891D01*
X-83033519Y132141891D01*
X-83130843Y132416252D01*
X-83279822Y132666355D01*
X-83474731Y132882588D01*
X-83708080Y133056641D01*
X-83970901Y133181825D01*
X-84118110Y133226476D01*
X-84348000Y133105155D01*
X-84602000Y133105155D01*
X-84831890Y133226476D01*
X-84979099Y133181825D01*
X-85241920Y133056641D01*
X-85475269Y132882588D01*
X-85670178Y132666355D01*
X-85819157Y132416252D01*
X-85916481Y132141891D01*
X-86991897Y132141891D01*
X-87007068Y132218158D01*
X-87119010Y132488411D01*
X-87281525Y132731632D01*
X-87488368Y132938475D01*
X-87731589Y133100990D01*
X-88001842Y133212932D01*
X-88288740Y133270000D01*
X-88581260Y133270000D01*
X-88868158Y133212932D01*
X-89138411Y133100990D01*
X-89381632Y132938475D01*
X-89588475Y132731632D01*
X-89750990Y132488411D01*
X-89862932Y132218158D01*
X-89903985Y132011772D01*
X-90927920Y132021347D01*
X-90967068Y132218158D01*
X-91079010Y132488411D01*
X-91241525Y132731632D01*
X-91448368Y132938475D01*
X-91691589Y133100990D01*
X-91961842Y133212932D01*
X-92248740Y133270000D01*
X-92541260Y133270000D01*
X-92828158Y133212932D01*
X-93098411Y133100990D01*
X-93341632Y132938475D01*
X-93548475Y132731632D01*
X-93710990Y132488411D01*
X-93822932Y132218158D01*
X-93856632Y132048736D01*
X-94895300Y132058450D01*
X-94927068Y132218158D01*
X-95039010Y132488411D01*
X-95201525Y132731632D01*
X-95408368Y132938475D01*
X-95651589Y133100990D01*
X-95921842Y133212932D01*
X-96208740Y133270000D01*
X-96501260Y133270000D01*
X-96788158Y133212932D01*
X-97058411Y133100990D01*
X-97301632Y132938475D01*
X-97508475Y132731632D01*
X-97670990Y132488411D01*
X-97782932Y132218158D01*
X-97809279Y132085701D01*
X-98862680Y132095553D01*
X-98887068Y132218158D01*
X-98999010Y132488411D01*
X-99161525Y132731632D01*
X-99368368Y132938475D01*
X-99611589Y133100990D01*
X-99881842Y133212932D01*
X-100168740Y133270000D01*
X-100461260Y133270000D01*
X-100748158Y133212932D01*
X-101018411Y133100990D01*
X-101261632Y132938475D01*
X-101468475Y132731632D01*
X-101630990Y132488411D01*
X-101742932Y132218158D01*
X-101761927Y132122666D01*
X-102830060Y132132655D01*
X-102847068Y132218158D01*
X-102959010Y132488411D01*
X-103121525Y132731632D01*
X-103328368Y132938475D01*
X-103571589Y133100990D01*
X-103841842Y133212932D01*
X-104128740Y133270000D01*
X-104421260Y133270000D01*
X-104708158Y133212932D01*
X-104978411Y133100990D01*
X-105221632Y132938475D01*
X-105428475Y132731632D01*
X-105590990Y132488411D01*
X-105702932Y132218158D01*
X-105714574Y132159631D01*
X-106797441Y132169758D01*
X-106807068Y132218158D01*
X-106919010Y132488411D01*
X-107081525Y132731632D01*
X-107288368Y132938475D01*
X-107531589Y133100990D01*
X-107801842Y133212932D01*
X-108088740Y133270000D01*
X-108381260Y133270000D01*
X-108668158Y133212932D01*
X-108938411Y133100990D01*
X-109181632Y132938475D01*
X-109388475Y132731632D01*
X-109550990Y132488411D01*
X-109662932Y132218158D01*
X-109667221Y132196596D01*
X-111215659Y132211077D01*
X-111217068Y132218158D01*
X-111329010Y132488411D01*
X-111491525Y132731632D01*
X-111698368Y132938475D01*
X-111941589Y133100990D01*
X-112211842Y133212932D01*
X-112498740Y133270000D01*
X-112791260Y133270000D01*
X-113078158Y133212932D01*
X-113348411Y133100990D01*
X-113591632Y132938475D01*
X-113798475Y132731632D01*
X-113960990Y132488411D01*
X-114064828Y132237722D01*
X-114737778Y132244015D01*
X-114839010Y132488411D01*
X-115001525Y132731632D01*
X-115208368Y132938475D01*
X-115451589Y133100990D01*
X-115721842Y133212932D01*
X-116008740Y133270000D01*
X-116301260Y133270000D01*
X-116588158Y133212932D01*
X-116858411Y133100990D01*
X-117101632Y132938475D01*
X-117308475Y132731632D01*
X-117470990Y132488411D01*
X-117582932Y132218158D01*
X-117640000Y131931260D01*
X-117640000Y131638740D01*
X-117638572Y131631559D01*
X-127087351Y122182779D01*
X-127116421Y122158922D01*
X-127140278Y122129852D01*
X-127140279Y122129851D01*
X-127211645Y122042892D01*
X-127282401Y121910515D01*
X-127325973Y121766878D01*
X-127340686Y121617500D01*
X-127336999Y121580067D01*
X-127337000Y112582575D01*
X-127334999Y112562258D01*
X-127335000Y66184802D01*
X-131139801Y62380000D01*
X-171948000Y62380000D01*
X-171948000Y63100000D01*
X-131793639Y63100000D01*
X-131760000Y63096687D01*
X-131726361Y63100000D01*
X-131726353Y63100000D01*
X-131625717Y63109912D01*
X-131496594Y63149081D01*
X-131377593Y63212688D01*
X-131273289Y63298289D01*
X-131251840Y63324424D01*
X-128299422Y66276842D01*
X-128273289Y66298289D01*
X-128250919Y66325546D01*
X-128215256Y66369002D01*
X-128187688Y66402593D01*
X-128146237Y66480142D01*
X-128124081Y66521593D01*
X-128084912Y66650717D01*
X-128075000Y66751353D01*
X-128075000Y66751361D01*
X-128071687Y66785000D01*
X-128075000Y66818639D01*
X-128075000Y130935000D01*
X-125563072Y130935000D01*
X-125550812Y130810518D01*
X-125514502Y130690820D01*
X-125455537Y130580506D01*
X-125376185Y130483815D01*
X-125279494Y130404463D01*
X-125169180Y130345498D01*
X-125049482Y130309188D01*
X-124925000Y130296928D01*
X-124360750Y130300000D01*
X-124202000Y130458750D01*
X-124202000Y131658000D01*
X-123948000Y131658000D01*
X-123948000Y130458750D01*
X-123789250Y130300000D01*
X-123225000Y130296928D01*
X-123100518Y130309188D01*
X-122980820Y130345498D01*
X-122870506Y130404463D01*
X-122773815Y130483815D01*
X-122694463Y130580506D01*
X-122635498Y130690820D01*
X-122599188Y130810518D01*
X-122586928Y130935000D01*
X-122589612Y131428109D01*
X-121556481Y131428109D01*
X-121459157Y131153748D01*
X-121310178Y130903645D01*
X-121115269Y130687412D01*
X-120881920Y130513359D01*
X-120619099Y130388175D01*
X-120471890Y130343524D01*
X-120242000Y130464845D01*
X-120242000Y131658000D01*
X-119988000Y131658000D01*
X-119988000Y130464845D01*
X-119758110Y130343524D01*
X-119610901Y130388175D01*
X-119348080Y130513359D01*
X-119114731Y130687412D01*
X-118919822Y130903645D01*
X-118770843Y131153748D01*
X-118673519Y131428109D01*
X-118794186Y131658000D01*
X-119988000Y131658000D01*
X-120242000Y131658000D01*
X-121435814Y131658000D01*
X-121556481Y131428109D01*
X-122589612Y131428109D01*
X-122590000Y131499250D01*
X-122748750Y131658000D01*
X-123948000Y131658000D01*
X-124202000Y131658000D01*
X-125401250Y131658000D01*
X-125560000Y131499250D01*
X-125563072Y130935000D01*
X-128075000Y130935000D01*
X-128075000Y132635000D01*
X-125563072Y132635000D01*
X-125560000Y132070750D01*
X-125401250Y131912000D01*
X-124202000Y131912000D01*
X-124202000Y133111250D01*
X-123948000Y133111250D01*
X-123948000Y131912000D01*
X-122748750Y131912000D01*
X-122590000Y132070750D01*
X-122589613Y132141891D01*
X-121556481Y132141891D01*
X-121435814Y131912000D01*
X-120242000Y131912000D01*
X-120242000Y133105155D01*
X-119988000Y133105155D01*
X-119988000Y131912000D01*
X-118794186Y131912000D01*
X-118673519Y132141891D01*
X-118770843Y132416252D01*
X-118919822Y132666355D01*
X-119114731Y132882588D01*
X-119348080Y133056641D01*
X-119610901Y133181825D01*
X-119758110Y133226476D01*
X-119988000Y133105155D01*
X-120242000Y133105155D01*
X-120471890Y133226476D01*
X-120619099Y133181825D01*
X-120881920Y133056641D01*
X-121115269Y132882588D01*
X-121310178Y132666355D01*
X-121459157Y132416252D01*
X-121556481Y132141891D01*
X-122589613Y132141891D01*
X-122586928Y132635000D01*
X-122599188Y132759482D01*
X-122635498Y132879180D01*
X-122694463Y132989494D01*
X-122773815Y133086185D01*
X-122870506Y133165537D01*
X-122980820Y133224502D01*
X-123100518Y133260812D01*
X-123225000Y133273072D01*
X-123789250Y133270000D01*
X-123948000Y133111250D01*
X-124202000Y133111250D01*
X-124360750Y133270000D01*
X-124925000Y133273072D01*
X-125049482Y133260812D01*
X-125169180Y133224502D01*
X-125279494Y133165537D01*
X-125376185Y133086185D01*
X-125455537Y132989494D01*
X-125514502Y132879180D01*
X-125550812Y132759482D01*
X-125563072Y132635000D01*
X-128075000Y132635000D01*
X-128075000Y133501264D01*
X-125476264Y136100000D01*
X118956264Y136100000D01*
X121555000Y133501264D01*
G37*
%TD.AperFunction*%
%TD*%
M02*
