M48
; DRILL file {KiCad (5.1.7)-1} date 10/10/20 22:44:59
; FORMAT={-:-/ absolute / inch / decimal}
; #@! TF.CreationDate,2020-10-10T22:44:59-04:00
; #@! TF.GenerationSoftware,Kicad,Pcbnew,(5.1.7)-1
FMAT,2
INCH
T1C0.0519
T2C0.1378
%
G90
G05
T1
X-4.8848Y5.1884
X-4.7289Y5.1884
X-4.573Y5.1884
X-4.4348Y5.1884
X-4.2612Y5.1884
X-4.1053Y5.1884
X-3.9494Y5.1884
X-3.7935Y5.1884
X-3.6376Y5.1884
X-3.4817Y5.1884
X-3.3258Y5.1884
X-3.1699Y5.1884
X-3.014Y5.1884
X-2.8581Y5.1884
X-2.7022Y5.1884
X-2.5463Y5.1884
X-2.3904Y5.1884
X-2.2344Y5.1884
X-2.0785Y5.1884
X-1.9226Y5.1884
X-1.7667Y5.1884
X-1.6108Y5.1884
X-1.4549Y5.1884
X-1.299Y5.1884
X-1.1431Y5.1884
X-0.9872Y5.1884
X-0.8313Y5.1884
X-0.6754Y5.1884
X-0.5195Y5.1884
X-0.3636Y5.1884
T2
X4.0343Y-2.0563
X3.7291Y2.865
X8.9264Y1.2118
X0.363Y1.2114
X-6.3492Y1.2118
X7.8236Y0.385
X3.5421Y0.3846
X11.9185Y0.385
X2.2331Y-2.0563
X-3.7512Y2.0382
X9.6744Y0.385
X0.737Y2.865
X0.924Y-0.4421
X-4.5583Y4.5185
X-7.0972Y0.385
X0.737Y-1.2689
X-0.7591Y2.0382
X11.9185Y-0.4417
X0.55Y0.3846
X3.9161Y-0.4421
X2.2331Y3.6917
X-3.1902Y-1.2689
X7.8236Y-0.4417
X11.9185Y-1.2685
X11.9185Y-2.0953
X-5.178Y0.3854
X2.2331Y4.5185
X-5.0594Y-1.2673
X-2.2551Y4.5185
X3.0303Y-1.2689
X-4.5583Y3.6917
X-0.572Y-0.4421
X-0.7591Y3.6917
X9.6744Y-1.2685
X6.3276Y-0.4417
X-3.5642Y-2.0563
X3.3551Y1.2114
X6.3276Y0.385
X-2.4421Y0.3846
X-2.2551Y3.6917
X7.0756Y2.0386
X-4.5583Y2.865
X-6.3492Y-0.4417
X5.2252Y2.0382
X-6.3492Y-2.0559
X-0.572Y-2.0563
X0.737Y4.5185
X7.8236Y-1.2685
X5.0382Y-1.2689
X3.7291Y4.5185
X-2.6291Y1.2114
X8.5717Y2.0386
X6.3276Y-1.2685
X-7.0972Y-1.2685
X-2.2551Y2.865
X6.3276Y-2.0559
X8.5717Y-2.0559
X-3.5642Y-0.4421
X6.1504Y1.2118
X10.4224Y2.0386
X2.2331Y2.0382
X-4.3118Y1.2122
X-6.3492Y2.0386
T0
M30
