%TF.GenerationSoftware,KiCad,Pcbnew,(5.1.9-0-10_14)*%
%TF.CreationDate,2021-02-25T21:43:52+01:00*%
%TF.ProjectId,mtf122,6d746631-3232-42e6-9b69-6361645f7063,rev?*%
%TF.SameCoordinates,PXe1237f8PYe7db780*%
%TF.FileFunction,Copper,L1,Top*%
%TF.FilePolarity,Positive*%
%FSLAX46Y46*%
G04 Gerber Fmt 4.6, Leading zero omitted, Abs format (unit mm)*
G04 Created by KiCad (PCBNEW (5.1.9-0-10_14)) date 2021-02-25 21:43:52*
%MOMM*%
%LPD*%
G01*
G04 APERTURE LIST*
%TA.AperFunction,Profile*%
%ADD10C,0.100000*%
%TD*%
%TA.AperFunction,SMDPad,CuDef*%
%ADD11R,6.985000X12.700000*%
%TD*%
%TA.AperFunction,SMDPad,CuDef*%
%ADD12R,6.350000X12.700000*%
%TD*%
%TA.AperFunction,SMDPad,CuDef*%
%ADD13C,1.588000*%
%TD*%
%TA.AperFunction,SMDPad,CuDef*%
%ADD14C,1.000000*%
%TD*%
%TA.AperFunction,SMDPad,CuDef*%
%ADD15R,2.540000X5.080000*%
%TD*%
%TA.AperFunction,ComponentPad*%
%ADD16O,1.700000X1.700000*%
%TD*%
%TA.AperFunction,ComponentPad*%
%ADD17R,1.700000X1.700000*%
%TD*%
%TA.AperFunction,Conductor*%
%ADD18C,0.750000*%
%TD*%
%TA.AperFunction,Conductor*%
%ADD19C,0.254000*%
%TD*%
%TA.AperFunction,Conductor*%
%ADD20C,0.250000*%
%TD*%
%TA.AperFunction,Conductor*%
%ADD21C,0.150000*%
%TD*%
G04 APERTURE END LIST*
D10*
X119255000Y126830000D02*
X122255000Y123830000D01*
X-3065000Y129830000D02*
X-65000Y126830000D01*
X-6065000Y136800000D02*
X-3065000Y133800000D01*
X122255000Y123830000D02*
X122240000Y66785000D01*
X-125760000Y136785000D02*
X-6065000Y136800000D01*
X-65000Y126830000D02*
X119255000Y126830000D01*
X-3065000Y133800000D02*
X-3065000Y129830000D01*
X-131760000Y63785000D02*
X-128760000Y66785000D01*
X125240000Y63785000D02*
X122240000Y66785000D01*
X-128760000Y133785000D02*
X-125760000Y136785000D01*
X-128760000Y133785000D02*
X-128760000Y66785000D01*
X311240000Y60785000D02*
X308240000Y63785000D01*
X-188760000Y60785000D02*
X-185760000Y63785000D01*
X308240000Y-57215000D02*
X311240000Y-54215000D01*
X-185760000Y-57215000D02*
X-188760000Y-54215000D01*
X125240000Y63785000D02*
X308240000Y63785000D01*
X-188760000Y60785000D02*
X-188760000Y-54215000D01*
X-185760000Y-57215000D02*
X308240000Y-57215000D01*
X-185760000Y63785000D02*
X-131760000Y63785000D01*
X311240000Y60785000D02*
X311240000Y-54215000D01*
D11*
%TO.P,SW1,REF*%
%TO.N,Net-(SW1-PadREF)*%
X-108887500Y104350000D03*
D12*
%TO.P,SW1,ROW*%
%TO.N,ROW_8*%
X-100315000Y104350000D03*
D13*
%TO.P,SW1,B*%
%TO.N,Net-(SW1-PadB)*%
X-111554500Y112287000D03*
%TO.P,SW1,A*%
%TO.N,Net-(SW1-PadA)*%
X-97965500Y112287000D03*
%TD*%
D11*
%TO.P,SW3,REF*%
%TO.N,Net-(SW3-PadREF)*%
X-70887500Y104350000D03*
D12*
%TO.P,SW3,ROW*%
%TO.N,ROW_8*%
X-62315000Y104350000D03*
D13*
%TO.P,SW3,B*%
%TO.N,Net-(SW3-PadB)*%
X-73554500Y112287000D03*
%TO.P,SW3,A*%
%TO.N,Net-(SW3-PadA)*%
X-59965500Y112287000D03*
%TD*%
D11*
%TO.P,SW5,REF*%
%TO.N,Net-(SW5-PadREF)*%
X-32887500Y104350000D03*
D12*
%TO.P,SW5,ROW*%
%TO.N,ROW_8*%
X-24315000Y104350000D03*
D13*
%TO.P,SW5,B*%
%TO.N,Net-(SW5-PadB)*%
X-35554500Y112287000D03*
%TO.P,SW5,A*%
%TO.N,Net-(SW5-PadA)*%
X-21965500Y112287000D03*
%TD*%
D11*
%TO.P,SW7,REF*%
%TO.N,Net-(SW7-PadREF)*%
X5112500Y104350000D03*
D12*
%TO.P,SW7,ROW*%
%TO.N,ROW_8*%
X13685000Y104350000D03*
D13*
%TO.P,SW7,B*%
%TO.N,Net-(SW7-PadB)*%
X2445500Y112287000D03*
%TO.P,SW7,A*%
%TO.N,Net-(SW7-PadA)*%
X16034500Y112287000D03*
%TD*%
D11*
%TO.P,SW9,REF*%
%TO.N,Net-(SW9-PadREF)*%
X43112500Y104350000D03*
D12*
%TO.P,SW9,ROW*%
%TO.N,ROW_8*%
X51685000Y104350000D03*
D13*
%TO.P,SW9,B*%
%TO.N,Net-(SW9-PadB)*%
X40445500Y112287000D03*
%TO.P,SW9,A*%
%TO.N,Net-(SW9-PadA)*%
X54034500Y112287000D03*
%TD*%
D11*
%TO.P,SW11,REF*%
%TO.N,Net-(SW11-PadREF)*%
X81112500Y104350000D03*
D12*
%TO.P,SW11,ROW*%
%TO.N,ROW_8*%
X89685000Y104350000D03*
D13*
%TO.P,SW11,B*%
%TO.N,Net-(SW11-PadB)*%
X78445500Y112287000D03*
%TO.P,SW11,A*%
%TO.N,Net-(SW11-PadA)*%
X92034500Y112287000D03*
%TD*%
D11*
%TO.P,SW13,REF*%
%TO.N,Net-(SW13-PadREF)*%
X-108887500Y83350000D03*
D12*
%TO.P,SW13,ROW*%
%TO.N,ROW_7*%
X-100315000Y83350000D03*
D13*
%TO.P,SW13,B*%
%TO.N,Net-(SW13-PadB)*%
X-111554500Y91287000D03*
%TO.P,SW13,A*%
%TO.N,Net-(SW13-PadA)*%
X-97965500Y91287000D03*
%TD*%
D11*
%TO.P,SW15,REF*%
%TO.N,Net-(SW15-PadREF)*%
X-70887500Y83350000D03*
D12*
%TO.P,SW15,ROW*%
%TO.N,ROW_7*%
X-62315000Y83350000D03*
D13*
%TO.P,SW15,B*%
%TO.N,Net-(SW15-PadB)*%
X-73554500Y91287000D03*
%TO.P,SW15,A*%
%TO.N,Net-(SW15-PadA)*%
X-59965500Y91287000D03*
%TD*%
D11*
%TO.P,SW17,REF*%
%TO.N,Net-(SW17-PadREF)*%
X-32887500Y83350000D03*
D12*
%TO.P,SW17,ROW*%
%TO.N,ROW_7*%
X-24315000Y83350000D03*
D13*
%TO.P,SW17,B*%
%TO.N,Net-(SW17-PadB)*%
X-35554500Y91287000D03*
%TO.P,SW17,A*%
%TO.N,Net-(SW17-PadA)*%
X-21965500Y91287000D03*
%TD*%
D11*
%TO.P,SW19,REF*%
%TO.N,Net-(SW19-PadREF)*%
X5112500Y83350000D03*
D12*
%TO.P,SW19,ROW*%
%TO.N,ROW_7*%
X13685000Y83350000D03*
D13*
%TO.P,SW19,B*%
%TO.N,Net-(SW19-PadB)*%
X2445500Y91287000D03*
%TO.P,SW19,A*%
%TO.N,Net-(SW19-PadA)*%
X16034500Y91287000D03*
%TD*%
D11*
%TO.P,SW21,REF*%
%TO.N,Net-(SW21-PadREF)*%
X43112500Y83350000D03*
D12*
%TO.P,SW21,ROW*%
%TO.N,ROW_7*%
X51685000Y83350000D03*
D13*
%TO.P,SW21,B*%
%TO.N,Net-(SW21-PadB)*%
X40445500Y91287000D03*
%TO.P,SW21,A*%
%TO.N,Net-(SW21-PadA)*%
X54034500Y91287000D03*
%TD*%
D11*
%TO.P,SW23,REF*%
%TO.N,Net-(SW23-PadREF)*%
X81112500Y83350000D03*
D12*
%TO.P,SW23,ROW*%
%TO.N,ROW_7*%
X89685000Y83350000D03*
D13*
%TO.P,SW23,B*%
%TO.N,Net-(SW23-PadB)*%
X78445500Y91287000D03*
%TO.P,SW23,A*%
%TO.N,Net-(SW23-PadA)*%
X92034500Y91287000D03*
%TD*%
D11*
%TO.P,SW25,REF*%
%TO.N,Net-(SW25-PadREF)*%
X-174887500Y41350000D03*
D12*
%TO.P,SW25,ROW*%
%TO.N,ROW_5*%
X-166315000Y41350000D03*
D13*
%TO.P,SW25,B*%
%TO.N,Net-(SW25-PadB)*%
X-177554500Y49287000D03*
%TO.P,SW25,A*%
%TO.N,Net-(SW25-PadA)*%
X-163965500Y49287000D03*
%TD*%
D11*
%TO.P,SW27,REF*%
%TO.N,Net-(SW27-PadREF)*%
X-127887500Y41350000D03*
D12*
%TO.P,SW27,ROW*%
%TO.N,ROW_6*%
X-119315000Y41350000D03*
D13*
%TO.P,SW27,B*%
%TO.N,Net-(SW27-PadB)*%
X-130554500Y49287000D03*
%TO.P,SW27,A*%
%TO.N,Net-(SW27-PadA)*%
X-116965500Y49287000D03*
%TD*%
D11*
%TO.P,SW29,REF*%
%TO.N,Net-(SW29-PadREF)*%
X-89887500Y41350000D03*
D12*
%TO.P,SW29,ROW*%
%TO.N,ROW_6*%
X-81315000Y41350000D03*
D13*
%TO.P,SW29,B*%
%TO.N,Net-(SW29-PadB)*%
X-92554500Y49287000D03*
%TO.P,SW29,A*%
%TO.N,Net-(SW29-PadA)*%
X-78965500Y49287000D03*
%TD*%
D11*
%TO.P,SW31,REF*%
%TO.N,Net-(SW31-PadREF)*%
X-51887500Y41350000D03*
D12*
%TO.P,SW31,ROW*%
%TO.N,ROW_5*%
X-43315000Y41350000D03*
D13*
%TO.P,SW31,B*%
%TO.N,Net-(SW31-PadB)*%
X-54554500Y49287000D03*
%TO.P,SW31,A*%
%TO.N,Net-(SW31-PadA)*%
X-40965500Y49287000D03*
%TD*%
D11*
%TO.P,SW33,REF*%
%TO.N,Net-(SW33-PadREF)*%
X-13887500Y41350000D03*
D12*
%TO.P,SW33,ROW*%
%TO.N,ROW_6*%
X-5315000Y41350000D03*
D13*
%TO.P,SW33,B*%
%TO.N,Net-(SW33-PadB)*%
X-16554500Y49287000D03*
%TO.P,SW33,A*%
%TO.N,Net-(SW33-PadA)*%
X-2965500Y49287000D03*
%TD*%
D11*
%TO.P,SW35,REF*%
%TO.N,Net-(SW35-PadREF)*%
X24112500Y41350000D03*
D12*
%TO.P,SW35,ROW*%
%TO.N,ROW_6*%
X32685000Y41350000D03*
D13*
%TO.P,SW35,B*%
%TO.N,Net-(SW35-PadB)*%
X21445500Y49287000D03*
%TO.P,SW35,A*%
%TO.N,Net-(SW35-PadA)*%
X35034500Y49287000D03*
%TD*%
D11*
%TO.P,SW37,REF*%
%TO.N,Net-(SW37-PadREF)*%
X62112500Y41350000D03*
D12*
%TO.P,SW37,ROW*%
%TO.N,ROW_5*%
X70685000Y41350000D03*
D13*
%TO.P,SW37,B*%
%TO.N,Net-(SW37-PadB)*%
X59445500Y49287000D03*
%TO.P,SW37,A*%
%TO.N,Net-(SW37-PadA)*%
X73034500Y49287000D03*
%TD*%
D11*
%TO.P,SW39,REF*%
%TO.N,Net-(SW39-PadREF)*%
X100112500Y41350000D03*
D12*
%TO.P,SW39,ROW*%
%TO.N,ROW_6*%
X108685000Y41350000D03*
D13*
%TO.P,SW39,B*%
%TO.N,Net-(SW39-PadB)*%
X97445500Y49287000D03*
%TO.P,SW39,A*%
%TO.N,Net-(SW39-PadA)*%
X111034500Y49287000D03*
%TD*%
D11*
%TO.P,SW42,REF*%
%TO.N,Net-(SW42-PadREF)*%
X166112500Y41350000D03*
D12*
%TO.P,SW42,ROW*%
%TO.N,ROW_8*%
X174685000Y41350000D03*
D13*
%TO.P,SW42,B*%
%TO.N,Net-(SW42-PadB)*%
X163445500Y49287000D03*
%TO.P,SW42,A*%
%TO.N,Net-(SW42-PadA)*%
X177034500Y49287000D03*
%TD*%
D11*
%TO.P,SW44,REF*%
%TO.N,Net-(SW44-PadREF)*%
X204112500Y41350000D03*
D12*
%TO.P,SW44,ROW*%
%TO.N,ROW_8*%
X212685000Y41350000D03*
D13*
%TO.P,SW44,B*%
%TO.N,Net-(SW44-PadB)*%
X201445500Y49287000D03*
%TO.P,SW44,A*%
%TO.N,Net-(SW44-PadA)*%
X215034500Y49287000D03*
%TD*%
D11*
%TO.P,SW46,REF*%
%TO.N,Net-(SW46-PadREF)*%
X251112500Y41350000D03*
D12*
%TO.P,SW46,ROW*%
%TO.N,ROW_8*%
X259685000Y41350000D03*
D13*
%TO.P,SW46,B*%
%TO.N,Net-(SW46-PadB)*%
X248445500Y49287000D03*
%TO.P,SW46,A*%
%TO.N,Net-(SW46-PadA)*%
X262034500Y49287000D03*
%TD*%
D11*
%TO.P,SW48,REF*%
%TO.N,Net-(SW48-PadREF)*%
X289112500Y41350000D03*
D12*
%TO.P,SW48,ROW*%
%TO.N,ROW_8*%
X297685000Y41350000D03*
D13*
%TO.P,SW48,B*%
%TO.N,Net-(SW48-PadB)*%
X286445500Y49287000D03*
%TO.P,SW48,A*%
%TO.N,Net-(SW48-PadA)*%
X300034500Y49287000D03*
%TD*%
D11*
%TO.P,SW49,REF*%
%TO.N,Net-(SW49-PadREF)*%
X-174887500Y20350000D03*
D12*
%TO.P,SW49,ROW*%
%TO.N,ROW_4*%
X-166315000Y20350000D03*
D13*
%TO.P,SW49,B*%
%TO.N,Net-(SW49-PadB)*%
X-177554500Y28287000D03*
%TO.P,SW49,A*%
%TO.N,Net-(SW49-PadA)*%
X-163965500Y28287000D03*
%TD*%
D11*
%TO.P,SW51,REF*%
%TO.N,Net-(SW51-PadREF)*%
X-123137500Y20350000D03*
D12*
%TO.P,SW51,ROW*%
%TO.N,ROW_5*%
X-114565000Y20350000D03*
D13*
%TO.P,SW51,B*%
%TO.N,Net-(SW51-PadB)*%
X-125804500Y28287000D03*
%TO.P,SW51,A*%
%TO.N,Net-(SW51-PadA)*%
X-112215500Y28287000D03*
%TD*%
D11*
%TO.P,SW52,REF*%
%TO.N,Net-(SW52-PadREF)*%
X-99387500Y20350000D03*
D12*
%TO.P,SW52,ROW*%
%TO.N,ROW_5*%
X-90815000Y20350000D03*
D13*
%TO.P,SW52,B*%
%TO.N,Net-(SW52-PadB)*%
X-102054500Y28287000D03*
%TO.P,SW52,A*%
%TO.N,Net-(SW52-PadA)*%
X-88465500Y28287000D03*
%TD*%
D11*
%TO.P,SW53,REF*%
%TO.N,Net-(SW53-PadREF)*%
X-80387500Y20350000D03*
D12*
%TO.P,SW53,ROW*%
%TO.N,ROW_5*%
X-71815000Y20350000D03*
D13*
%TO.P,SW53,B*%
%TO.N,Net-(SW53-PadB)*%
X-83054500Y28287000D03*
%TO.P,SW53,A*%
%TO.N,Net-(SW53-PadA)*%
X-69465500Y28287000D03*
%TD*%
D11*
%TO.P,SW56,REF*%
%TO.N,Net-(SW56-PadREF)*%
X-23387500Y20350000D03*
D12*
%TO.P,SW56,ROW*%
%TO.N,ROW_4*%
X-14815000Y20350000D03*
D13*
%TO.P,SW56,B*%
%TO.N,Net-(SW56-PadB)*%
X-26054500Y28287000D03*
%TO.P,SW56,A*%
%TO.N,Net-(SW56-PadA)*%
X-12465500Y28287000D03*
%TD*%
D11*
%TO.P,SW57,REF*%
%TO.N,Net-(SW57-PadREF)*%
X-4387500Y20350000D03*
D12*
%TO.P,SW57,ROW*%
%TO.N,ROW_5*%
X4185000Y20350000D03*
D13*
%TO.P,SW57,B*%
%TO.N,Net-(SW57-PadB)*%
X-7054500Y28287000D03*
%TO.P,SW57,A*%
%TO.N,Net-(SW57-PadA)*%
X6534500Y28287000D03*
%TD*%
D11*
%TO.P,SW60,REF*%
%TO.N,Net-(SW60-PadREF)*%
X52612500Y20350000D03*
D12*
%TO.P,SW60,ROW*%
%TO.N,ROW_4*%
X61185000Y20350000D03*
D13*
%TO.P,SW60,B*%
%TO.N,Net-(SW60-PadB)*%
X49945500Y28287000D03*
%TO.P,SW60,A*%
%TO.N,Net-(SW60-PadA)*%
X63534500Y28287000D03*
%TD*%
D11*
%TO.P,SW64,REF*%
%TO.N,Net-(SW64-PadREF)*%
X133362500Y20350000D03*
D12*
%TO.P,SW64,ROW*%
%TO.N,ROW_5*%
X141935000Y20350000D03*
D13*
%TO.P,SW64,B*%
%TO.N,Net-(SW64-PadB)*%
X130695500Y28287000D03*
%TO.P,SW64,A*%
%TO.N,Net-(SW64-PadA)*%
X144284500Y28287000D03*
%TD*%
D11*
%TO.P,SW66,REF*%
%TO.N,Net-(SW66-PadREF)*%
X185112500Y20350000D03*
D12*
%TO.P,SW66,ROW*%
%TO.N,ROW_6*%
X193685000Y20350000D03*
D13*
%TO.P,SW66,B*%
%TO.N,Net-(SW66-PadB)*%
X182445500Y28287000D03*
%TO.P,SW66,A*%
%TO.N,Net-(SW66-PadA)*%
X196034500Y28287000D03*
%TD*%
D11*
%TO.P,SW68,REF*%
%TO.N,Net-(SW68-PadREF)*%
X232112500Y20350000D03*
D12*
%TO.P,SW68,ROW*%
%TO.N,ROW_5*%
X240685000Y20350000D03*
D13*
%TO.P,SW68,B*%
%TO.N,Net-(SW68-PadB)*%
X229445500Y28287000D03*
%TO.P,SW68,A*%
%TO.N,Net-(SW68-PadA)*%
X243034500Y28287000D03*
%TD*%
D11*
%TO.P,SW71,REF*%
%TO.N,Net-(SW71-PadREF)*%
X289112500Y20350000D03*
D12*
%TO.P,SW71,ROW*%
%TO.N,ROW_5*%
X297685000Y20350000D03*
D13*
%TO.P,SW71,B*%
%TO.N,Net-(SW71-PadB)*%
X286445500Y28287000D03*
%TO.P,SW71,A*%
%TO.N,Net-(SW71-PadA)*%
X300034500Y28287000D03*
%TD*%
D11*
%TO.P,SW72,REF*%
%TO.N,Net-(SW72-PadREF)*%
X-174887500Y-650000D03*
D12*
%TO.P,SW72,ROW*%
%TO.N,ROW_3*%
X-166315000Y-650000D03*
D13*
%TO.P,SW72,B*%
%TO.N,Net-(SW72-PadB)*%
X-177554500Y7287000D03*
%TO.P,SW72,A*%
%TO.N,Net-(SW72-PadA)*%
X-163965500Y7287000D03*
%TD*%
D11*
%TO.P,SW76,REF*%
%TO.N,Net-(SW76-PadREF)*%
X-75637500Y-650000D03*
D12*
%TO.P,SW76,ROW*%
%TO.N,ROW_3*%
X-67065000Y-650000D03*
D13*
%TO.P,SW76,B*%
%TO.N,Net-(SW76-PadB)*%
X-78304500Y7287000D03*
%TO.P,SW76,A*%
%TO.N,Net-(SW76-PadA)*%
X-64715500Y7287000D03*
%TD*%
D11*
%TO.P,SW78,REF*%
%TO.N,Net-(SW78-PadREF)*%
X-37637500Y-650000D03*
D12*
%TO.P,SW78,ROW*%
%TO.N,ROW_3*%
X-29065000Y-650000D03*
D13*
%TO.P,SW78,B*%
%TO.N,Net-(SW78-PadB)*%
X-40304500Y7287000D03*
%TO.P,SW78,A*%
%TO.N,Net-(SW78-PadA)*%
X-26715500Y7287000D03*
%TD*%
D11*
%TO.P,SW80,REF*%
%TO.N,Net-(SW80-PadREF)*%
X362500Y-650000D03*
D12*
%TO.P,SW80,ROW*%
%TO.N,ROW_3*%
X8935000Y-650000D03*
D13*
%TO.P,SW80,B*%
%TO.N,Net-(SW80-PadB)*%
X-2304500Y7287000D03*
%TO.P,SW80,A*%
%TO.N,Net-(SW80-PadA)*%
X11284500Y7287000D03*
%TD*%
D11*
%TO.P,SW82,REF*%
%TO.N,Net-(SW82-PadREF)*%
X38362500Y-650000D03*
D12*
%TO.P,SW82,ROW*%
%TO.N,ROW_2*%
X46935000Y-650000D03*
D13*
%TO.P,SW82,B*%
%TO.N,Net-(SW82-PadB)*%
X35695500Y7287000D03*
%TO.P,SW82,A*%
%TO.N,Net-(SW82-PadA)*%
X49284500Y7287000D03*
%TD*%
D11*
%TO.P,SW84,REF*%
%TO.N,Net-(SW84-PadREF)*%
X76362500Y-650000D03*
D12*
%TO.P,SW84,ROW*%
%TO.N,ROW_4*%
X84935000Y-650000D03*
D13*
%TO.P,SW84,B*%
%TO.N,Net-(SW84-PadB)*%
X73695500Y7287000D03*
%TO.P,SW84,A*%
%TO.N,Net-(SW84-PadA)*%
X87284500Y7287000D03*
%TD*%
D11*
%TO.P,SW86,REF*%
%TO.N,Net-(SW86-PadREF)*%
X114362500Y-650000D03*
D12*
%TO.P,SW86,ROW*%
%TO.N,ROW_4*%
X122935000Y-650000D03*
D13*
%TO.P,SW86,B*%
%TO.N,Net-(SW86-PadB)*%
X111695500Y7287000D03*
%TO.P,SW86,A*%
%TO.N,Net-(SW86-PadA)*%
X125284500Y7287000D03*
%TD*%
D11*
%TO.P,SW88,REF*%
%TO.N,Net-(SW88-PadREF)*%
X185112500Y-650000D03*
D12*
%TO.P,SW88,ROW*%
%TO.N,ROW_4*%
X193685000Y-650000D03*
D13*
%TO.P,SW88,B*%
%TO.N,Net-(SW88-PadB)*%
X182445500Y7287000D03*
%TO.P,SW88,A*%
%TO.N,Net-(SW88-PadA)*%
X196034500Y7287000D03*
%TD*%
D11*
%TO.P,SW89,REF*%
%TO.N,Net-(SW89-PadREF)*%
X232112500Y-650000D03*
D12*
%TO.P,SW89,ROW*%
%TO.N,ROW_4*%
X240685000Y-650000D03*
D13*
%TO.P,SW89,B*%
%TO.N,Net-(SW89-PadB)*%
X229445500Y7287000D03*
%TO.P,SW89,A*%
%TO.N,Net-(SW89-PadA)*%
X243034500Y7287000D03*
%TD*%
D11*
%TO.P,SW91,REF*%
%TO.N,Net-(SW91-PadREF)*%
X270112500Y-650000D03*
D12*
%TO.P,SW91,ROW*%
%TO.N,ROW_5*%
X278685000Y-650000D03*
D13*
%TO.P,SW91,B*%
%TO.N,Net-(SW91-PadB)*%
X267445500Y7287000D03*
%TO.P,SW91,A*%
%TO.N,Net-(SW91-PadA)*%
X281034500Y7287000D03*
%TD*%
D11*
%TO.P,SW93,REF*%
%TO.N,Net-(SW93-PadREF)*%
X-174887500Y-21650000D03*
D12*
%TO.P,SW93,ROW*%
%TO.N,ROW_2*%
X-166315000Y-21650000D03*
D13*
%TO.P,SW93,B*%
%TO.N,Net-(SW93-PadB)*%
X-177554500Y-13713000D03*
%TO.P,SW93,A*%
%TO.N,Net-(SW93-PadA)*%
X-163965500Y-13713000D03*
%TD*%
D11*
%TO.P,SW96,REF*%
%TO.N,Net-(SW96-PadREF)*%
X-104137500Y-21650000D03*
D12*
%TO.P,SW96,ROW*%
%TO.N,ROW_3*%
X-95565000Y-21650000D03*
D13*
%TO.P,SW96,B*%
%TO.N,Net-(SW96-PadB)*%
X-106804500Y-13713000D03*
%TO.P,SW96,A*%
%TO.N,Net-(SW96-PadA)*%
X-93215500Y-13713000D03*
%TD*%
D11*
%TO.P,SW99,REF*%
%TO.N,Net-(SW99-PadREF)*%
X-47137500Y-21650000D03*
D12*
%TO.P,SW99,ROW*%
%TO.N,ROW_1*%
X-38565000Y-21650000D03*
D13*
%TO.P,SW99,B*%
%TO.N,Net-(SW99-PadB)*%
X-49804500Y-13713000D03*
%TO.P,SW99,A*%
%TO.N,Net-(SW99-PadA)*%
X-36215500Y-13713000D03*
%TD*%
D11*
%TO.P,SW100,REF*%
%TO.N,Net-(SW100-PadREF)*%
X-28137500Y-21650000D03*
D12*
%TO.P,SW100,ROW*%
%TO.N,ROW_2*%
X-19565000Y-21650000D03*
D13*
%TO.P,SW100,B*%
%TO.N,Net-(SW100-PadB)*%
X-30804500Y-13713000D03*
%TO.P,SW100,A*%
%TO.N,Net-(SW100-PadA)*%
X-17215500Y-13713000D03*
%TD*%
D11*
%TO.P,SW102,REF*%
%TO.N,Net-(SW102-PadREF)*%
X9862500Y-21650000D03*
D12*
%TO.P,SW102,ROW*%
%TO.N,ROW_1*%
X18435000Y-21650000D03*
D13*
%TO.P,SW102,B*%
%TO.N,Net-(SW102-PadB)*%
X7195500Y-13713000D03*
%TO.P,SW102,A*%
%TO.N,Net-(SW102-PadA)*%
X20784500Y-13713000D03*
%TD*%
D11*
%TO.P,SW103,REF*%
%TO.N,Net-(SW103-PadREF)*%
X28862500Y-21650000D03*
D12*
%TO.P,SW103,ROW*%
%TO.N,ROW_2*%
X37435000Y-21650000D03*
D13*
%TO.P,SW103,B*%
%TO.N,Net-(SW103-PadB)*%
X26195500Y-13713000D03*
%TO.P,SW103,A*%
%TO.N,Net-(SW103-PadA)*%
X39784500Y-13713000D03*
%TD*%
D11*
%TO.P,SW104,REF*%
%TO.N,Net-(SW104-PadREF)*%
X47862500Y-21650000D03*
D12*
%TO.P,SW104,ROW*%
%TO.N,ROW_1*%
X56435000Y-21650000D03*
D13*
%TO.P,SW104,B*%
%TO.N,Net-(SW104-PadB)*%
X45195500Y-13713000D03*
%TO.P,SW104,A*%
%TO.N,Net-(SW104-PadA)*%
X58784500Y-13713000D03*
%TD*%
D11*
%TO.P,SW106,REF*%
%TO.N,Net-(SW106-PadREF)*%
X85862500Y-21650000D03*
D12*
%TO.P,SW106,ROW*%
%TO.N,ROW_2*%
X94435000Y-21650000D03*
D13*
%TO.P,SW106,B*%
%TO.N,Net-(SW106-PadB)*%
X83195500Y-13713000D03*
%TO.P,SW106,A*%
%TO.N,Net-(SW106-PadA)*%
X96784500Y-13713000D03*
%TD*%
D11*
%TO.P,SW110,REF*%
%TO.N,Net-(SW110-PadREF)*%
X185112500Y-21650000D03*
D12*
%TO.P,SW110,ROW*%
%TO.N,ROW_3*%
X193685000Y-21650000D03*
D13*
%TO.P,SW110,B*%
%TO.N,Net-(SW110-PadB)*%
X182445500Y-13713000D03*
%TO.P,SW110,A*%
%TO.N,Net-(SW110-PadA)*%
X196034500Y-13713000D03*
%TD*%
D11*
%TO.P,SW112,REF*%
%TO.N,Net-(SW112-PadREF)*%
X232112500Y-21650000D03*
D12*
%TO.P,SW112,ROW*%
%TO.N,ROW_2*%
X240685000Y-21650000D03*
D13*
%TO.P,SW112,B*%
%TO.N,Net-(SW112-PadB)*%
X229445500Y-13713000D03*
%TO.P,SW112,A*%
%TO.N,Net-(SW112-PadA)*%
X243034500Y-13713000D03*
%TD*%
D11*
%TO.P,SW115,REF*%
%TO.N,Net-(SW115-PadREF)*%
X289112500Y-21650000D03*
D12*
%TO.P,SW115,ROW*%
%TO.N,ROW_2*%
X297685000Y-21650000D03*
D13*
%TO.P,SW115,B*%
%TO.N,Net-(SW115-PadB)*%
X286445500Y-13713000D03*
%TO.P,SW115,A*%
%TO.N,Net-(SW115-PadA)*%
X300034500Y-13713000D03*
%TD*%
D11*
%TO.P,SW116,REF*%
%TO.N,Net-(SW116-PadREF)*%
X-174887500Y-42650000D03*
D12*
%TO.P,SW116,ROW*%
%TO.N,ROW_1*%
X-166315000Y-42650000D03*
D13*
%TO.P,SW116,B*%
%TO.N,Net-(SW116-PadB)*%
X-177554500Y-34713000D03*
%TO.P,SW116,A*%
%TO.N,Net-(SW116-PadA)*%
X-163965500Y-34713000D03*
%TD*%
D11*
%TO.P,SW119,REF*%
%TO.N,Net-(SW119-PadREF)*%
X-75637500Y-42650000D03*
D12*
%TO.P,SW119,ROW*%
%TO.N,ROW_1*%
X-67065000Y-42650000D03*
D13*
%TO.P,SW119,B*%
%TO.N,Net-(SW119-PadB)*%
X-78304500Y-34713000D03*
%TO.P,SW119,A*%
%TO.N,Net-(SW119-PadA)*%
X-64715500Y-34713000D03*
%TD*%
D11*
%TO.P,SW120,REF*%
%TO.N,Net-(SW120-PadREF)*%
X5112500Y-42650000D03*
D12*
%TO.P,SW120,ROW*%
%TO.N,ROW_1*%
X13685000Y-42650000D03*
D13*
%TO.P,SW120,B*%
%TO.N,Net-(SW120-PadB)*%
X2445500Y-34713000D03*
%TO.P,SW120,A*%
%TO.N,Net-(SW120-PadA)*%
X16034500Y-34713000D03*
%TD*%
D11*
%TO.P,SW121,REF*%
%TO.N,Net-(SW121-PadREF)*%
X85862500Y-42650000D03*
D12*
%TO.P,SW121,ROW*%
%TO.N,ROW_1*%
X94435000Y-42650000D03*
D13*
%TO.P,SW121,B*%
%TO.N,Net-(SW121-PadB)*%
X83195500Y-34713000D03*
%TO.P,SW121,A*%
%TO.N,Net-(SW121-PadA)*%
X96784500Y-34713000D03*
%TD*%
D11*
%TO.P,SW123,REF*%
%TO.N,Net-(SW123-PadREF)*%
X185112500Y-42650000D03*
D12*
%TO.P,SW123,ROW*%
%TO.N,ROW_1*%
X193685000Y-42650000D03*
D13*
%TO.P,SW123,B*%
%TO.N,Net-(SW123-PadB)*%
X182445500Y-34713000D03*
%TO.P,SW123,A*%
%TO.N,Net-(SW123-PadA)*%
X196034500Y-34713000D03*
%TD*%
D11*
%TO.P,SW124,REF*%
%TO.N,Net-(SW124-PadREF)*%
X232112500Y-42650000D03*
D12*
%TO.P,SW124,ROW*%
%TO.N,ROW_1*%
X240685000Y-42650000D03*
D13*
%TO.P,SW124,B*%
%TO.N,Net-(SW124-PadB)*%
X229445500Y-34713000D03*
%TO.P,SW124,A*%
%TO.N,Net-(SW124-PadA)*%
X243034500Y-34713000D03*
%TD*%
D11*
%TO.P,SW126,REF*%
%TO.N,Net-(SW126-PadREF)*%
X270112500Y-42650000D03*
D12*
%TO.P,SW126,ROW*%
%TO.N,ROW_2*%
X278685000Y-42650000D03*
D13*
%TO.P,SW126,B*%
%TO.N,Net-(SW126-PadB)*%
X267445500Y-34713000D03*
%TO.P,SW126,A*%
%TO.N,Net-(SW126-PadA)*%
X281034500Y-34713000D03*
%TD*%
%TO.P,SW20,A*%
%TO.N,Net-(SW20-PadA)*%
X21445500Y91287000D03*
%TO.P,SW20,B*%
%TO.N,Net-(SW20-PadB)*%
X35034500Y91287000D03*
D12*
%TO.P,SW20,ROW*%
%TO.N,ROW_7*%
X23795000Y83350000D03*
D11*
%TO.P,SW20,REF*%
%TO.N,Net-(SW20-PadREF)*%
X32367500Y83350000D03*
%TD*%
D13*
%TO.P,SW8,A*%
%TO.N,Net-(SW8-PadA)*%
X21445500Y112287000D03*
%TO.P,SW8,B*%
%TO.N,Net-(SW8-PadB)*%
X35034500Y112287000D03*
D12*
%TO.P,SW8,ROW*%
%TO.N,ROW_8*%
X23795000Y104350000D03*
D11*
%TO.P,SW8,REF*%
%TO.N,Net-(SW8-PadREF)*%
X32367500Y104350000D03*
%TD*%
D13*
%TO.P,SW10,A*%
%TO.N,Net-(SW10-PadA)*%
X59445500Y112287000D03*
%TO.P,SW10,B*%
%TO.N,Net-(SW10-PadB)*%
X73034500Y112287000D03*
D12*
%TO.P,SW10,ROW*%
%TO.N,ROW_8*%
X61795000Y104350000D03*
D11*
%TO.P,SW10,REF*%
%TO.N,Net-(SW10-PadREF)*%
X70367500Y104350000D03*
%TD*%
D13*
%TO.P,SW6,A*%
%TO.N,Net-(SW6-PadA)*%
X-16554500Y112287000D03*
%TO.P,SW6,B*%
%TO.N,Net-(SW6-PadB)*%
X-2965500Y112287000D03*
D12*
%TO.P,SW6,ROW*%
%TO.N,ROW_8*%
X-14205000Y104350000D03*
D11*
%TO.P,SW6,REF*%
%TO.N,Net-(SW6-PadREF)*%
X-5632500Y104350000D03*
%TD*%
D13*
%TO.P,SW22,A*%
%TO.N,Net-(SW22-PadA)*%
X59445500Y91287000D03*
%TO.P,SW22,B*%
%TO.N,Net-(SW22-PadB)*%
X73034500Y91287000D03*
D12*
%TO.P,SW22,ROW*%
%TO.N,ROW_7*%
X61795000Y83350000D03*
D11*
%TO.P,SW22,REF*%
%TO.N,Net-(SW22-PadREF)*%
X70367500Y83350000D03*
%TD*%
D13*
%TO.P,SW24,A*%
%TO.N,Net-(SW24-PadA)*%
X97445500Y91287000D03*
%TO.P,SW24,B*%
%TO.N,Net-(SW24-PadB)*%
X111034500Y91287000D03*
D12*
%TO.P,SW24,ROW*%
%TO.N,ROW_7*%
X99795000Y83350000D03*
D11*
%TO.P,SW24,REF*%
%TO.N,Net-(SW24-PadREF)*%
X108367500Y83350000D03*
%TD*%
D13*
%TO.P,SW18,A*%
%TO.N,Net-(SW18-PadA)*%
X-16554500Y91287000D03*
%TO.P,SW18,B*%
%TO.N,Net-(SW18-PadB)*%
X-2965500Y91287000D03*
D12*
%TO.P,SW18,ROW*%
%TO.N,ROW_7*%
X-14205000Y83350000D03*
D11*
%TO.P,SW18,REF*%
%TO.N,Net-(SW18-PadREF)*%
X-5632500Y83350000D03*
%TD*%
D13*
%TO.P,SW2,A*%
%TO.N,Net-(SW2-PadA)*%
X-92554500Y112287000D03*
%TO.P,SW2,B*%
%TO.N,Net-(SW2-PadB)*%
X-78965500Y112287000D03*
D12*
%TO.P,SW2,ROW*%
%TO.N,ROW_8*%
X-90205000Y104350000D03*
D11*
%TO.P,SW2,REF*%
%TO.N,Net-(SW2-PadREF)*%
X-81632500Y104350000D03*
%TD*%
D13*
%TO.P,SW16,A*%
%TO.N,Net-(SW16-PadA)*%
X-54554500Y91287000D03*
%TO.P,SW16,B*%
%TO.N,Net-(SW16-PadB)*%
X-40965500Y91287000D03*
D12*
%TO.P,SW16,ROW*%
%TO.N,ROW_7*%
X-52205000Y83350000D03*
D11*
%TO.P,SW16,REF*%
%TO.N,Net-(SW16-PadREF)*%
X-43632500Y83350000D03*
%TD*%
D13*
%TO.P,SW4,A*%
%TO.N,Net-(SW4-PadA)*%
X-54554500Y112287000D03*
%TO.P,SW4,B*%
%TO.N,Net-(SW4-PadB)*%
X-40965500Y112287000D03*
D12*
%TO.P,SW4,ROW*%
%TO.N,ROW_8*%
X-52205000Y104350000D03*
D11*
%TO.P,SW4,REF*%
%TO.N,Net-(SW4-PadREF)*%
X-43632500Y104350000D03*
%TD*%
D13*
%TO.P,SW12,A*%
%TO.N,Net-(SW12-PadA)*%
X97445500Y112287000D03*
%TO.P,SW12,B*%
%TO.N,Net-(SW12-PadB)*%
X111034500Y112287000D03*
D12*
%TO.P,SW12,ROW*%
%TO.N,ROW_8*%
X99795000Y104350000D03*
D11*
%TO.P,SW12,REF*%
%TO.N,Net-(SW12-PadREF)*%
X108367500Y104350000D03*
%TD*%
D13*
%TO.P,SW14,A*%
%TO.N,Net-(SW14-PadA)*%
X-92554500Y91287000D03*
%TO.P,SW14,B*%
%TO.N,Net-(SW14-PadB)*%
X-78965500Y91287000D03*
D12*
%TO.P,SW14,ROW*%
%TO.N,ROW_7*%
X-90205000Y83350000D03*
D11*
%TO.P,SW14,REF*%
%TO.N,Net-(SW14-PadREF)*%
X-81632500Y83350000D03*
%TD*%
D13*
%TO.P,SW127,A*%
%TO.N,Net-(SW127-PadA)*%
X286445500Y-34713000D03*
%TO.P,SW127,B*%
%TO.N,Net-(SW127-PadB)*%
X300034500Y-34713000D03*
D12*
%TO.P,SW127,ROW*%
%TO.N,ROW_1*%
X288795000Y-42650000D03*
D11*
%TO.P,SW127,REF*%
%TO.N,Net-(SW127-PadREF)*%
X297367500Y-42650000D03*
%TD*%
D13*
%TO.P,SW125,A*%
%TO.N,Net-(SW125-PadA)*%
X248445500Y-34713000D03*
%TO.P,SW125,B*%
%TO.N,Net-(SW125-PadB)*%
X262034500Y-34713000D03*
D12*
%TO.P,SW125,ROW*%
%TO.N,ROW_1*%
X250795000Y-42650000D03*
D11*
%TO.P,SW125,REF*%
%TO.N,Net-(SW125-PadREF)*%
X259367500Y-42650000D03*
%TD*%
D13*
%TO.P,SW122,A*%
%TO.N,Net-(SW122-PadA)*%
X130695500Y-34713000D03*
%TO.P,SW122,B*%
%TO.N,Net-(SW122-PadB)*%
X144284500Y-34713000D03*
D12*
%TO.P,SW122,ROW*%
%TO.N,ROW_1*%
X133045000Y-42650000D03*
D11*
%TO.P,SW122,REF*%
%TO.N,Net-(SW122-PadREF)*%
X141617500Y-42650000D03*
%TD*%
D13*
%TO.P,SW118,A*%
%TO.N,Net-(SW118-PadA)*%
X-125804500Y-34713000D03*
%TO.P,SW118,B*%
%TO.N,Net-(SW118-PadB)*%
X-112215500Y-34713000D03*
D12*
%TO.P,SW118,ROW*%
%TO.N,ROW_1*%
X-123455000Y-42650000D03*
D11*
%TO.P,SW118,REF*%
%TO.N,Net-(SW118-PadREF)*%
X-114882500Y-42650000D03*
%TD*%
D13*
%TO.P,SW117,A*%
%TO.N,Net-(SW117-PadA)*%
X-158554500Y-34713000D03*
%TO.P,SW117,B*%
%TO.N,Net-(SW117-PadB)*%
X-144965500Y-34713000D03*
D12*
%TO.P,SW117,ROW*%
%TO.N,ROW_1*%
X-156205000Y-42650000D03*
D11*
%TO.P,SW117,REF*%
%TO.N,Net-(SW117-PadREF)*%
X-147632500Y-42650000D03*
%TD*%
D13*
%TO.P,SW114,A*%
%TO.N,Net-(SW114-PadA)*%
X267445500Y-13713000D03*
%TO.P,SW114,B*%
%TO.N,Net-(SW114-PadB)*%
X281034500Y-13713000D03*
D12*
%TO.P,SW114,ROW*%
%TO.N,ROW_3*%
X269795000Y-21650000D03*
D11*
%TO.P,SW114,REF*%
%TO.N,Net-(SW114-PadREF)*%
X278367500Y-21650000D03*
%TD*%
D13*
%TO.P,SW113,A*%
%TO.N,Net-(SW113-PadA)*%
X248445500Y-13713000D03*
%TO.P,SW113,B*%
%TO.N,Net-(SW113-PadB)*%
X262034500Y-13713000D03*
D12*
%TO.P,SW113,ROW*%
%TO.N,ROW_3*%
X250795000Y-21650000D03*
D11*
%TO.P,SW113,REF*%
%TO.N,Net-(SW113-PadREF)*%
X259367500Y-21650000D03*
%TD*%
D13*
%TO.P,SW111,A*%
%TO.N,Net-(SW111-PadA)*%
X201445500Y-13713000D03*
%TO.P,SW111,B*%
%TO.N,Net-(SW111-PadB)*%
X215034500Y-13713000D03*
D12*
%TO.P,SW111,ROW*%
%TO.N,ROW_3*%
X203795000Y-21650000D03*
D11*
%TO.P,SW111,REF*%
%TO.N,Net-(SW111-PadREF)*%
X212367500Y-21650000D03*
%TD*%
D13*
%TO.P,SW109,A*%
%TO.N,Net-(SW109-PadA)*%
X163445500Y-13713000D03*
%TO.P,SW109,B*%
%TO.N,Net-(SW109-PadB)*%
X177034500Y-13713000D03*
D12*
%TO.P,SW109,ROW*%
%TO.N,ROW_2*%
X165795000Y-21650000D03*
D11*
%TO.P,SW109,REF*%
%TO.N,Net-(SW109-PadREF)*%
X174367500Y-21650000D03*
%TD*%
D13*
%TO.P,SW108,A*%
%TO.N,Net-(SW108-PadA)*%
X126695500Y-13713000D03*
%TO.P,SW108,B*%
%TO.N,Net-(SW108-PadB)*%
X140284500Y-13713000D03*
D12*
%TO.P,SW108,ROW*%
%TO.N,ROW_2*%
X129045000Y-21650000D03*
D11*
%TO.P,SW108,REF*%
%TO.N,Net-(SW108-PadREF)*%
X137617500Y-21650000D03*
%TD*%
D13*
%TO.P,SW107,A*%
%TO.N,Net-(SW107-PadA)*%
X102195500Y-13713000D03*
%TO.P,SW107,B*%
%TO.N,Net-(SW107-PadB)*%
X115784500Y-13713000D03*
D12*
%TO.P,SW107,ROW*%
%TO.N,ROW_2*%
X104545000Y-21650000D03*
D11*
%TO.P,SW107,REF*%
%TO.N,Net-(SW107-PadREF)*%
X113117500Y-21650000D03*
%TD*%
D13*
%TO.P,SW105,A*%
%TO.N,Net-(SW105-PadA)*%
X64195500Y-13713000D03*
%TO.P,SW105,B*%
%TO.N,Net-(SW105-PadB)*%
X77784500Y-13713000D03*
D12*
%TO.P,SW105,ROW*%
%TO.N,ROW_1*%
X66545000Y-21650000D03*
D11*
%TO.P,SW105,REF*%
%TO.N,Net-(SW105-PadREF)*%
X75117500Y-21650000D03*
%TD*%
D13*
%TO.P,SW101,A*%
%TO.N,Net-(SW101-PadA)*%
X-11804500Y-13713000D03*
%TO.P,SW101,B*%
%TO.N,Net-(SW101-PadB)*%
X1784500Y-13713000D03*
D12*
%TO.P,SW101,ROW*%
%TO.N,ROW_2*%
X-9455000Y-21650000D03*
D11*
%TO.P,SW101,REF*%
%TO.N,Net-(SW101-PadREF)*%
X-882500Y-21650000D03*
%TD*%
D13*
%TO.P,SW98,A*%
%TO.N,Net-(SW98-PadA)*%
X-68804500Y-13713000D03*
%TO.P,SW98,B*%
%TO.N,Net-(SW98-PadB)*%
X-55215500Y-13713000D03*
D12*
%TO.P,SW98,ROW*%
%TO.N,ROW_2*%
X-66455000Y-21650000D03*
D11*
%TO.P,SW98,REF*%
%TO.N,Net-(SW98-PadREF)*%
X-57882500Y-21650000D03*
%TD*%
D13*
%TO.P,SW97,A*%
%TO.N,Net-(SW97-PadA)*%
X-87804500Y-13713000D03*
%TO.P,SW97,B*%
%TO.N,Net-(SW97-PadB)*%
X-74215500Y-13713000D03*
D12*
%TO.P,SW97,ROW*%
%TO.N,ROW_2*%
X-85455000Y-21650000D03*
D11*
%TO.P,SW97,REF*%
%TO.N,Net-(SW97-PadREF)*%
X-76882500Y-21650000D03*
%TD*%
D13*
%TO.P,SW95,A*%
%TO.N,Net-(SW95-PadA)*%
X-128179500Y-13713000D03*
%TO.P,SW95,B*%
%TO.N,Net-(SW95-PadB)*%
X-114590500Y-13713000D03*
D12*
%TO.P,SW95,ROW*%
%TO.N,ROW_2*%
X-125830000Y-21650000D03*
D11*
%TO.P,SW95,REF*%
%TO.N,Net-(SW95-PadREF)*%
X-117257500Y-21650000D03*
%TD*%
D13*
%TO.P,SW94,A*%
%TO.N,Net-(SW94-PadA)*%
X-158554500Y-13713000D03*
%TO.P,SW94,B*%
%TO.N,Net-(SW94-PadB)*%
X-144965500Y-13713000D03*
D12*
%TO.P,SW94,ROW*%
%TO.N,ROW_2*%
X-156205000Y-21650000D03*
D11*
%TO.P,SW94,REF*%
%TO.N,Net-(SW94-PadREF)*%
X-147632500Y-21650000D03*
%TD*%
D13*
%TO.P,SW92,A*%
%TO.N,Net-(SW92-PadA)*%
X286445500Y7287000D03*
%TO.P,SW92,B*%
%TO.N,Net-(SW92-PadB)*%
X300034500Y7287000D03*
D12*
%TO.P,SW92,ROW*%
%TO.N,ROW_4*%
X288795000Y-650000D03*
D11*
%TO.P,SW92,REF*%
%TO.N,Net-(SW92-PadREF)*%
X297367500Y-650000D03*
%TD*%
D13*
%TO.P,SW90,A*%
%TO.N,Net-(SW90-PadA)*%
X248445500Y7287000D03*
%TO.P,SW90,B*%
%TO.N,Net-(SW90-PadB)*%
X262034500Y7287000D03*
D12*
%TO.P,SW90,ROW*%
%TO.N,ROW_4*%
X250795000Y-650000D03*
D11*
%TO.P,SW90,REF*%
%TO.N,Net-(SW90-PadREF)*%
X259367500Y-650000D03*
%TD*%
D13*
%TO.P,SW87,A*%
%TO.N,Net-(SW87-PadA)*%
X133070500Y7287000D03*
%TO.P,SW87,B*%
%TO.N,Net-(SW87-PadB)*%
X146659500Y7287000D03*
D12*
%TO.P,SW87,ROW*%
%TO.N,ROW_3*%
X135420000Y-650000D03*
D11*
%TO.P,SW87,REF*%
%TO.N,Net-(SW87-PadREF)*%
X143992500Y-650000D03*
%TD*%
D13*
%TO.P,SW85,A*%
%TO.N,Net-(SW85-PadA)*%
X92695500Y7287000D03*
%TO.P,SW85,B*%
%TO.N,Net-(SW85-PadB)*%
X106284500Y7287000D03*
D12*
%TO.P,SW85,ROW*%
%TO.N,ROW_3*%
X95045000Y-650000D03*
D11*
%TO.P,SW85,REF*%
%TO.N,Net-(SW85-PadREF)*%
X103617500Y-650000D03*
%TD*%
D13*
%TO.P,SW83,A*%
%TO.N,Net-(SW83-PadA)*%
X54695500Y7287000D03*
%TO.P,SW83,B*%
%TO.N,Net-(SW83-PadB)*%
X68284500Y7287000D03*
D12*
%TO.P,SW83,ROW*%
%TO.N,ROW_3*%
X57045000Y-650000D03*
D11*
%TO.P,SW83,REF*%
%TO.N,Net-(SW83-PadREF)*%
X65617500Y-650000D03*
%TD*%
D13*
%TO.P,SW81,A*%
%TO.N,Net-(SW81-PadA)*%
X16695500Y7287000D03*
%TO.P,SW81,B*%
%TO.N,Net-(SW81-PadB)*%
X30284500Y7287000D03*
D12*
%TO.P,SW81,ROW*%
%TO.N,ROW_3*%
X19045000Y-650000D03*
D11*
%TO.P,SW81,REF*%
%TO.N,Net-(SW81-PadREF)*%
X27617500Y-650000D03*
%TD*%
D13*
%TO.P,SW79,A*%
%TO.N,Net-(SW79-PadA)*%
X-21304500Y7287000D03*
%TO.P,SW79,B*%
%TO.N,Net-(SW79-PadB)*%
X-7715500Y7287000D03*
D12*
%TO.P,SW79,ROW*%
%TO.N,ROW_4*%
X-18955000Y-650000D03*
D11*
%TO.P,SW79,REF*%
%TO.N,Net-(SW79-PadREF)*%
X-10382500Y-650000D03*
%TD*%
D13*
%TO.P,SW77,A*%
%TO.N,Net-(SW77-PadA)*%
X-59304500Y7287000D03*
%TO.P,SW77,B*%
%TO.N,Net-(SW77-PadB)*%
X-45715500Y7287000D03*
D12*
%TO.P,SW77,ROW*%
%TO.N,ROW_3*%
X-56955000Y-650000D03*
D11*
%TO.P,SW77,REF*%
%TO.N,Net-(SW77-PadREF)*%
X-48382500Y-650000D03*
%TD*%
D13*
%TO.P,SW75,A*%
%TO.N,Net-(SW75-PadA)*%
X-97304500Y7287000D03*
%TO.P,SW75,B*%
%TO.N,Net-(SW75-PadB)*%
X-83715500Y7287000D03*
D12*
%TO.P,SW75,ROW*%
%TO.N,ROW_4*%
X-94955000Y-650000D03*
D11*
%TO.P,SW75,REF*%
%TO.N,Net-(SW75-PadREF)*%
X-86382500Y-650000D03*
%TD*%
D13*
%TO.P,SW74,A*%
%TO.N,Net-(SW74-PadA)*%
X-125804500Y7287000D03*
%TO.P,SW74,B*%
%TO.N,Net-(SW74-PadB)*%
X-112215500Y7287000D03*
D12*
%TO.P,SW74,ROW*%
%TO.N,ROW_4*%
X-123455000Y-650000D03*
D11*
%TO.P,SW74,REF*%
%TO.N,Net-(SW74-PadREF)*%
X-114882500Y-650000D03*
%TD*%
D13*
%TO.P,SW73,A*%
%TO.N,Net-(SW73-PadA)*%
X-158554500Y7287000D03*
%TO.P,SW73,B*%
%TO.N,Net-(SW73-PadB)*%
X-144965500Y7287000D03*
D12*
%TO.P,SW73,ROW*%
%TO.N,ROW_3*%
X-156205000Y-650000D03*
D11*
%TO.P,SW73,REF*%
%TO.N,Net-(SW73-PadREF)*%
X-147632500Y-650000D03*
%TD*%
D13*
%TO.P,SW70,A*%
%TO.N,Net-(SW70-PadA)*%
X267445500Y28287000D03*
%TO.P,SW70,B*%
%TO.N,Net-(SW70-PadB)*%
X281034500Y28287000D03*
D12*
%TO.P,SW70,ROW*%
%TO.N,ROW_6*%
X269795000Y20350000D03*
D11*
%TO.P,SW70,REF*%
%TO.N,Net-(SW70-PadREF)*%
X278367500Y20350000D03*
%TD*%
D13*
%TO.P,SW69,A*%
%TO.N,Net-(SW69-PadA)*%
X248445500Y28287000D03*
%TO.P,SW69,B*%
%TO.N,Net-(SW69-PadB)*%
X262034500Y28287000D03*
D12*
%TO.P,SW69,ROW*%
%TO.N,ROW_6*%
X250795000Y20350000D03*
D11*
%TO.P,SW69,REF*%
%TO.N,Net-(SW69-PadREF)*%
X259367500Y20350000D03*
%TD*%
D13*
%TO.P,SW67,A*%
%TO.N,Net-(SW67-PadA)*%
X201445500Y28287000D03*
%TO.P,SW67,B*%
%TO.N,Net-(SW67-PadB)*%
X215034500Y28287000D03*
D12*
%TO.P,SW67,ROW*%
%TO.N,ROW_6*%
X203795000Y20350000D03*
D11*
%TO.P,SW67,REF*%
%TO.N,Net-(SW67-PadREF)*%
X212367500Y20350000D03*
%TD*%
D13*
%TO.P,SW65,A*%
%TO.N,Net-(SW65-PadA)*%
X163445500Y28287000D03*
%TO.P,SW65,B*%
%TO.N,Net-(SW65-PadB)*%
X177034500Y28287000D03*
D12*
%TO.P,SW65,ROW*%
%TO.N,ROW_5*%
X165795000Y20350000D03*
D11*
%TO.P,SW65,REF*%
%TO.N,Net-(SW65-PadREF)*%
X174367500Y20350000D03*
%TD*%
D13*
%TO.P,SW63,A*%
%TO.N,Net-(SW63-PadA)*%
X106945500Y28287000D03*
%TO.P,SW63,B*%
%TO.N,Net-(SW63-PadB)*%
X120534500Y28287000D03*
D12*
%TO.P,SW63,ROW*%
%TO.N,ROW_4*%
X109295000Y20350000D03*
D11*
%TO.P,SW63,REF*%
%TO.N,Net-(SW63-PadREF)*%
X117867500Y20350000D03*
%TD*%
D13*
%TO.P,SW62,A*%
%TO.N,Net-(SW62-PadA)*%
X87945500Y28287000D03*
%TO.P,SW62,B*%
%TO.N,Net-(SW62-PadB)*%
X101534500Y28287000D03*
D12*
%TO.P,SW62,ROW*%
%TO.N,ROW_5*%
X90295000Y20350000D03*
D11*
%TO.P,SW62,REF*%
%TO.N,Net-(SW62-PadREF)*%
X98867500Y20350000D03*
%TD*%
D13*
%TO.P,SW61,A*%
%TO.N,Net-(SW61-PadA)*%
X68945500Y28287000D03*
%TO.P,SW61,B*%
%TO.N,Net-(SW61-PadB)*%
X82534500Y28287000D03*
D12*
%TO.P,SW61,ROW*%
%TO.N,ROW_5*%
X71295000Y20350000D03*
D11*
%TO.P,SW61,REF*%
%TO.N,Net-(SW61-PadREF)*%
X79867500Y20350000D03*
%TD*%
D13*
%TO.P,SW59,A*%
%TO.N,Net-(SW59-PadA)*%
X30945500Y28287000D03*
%TO.P,SW59,B*%
%TO.N,Net-(SW59-PadB)*%
X44534500Y28287000D03*
D12*
%TO.P,SW59,ROW*%
%TO.N,ROW_3*%
X33295000Y20350000D03*
D11*
%TO.P,SW59,REF*%
%TO.N,Net-(SW59-PadREF)*%
X41867500Y20350000D03*
%TD*%
D13*
%TO.P,SW58,A*%
%TO.N,Net-(SW58-PadA)*%
X11945500Y28287000D03*
%TO.P,SW58,B*%
%TO.N,Net-(SW58-PadB)*%
X25534500Y28287000D03*
D12*
%TO.P,SW58,ROW*%
%TO.N,ROW_4*%
X14295000Y20350000D03*
D11*
%TO.P,SW58,REF*%
%TO.N,Net-(SW58-PadREF)*%
X22867500Y20350000D03*
%TD*%
D13*
%TO.P,SW55,A*%
%TO.N,Net-(SW55-PadA)*%
X-45054500Y28287000D03*
%TO.P,SW55,B*%
%TO.N,Net-(SW55-PadB)*%
X-31465500Y28287000D03*
D12*
%TO.P,SW55,ROW*%
%TO.N,ROW_5*%
X-42705000Y20350000D03*
D11*
%TO.P,SW55,REF*%
%TO.N,Net-(SW55-PadREF)*%
X-34132500Y20350000D03*
%TD*%
D13*
%TO.P,SW54,A*%
%TO.N,Net-(SW54-PadA)*%
X-64054500Y28287000D03*
%TO.P,SW54,B*%
%TO.N,Net-(SW54-PadB)*%
X-50465500Y28287000D03*
D12*
%TO.P,SW54,ROW*%
%TO.N,ROW_4*%
X-61705000Y20350000D03*
D11*
%TO.P,SW54,REF*%
%TO.N,Net-(SW54-PadREF)*%
X-53132500Y20350000D03*
%TD*%
D13*
%TO.P,SW50,A*%
%TO.N,Net-(SW50-PadA)*%
X-158554500Y28287000D03*
%TO.P,SW50,B*%
%TO.N,Net-(SW50-PadB)*%
X-144965500Y28287000D03*
D12*
%TO.P,SW50,ROW*%
%TO.N,ROW_4*%
X-156205000Y20350000D03*
D11*
%TO.P,SW50,REF*%
%TO.N,Net-(SW50-PadREF)*%
X-147632500Y20350000D03*
%TD*%
D13*
%TO.P,SW47,A*%
%TO.N,Net-(SW47-PadA)*%
X267445500Y49287000D03*
%TO.P,SW47,B*%
%TO.N,Net-(SW47-PadB)*%
X281034500Y49287000D03*
D12*
%TO.P,SW47,ROW*%
%TO.N,ROW_7*%
X269795000Y41350000D03*
D11*
%TO.P,SW47,REF*%
%TO.N,Net-(SW47-PadREF)*%
X278367500Y41350000D03*
%TD*%
D13*
%TO.P,SW45,A*%
%TO.N,Net-(SW45-PadA)*%
X229445500Y49287000D03*
%TO.P,SW45,B*%
%TO.N,Net-(SW45-PadB)*%
X243034500Y49287000D03*
D12*
%TO.P,SW45,ROW*%
%TO.N,ROW_7*%
X231795000Y41350000D03*
D11*
%TO.P,SW45,REF*%
%TO.N,Net-(SW45-PadREF)*%
X240367500Y41350000D03*
%TD*%
D13*
%TO.P,SW43,A*%
%TO.N,Net-(SW43-PadA)*%
X182445500Y49287000D03*
%TO.P,SW43,B*%
%TO.N,Net-(SW43-PadB)*%
X196034500Y49287000D03*
D12*
%TO.P,SW43,ROW*%
%TO.N,ROW_7*%
X184795000Y41350000D03*
D11*
%TO.P,SW43,REF*%
%TO.N,Net-(SW43-PadREF)*%
X193367500Y41350000D03*
%TD*%
D13*
%TO.P,SW41,A*%
%TO.N,Net-(SW41-PadA)*%
X135445500Y49287000D03*
%TO.P,SW41,B*%
%TO.N,Net-(SW41-PadB)*%
X149034500Y49287000D03*
D12*
%TO.P,SW41,ROW*%
%TO.N,ROW_7*%
X137795000Y41350000D03*
D11*
%TO.P,SW41,REF*%
%TO.N,Net-(SW41-PadREF)*%
X146367500Y41350000D03*
%TD*%
D13*
%TO.P,SW40,A*%
%TO.N,Net-(SW40-PadA)*%
X116445500Y49287000D03*
%TO.P,SW40,B*%
%TO.N,Net-(SW40-PadB)*%
X130034500Y49287000D03*
D12*
%TO.P,SW40,ROW*%
%TO.N,ROW_6*%
X118795000Y41350000D03*
D11*
%TO.P,SW40,REF*%
%TO.N,Net-(SW40-PadREF)*%
X127367500Y41350000D03*
%TD*%
D13*
%TO.P,SW38,A*%
%TO.N,Net-(SW38-PadA)*%
X78445500Y49287000D03*
%TO.P,SW38,B*%
%TO.N,Net-(SW38-PadB)*%
X92034500Y49287000D03*
D12*
%TO.P,SW38,ROW*%
%TO.N,ROW_6*%
X80795000Y41350000D03*
D11*
%TO.P,SW38,REF*%
%TO.N,Net-(SW38-PadREF)*%
X89367500Y41350000D03*
%TD*%
D13*
%TO.P,SW36,A*%
%TO.N,Net-(SW36-PadA)*%
X40445500Y49287000D03*
%TO.P,SW36,B*%
%TO.N,Net-(SW36-PadB)*%
X54034500Y49287000D03*
D12*
%TO.P,SW36,ROW*%
%TO.N,ROW_6*%
X42795000Y41350000D03*
D11*
%TO.P,SW36,REF*%
%TO.N,Net-(SW36-PadREF)*%
X51367500Y41350000D03*
%TD*%
D13*
%TO.P,SW34,A*%
%TO.N,Net-(SW34-PadA)*%
X2445500Y49287000D03*
%TO.P,SW34,B*%
%TO.N,Net-(SW34-PadB)*%
X16034500Y49287000D03*
D12*
%TO.P,SW34,ROW*%
%TO.N,ROW_5*%
X4795000Y41350000D03*
D11*
%TO.P,SW34,REF*%
%TO.N,Net-(SW34-PadREF)*%
X13367500Y41350000D03*
%TD*%
D13*
%TO.P,SW32,A*%
%TO.N,Net-(SW32-PadA)*%
X-35554500Y49287000D03*
%TO.P,SW32,B*%
%TO.N,Net-(SW32-PadB)*%
X-21965500Y49287000D03*
D12*
%TO.P,SW32,ROW*%
%TO.N,ROW_6*%
X-33205000Y41350000D03*
D11*
%TO.P,SW32,REF*%
%TO.N,Net-(SW32-PadREF)*%
X-24632500Y41350000D03*
%TD*%
D13*
%TO.P,SW30,A*%
%TO.N,Net-(SW30-PadA)*%
X-73554500Y49287000D03*
%TO.P,SW30,B*%
%TO.N,Net-(SW30-PadB)*%
X-59965500Y49287000D03*
D12*
%TO.P,SW30,ROW*%
%TO.N,ROW_6*%
X-71205000Y41350000D03*
D11*
%TO.P,SW30,REF*%
%TO.N,Net-(SW30-PadREF)*%
X-62632500Y41350000D03*
%TD*%
D13*
%TO.P,SW28,A*%
%TO.N,Net-(SW28-PadA)*%
X-111554500Y49287000D03*
%TO.P,SW28,B*%
%TO.N,Net-(SW28-PadB)*%
X-97965500Y49287000D03*
D12*
%TO.P,SW28,ROW*%
%TO.N,ROW_6*%
X-109205000Y41350000D03*
D11*
%TO.P,SW28,REF*%
%TO.N,Net-(SW28-PadREF)*%
X-100632500Y41350000D03*
%TD*%
D13*
%TO.P,SW26,A*%
%TO.N,Net-(SW26-PadA)*%
X-158554500Y49287000D03*
%TO.P,SW26,B*%
%TO.N,Net-(SW26-PadB)*%
X-144965500Y49287000D03*
D12*
%TO.P,SW26,ROW*%
%TO.N,ROW_6*%
X-156205000Y41350000D03*
D11*
%TO.P,SW26,REF*%
%TO.N,Net-(SW26-PadREF)*%
X-147632500Y41350000D03*
%TD*%
D14*
%TO.P,ROW_8_TP8,1*%
%TO.N,ROW_8*%
X305325000Y41360000D03*
%TD*%
%TO.P,ROW_7_TP7,1*%
%TO.N,ROW_7*%
X290395000Y31110000D03*
%TD*%
%TO.P,ROW_6_TP6,1*%
%TO.N,ROW_6*%
X297595000Y30130000D03*
%TD*%
%TO.P,ROW_5_TP5,1*%
%TO.N,ROW_5*%
X305365000Y20360000D03*
%TD*%
%TO.P,ROW_4_TP4,1*%
%TO.N,ROW_4*%
X290445000Y-10370000D03*
%TD*%
%TO.P,ROW_3_TP3,1*%
%TO.N,ROW_3*%
X297625000Y-11340000D03*
%TD*%
%TO.P,ROW_2_TP2,1*%
%TO.N,ROW_2*%
X305365000Y-21650000D03*
%TD*%
%TO.P,ROW_1_TP1,1*%
%TO.N,ROW_1*%
X297675000Y-32440000D03*
%TD*%
D15*
%TO.P,CAL1,ROW*%
%TO.N,ROW_1*%
X115295000Y-39150000D03*
%TD*%
D16*
%TO.P,J1,4*%
%TO.N,ROW_2*%
X-112195000Y131785000D03*
D17*
%TO.P,J1,1*%
%TO.N,GND*%
X-124075000Y131785000D03*
D16*
%TO.P,J1,2*%
X-120115000Y131785000D03*
%TO.P,J1,3*%
%TO.N,ROW_1*%
X-116155000Y131785000D03*
%TO.P,J1,5*%
%TO.N,ROW_3*%
X-108235000Y131785000D03*
%TO.P,J1,6*%
%TO.N,ROW_4*%
X-104275000Y131785000D03*
%TO.P,J1,7*%
%TO.N,ROW_5*%
X-100315000Y131785000D03*
%TO.P,J1,8*%
%TO.N,ROW_6*%
X-96355000Y131785000D03*
%TO.P,J1,9*%
%TO.N,ROW_7*%
X-92395000Y131785000D03*
%TO.P,J1,10*%
%TO.N,ROW_8*%
X-88435000Y131785000D03*
%TO.P,J1,11*%
%TO.N,GND*%
X-84475000Y131785000D03*
%TO.P,J1,12*%
X-80515000Y131785000D03*
%TO.P,J1,13*%
%TO.N,COL_1*%
X-76555000Y131785000D03*
%TO.P,J1,14*%
%TO.N,COL_2*%
X-72595000Y131785000D03*
%TO.P,J1,15*%
%TO.N,COL_3*%
X-68635000Y131785000D03*
%TO.P,J1,16*%
%TO.N,COL_4*%
X-64675000Y131785000D03*
%TO.P,J1,17*%
%TO.N,COL_5*%
X-60715000Y131785000D03*
%TO.P,J1,18*%
%TO.N,COL_6*%
X-56755000Y131785000D03*
%TO.P,J1,19*%
%TO.N,COL_7*%
X-52795000Y131785000D03*
%TO.P,J1,20*%
%TO.N,COL_8*%
X-48835000Y131785000D03*
%TO.P,J1,21*%
%TO.N,COL_9*%
X-44875000Y131785000D03*
%TO.P,J1,22*%
%TO.N,COL_A*%
X-40915000Y131785000D03*
%TO.P,J1,23*%
%TO.N,COL_B*%
X-36955000Y131785000D03*
%TO.P,J1,24*%
%TO.N,COL_C*%
X-32995000Y131785000D03*
%TO.P,J1,25*%
%TO.N,COL_D*%
X-29035000Y131785000D03*
%TO.P,J1,26*%
%TO.N,COL_E*%
X-25075000Y131785000D03*
%TO.P,J1,27*%
%TO.N,COL_F*%
X-21115000Y131785000D03*
%TO.P,J1,28*%
%TO.N,COL_G*%
X-17155000Y131785000D03*
%TO.P,J1,29*%
%TO.N,GND*%
X-13195000Y131785000D03*
%TO.P,J1,30*%
X-9235000Y131785000D03*
%TD*%
D18*
%TO.N,GND*%
X-173125000Y62720000D02*
X-172025000Y62720000D01*
D19*
%TO.N,ROW_8*%
X-90205000Y104350000D02*
X-100315000Y104350000D01*
X-52205000Y104350000D02*
X-62315000Y104350000D01*
X-24315000Y104350000D02*
X-14205000Y104350000D01*
X23795000Y104350000D02*
X13685000Y104350000D01*
X89685000Y104350000D02*
X99795000Y104350000D01*
X51685000Y104350000D02*
X61795000Y104350000D01*
D20*
X174685000Y41350000D02*
X174685000Y50620000D01*
X174685000Y50620000D02*
X174685000Y51120000D01*
X212685000Y41350000D02*
X212685000Y51120000D01*
X259685000Y41350000D02*
X259685000Y51120000D01*
X-100315000Y104350000D02*
X-100315000Y94120000D01*
X89685000Y104350000D02*
X89685000Y94120000D01*
X51685000Y104350000D02*
X51685000Y94120000D01*
X13685000Y104350000D02*
X13685000Y94120000D01*
X-62315000Y104350000D02*
X-62315000Y94120000D01*
X-24315000Y104350000D02*
X-24315000Y94120000D01*
X305325000Y41350000D02*
X305345000Y41370000D01*
X297685000Y41350000D02*
X305325000Y41350000D01*
X-123225000Y97270000D02*
X-123225000Y120250000D01*
X-92860000Y127360000D02*
X-88435000Y131785000D01*
X-114475000Y97270000D02*
X-123225000Y97270000D01*
X-61825000Y94120000D02*
X-111325000Y94120000D01*
X-59075000Y96870000D02*
X-61825000Y94120000D01*
X-55575000Y96870000D02*
X-59075000Y96870000D01*
X-52825000Y94120000D02*
X-55575000Y96870000D01*
X-21075000Y96870000D02*
X-23825000Y94120000D01*
X-23825000Y94120000D02*
X-52825000Y94120000D01*
X-14825000Y94120000D02*
X-17575000Y96870000D01*
X52175000Y94120000D02*
X-14825000Y94120000D01*
X58425000Y96870000D02*
X54925000Y96870000D01*
X112425000Y94120000D02*
X61175000Y94120000D01*
X-17575000Y96870000D02*
X-21075000Y96870000D01*
X114735000Y63090000D02*
X114735000Y91810000D01*
X175425000Y51120000D02*
X138175000Y51120000D01*
X216425000Y54120000D02*
X213425000Y51120000D01*
X114735000Y91810000D02*
X112425000Y94120000D01*
X178425000Y54120000D02*
X175425000Y51120000D01*
X297685000Y41350000D02*
X297685000Y50860000D01*
X180925000Y54120000D02*
X178425000Y54120000D01*
X120925000Y56900000D02*
X114735000Y63090000D01*
X221925000Y51120000D02*
X218925000Y54120000D01*
X218925000Y54120000D02*
X216425000Y54120000D01*
X61175000Y94120000D02*
X58425000Y96870000D01*
X183925000Y51120000D02*
X180925000Y54120000D01*
X138175000Y51120000D02*
X132395000Y56900000D01*
X-123225000Y120250000D02*
X-116115000Y127360000D01*
X54925000Y96870000D02*
X52175000Y94120000D01*
X265925000Y54120000D02*
X263425000Y54120000D01*
X-116115000Y127360000D02*
X-92860000Y127360000D01*
X213425000Y51120000D02*
X183925000Y51120000D01*
X297685000Y50860000D02*
X297425000Y51120000D01*
X263425000Y54120000D02*
X260425000Y51120000D01*
X297425000Y51120000D02*
X268925000Y51120000D01*
X-111325000Y94120000D02*
X-114475000Y97270000D01*
X132395000Y56900000D02*
X120925000Y56900000D01*
X260425000Y51120000D02*
X221925000Y51120000D01*
X268925000Y51120000D02*
X265925000Y54120000D01*
D19*
%TO.N,ROW_6*%
X-81315000Y41350000D02*
X-71205000Y41350000D01*
X-115886000Y41350000D02*
X-109205000Y41350000D01*
X-119315000Y41350000D02*
X-115886000Y41350000D01*
D20*
X-33205000Y41350000D02*
X-33205000Y51120000D01*
X-5315000Y41350000D02*
X-5315000Y51120000D01*
X42795000Y41350000D02*
X42795000Y51120000D01*
X32685000Y41350000D02*
X32685000Y51120000D01*
X80795000Y41350000D02*
X80795000Y51120000D01*
X108685000Y41350000D02*
X108685000Y51120000D01*
X250795000Y20350000D02*
X250795000Y30120000D01*
X203795000Y20350000D02*
X203795000Y30120000D01*
X193685000Y20350000D02*
X193685000Y30120000D01*
X118425000Y51120000D02*
X118795000Y50750000D01*
X118795000Y50750000D02*
X118795000Y41350000D01*
X60925000Y51120000D02*
X118425000Y51120000D01*
X57925000Y54120000D02*
X60925000Y51120000D01*
X55425000Y54120000D02*
X57925000Y54120000D01*
X-18075000Y54120000D02*
X-15075000Y51120000D01*
X-20575000Y54120000D02*
X-18075000Y54120000D01*
X-23575000Y51120000D02*
X-20575000Y54120000D01*
X52425000Y51120000D02*
X55425000Y54120000D01*
X-15075000Y51120000D02*
X52425000Y51120000D01*
X-70825000Y51120000D02*
X-23575000Y51120000D01*
X-71205000Y50740000D02*
X-70825000Y51120000D01*
X-71205000Y41350000D02*
X-71205000Y50740000D01*
X-109205000Y41350000D02*
X-109205000Y34250000D01*
D19*
X-109205000Y34250000D02*
X-109205000Y33870000D01*
D20*
X-71575000Y31120000D02*
X-71205000Y31490000D01*
X-105325000Y31120000D02*
X-71575000Y31120000D01*
X-108075000Y33870000D02*
X-105325000Y31120000D01*
X-111075000Y33870000D02*
X-108075000Y33870000D01*
X-155825000Y31120000D02*
X-113825000Y31120000D01*
X-71205000Y31490000D02*
X-71205000Y41350000D01*
X-113825000Y31120000D02*
X-111075000Y33870000D01*
X-156205000Y31500000D02*
X-155825000Y31120000D01*
X-156205000Y41350000D02*
X-156205000Y31500000D01*
X269795000Y20350000D02*
X269795000Y30110000D01*
X141925000Y31120000D02*
X119175000Y31120000D01*
X297595000Y30110000D02*
X297585000Y30120000D01*
X142925000Y30120000D02*
X141925000Y31120000D01*
X151925000Y30120000D02*
X142925000Y30120000D01*
X154925000Y33120000D02*
X151925000Y30120000D01*
X225425000Y33120000D02*
X222425000Y30120000D01*
X227925000Y33120000D02*
X225425000Y33120000D01*
X119175000Y31120000D02*
X118795000Y31500000D01*
X230925000Y30120000D02*
X227925000Y33120000D01*
X157425000Y33120000D02*
X154925000Y33120000D01*
X160425000Y30120000D02*
X157425000Y33120000D01*
X118795000Y31500000D02*
X118795000Y41350000D01*
X222425000Y30120000D02*
X160425000Y30120000D01*
X297585000Y30120000D02*
X230925000Y30120000D01*
X-116491400Y128260011D02*
X-99879989Y128260011D01*
X-124135011Y120616400D02*
X-116491400Y128260011D01*
X-99879989Y128260011D02*
X-96355000Y131785000D01*
X-129885000Y59130000D02*
X-124135011Y64879989D01*
X-156205000Y59130000D02*
X-129885000Y59130000D01*
X-156205000Y41350000D02*
X-156205000Y59130000D01*
X-124135011Y64879989D02*
X-124135011Y120616400D01*
D19*
%TO.N,ROW_4*%
X-166315000Y20350000D02*
X-156205000Y20350000D01*
D20*
X-166315000Y20350000D02*
X-166315000Y10620000D01*
X14295000Y20350000D02*
X14295000Y14990000D01*
X-14815000Y20350000D02*
X-14815000Y10620000D01*
X-18955000Y-650000D02*
X-18955000Y10620000D01*
X-61705000Y20350000D02*
X-61705000Y12120000D01*
X-94955000Y-650000D02*
X-94955000Y10620000D01*
X-123455000Y-650000D02*
X-123455000Y10620000D01*
X84935000Y-650000D02*
X84935000Y9620000D01*
X109295000Y20350000D02*
X109295000Y9620000D01*
X122935000Y-650000D02*
X122935000Y9620000D01*
X250795000Y-650000D02*
X250795000Y-10380000D01*
X240685000Y-650000D02*
X240685000Y-10380000D01*
X61185000Y29360000D02*
X61185000Y20350000D01*
X60925000Y30120000D02*
X61185000Y29860000D01*
X14675000Y30120000D02*
X60925000Y30120000D01*
X14295000Y29740000D02*
X14675000Y30120000D01*
X61185000Y29860000D02*
X61185000Y29360000D01*
X14295000Y20350000D02*
X14295000Y29740000D01*
X61185000Y11360000D02*
X61185000Y20350000D01*
X193685000Y-650000D02*
X193685000Y9360000D01*
X193425000Y9620000D02*
X164425000Y9620000D01*
X93425000Y9620000D02*
X90925000Y12120000D01*
X164425000Y9620000D02*
X161925000Y12120000D01*
X161925000Y12120000D02*
X159425000Y12120000D01*
X88925000Y12120000D02*
X86425000Y9620000D01*
X193685000Y9360000D02*
X193425000Y9620000D01*
X159425000Y12120000D02*
X156925000Y9620000D01*
X156925000Y9620000D02*
X93425000Y9620000D01*
X90925000Y12120000D02*
X88925000Y12120000D01*
X86425000Y9620000D02*
X61675000Y9620000D01*
X61675000Y9620000D02*
X61185000Y10110000D01*
X61185000Y10110000D02*
X61185000Y11360000D01*
X202675000Y-10380000D02*
X297625000Y-10380000D01*
X200425000Y-8130000D02*
X202675000Y-10380000D01*
X193685000Y-10140000D02*
X193925000Y-10380000D01*
X196862500Y-8130000D02*
X200425000Y-8130000D01*
X194612500Y-10380000D02*
X196862500Y-8130000D01*
X193925000Y-10380000D02*
X194612500Y-10380000D01*
X193685000Y-650000D02*
X193685000Y-10140000D01*
X288795000Y-10380000D02*
X288795000Y-650000D01*
X-177575000Y10620000D02*
X-179325000Y12370000D01*
X-61075000Y12120000D02*
X-63075000Y12120000D01*
X-116864200Y129160033D02*
X-106899967Y129160033D01*
X-179325000Y12370000D02*
X-184994967Y12370000D01*
X-130575000Y12120000D02*
X-132575000Y12120000D01*
X-59575000Y10620000D02*
X-61075000Y12120000D01*
X14295000Y20350000D02*
X12425000Y18480000D01*
X-184994967Y59010033D02*
X-183975000Y60030000D01*
X12425000Y18480000D02*
X12425000Y13120000D01*
X-63075000Y12120000D02*
X-64575000Y10620000D01*
X-64575000Y10620000D02*
X-129075000Y10620000D01*
X-129075000Y10620000D02*
X-130575000Y12120000D01*
X-106899967Y129160033D02*
X-104275000Y131785000D01*
X-134075000Y10620000D02*
X-177575000Y10620000D01*
X-184994967Y12370000D02*
X-184994967Y59010033D01*
X-125055022Y120969211D02*
X-116864200Y129160033D01*
X-183975000Y60030000D02*
X-130265000Y60030000D01*
X-125055022Y65239978D02*
X-125055022Y120969211D01*
X9925000Y10620000D02*
X-59575000Y10620000D01*
X-132575000Y12120000D02*
X-134075000Y10620000D01*
X12425000Y13120000D02*
X9925000Y10620000D01*
X-130265000Y60030000D02*
X-125055022Y65239978D01*
D19*
%TO.N,ROW_2*%
X-166315000Y-21650000D02*
X-156205000Y-21650000D01*
D20*
X-166315000Y-21650000D02*
X-166315000Y-31380000D01*
X-85455000Y-21650000D02*
X-85455000Y-31380000D01*
X-74075000Y-31380000D02*
X-73575000Y-31380000D01*
X-19565000Y-21650000D02*
X-19565000Y-11380000D01*
X-9455000Y-21650000D02*
X-9455000Y-11380000D01*
X104545000Y-21650000D02*
X104545000Y-11380000D01*
X94435000Y-21650000D02*
X94435000Y-11380000D01*
X37435000Y-21650000D02*
X37435000Y-11380000D01*
X46935000Y-650000D02*
X46935000Y-11380000D01*
X165795000Y-21650000D02*
X165795000Y-31380000D01*
X240685000Y-21650000D02*
X240685000Y-31380000D01*
X278685000Y-42650000D02*
X278685000Y-31380000D01*
X-125830000Y-30375000D02*
X-125825000Y-30380000D01*
X-125830000Y-21650000D02*
X-125830000Y-30375000D01*
X-66455000Y-21650000D02*
X-66455000Y-31010000D01*
X-66455000Y-31010000D02*
X-66825000Y-31380000D01*
X-66825000Y-31380000D02*
X-74075000Y-31380000D01*
X131675000Y-31380000D02*
X129045000Y-28750000D01*
X156675000Y-31380000D02*
X131675000Y-31380000D01*
X158925000Y-29130000D02*
X156675000Y-31380000D01*
X297685000Y-21650000D02*
X297685000Y-31120000D01*
X297685000Y-31120000D02*
X297425000Y-31380000D01*
X297425000Y-31380000D02*
X249675000Y-31380000D01*
X164675000Y-31380000D02*
X162425000Y-29130000D01*
X249675000Y-31380000D02*
X247425000Y-29130000D01*
X247425000Y-29130000D02*
X243925000Y-29130000D01*
X243925000Y-29130000D02*
X241675000Y-31380000D01*
X200425000Y-29130000D02*
X196925000Y-29130000D01*
X241675000Y-31380000D02*
X202675000Y-31380000D01*
X129045000Y-28750000D02*
X129045000Y-21650000D01*
X196925000Y-29130000D02*
X194675000Y-31380000D01*
X202675000Y-31380000D02*
X200425000Y-29130000D01*
X162425000Y-29130000D02*
X158925000Y-29130000D01*
X194675000Y-31380000D02*
X164675000Y-31380000D01*
X-66455000Y-11760000D02*
X-66455000Y-21650000D01*
X-15575000Y-8880000D02*
X-18075000Y-11380000D01*
X-18075000Y-11380000D02*
X-66075000Y-11380000D01*
X-11075000Y-11380000D02*
X-13575000Y-8880000D01*
X-9325000Y-11380000D02*
X-11075000Y-11380000D01*
X129045000Y-21650000D02*
X129045000Y-11750000D01*
X100425000Y-8880000D02*
X98425000Y-8880000D01*
X98425000Y-8880000D02*
X95925000Y-11380000D01*
X26925000Y-11380000D02*
X24425000Y-8880000D01*
X-66075000Y-11380000D02*
X-66455000Y-11760000D01*
X19925000Y-11380000D02*
X-1075000Y-11380000D01*
X129045000Y-11750000D02*
X128675000Y-11380000D01*
X-1075000Y-11380000D02*
X-2075000Y-12380000D01*
X-13575000Y-8880000D02*
X-15575000Y-8880000D01*
X128675000Y-11380000D02*
X102925000Y-11380000D01*
X102925000Y-11380000D02*
X100425000Y-8880000D01*
X-8325000Y-12380000D02*
X-9325000Y-11380000D01*
X95925000Y-11380000D02*
X26925000Y-11380000D01*
X24425000Y-8880000D02*
X22425000Y-8880000D01*
X22425000Y-8880000D02*
X19925000Y-11380000D01*
X-2075000Y-12380000D02*
X-8325000Y-12380000D01*
X297685000Y-21650000D02*
X305365000Y-21650000D01*
X-79575000Y-29130000D02*
X-82575000Y-29130000D01*
X-127075000Y-29130000D02*
X-130075000Y-29130000D01*
X-185894989Y-28880000D02*
X-185894989Y59390011D01*
X-132325000Y-31380000D02*
X-176325000Y-31380000D01*
X-125955044Y121342011D02*
X-117237000Y130060055D01*
X-113919945Y130060055D02*
X-112195000Y131785000D01*
X-124825000Y-31380000D02*
X-127075000Y-29130000D01*
X-74075000Y-31380000D02*
X-77325000Y-31380000D01*
X-82575000Y-29130000D02*
X-84825000Y-31380000D01*
X-117237000Y130060055D02*
X-113919945Y130060055D01*
X-130075000Y-29130000D02*
X-132325000Y-31380000D01*
X-178825000Y-28880000D02*
X-185894989Y-28880000D01*
X-185894989Y59390011D02*
X-184335000Y60950000D01*
X-184335000Y60950000D02*
X-130625000Y60950000D01*
X-77325000Y-31380000D02*
X-79575000Y-29130000D01*
X-125955044Y65619956D02*
X-125955044Y121342011D01*
X-130625000Y60950000D02*
X-125955044Y65619956D01*
X-176325000Y-31380000D02*
X-178825000Y-28880000D01*
X-84825000Y-31380000D02*
X-124825000Y-31380000D01*
D19*
%TO.N,ROW_7*%
X13685000Y83350000D02*
X23795000Y83350000D01*
X-24315000Y83350000D02*
X-14205000Y83350000D01*
X51685000Y83350000D02*
X61795000Y83350000D01*
X-100315000Y83350000D02*
X-90205000Y83350000D01*
X89685000Y83350000D02*
X99795000Y83350000D01*
X-62315000Y83350000D02*
X-52205000Y83350000D01*
D20*
X231795000Y41350000D02*
X231795000Y31120000D01*
X184795000Y41350000D02*
X184795000Y31120000D01*
X89685000Y83350000D02*
X89685000Y93120000D01*
X51685000Y83350000D02*
X51685000Y93120000D01*
X13685000Y83350000D02*
X13685000Y93120000D01*
X269795000Y41350000D02*
X269795000Y31120000D01*
X138425000Y32120000D02*
X137795000Y32750000D01*
X228425000Y33870000D02*
X224925000Y33870000D01*
X143425000Y31120000D02*
X142425000Y32120000D01*
X151675000Y31120000D02*
X143425000Y31120000D01*
X142425000Y32120000D02*
X138425000Y32120000D01*
X157925000Y33870000D02*
X154425000Y33870000D01*
X297575000Y31120000D02*
X231175000Y31120000D01*
X222175000Y31120000D02*
X160675000Y31120000D01*
X224925000Y33870000D02*
X222175000Y31120000D01*
X137795000Y32750000D02*
X137795000Y41350000D01*
X154425000Y33870000D02*
X151675000Y31120000D01*
X160675000Y31120000D02*
X157925000Y33870000D01*
X231175000Y31120000D02*
X228425000Y33870000D01*
X-24315000Y83350000D02*
X-24315000Y93120000D01*
X-62315000Y83350000D02*
X-62315000Y93120000D01*
X-100315000Y83350000D02*
X-100315000Y93120000D01*
X-96370000Y127810000D02*
X-92395000Y131785000D01*
X-116305000Y127810000D02*
X-96370000Y127810000D01*
X-114665000Y96820000D02*
X-123685000Y96820000D01*
X-110965000Y93120000D02*
X-114665000Y96820000D01*
X-61575000Y93120000D02*
X-110965000Y93120000D01*
X114275000Y62900000D02*
X114275000Y91630000D01*
X-56075000Y96120000D02*
X-58575000Y96120000D01*
X137795000Y50850000D02*
X132205000Y56440000D01*
X-58575000Y96120000D02*
X-61575000Y93120000D01*
X-53075000Y93120000D02*
X-56075000Y96120000D01*
X114275000Y91630000D02*
X112785000Y93120000D01*
X-123685000Y120430000D02*
X-116305000Y127810000D01*
X-23575000Y93120000D02*
X-53075000Y93120000D01*
X-20575000Y96120000D02*
X-23575000Y93120000D01*
X-18075000Y96120000D02*
X-20575000Y96120000D01*
X-15075000Y93120000D02*
X-18075000Y96120000D01*
X55425000Y96120000D02*
X52425000Y93120000D01*
X-123685000Y96820000D02*
X-123685000Y120430000D01*
X57925000Y96120000D02*
X55425000Y96120000D01*
X120735000Y56440000D02*
X114275000Y62900000D01*
X60925000Y93120000D02*
X57925000Y96120000D01*
X112785000Y93120000D02*
X60925000Y93120000D01*
X52425000Y93120000D02*
X-15075000Y93120000D01*
X132205000Y56440000D02*
X120735000Y56440000D01*
X137795000Y41350000D02*
X137795000Y50850000D01*
%TO.N,ROW_5*%
X4795000Y41350000D02*
X4795000Y30120000D01*
X4185000Y20350000D02*
X4185000Y30120000D01*
X-43315000Y41350000D02*
X-43315000Y30120000D01*
X-42705000Y20350000D02*
X-42705000Y30120000D01*
X-71815000Y20350000D02*
X-71815000Y30120000D01*
X-90815000Y20350000D02*
X-90815000Y30120000D01*
X-114565000Y20350000D02*
X-114565000Y30120000D01*
X70685000Y41350000D02*
X70685000Y31120000D01*
X71295000Y20350000D02*
X71295000Y31120000D01*
X278685000Y-650000D02*
X278685000Y10620000D01*
X240685000Y20350000D02*
X240685000Y10620000D01*
X165795000Y20350000D02*
X165795000Y10620000D01*
D19*
X90295000Y20350000D02*
X90295000Y33120000D01*
D20*
X141935000Y20350000D02*
X141881499Y20403501D01*
X141881499Y20403501D02*
X141881499Y29663501D01*
X141881499Y29663501D02*
X141425000Y30120000D01*
X73295000Y33120000D02*
X71295000Y31120000D01*
X141425000Y30120000D02*
X93925000Y30120000D01*
X93925000Y30120000D02*
X90925000Y33120000D01*
X90925000Y33120000D02*
X73295000Y33120000D01*
X-166315000Y33860000D02*
X-166315000Y41350000D01*
X-165575000Y33120000D02*
X-166315000Y33860000D01*
X-156075000Y30120000D02*
X-159075000Y33120000D01*
X-159075000Y33120000D02*
X-165575000Y33120000D01*
X71295000Y31120000D02*
X12425000Y31120000D01*
X-65575000Y33120000D02*
X-68075000Y33120000D01*
X4925000Y30120000D02*
X-62575000Y30120000D01*
X-62575000Y30120000D02*
X-65575000Y33120000D01*
X10425000Y33120000D02*
X7925000Y33120000D01*
X12425000Y31120000D02*
X10425000Y33120000D01*
X7925000Y33120000D02*
X4925000Y30120000D01*
X-68075000Y33120000D02*
X-71075000Y30120000D01*
X-105575000Y30120000D02*
X-108575000Y33120000D01*
X-71075000Y30120000D02*
X-105575000Y30120000D01*
X-108575000Y33120000D02*
X-110575000Y33120000D01*
X-110575000Y33120000D02*
X-113575000Y30120000D01*
X-113575000Y30120000D02*
X-156075000Y30120000D01*
X142175000Y10620000D02*
X141935000Y10860000D01*
X156675000Y10620000D02*
X142175000Y10620000D01*
X158925000Y12870000D02*
X156675000Y10620000D01*
X297685000Y20350000D02*
X297685000Y11005000D01*
X141935000Y10860000D02*
X141935000Y20350000D01*
X297685000Y11005000D02*
X297300000Y10620000D01*
X297300000Y10620000D02*
X248425000Y10620000D01*
X195925000Y10620000D02*
X164675000Y10620000D01*
X248425000Y10620000D02*
X246925000Y12120000D01*
X164675000Y10620000D02*
X162425000Y12870000D01*
X246925000Y12120000D02*
X244425000Y12120000D01*
X244425000Y12120000D02*
X242925000Y10620000D01*
X199925000Y12120000D02*
X197425000Y12120000D01*
X197425000Y12120000D02*
X195925000Y10620000D01*
X242925000Y10620000D02*
X201425000Y10620000D01*
X201425000Y10620000D02*
X199925000Y12120000D01*
X162425000Y12870000D02*
X158925000Y12870000D01*
X297685000Y20350000D02*
X305365000Y20350000D01*
X-124605011Y120782811D02*
X-116677800Y128710022D01*
X-166315000Y41350000D02*
X-166315000Y59580000D01*
X-166315000Y59580000D02*
X-130075000Y59580000D01*
X-130075000Y59580000D02*
X-124605011Y65049989D01*
X-124605011Y65049989D02*
X-124605011Y120782811D01*
X-116677800Y128710022D02*
X-103389978Y128710022D01*
X-103389978Y128710022D02*
X-100315000Y131785000D01*
D19*
%TO.N,ROW_3*%
X-166315000Y-650000D02*
X-156205000Y-650000D01*
X-67065000Y-650000D02*
X-56955000Y-650000D01*
D20*
X-166315000Y-650000D02*
X-166315000Y-10380000D01*
X-29065000Y-650000D02*
X-29065000Y-10380000D01*
X-67065000Y-650000D02*
X-67065000Y-10380000D01*
X-95565000Y-21650000D02*
X-95565000Y-10380000D01*
X19045000Y-650000D02*
X8935000Y-650000D01*
X33295000Y20350000D02*
X33295000Y9620000D01*
X203795000Y-21650000D02*
X203795000Y-11380000D01*
X193685000Y-11380000D02*
X193685000Y-21650000D01*
X250795000Y-21650000D02*
X250795000Y-11380000D01*
X95045000Y-650000D02*
X95045000Y-10380000D01*
X8935000Y8130000D02*
X8935000Y-650000D01*
X12925000Y12120000D02*
X8935000Y8130000D01*
X14925000Y12120000D02*
X12925000Y12120000D01*
X17425000Y9620000D02*
X14925000Y12120000D01*
X56675000Y9620000D02*
X17425000Y9620000D01*
X57045000Y9250000D02*
X56675000Y9620000D01*
X57045000Y-650000D02*
X57045000Y9250000D01*
X161925000Y-8880000D02*
X164425000Y-11380000D01*
X157925000Y-10380000D02*
X159425000Y-8880000D01*
X103175000Y-10380000D02*
X157925000Y-10380000D01*
X97925000Y-8130000D02*
X100925000Y-8130000D01*
X100925000Y-8130000D02*
X103175000Y-10380000D01*
X95675000Y-10380000D02*
X97925000Y-8130000D01*
X164425000Y-11380000D02*
X193685000Y-11380000D01*
X57425000Y-10380000D02*
X95675000Y-10380000D01*
X159425000Y-8880000D02*
X161925000Y-8880000D01*
X57045000Y-10000000D02*
X57425000Y-10380000D01*
X57045000Y-650000D02*
X57045000Y-10000000D01*
X135420000Y-650000D02*
X135420000Y-10380000D01*
X269795000Y-21650000D02*
X269795000Y-11380000D01*
X202395000Y-11350000D02*
X199925000Y-8880000D01*
X297625000Y-11350000D02*
X202395000Y-11350000D01*
X194925000Y-11380000D02*
X193685000Y-11380000D01*
X197425000Y-8880000D02*
X194925000Y-11380000D01*
X199925000Y-8880000D02*
X197425000Y-8880000D01*
X-13075000Y-8130000D02*
X-16075000Y-8130000D01*
X-2325000Y-11380000D02*
X-7825000Y-11380000D01*
X-10825000Y-10380000D02*
X-13075000Y-8130000D01*
X-184161400Y60480011D02*
X-130454989Y60480011D01*
X-185444978Y-10380000D02*
X-185444978Y59196433D01*
X-160075000Y-8880000D02*
X-162575000Y-8880000D01*
X-125505033Y121155611D02*
X-117050600Y129610044D01*
X-7825000Y-11380000D02*
X-8825000Y-10380000D01*
X-162575000Y-8880000D02*
X-164075000Y-10380000D01*
X-1325000Y-10380000D02*
X-2325000Y-11380000D01*
X8935000Y-650000D02*
X8935000Y-9995000D01*
X8935000Y-9995000D02*
X8550000Y-10380000D01*
X-8825000Y-10380000D02*
X-10825000Y-10380000D01*
X-117050600Y129610044D02*
X-110409956Y129610044D01*
X8550000Y-10380000D02*
X-1325000Y-10380000D01*
X-16075000Y-8130000D02*
X-18325000Y-10380000D01*
X-130454989Y60480011D02*
X-125505033Y65429967D01*
X-88075000Y-10380000D02*
X-89575000Y-8880000D01*
X-89575000Y-8880000D02*
X-91575000Y-8880000D01*
X-91575000Y-8880000D02*
X-93075000Y-10380000D01*
X-93075000Y-10380000D02*
X-158575000Y-10380000D01*
X-164075000Y-10380000D02*
X-185444978Y-10380000D01*
X-185444978Y59196433D02*
X-184161400Y60480011D01*
X-125505033Y65429967D02*
X-125505033Y121155611D01*
X-158575000Y-10380000D02*
X-160075000Y-8880000D01*
X-110409956Y129610044D02*
X-108235000Y131785000D01*
X-18325000Y-10380000D02*
X-88075000Y-10380000D01*
D19*
%TO.N,ROW_1*%
X-166315000Y-42650000D02*
X-156205000Y-42650000D01*
D20*
X-166315000Y-42650000D02*
X-166315000Y-32380000D01*
X66545000Y-21650000D02*
X66545000Y-32380000D01*
X56435000Y-21650000D02*
X56435000Y-32380000D01*
X13685000Y-42650000D02*
X13685000Y-32380000D01*
X-38565000Y-21650000D02*
X-38565000Y-32380000D01*
X-67065000Y-42650000D02*
X-67065000Y-32380000D01*
X-123455000Y-42650000D02*
X-123455000Y-32380000D01*
X240685000Y-42650000D02*
X240685000Y-32380000D01*
X193685000Y-42650000D02*
X193685000Y-32380000D01*
X94435000Y-42650000D02*
X94435000Y-32380000D01*
X110925000Y-38880000D02*
X110925000Y-32380000D01*
X111195000Y-39150000D02*
X110925000Y-38880000D01*
X115295000Y-39150000D02*
X111195000Y-39150000D01*
X124425000Y-32380000D02*
X110925000Y-32380000D01*
X126925000Y-29880000D02*
X124425000Y-32380000D01*
X128925000Y-29880000D02*
X126925000Y-29880000D01*
X131425000Y-32380000D02*
X128925000Y-29880000D01*
X156925000Y-32380000D02*
X131425000Y-32380000D01*
X159425000Y-29880000D02*
X156925000Y-32380000D01*
X250425000Y-32380000D02*
X249425000Y-32380000D01*
X197425000Y-29880000D02*
X194925000Y-32380000D01*
X249425000Y-32380000D02*
X246925000Y-29880000D01*
X246925000Y-29880000D02*
X244425000Y-29880000D01*
X202425000Y-32380000D02*
X199925000Y-29880000D01*
X244425000Y-29880000D02*
X241925000Y-32380000D01*
X241925000Y-32380000D02*
X202425000Y-32380000D01*
X199925000Y-29880000D02*
X197425000Y-29880000D01*
X194925000Y-32380000D02*
X164425000Y-32380000D01*
X164425000Y-32380000D02*
X161925000Y-29880000D01*
X161925000Y-29880000D02*
X159425000Y-29880000D01*
X18435000Y-29620000D02*
X18425000Y-29630000D01*
X18435000Y-21650000D02*
X18435000Y-29620000D01*
X133045000Y-42650000D02*
X133045000Y-32380000D01*
X250425000Y-32380000D02*
X264725000Y-32380000D01*
X250795000Y-42650000D02*
X250795000Y-32380000D01*
X297675000Y-32450000D02*
X297695000Y-32430000D01*
X289105000Y-32450000D02*
X297675000Y-32450000D01*
X288795000Y-32760000D02*
X289105000Y-32450000D01*
X288795000Y-42650000D02*
X288795000Y-32760000D01*
X288395000Y-54690000D02*
X251225000Y-54690000D01*
X251225000Y-54690000D02*
X250795000Y-54260000D01*
X288795000Y-54290000D02*
X288395000Y-54690000D01*
X250795000Y-54260000D02*
X250795000Y-42650000D01*
X288795000Y-42650000D02*
X288795000Y-54290000D01*
D19*
X-116407500Y131785000D02*
X-116155000Y131785000D01*
D20*
X-126425000Y121515000D02*
X-116155000Y131785000D01*
X-130814989Y61400011D02*
X-126425000Y65790000D01*
X-184521400Y61400011D02*
X-130814989Y61400011D01*
X-77575000Y-32380000D02*
X-80075000Y-29880000D01*
X-176575000Y-32380000D02*
X-179275000Y-29680000D01*
X-132075000Y-32380000D02*
X-176575000Y-32380000D01*
X17675000Y-29630000D02*
X14925000Y-32380000D01*
X-186345000Y59576411D02*
X-184521400Y61400011D01*
X-186325000Y-29680000D02*
X-186345000Y-29660000D01*
X-129575000Y-29880000D02*
X-132075000Y-32380000D01*
X14925000Y-32380000D02*
X-77575000Y-32380000D01*
X-179275000Y-29680000D02*
X-186325000Y-29680000D01*
X-127575000Y-29880000D02*
X-129575000Y-29880000D01*
X-126425000Y65790000D02*
X-126425000Y121515000D01*
X-186345000Y-29660000D02*
X-186345000Y59576411D01*
X-84575000Y-32380000D02*
X-125075000Y-32380000D01*
X-82075000Y-29880000D02*
X-84575000Y-32380000D01*
X-80075000Y-29880000D02*
X-82075000Y-29880000D01*
X110925000Y-32380000D02*
X80425000Y-32380000D01*
X19675000Y-29630000D02*
X17675000Y-29630000D01*
X-125075000Y-32380000D02*
X-127575000Y-29880000D01*
X22425000Y-32380000D02*
X19675000Y-29630000D01*
X73425000Y-32380000D02*
X22425000Y-32380000D01*
X80425000Y-32380000D02*
X77675000Y-29630000D01*
X76175000Y-29630000D02*
X73425000Y-32380000D01*
X77675000Y-29630000D02*
X76175000Y-29630000D01*
%TD*%
D19*
%TO.N,GND*%
X-3750000Y133516264D02*
X-3749999Y129863649D01*
X-3753313Y129830000D01*
X-3740088Y129695717D01*
X-3706292Y129584309D01*
X-3700918Y129566594D01*
X-3637311Y129447593D01*
X-3612825Y129417757D01*
X-3573160Y129369424D01*
X-3573153Y129369417D01*
X-3551710Y129343289D01*
X-3525582Y129321846D01*
X-573160Y126369424D01*
X-551711Y126343289D01*
X-447407Y126257688D01*
X-369858Y126216237D01*
X-328407Y126194081D01*
X-199283Y126154912D01*
X-98647Y126145000D01*
X-98639Y126145000D01*
X-65000Y126141687D01*
X-31361Y126145000D01*
X118971264Y126145000D01*
X121569926Y123546338D01*
X121555010Y66818737D01*
X121551687Y66785000D01*
X121558369Y66717149D01*
X121564877Y66650895D01*
X121564903Y66650810D01*
X121564912Y66650717D01*
X121584424Y66586395D01*
X121604012Y66521762D01*
X121604056Y66521680D01*
X121604082Y66521594D01*
X121634998Y66463755D01*
X121667588Y66402744D01*
X121667648Y66402671D01*
X121667689Y66402594D01*
X121711561Y66349135D01*
X121753162Y66298417D01*
X121779354Y66276910D01*
X124731840Y63324424D01*
X124753289Y63298289D01*
X124857593Y63212688D01*
X124895838Y63192246D01*
X124976593Y63149081D01*
X125105717Y63109912D01*
X125206353Y63100000D01*
X125206361Y63100000D01*
X125240000Y63096687D01*
X125273639Y63100000D01*
X307956264Y63100000D01*
X310555000Y60501264D01*
X310555001Y-53931263D01*
X307956264Y-56530000D01*
X-185476264Y-56530000D01*
X-188075000Y-53931264D01*
X-188075000Y60501264D01*
X-185476264Y63100000D01*
X-172202000Y63100000D01*
X-172202000Y62246799D01*
X-184685201Y62227000D01*
X-184709974Y62224520D01*
X-184733787Y62217255D01*
X-184755725Y62205485D01*
X-184775363Y62189238D01*
X-184907593Y62055341D01*
X-184945676Y62034985D01*
X-185061401Y61940012D01*
X-185085199Y61911014D01*
X-186856002Y60140210D01*
X-186885000Y60116412D01*
X-186908798Y60087414D01*
X-186908799Y60087413D01*
X-186979974Y60000687D01*
X-187031065Y59905102D01*
X-187155363Y59779238D01*
X-187171036Y59759895D01*
X-187182635Y59737865D01*
X-187189712Y59713996D01*
X-187192000Y59689992D01*
X-187184501Y-53880008D01*
X-187182059Y-53904785D01*
X-187174830Y-53928609D01*
X-187163093Y-53950564D01*
X-187147304Y-53969803D01*
X-185147304Y-55969803D01*
X-185128058Y-55985597D01*
X-185106102Y-55997333D01*
X-185082277Y-56004560D01*
X-185057501Y-56007000D01*
X307925000Y-56007000D01*
X307949776Y-56004560D01*
X307973601Y-55997333D01*
X307995557Y-55985597D01*
X308014803Y-55969803D01*
X310014803Y-53969803D01*
X310030597Y-53950557D01*
X310042333Y-53928601D01*
X310049560Y-53904776D01*
X310052000Y-53880246D01*
X310262000Y54599754D01*
X310259607Y54624535D01*
X310252427Y54648374D01*
X310240733Y54670353D01*
X310224976Y54689629D01*
X310214556Y54698994D01*
X306374700Y57784856D01*
X306353858Y57798475D01*
X306330760Y57807766D01*
X306295009Y57812862D01*
X150784865Y57647000D01*
X132550589Y57647000D01*
X132543986Y57649003D01*
X132432333Y57660000D01*
X132432322Y57660000D01*
X132395000Y57663676D01*
X132357678Y57660000D01*
X121313400Y57660000D01*
X118206505Y60693296D01*
X115495000Y63404801D01*
X115495000Y91772678D01*
X115498676Y91810001D01*
X115495000Y91847324D01*
X115495000Y91847333D01*
X115484003Y91958986D01*
X115480219Y91971461D01*
X115472000Y111980052D01*
X115469550Y112004828D01*
X115462313Y112028649D01*
X115450568Y112050601D01*
X115438303Y112066161D01*
X109768303Y118206161D01*
X109749701Y118222707D01*
X109728228Y118235307D01*
X109704710Y118243476D01*
X109674942Y118247000D01*
X-108835058Y118147000D01*
X-108859833Y118144548D01*
X-108883654Y118137310D01*
X-108905606Y118125564D01*
X-108924318Y118110284D01*
X-114534318Y112560284D01*
X-114550216Y112541124D01*
X-114562070Y112519231D01*
X-114569425Y112495446D01*
X-114572000Y112470251D01*
X-114600501Y98030000D01*
X-122465000Y98030000D01*
X-122465000Y115004902D01*
X-118170000Y115004902D01*
X-118170000Y114535098D01*
X-118078346Y114074321D01*
X-117898560Y113640279D01*
X-117637550Y113249651D01*
X-117305349Y112917450D01*
X-116914721Y112656440D01*
X-116480679Y112476654D01*
X-116019902Y112385000D01*
X-115550098Y112385000D01*
X-115089321Y112476654D01*
X-114655279Y112656440D01*
X-114264651Y112917450D01*
X-113932450Y113249651D01*
X-113671440Y113640279D01*
X-113491654Y114074321D01*
X-113400000Y114535098D01*
X-113400000Y115004902D01*
X-113491654Y115465679D01*
X-113671440Y115899721D01*
X-113932450Y116290349D01*
X-114264651Y116622550D01*
X-114655279Y116883560D01*
X-115089321Y117063346D01*
X-115550098Y117155000D01*
X-116019902Y117155000D01*
X-116480679Y117063346D01*
X-116914721Y116883560D01*
X-117305349Y116622550D01*
X-117637550Y116290349D01*
X-117898560Y115899721D01*
X-118078346Y115465679D01*
X-118170000Y115004902D01*
X-122465000Y115004902D01*
X-122465000Y119935199D01*
X-115800197Y126600000D01*
X-92897322Y126600000D01*
X-92860000Y126596324D01*
X-92822678Y126600000D01*
X-92822667Y126600000D01*
X-92711014Y126610997D01*
X-92567753Y126654454D01*
X-92435724Y126725026D01*
X-92319999Y126819999D01*
X-92296196Y126849003D01*
X-88801408Y130343790D01*
X-88581260Y130300000D01*
X-88288740Y130300000D01*
X-88001842Y130357068D01*
X-87731589Y130469010D01*
X-87488368Y130631525D01*
X-87281525Y130838368D01*
X-87119010Y131081589D01*
X-87007068Y131351842D01*
X-86991898Y131428109D01*
X-85916481Y131428109D01*
X-85819157Y131153748D01*
X-85670178Y130903645D01*
X-85475269Y130687412D01*
X-85241920Y130513359D01*
X-84979099Y130388175D01*
X-84831890Y130343524D01*
X-84602000Y130464845D01*
X-84602000Y131658000D01*
X-84348000Y131658000D01*
X-84348000Y130464845D01*
X-84118110Y130343524D01*
X-83970901Y130388175D01*
X-83708080Y130513359D01*
X-83474731Y130687412D01*
X-83279822Y130903645D01*
X-83130843Y131153748D01*
X-83033519Y131428109D01*
X-81956481Y131428109D01*
X-81859157Y131153748D01*
X-81710178Y130903645D01*
X-81515269Y130687412D01*
X-81281920Y130513359D01*
X-81019099Y130388175D01*
X-80871890Y130343524D01*
X-80642000Y130464845D01*
X-80642000Y131658000D01*
X-80388000Y131658000D01*
X-80388000Y130464845D01*
X-80158110Y130343524D01*
X-80010901Y130388175D01*
X-79748080Y130513359D01*
X-79514731Y130687412D01*
X-79319822Y130903645D01*
X-79170843Y131153748D01*
X-79073519Y131428109D01*
X-79194186Y131658000D01*
X-80388000Y131658000D01*
X-80642000Y131658000D01*
X-81835814Y131658000D01*
X-81956481Y131428109D01*
X-83033519Y131428109D01*
X-83154186Y131658000D01*
X-84348000Y131658000D01*
X-84602000Y131658000D01*
X-85795814Y131658000D01*
X-85916481Y131428109D01*
X-86991898Y131428109D01*
X-86950000Y131638740D01*
X-86950000Y131931260D01*
X-86991897Y132141891D01*
X-85916481Y132141891D01*
X-85795814Y131912000D01*
X-84602000Y131912000D01*
X-84602000Y133105155D01*
X-84348000Y133105155D01*
X-84348000Y131912000D01*
X-83154186Y131912000D01*
X-83033519Y132141891D01*
X-81956481Y132141891D01*
X-81835814Y131912000D01*
X-80642000Y131912000D01*
X-80642000Y133105155D01*
X-80388000Y133105155D01*
X-80388000Y131912000D01*
X-79194186Y131912000D01*
X-79184077Y131931260D01*
X-78040000Y131931260D01*
X-78040000Y131638740D01*
X-77982932Y131351842D01*
X-77870990Y131081589D01*
X-77708475Y130838368D01*
X-77501632Y130631525D01*
X-77258411Y130469010D01*
X-76988158Y130357068D01*
X-76701260Y130300000D01*
X-76408740Y130300000D01*
X-76121842Y130357068D01*
X-75851589Y130469010D01*
X-75608368Y130631525D01*
X-75401525Y130838368D01*
X-75239010Y131081589D01*
X-75127068Y131351842D01*
X-75070000Y131638740D01*
X-75070000Y131931260D01*
X-74080000Y131931260D01*
X-74080000Y131638740D01*
X-74022932Y131351842D01*
X-73910990Y131081589D01*
X-73748475Y130838368D01*
X-73541632Y130631525D01*
X-73298411Y130469010D01*
X-73028158Y130357068D01*
X-72741260Y130300000D01*
X-72448740Y130300000D01*
X-72161842Y130357068D01*
X-71891589Y130469010D01*
X-71648368Y130631525D01*
X-71441525Y130838368D01*
X-71279010Y131081589D01*
X-71167068Y131351842D01*
X-71110000Y131638740D01*
X-71110000Y131931260D01*
X-70120000Y131931260D01*
X-70120000Y131638740D01*
X-70062932Y131351842D01*
X-69950990Y131081589D01*
X-69788475Y130838368D01*
X-69581632Y130631525D01*
X-69338411Y130469010D01*
X-69068158Y130357068D01*
X-68781260Y130300000D01*
X-68488740Y130300000D01*
X-68201842Y130357068D01*
X-67931589Y130469010D01*
X-67688368Y130631525D01*
X-67481525Y130838368D01*
X-67319010Y131081589D01*
X-67207068Y131351842D01*
X-67150000Y131638740D01*
X-67150000Y131931260D01*
X-66160000Y131931260D01*
X-66160000Y131638740D01*
X-66102932Y131351842D01*
X-65990990Y131081589D01*
X-65828475Y130838368D01*
X-65621632Y130631525D01*
X-65378411Y130469010D01*
X-65108158Y130357068D01*
X-64821260Y130300000D01*
X-64528740Y130300000D01*
X-64241842Y130357068D01*
X-63971589Y130469010D01*
X-63728368Y130631525D01*
X-63521525Y130838368D01*
X-63359010Y131081589D01*
X-63247068Y131351842D01*
X-63190000Y131638740D01*
X-63190000Y131931260D01*
X-62200000Y131931260D01*
X-62200000Y131638740D01*
X-62142932Y131351842D01*
X-62030990Y131081589D01*
X-61868475Y130838368D01*
X-61661632Y130631525D01*
X-61418411Y130469010D01*
X-61148158Y130357068D01*
X-60861260Y130300000D01*
X-60568740Y130300000D01*
X-60281842Y130357068D01*
X-60011589Y130469010D01*
X-59768368Y130631525D01*
X-59561525Y130838368D01*
X-59399010Y131081589D01*
X-59287068Y131351842D01*
X-59230000Y131638740D01*
X-59230000Y131931260D01*
X-58240000Y131931260D01*
X-58240000Y131638740D01*
X-58182932Y131351842D01*
X-58070990Y131081589D01*
X-57908475Y130838368D01*
X-57701632Y130631525D01*
X-57458411Y130469010D01*
X-57188158Y130357068D01*
X-56901260Y130300000D01*
X-56608740Y130300000D01*
X-56321842Y130357068D01*
X-56051589Y130469010D01*
X-55808368Y130631525D01*
X-55601525Y130838368D01*
X-55439010Y131081589D01*
X-55327068Y131351842D01*
X-55270000Y131638740D01*
X-55270000Y131931260D01*
X-54280000Y131931260D01*
X-54280000Y131638740D01*
X-54222932Y131351842D01*
X-54110990Y131081589D01*
X-53948475Y130838368D01*
X-53741632Y130631525D01*
X-53498411Y130469010D01*
X-53228158Y130357068D01*
X-52941260Y130300000D01*
X-52648740Y130300000D01*
X-52361842Y130357068D01*
X-52091589Y130469010D01*
X-51848368Y130631525D01*
X-51641525Y130838368D01*
X-51479010Y131081589D01*
X-51367068Y131351842D01*
X-51310000Y131638740D01*
X-51310000Y131931260D01*
X-50320000Y131931260D01*
X-50320000Y131638740D01*
X-50262932Y131351842D01*
X-50150990Y131081589D01*
X-49988475Y130838368D01*
X-49781632Y130631525D01*
X-49538411Y130469010D01*
X-49268158Y130357068D01*
X-48981260Y130300000D01*
X-48688740Y130300000D01*
X-48401842Y130357068D01*
X-48131589Y130469010D01*
X-47888368Y130631525D01*
X-47681525Y130838368D01*
X-47519010Y131081589D01*
X-47407068Y131351842D01*
X-47350000Y131638740D01*
X-47350000Y131931260D01*
X-46360000Y131931260D01*
X-46360000Y131638740D01*
X-46302932Y131351842D01*
X-46190990Y131081589D01*
X-46028475Y130838368D01*
X-45821632Y130631525D01*
X-45578411Y130469010D01*
X-45308158Y130357068D01*
X-45021260Y130300000D01*
X-44728740Y130300000D01*
X-44441842Y130357068D01*
X-44171589Y130469010D01*
X-43928368Y130631525D01*
X-43721525Y130838368D01*
X-43559010Y131081589D01*
X-43447068Y131351842D01*
X-43390000Y131638740D01*
X-43390000Y131931260D01*
X-42400000Y131931260D01*
X-42400000Y131638740D01*
X-42342932Y131351842D01*
X-42230990Y131081589D01*
X-42068475Y130838368D01*
X-41861632Y130631525D01*
X-41618411Y130469010D01*
X-41348158Y130357068D01*
X-41061260Y130300000D01*
X-40768740Y130300000D01*
X-40481842Y130357068D01*
X-40211589Y130469010D01*
X-39968368Y130631525D01*
X-39761525Y130838368D01*
X-39599010Y131081589D01*
X-39487068Y131351842D01*
X-39430000Y131638740D01*
X-39430000Y131931260D01*
X-38440000Y131931260D01*
X-38440000Y131638740D01*
X-38382932Y131351842D01*
X-38270990Y131081589D01*
X-38108475Y130838368D01*
X-37901632Y130631525D01*
X-37658411Y130469010D01*
X-37388158Y130357068D01*
X-37101260Y130300000D01*
X-36808740Y130300000D01*
X-36521842Y130357068D01*
X-36251589Y130469010D01*
X-36008368Y130631525D01*
X-35801525Y130838368D01*
X-35639010Y131081589D01*
X-35527068Y131351842D01*
X-35470000Y131638740D01*
X-35470000Y131931260D01*
X-34480000Y131931260D01*
X-34480000Y131638740D01*
X-34422932Y131351842D01*
X-34310990Y131081589D01*
X-34148475Y130838368D01*
X-33941632Y130631525D01*
X-33698411Y130469010D01*
X-33428158Y130357068D01*
X-33141260Y130300000D01*
X-32848740Y130300000D01*
X-32561842Y130357068D01*
X-32291589Y130469010D01*
X-32048368Y130631525D01*
X-31841525Y130838368D01*
X-31679010Y131081589D01*
X-31567068Y131351842D01*
X-31510000Y131638740D01*
X-31510000Y131931260D01*
X-30520000Y131931260D01*
X-30520000Y131638740D01*
X-30462932Y131351842D01*
X-30350990Y131081589D01*
X-30188475Y130838368D01*
X-29981632Y130631525D01*
X-29738411Y130469010D01*
X-29468158Y130357068D01*
X-29181260Y130300000D01*
X-28888740Y130300000D01*
X-28601842Y130357068D01*
X-28331589Y130469010D01*
X-28088368Y130631525D01*
X-27881525Y130838368D01*
X-27719010Y131081589D01*
X-27607068Y131351842D01*
X-27550000Y131638740D01*
X-27550000Y131931260D01*
X-26560000Y131931260D01*
X-26560000Y131638740D01*
X-26502932Y131351842D01*
X-26390990Y131081589D01*
X-26228475Y130838368D01*
X-26021632Y130631525D01*
X-25778411Y130469010D01*
X-25508158Y130357068D01*
X-25221260Y130300000D01*
X-24928740Y130300000D01*
X-24641842Y130357068D01*
X-24371589Y130469010D01*
X-24128368Y130631525D01*
X-23921525Y130838368D01*
X-23759010Y131081589D01*
X-23647068Y131351842D01*
X-23590000Y131638740D01*
X-23590000Y131931260D01*
X-22600000Y131931260D01*
X-22600000Y131638740D01*
X-22542932Y131351842D01*
X-22430990Y131081589D01*
X-22268475Y130838368D01*
X-22061632Y130631525D01*
X-21818411Y130469010D01*
X-21548158Y130357068D01*
X-21261260Y130300000D01*
X-20968740Y130300000D01*
X-20681842Y130357068D01*
X-20411589Y130469010D01*
X-20168368Y130631525D01*
X-19961525Y130838368D01*
X-19799010Y131081589D01*
X-19687068Y131351842D01*
X-19630000Y131638740D01*
X-19630000Y131931260D01*
X-18640000Y131931260D01*
X-18640000Y131638740D01*
X-18582932Y131351842D01*
X-18470990Y131081589D01*
X-18308475Y130838368D01*
X-18101632Y130631525D01*
X-17858411Y130469010D01*
X-17588158Y130357068D01*
X-17301260Y130300000D01*
X-17008740Y130300000D01*
X-16721842Y130357068D01*
X-16451589Y130469010D01*
X-16208368Y130631525D01*
X-16001525Y130838368D01*
X-15839010Y131081589D01*
X-15727068Y131351842D01*
X-15711898Y131428109D01*
X-14636481Y131428109D01*
X-14539157Y131153748D01*
X-14390178Y130903645D01*
X-14195269Y130687412D01*
X-13961920Y130513359D01*
X-13699099Y130388175D01*
X-13551890Y130343524D01*
X-13322000Y130464845D01*
X-13322000Y131658000D01*
X-13068000Y131658000D01*
X-13068000Y130464845D01*
X-12838110Y130343524D01*
X-12690901Y130388175D01*
X-12428080Y130513359D01*
X-12194731Y130687412D01*
X-11999822Y130903645D01*
X-11850843Y131153748D01*
X-11753519Y131428109D01*
X-10676481Y131428109D01*
X-10579157Y131153748D01*
X-10430178Y130903645D01*
X-10235269Y130687412D01*
X-10001920Y130513359D01*
X-9739099Y130388175D01*
X-9591890Y130343524D01*
X-9362000Y130464845D01*
X-9362000Y131658000D01*
X-9108000Y131658000D01*
X-9108000Y130464845D01*
X-8878110Y130343524D01*
X-8730901Y130388175D01*
X-8468080Y130513359D01*
X-8234731Y130687412D01*
X-8039822Y130903645D01*
X-7890843Y131153748D01*
X-7793519Y131428109D01*
X-7914186Y131658000D01*
X-9108000Y131658000D01*
X-9362000Y131658000D01*
X-10555814Y131658000D01*
X-10676481Y131428109D01*
X-11753519Y131428109D01*
X-11874186Y131658000D01*
X-13068000Y131658000D01*
X-13322000Y131658000D01*
X-14515814Y131658000D01*
X-14636481Y131428109D01*
X-15711898Y131428109D01*
X-15670000Y131638740D01*
X-15670000Y131931260D01*
X-15711897Y132141891D01*
X-14636481Y132141891D01*
X-14515814Y131912000D01*
X-13322000Y131912000D01*
X-13322000Y133105155D01*
X-13068000Y133105155D01*
X-13068000Y131912000D01*
X-11874186Y131912000D01*
X-11753519Y132141891D01*
X-10676481Y132141891D01*
X-10555814Y131912000D01*
X-9362000Y131912000D01*
X-9362000Y133105155D01*
X-9108000Y133105155D01*
X-9108000Y131912000D01*
X-7914186Y131912000D01*
X-7793519Y132141891D01*
X-7890843Y132416252D01*
X-8039822Y132666355D01*
X-8234731Y132882588D01*
X-8468080Y133056641D01*
X-8730901Y133181825D01*
X-8878110Y133226476D01*
X-9108000Y133105155D01*
X-9362000Y133105155D01*
X-9591890Y133226476D01*
X-9739099Y133181825D01*
X-10001920Y133056641D01*
X-10235269Y132882588D01*
X-10430178Y132666355D01*
X-10579157Y132416252D01*
X-10676481Y132141891D01*
X-11753519Y132141891D01*
X-11850843Y132416252D01*
X-11999822Y132666355D01*
X-12194731Y132882588D01*
X-12428080Y133056641D01*
X-12690901Y133181825D01*
X-12838110Y133226476D01*
X-13068000Y133105155D01*
X-13322000Y133105155D01*
X-13551890Y133226476D01*
X-13699099Y133181825D01*
X-13961920Y133056641D01*
X-14195269Y132882588D01*
X-14390178Y132666355D01*
X-14539157Y132416252D01*
X-14636481Y132141891D01*
X-15711897Y132141891D01*
X-15727068Y132218158D01*
X-15839010Y132488411D01*
X-16001525Y132731632D01*
X-16208368Y132938475D01*
X-16451589Y133100990D01*
X-16721842Y133212932D01*
X-17008740Y133270000D01*
X-17301260Y133270000D01*
X-17588158Y133212932D01*
X-17858411Y133100990D01*
X-18101632Y132938475D01*
X-18308475Y132731632D01*
X-18470990Y132488411D01*
X-18582932Y132218158D01*
X-18640000Y131931260D01*
X-19630000Y131931260D01*
X-19687068Y132218158D01*
X-19799010Y132488411D01*
X-19961525Y132731632D01*
X-20168368Y132938475D01*
X-20411589Y133100990D01*
X-20681842Y133212932D01*
X-20968740Y133270000D01*
X-21261260Y133270000D01*
X-21548158Y133212932D01*
X-21818411Y133100990D01*
X-22061632Y132938475D01*
X-22268475Y132731632D01*
X-22430990Y132488411D01*
X-22542932Y132218158D01*
X-22600000Y131931260D01*
X-23590000Y131931260D01*
X-23647068Y132218158D01*
X-23759010Y132488411D01*
X-23921525Y132731632D01*
X-24128368Y132938475D01*
X-24371589Y133100990D01*
X-24641842Y133212932D01*
X-24928740Y133270000D01*
X-25221260Y133270000D01*
X-25508158Y133212932D01*
X-25778411Y133100990D01*
X-26021632Y132938475D01*
X-26228475Y132731632D01*
X-26390990Y132488411D01*
X-26502932Y132218158D01*
X-26560000Y131931260D01*
X-27550000Y131931260D01*
X-27607068Y132218158D01*
X-27719010Y132488411D01*
X-27881525Y132731632D01*
X-28088368Y132938475D01*
X-28331589Y133100990D01*
X-28601842Y133212932D01*
X-28888740Y133270000D01*
X-29181260Y133270000D01*
X-29468158Y133212932D01*
X-29738411Y133100990D01*
X-29981632Y132938475D01*
X-30188475Y132731632D01*
X-30350990Y132488411D01*
X-30462932Y132218158D01*
X-30520000Y131931260D01*
X-31510000Y131931260D01*
X-31567068Y132218158D01*
X-31679010Y132488411D01*
X-31841525Y132731632D01*
X-32048368Y132938475D01*
X-32291589Y133100990D01*
X-32561842Y133212932D01*
X-32848740Y133270000D01*
X-33141260Y133270000D01*
X-33428158Y133212932D01*
X-33698411Y133100990D01*
X-33941632Y132938475D01*
X-34148475Y132731632D01*
X-34310990Y132488411D01*
X-34422932Y132218158D01*
X-34480000Y131931260D01*
X-35470000Y131931260D01*
X-35527068Y132218158D01*
X-35639010Y132488411D01*
X-35801525Y132731632D01*
X-36008368Y132938475D01*
X-36251589Y133100990D01*
X-36521842Y133212932D01*
X-36808740Y133270000D01*
X-37101260Y133270000D01*
X-37388158Y133212932D01*
X-37658411Y133100990D01*
X-37901632Y132938475D01*
X-38108475Y132731632D01*
X-38270990Y132488411D01*
X-38382932Y132218158D01*
X-38440000Y131931260D01*
X-39430000Y131931260D01*
X-39487068Y132218158D01*
X-39599010Y132488411D01*
X-39761525Y132731632D01*
X-39968368Y132938475D01*
X-40211589Y133100990D01*
X-40481842Y133212932D01*
X-40768740Y133270000D01*
X-41061260Y133270000D01*
X-41348158Y133212932D01*
X-41618411Y133100990D01*
X-41861632Y132938475D01*
X-42068475Y132731632D01*
X-42230990Y132488411D01*
X-42342932Y132218158D01*
X-42400000Y131931260D01*
X-43390000Y131931260D01*
X-43447068Y132218158D01*
X-43559010Y132488411D01*
X-43721525Y132731632D01*
X-43928368Y132938475D01*
X-44171589Y133100990D01*
X-44441842Y133212932D01*
X-44728740Y133270000D01*
X-45021260Y133270000D01*
X-45308158Y133212932D01*
X-45578411Y133100990D01*
X-45821632Y132938475D01*
X-46028475Y132731632D01*
X-46190990Y132488411D01*
X-46302932Y132218158D01*
X-46360000Y131931260D01*
X-47350000Y131931260D01*
X-47407068Y132218158D01*
X-47519010Y132488411D01*
X-47681525Y132731632D01*
X-47888368Y132938475D01*
X-48131589Y133100990D01*
X-48401842Y133212932D01*
X-48688740Y133270000D01*
X-48981260Y133270000D01*
X-49268158Y133212932D01*
X-49538411Y133100990D01*
X-49781632Y132938475D01*
X-49988475Y132731632D01*
X-50150990Y132488411D01*
X-50262932Y132218158D01*
X-50320000Y131931260D01*
X-51310000Y131931260D01*
X-51367068Y132218158D01*
X-51479010Y132488411D01*
X-51641525Y132731632D01*
X-51848368Y132938475D01*
X-52091589Y133100990D01*
X-52361842Y133212932D01*
X-52648740Y133270000D01*
X-52941260Y133270000D01*
X-53228158Y133212932D01*
X-53498411Y133100990D01*
X-53741632Y132938475D01*
X-53948475Y132731632D01*
X-54110990Y132488411D01*
X-54222932Y132218158D01*
X-54280000Y131931260D01*
X-55270000Y131931260D01*
X-55327068Y132218158D01*
X-55439010Y132488411D01*
X-55601525Y132731632D01*
X-55808368Y132938475D01*
X-56051589Y133100990D01*
X-56321842Y133212932D01*
X-56608740Y133270000D01*
X-56901260Y133270000D01*
X-57188158Y133212932D01*
X-57458411Y133100990D01*
X-57701632Y132938475D01*
X-57908475Y132731632D01*
X-58070990Y132488411D01*
X-58182932Y132218158D01*
X-58240000Y131931260D01*
X-59230000Y131931260D01*
X-59287068Y132218158D01*
X-59399010Y132488411D01*
X-59561525Y132731632D01*
X-59768368Y132938475D01*
X-60011589Y133100990D01*
X-60281842Y133212932D01*
X-60568740Y133270000D01*
X-60861260Y133270000D01*
X-61148158Y133212932D01*
X-61418411Y133100990D01*
X-61661632Y132938475D01*
X-61868475Y132731632D01*
X-62030990Y132488411D01*
X-62142932Y132218158D01*
X-62200000Y131931260D01*
X-63190000Y131931260D01*
X-63247068Y132218158D01*
X-63359010Y132488411D01*
X-63521525Y132731632D01*
X-63728368Y132938475D01*
X-63971589Y133100990D01*
X-64241842Y133212932D01*
X-64528740Y133270000D01*
X-64821260Y133270000D01*
X-65108158Y133212932D01*
X-65378411Y133100990D01*
X-65621632Y132938475D01*
X-65828475Y132731632D01*
X-65990990Y132488411D01*
X-66102932Y132218158D01*
X-66160000Y131931260D01*
X-67150000Y131931260D01*
X-67207068Y132218158D01*
X-67319010Y132488411D01*
X-67481525Y132731632D01*
X-67688368Y132938475D01*
X-67931589Y133100990D01*
X-68201842Y133212932D01*
X-68488740Y133270000D01*
X-68781260Y133270000D01*
X-69068158Y133212932D01*
X-69338411Y133100990D01*
X-69581632Y132938475D01*
X-69788475Y132731632D01*
X-69950990Y132488411D01*
X-70062932Y132218158D01*
X-70120000Y131931260D01*
X-71110000Y131931260D01*
X-71167068Y132218158D01*
X-71279010Y132488411D01*
X-71441525Y132731632D01*
X-71648368Y132938475D01*
X-71891589Y133100990D01*
X-72161842Y133212932D01*
X-72448740Y133270000D01*
X-72741260Y133270000D01*
X-73028158Y133212932D01*
X-73298411Y133100990D01*
X-73541632Y132938475D01*
X-73748475Y132731632D01*
X-73910990Y132488411D01*
X-74022932Y132218158D01*
X-74080000Y131931260D01*
X-75070000Y131931260D01*
X-75127068Y132218158D01*
X-75239010Y132488411D01*
X-75401525Y132731632D01*
X-75608368Y132938475D01*
X-75851589Y133100990D01*
X-76121842Y133212932D01*
X-76408740Y133270000D01*
X-76701260Y133270000D01*
X-76988158Y133212932D01*
X-77258411Y133100990D01*
X-77501632Y132938475D01*
X-77708475Y132731632D01*
X-77870990Y132488411D01*
X-77982932Y132218158D01*
X-78040000Y131931260D01*
X-79184077Y131931260D01*
X-79073519Y132141891D01*
X-79170843Y132416252D01*
X-79319822Y132666355D01*
X-79514731Y132882588D01*
X-79748080Y133056641D01*
X-80010901Y133181825D01*
X-80158110Y133226476D01*
X-80388000Y133105155D01*
X-80642000Y133105155D01*
X-80871890Y133226476D01*
X-81019099Y133181825D01*
X-81281920Y133056641D01*
X-81515269Y132882588D01*
X-81710178Y132666355D01*
X-81859157Y132416252D01*
X-81956481Y132141891D01*
X-83033519Y132141891D01*
X-83130843Y132416252D01*
X-83279822Y132666355D01*
X-83474731Y132882588D01*
X-83708080Y133056641D01*
X-83970901Y133181825D01*
X-84118110Y133226476D01*
X-84348000Y133105155D01*
X-84602000Y133105155D01*
X-84831890Y133226476D01*
X-84979099Y133181825D01*
X-85241920Y133056641D01*
X-85475269Y132882588D01*
X-85670178Y132666355D01*
X-85819157Y132416252D01*
X-85916481Y132141891D01*
X-86991897Y132141891D01*
X-87007068Y132218158D01*
X-87119010Y132488411D01*
X-87281525Y132731632D01*
X-87488368Y132938475D01*
X-87731589Y133100990D01*
X-88001842Y133212932D01*
X-88288740Y133270000D01*
X-88581260Y133270000D01*
X-88868158Y133212932D01*
X-89138411Y133100990D01*
X-89381632Y132938475D01*
X-89588475Y132731632D01*
X-89750990Y132488411D01*
X-89862932Y132218158D01*
X-89903985Y132011772D01*
X-90927920Y132021347D01*
X-90967068Y132218158D01*
X-91079010Y132488411D01*
X-91241525Y132731632D01*
X-91448368Y132938475D01*
X-91691589Y133100990D01*
X-91961842Y133212932D01*
X-92248740Y133270000D01*
X-92541260Y133270000D01*
X-92828158Y133212932D01*
X-93098411Y133100990D01*
X-93341632Y132938475D01*
X-93548475Y132731632D01*
X-93710990Y132488411D01*
X-93822932Y132218158D01*
X-93856632Y132048736D01*
X-94895300Y132058450D01*
X-94927068Y132218158D01*
X-95039010Y132488411D01*
X-95201525Y132731632D01*
X-95408368Y132938475D01*
X-95651589Y133100990D01*
X-95921842Y133212932D01*
X-96208740Y133270000D01*
X-96501260Y133270000D01*
X-96788158Y133212932D01*
X-97058411Y133100990D01*
X-97301632Y132938475D01*
X-97508475Y132731632D01*
X-97670990Y132488411D01*
X-97782932Y132218158D01*
X-97809279Y132085701D01*
X-98862680Y132095553D01*
X-98887068Y132218158D01*
X-98999010Y132488411D01*
X-99161525Y132731632D01*
X-99368368Y132938475D01*
X-99611589Y133100990D01*
X-99881842Y133212932D01*
X-100168740Y133270000D01*
X-100461260Y133270000D01*
X-100748158Y133212932D01*
X-101018411Y133100990D01*
X-101261632Y132938475D01*
X-101468475Y132731632D01*
X-101630990Y132488411D01*
X-101742932Y132218158D01*
X-101761927Y132122666D01*
X-102830060Y132132655D01*
X-102847068Y132218158D01*
X-102959010Y132488411D01*
X-103121525Y132731632D01*
X-103328368Y132938475D01*
X-103571589Y133100990D01*
X-103841842Y133212932D01*
X-104128740Y133270000D01*
X-104421260Y133270000D01*
X-104708158Y133212932D01*
X-104978411Y133100990D01*
X-105221632Y132938475D01*
X-105428475Y132731632D01*
X-105590990Y132488411D01*
X-105702932Y132218158D01*
X-105714574Y132159631D01*
X-106797441Y132169758D01*
X-106807068Y132218158D01*
X-106919010Y132488411D01*
X-107081525Y132731632D01*
X-107288368Y132938475D01*
X-107531589Y133100990D01*
X-107801842Y133212932D01*
X-108088740Y133270000D01*
X-108381260Y133270000D01*
X-108668158Y133212932D01*
X-108938411Y133100990D01*
X-109181632Y132938475D01*
X-109388475Y132731632D01*
X-109550990Y132488411D01*
X-109662932Y132218158D01*
X-109667221Y132196596D01*
X-110764821Y132206860D01*
X-110767068Y132218158D01*
X-110879010Y132488411D01*
X-111041525Y132731632D01*
X-111248368Y132938475D01*
X-111491589Y133100990D01*
X-111761842Y133212932D01*
X-112048740Y133270000D01*
X-112341260Y133270000D01*
X-112628158Y133212932D01*
X-112898411Y133100990D01*
X-113141632Y132938475D01*
X-113348475Y132731632D01*
X-113510990Y132488411D01*
X-113616565Y132233530D01*
X-114737778Y132244015D01*
X-114839010Y132488411D01*
X-115001525Y132731632D01*
X-115208368Y132938475D01*
X-115451589Y133100990D01*
X-115721842Y133212932D01*
X-116008740Y133270000D01*
X-116301260Y133270000D01*
X-116588158Y133212932D01*
X-116858411Y133100990D01*
X-117101632Y132938475D01*
X-117308475Y132731632D01*
X-117470990Y132488411D01*
X-117582932Y132218158D01*
X-117640000Y131931260D01*
X-117640000Y131638740D01*
X-117596210Y131418592D01*
X-126936002Y122078799D01*
X-126965000Y122055001D01*
X-126988798Y122026003D01*
X-126988799Y122026002D01*
X-127059974Y121939276D01*
X-127130546Y121807246D01*
X-127142970Y121766287D01*
X-127170734Y121674757D01*
X-127174002Y121663985D01*
X-127188676Y121515000D01*
X-127184999Y121477667D01*
X-127184999Y121182322D01*
X-127192333Y121168601D01*
X-127199560Y121144776D01*
X-127202000Y121119960D01*
X-127185000Y67687465D01*
X-127185000Y66172107D01*
X-131110107Y62247000D01*
X-171948000Y62247000D01*
X-171948000Y63100000D01*
X-131793639Y63100000D01*
X-131760000Y63096687D01*
X-131726361Y63100000D01*
X-131726353Y63100000D01*
X-131625717Y63109912D01*
X-131496594Y63149081D01*
X-131377593Y63212688D01*
X-131273289Y63298289D01*
X-131251840Y63324424D01*
X-128299422Y66276842D01*
X-128273289Y66298289D01*
X-128250955Y66325502D01*
X-128215292Y66368958D01*
X-128187688Y66402593D01*
X-128124170Y66521427D01*
X-128124081Y66521593D01*
X-128084912Y66650717D01*
X-128075018Y66751173D01*
X-128075000Y66751353D01*
X-128075000Y66751361D01*
X-128071687Y66785000D01*
X-128075000Y66818639D01*
X-128075000Y130935000D01*
X-125563072Y130935000D01*
X-125550812Y130810518D01*
X-125514502Y130690820D01*
X-125455537Y130580506D01*
X-125376185Y130483815D01*
X-125279494Y130404463D01*
X-125169180Y130345498D01*
X-125049482Y130309188D01*
X-124925000Y130296928D01*
X-124360750Y130300000D01*
X-124202000Y130458750D01*
X-124202000Y131658000D01*
X-123948000Y131658000D01*
X-123948000Y130458750D01*
X-123789250Y130300000D01*
X-123225000Y130296928D01*
X-123100518Y130309188D01*
X-122980820Y130345498D01*
X-122870506Y130404463D01*
X-122773815Y130483815D01*
X-122694463Y130580506D01*
X-122635498Y130690820D01*
X-122599188Y130810518D01*
X-122586928Y130935000D01*
X-122589612Y131428109D01*
X-121556481Y131428109D01*
X-121459157Y131153748D01*
X-121310178Y130903645D01*
X-121115269Y130687412D01*
X-120881920Y130513359D01*
X-120619099Y130388175D01*
X-120471890Y130343524D01*
X-120242000Y130464845D01*
X-120242000Y131658000D01*
X-119988000Y131658000D01*
X-119988000Y130464845D01*
X-119758110Y130343524D01*
X-119610901Y130388175D01*
X-119348080Y130513359D01*
X-119114731Y130687412D01*
X-118919822Y130903645D01*
X-118770843Y131153748D01*
X-118673519Y131428109D01*
X-118794186Y131658000D01*
X-119988000Y131658000D01*
X-120242000Y131658000D01*
X-121435814Y131658000D01*
X-121556481Y131428109D01*
X-122589612Y131428109D01*
X-122590000Y131499250D01*
X-122748750Y131658000D01*
X-123948000Y131658000D01*
X-124202000Y131658000D01*
X-125401250Y131658000D01*
X-125560000Y131499250D01*
X-125563072Y130935000D01*
X-128075000Y130935000D01*
X-128075000Y132635000D01*
X-125563072Y132635000D01*
X-125560000Y132070750D01*
X-125401250Y131912000D01*
X-124202000Y131912000D01*
X-124202000Y133111250D01*
X-123948000Y133111250D01*
X-123948000Y131912000D01*
X-122748750Y131912000D01*
X-122590000Y132070750D01*
X-122589613Y132141891D01*
X-121556481Y132141891D01*
X-121435814Y131912000D01*
X-120242000Y131912000D01*
X-120242000Y133105155D01*
X-119988000Y133105155D01*
X-119988000Y131912000D01*
X-118794186Y131912000D01*
X-118673519Y132141891D01*
X-118770843Y132416252D01*
X-118919822Y132666355D01*
X-119114731Y132882588D01*
X-119348080Y133056641D01*
X-119610901Y133181825D01*
X-119758110Y133226476D01*
X-119988000Y133105155D01*
X-120242000Y133105155D01*
X-120471890Y133226476D01*
X-120619099Y133181825D01*
X-120881920Y133056641D01*
X-121115269Y132882588D01*
X-121310178Y132666355D01*
X-121459157Y132416252D01*
X-121556481Y132141891D01*
X-122589613Y132141891D01*
X-122586928Y132635000D01*
X-122599188Y132759482D01*
X-122635498Y132879180D01*
X-122694463Y132989494D01*
X-122773815Y133086185D01*
X-122870506Y133165537D01*
X-122980820Y133224502D01*
X-123100518Y133260812D01*
X-123225000Y133273072D01*
X-123789250Y133270000D01*
X-123948000Y133111250D01*
X-124202000Y133111250D01*
X-124360750Y133270000D01*
X-124925000Y133273072D01*
X-125049482Y133260812D01*
X-125169180Y133224502D01*
X-125279494Y133165537D01*
X-125376185Y133086185D01*
X-125455537Y132989494D01*
X-125514502Y132879180D01*
X-125550812Y132759482D01*
X-125563072Y132635000D01*
X-128075000Y132635000D01*
X-128075000Y133501264D01*
X-125476228Y136100036D01*
X-6348701Y136114965D01*
X-3750000Y133516264D01*
%TA.AperFunction,Conductor*%
D21*
G36*
X-3750000Y133516264D02*
G01*
X-3749999Y129863649D01*
X-3753313Y129830000D01*
X-3740088Y129695717D01*
X-3706292Y129584309D01*
X-3700918Y129566594D01*
X-3637311Y129447593D01*
X-3612825Y129417757D01*
X-3573160Y129369424D01*
X-3573153Y129369417D01*
X-3551710Y129343289D01*
X-3525582Y129321846D01*
X-573160Y126369424D01*
X-551711Y126343289D01*
X-447407Y126257688D01*
X-369858Y126216237D01*
X-328407Y126194081D01*
X-199283Y126154912D01*
X-98647Y126145000D01*
X-98639Y126145000D01*
X-65000Y126141687D01*
X-31361Y126145000D01*
X118971264Y126145000D01*
X121569926Y123546338D01*
X121555010Y66818737D01*
X121551687Y66785000D01*
X121558369Y66717149D01*
X121564877Y66650895D01*
X121564903Y66650810D01*
X121564912Y66650717D01*
X121584424Y66586395D01*
X121604012Y66521762D01*
X121604056Y66521680D01*
X121604082Y66521594D01*
X121634998Y66463755D01*
X121667588Y66402744D01*
X121667648Y66402671D01*
X121667689Y66402594D01*
X121711561Y66349135D01*
X121753162Y66298417D01*
X121779354Y66276910D01*
X124731840Y63324424D01*
X124753289Y63298289D01*
X124857593Y63212688D01*
X124895838Y63192246D01*
X124976593Y63149081D01*
X125105717Y63109912D01*
X125206353Y63100000D01*
X125206361Y63100000D01*
X125240000Y63096687D01*
X125273639Y63100000D01*
X307956264Y63100000D01*
X310555000Y60501264D01*
X310555001Y-53931263D01*
X307956264Y-56530000D01*
X-185476264Y-56530000D01*
X-188075000Y-53931264D01*
X-188075000Y60501264D01*
X-185476264Y63100000D01*
X-172202000Y63100000D01*
X-172202000Y62246799D01*
X-184685201Y62227000D01*
X-184709974Y62224520D01*
X-184733787Y62217255D01*
X-184755725Y62205485D01*
X-184775363Y62189238D01*
X-184907593Y62055341D01*
X-184945676Y62034985D01*
X-185061401Y61940012D01*
X-185085199Y61911014D01*
X-186856002Y60140210D01*
X-186885000Y60116412D01*
X-186908798Y60087414D01*
X-186908799Y60087413D01*
X-186979974Y60000687D01*
X-187031065Y59905102D01*
X-187155363Y59779238D01*
X-187171036Y59759895D01*
X-187182635Y59737865D01*
X-187189712Y59713996D01*
X-187192000Y59689992D01*
X-187184501Y-53880008D01*
X-187182059Y-53904785D01*
X-187174830Y-53928609D01*
X-187163093Y-53950564D01*
X-187147304Y-53969803D01*
X-185147304Y-55969803D01*
X-185128058Y-55985597D01*
X-185106102Y-55997333D01*
X-185082277Y-56004560D01*
X-185057501Y-56007000D01*
X307925000Y-56007000D01*
X307949776Y-56004560D01*
X307973601Y-55997333D01*
X307995557Y-55985597D01*
X308014803Y-55969803D01*
X310014803Y-53969803D01*
X310030597Y-53950557D01*
X310042333Y-53928601D01*
X310049560Y-53904776D01*
X310052000Y-53880246D01*
X310262000Y54599754D01*
X310259607Y54624535D01*
X310252427Y54648374D01*
X310240733Y54670353D01*
X310224976Y54689629D01*
X310214556Y54698994D01*
X306374700Y57784856D01*
X306353858Y57798475D01*
X306330760Y57807766D01*
X306295009Y57812862D01*
X150784865Y57647000D01*
X132550589Y57647000D01*
X132543986Y57649003D01*
X132432333Y57660000D01*
X132432322Y57660000D01*
X132395000Y57663676D01*
X132357678Y57660000D01*
X121313400Y57660000D01*
X118206505Y60693296D01*
X115495000Y63404801D01*
X115495000Y91772678D01*
X115498676Y91810001D01*
X115495000Y91847324D01*
X115495000Y91847333D01*
X115484003Y91958986D01*
X115480219Y91971461D01*
X115472000Y111980052D01*
X115469550Y112004828D01*
X115462313Y112028649D01*
X115450568Y112050601D01*
X115438303Y112066161D01*
X109768303Y118206161D01*
X109749701Y118222707D01*
X109728228Y118235307D01*
X109704710Y118243476D01*
X109674942Y118247000D01*
X-108835058Y118147000D01*
X-108859833Y118144548D01*
X-108883654Y118137310D01*
X-108905606Y118125564D01*
X-108924318Y118110284D01*
X-114534318Y112560284D01*
X-114550216Y112541124D01*
X-114562070Y112519231D01*
X-114569425Y112495446D01*
X-114572000Y112470251D01*
X-114600501Y98030000D01*
X-122465000Y98030000D01*
X-122465000Y115004902D01*
X-118170000Y115004902D01*
X-118170000Y114535098D01*
X-118078346Y114074321D01*
X-117898560Y113640279D01*
X-117637550Y113249651D01*
X-117305349Y112917450D01*
X-116914721Y112656440D01*
X-116480679Y112476654D01*
X-116019902Y112385000D01*
X-115550098Y112385000D01*
X-115089321Y112476654D01*
X-114655279Y112656440D01*
X-114264651Y112917450D01*
X-113932450Y113249651D01*
X-113671440Y113640279D01*
X-113491654Y114074321D01*
X-113400000Y114535098D01*
X-113400000Y115004902D01*
X-113491654Y115465679D01*
X-113671440Y115899721D01*
X-113932450Y116290349D01*
X-114264651Y116622550D01*
X-114655279Y116883560D01*
X-115089321Y117063346D01*
X-115550098Y117155000D01*
X-116019902Y117155000D01*
X-116480679Y117063346D01*
X-116914721Y116883560D01*
X-117305349Y116622550D01*
X-117637550Y116290349D01*
X-117898560Y115899721D01*
X-118078346Y115465679D01*
X-118170000Y115004902D01*
X-122465000Y115004902D01*
X-122465000Y119935199D01*
X-115800197Y126600000D01*
X-92897322Y126600000D01*
X-92860000Y126596324D01*
X-92822678Y126600000D01*
X-92822667Y126600000D01*
X-92711014Y126610997D01*
X-92567753Y126654454D01*
X-92435724Y126725026D01*
X-92319999Y126819999D01*
X-92296196Y126849003D01*
X-88801408Y130343790D01*
X-88581260Y130300000D01*
X-88288740Y130300000D01*
X-88001842Y130357068D01*
X-87731589Y130469010D01*
X-87488368Y130631525D01*
X-87281525Y130838368D01*
X-87119010Y131081589D01*
X-87007068Y131351842D01*
X-86991898Y131428109D01*
X-85916481Y131428109D01*
X-85819157Y131153748D01*
X-85670178Y130903645D01*
X-85475269Y130687412D01*
X-85241920Y130513359D01*
X-84979099Y130388175D01*
X-84831890Y130343524D01*
X-84602000Y130464845D01*
X-84602000Y131658000D01*
X-84348000Y131658000D01*
X-84348000Y130464845D01*
X-84118110Y130343524D01*
X-83970901Y130388175D01*
X-83708080Y130513359D01*
X-83474731Y130687412D01*
X-83279822Y130903645D01*
X-83130843Y131153748D01*
X-83033519Y131428109D01*
X-81956481Y131428109D01*
X-81859157Y131153748D01*
X-81710178Y130903645D01*
X-81515269Y130687412D01*
X-81281920Y130513359D01*
X-81019099Y130388175D01*
X-80871890Y130343524D01*
X-80642000Y130464845D01*
X-80642000Y131658000D01*
X-80388000Y131658000D01*
X-80388000Y130464845D01*
X-80158110Y130343524D01*
X-80010901Y130388175D01*
X-79748080Y130513359D01*
X-79514731Y130687412D01*
X-79319822Y130903645D01*
X-79170843Y131153748D01*
X-79073519Y131428109D01*
X-79194186Y131658000D01*
X-80388000Y131658000D01*
X-80642000Y131658000D01*
X-81835814Y131658000D01*
X-81956481Y131428109D01*
X-83033519Y131428109D01*
X-83154186Y131658000D01*
X-84348000Y131658000D01*
X-84602000Y131658000D01*
X-85795814Y131658000D01*
X-85916481Y131428109D01*
X-86991898Y131428109D01*
X-86950000Y131638740D01*
X-86950000Y131931260D01*
X-86991897Y132141891D01*
X-85916481Y132141891D01*
X-85795814Y131912000D01*
X-84602000Y131912000D01*
X-84602000Y133105155D01*
X-84348000Y133105155D01*
X-84348000Y131912000D01*
X-83154186Y131912000D01*
X-83033519Y132141891D01*
X-81956481Y132141891D01*
X-81835814Y131912000D01*
X-80642000Y131912000D01*
X-80642000Y133105155D01*
X-80388000Y133105155D01*
X-80388000Y131912000D01*
X-79194186Y131912000D01*
X-79184077Y131931260D01*
X-78040000Y131931260D01*
X-78040000Y131638740D01*
X-77982932Y131351842D01*
X-77870990Y131081589D01*
X-77708475Y130838368D01*
X-77501632Y130631525D01*
X-77258411Y130469010D01*
X-76988158Y130357068D01*
X-76701260Y130300000D01*
X-76408740Y130300000D01*
X-76121842Y130357068D01*
X-75851589Y130469010D01*
X-75608368Y130631525D01*
X-75401525Y130838368D01*
X-75239010Y131081589D01*
X-75127068Y131351842D01*
X-75070000Y131638740D01*
X-75070000Y131931260D01*
X-74080000Y131931260D01*
X-74080000Y131638740D01*
X-74022932Y131351842D01*
X-73910990Y131081589D01*
X-73748475Y130838368D01*
X-73541632Y130631525D01*
X-73298411Y130469010D01*
X-73028158Y130357068D01*
X-72741260Y130300000D01*
X-72448740Y130300000D01*
X-72161842Y130357068D01*
X-71891589Y130469010D01*
X-71648368Y130631525D01*
X-71441525Y130838368D01*
X-71279010Y131081589D01*
X-71167068Y131351842D01*
X-71110000Y131638740D01*
X-71110000Y131931260D01*
X-70120000Y131931260D01*
X-70120000Y131638740D01*
X-70062932Y131351842D01*
X-69950990Y131081589D01*
X-69788475Y130838368D01*
X-69581632Y130631525D01*
X-69338411Y130469010D01*
X-69068158Y130357068D01*
X-68781260Y130300000D01*
X-68488740Y130300000D01*
X-68201842Y130357068D01*
X-67931589Y130469010D01*
X-67688368Y130631525D01*
X-67481525Y130838368D01*
X-67319010Y131081589D01*
X-67207068Y131351842D01*
X-67150000Y131638740D01*
X-67150000Y131931260D01*
X-66160000Y131931260D01*
X-66160000Y131638740D01*
X-66102932Y131351842D01*
X-65990990Y131081589D01*
X-65828475Y130838368D01*
X-65621632Y130631525D01*
X-65378411Y130469010D01*
X-65108158Y130357068D01*
X-64821260Y130300000D01*
X-64528740Y130300000D01*
X-64241842Y130357068D01*
X-63971589Y130469010D01*
X-63728368Y130631525D01*
X-63521525Y130838368D01*
X-63359010Y131081589D01*
X-63247068Y131351842D01*
X-63190000Y131638740D01*
X-63190000Y131931260D01*
X-62200000Y131931260D01*
X-62200000Y131638740D01*
X-62142932Y131351842D01*
X-62030990Y131081589D01*
X-61868475Y130838368D01*
X-61661632Y130631525D01*
X-61418411Y130469010D01*
X-61148158Y130357068D01*
X-60861260Y130300000D01*
X-60568740Y130300000D01*
X-60281842Y130357068D01*
X-60011589Y130469010D01*
X-59768368Y130631525D01*
X-59561525Y130838368D01*
X-59399010Y131081589D01*
X-59287068Y131351842D01*
X-59230000Y131638740D01*
X-59230000Y131931260D01*
X-58240000Y131931260D01*
X-58240000Y131638740D01*
X-58182932Y131351842D01*
X-58070990Y131081589D01*
X-57908475Y130838368D01*
X-57701632Y130631525D01*
X-57458411Y130469010D01*
X-57188158Y130357068D01*
X-56901260Y130300000D01*
X-56608740Y130300000D01*
X-56321842Y130357068D01*
X-56051589Y130469010D01*
X-55808368Y130631525D01*
X-55601525Y130838368D01*
X-55439010Y131081589D01*
X-55327068Y131351842D01*
X-55270000Y131638740D01*
X-55270000Y131931260D01*
X-54280000Y131931260D01*
X-54280000Y131638740D01*
X-54222932Y131351842D01*
X-54110990Y131081589D01*
X-53948475Y130838368D01*
X-53741632Y130631525D01*
X-53498411Y130469010D01*
X-53228158Y130357068D01*
X-52941260Y130300000D01*
X-52648740Y130300000D01*
X-52361842Y130357068D01*
X-52091589Y130469010D01*
X-51848368Y130631525D01*
X-51641525Y130838368D01*
X-51479010Y131081589D01*
X-51367068Y131351842D01*
X-51310000Y131638740D01*
X-51310000Y131931260D01*
X-50320000Y131931260D01*
X-50320000Y131638740D01*
X-50262932Y131351842D01*
X-50150990Y131081589D01*
X-49988475Y130838368D01*
X-49781632Y130631525D01*
X-49538411Y130469010D01*
X-49268158Y130357068D01*
X-48981260Y130300000D01*
X-48688740Y130300000D01*
X-48401842Y130357068D01*
X-48131589Y130469010D01*
X-47888368Y130631525D01*
X-47681525Y130838368D01*
X-47519010Y131081589D01*
X-47407068Y131351842D01*
X-47350000Y131638740D01*
X-47350000Y131931260D01*
X-46360000Y131931260D01*
X-46360000Y131638740D01*
X-46302932Y131351842D01*
X-46190990Y131081589D01*
X-46028475Y130838368D01*
X-45821632Y130631525D01*
X-45578411Y130469010D01*
X-45308158Y130357068D01*
X-45021260Y130300000D01*
X-44728740Y130300000D01*
X-44441842Y130357068D01*
X-44171589Y130469010D01*
X-43928368Y130631525D01*
X-43721525Y130838368D01*
X-43559010Y131081589D01*
X-43447068Y131351842D01*
X-43390000Y131638740D01*
X-43390000Y131931260D01*
X-42400000Y131931260D01*
X-42400000Y131638740D01*
X-42342932Y131351842D01*
X-42230990Y131081589D01*
X-42068475Y130838368D01*
X-41861632Y130631525D01*
X-41618411Y130469010D01*
X-41348158Y130357068D01*
X-41061260Y130300000D01*
X-40768740Y130300000D01*
X-40481842Y130357068D01*
X-40211589Y130469010D01*
X-39968368Y130631525D01*
X-39761525Y130838368D01*
X-39599010Y131081589D01*
X-39487068Y131351842D01*
X-39430000Y131638740D01*
X-39430000Y131931260D01*
X-38440000Y131931260D01*
X-38440000Y131638740D01*
X-38382932Y131351842D01*
X-38270990Y131081589D01*
X-38108475Y130838368D01*
X-37901632Y130631525D01*
X-37658411Y130469010D01*
X-37388158Y130357068D01*
X-37101260Y130300000D01*
X-36808740Y130300000D01*
X-36521842Y130357068D01*
X-36251589Y130469010D01*
X-36008368Y130631525D01*
X-35801525Y130838368D01*
X-35639010Y131081589D01*
X-35527068Y131351842D01*
X-35470000Y131638740D01*
X-35470000Y131931260D01*
X-34480000Y131931260D01*
X-34480000Y131638740D01*
X-34422932Y131351842D01*
X-34310990Y131081589D01*
X-34148475Y130838368D01*
X-33941632Y130631525D01*
X-33698411Y130469010D01*
X-33428158Y130357068D01*
X-33141260Y130300000D01*
X-32848740Y130300000D01*
X-32561842Y130357068D01*
X-32291589Y130469010D01*
X-32048368Y130631525D01*
X-31841525Y130838368D01*
X-31679010Y131081589D01*
X-31567068Y131351842D01*
X-31510000Y131638740D01*
X-31510000Y131931260D01*
X-30520000Y131931260D01*
X-30520000Y131638740D01*
X-30462932Y131351842D01*
X-30350990Y131081589D01*
X-30188475Y130838368D01*
X-29981632Y130631525D01*
X-29738411Y130469010D01*
X-29468158Y130357068D01*
X-29181260Y130300000D01*
X-28888740Y130300000D01*
X-28601842Y130357068D01*
X-28331589Y130469010D01*
X-28088368Y130631525D01*
X-27881525Y130838368D01*
X-27719010Y131081589D01*
X-27607068Y131351842D01*
X-27550000Y131638740D01*
X-27550000Y131931260D01*
X-26560000Y131931260D01*
X-26560000Y131638740D01*
X-26502932Y131351842D01*
X-26390990Y131081589D01*
X-26228475Y130838368D01*
X-26021632Y130631525D01*
X-25778411Y130469010D01*
X-25508158Y130357068D01*
X-25221260Y130300000D01*
X-24928740Y130300000D01*
X-24641842Y130357068D01*
X-24371589Y130469010D01*
X-24128368Y130631525D01*
X-23921525Y130838368D01*
X-23759010Y131081589D01*
X-23647068Y131351842D01*
X-23590000Y131638740D01*
X-23590000Y131931260D01*
X-22600000Y131931260D01*
X-22600000Y131638740D01*
X-22542932Y131351842D01*
X-22430990Y131081589D01*
X-22268475Y130838368D01*
X-22061632Y130631525D01*
X-21818411Y130469010D01*
X-21548158Y130357068D01*
X-21261260Y130300000D01*
X-20968740Y130300000D01*
X-20681842Y130357068D01*
X-20411589Y130469010D01*
X-20168368Y130631525D01*
X-19961525Y130838368D01*
X-19799010Y131081589D01*
X-19687068Y131351842D01*
X-19630000Y131638740D01*
X-19630000Y131931260D01*
X-18640000Y131931260D01*
X-18640000Y131638740D01*
X-18582932Y131351842D01*
X-18470990Y131081589D01*
X-18308475Y130838368D01*
X-18101632Y130631525D01*
X-17858411Y130469010D01*
X-17588158Y130357068D01*
X-17301260Y130300000D01*
X-17008740Y130300000D01*
X-16721842Y130357068D01*
X-16451589Y130469010D01*
X-16208368Y130631525D01*
X-16001525Y130838368D01*
X-15839010Y131081589D01*
X-15727068Y131351842D01*
X-15711898Y131428109D01*
X-14636481Y131428109D01*
X-14539157Y131153748D01*
X-14390178Y130903645D01*
X-14195269Y130687412D01*
X-13961920Y130513359D01*
X-13699099Y130388175D01*
X-13551890Y130343524D01*
X-13322000Y130464845D01*
X-13322000Y131658000D01*
X-13068000Y131658000D01*
X-13068000Y130464845D01*
X-12838110Y130343524D01*
X-12690901Y130388175D01*
X-12428080Y130513359D01*
X-12194731Y130687412D01*
X-11999822Y130903645D01*
X-11850843Y131153748D01*
X-11753519Y131428109D01*
X-10676481Y131428109D01*
X-10579157Y131153748D01*
X-10430178Y130903645D01*
X-10235269Y130687412D01*
X-10001920Y130513359D01*
X-9739099Y130388175D01*
X-9591890Y130343524D01*
X-9362000Y130464845D01*
X-9362000Y131658000D01*
X-9108000Y131658000D01*
X-9108000Y130464845D01*
X-8878110Y130343524D01*
X-8730901Y130388175D01*
X-8468080Y130513359D01*
X-8234731Y130687412D01*
X-8039822Y130903645D01*
X-7890843Y131153748D01*
X-7793519Y131428109D01*
X-7914186Y131658000D01*
X-9108000Y131658000D01*
X-9362000Y131658000D01*
X-10555814Y131658000D01*
X-10676481Y131428109D01*
X-11753519Y131428109D01*
X-11874186Y131658000D01*
X-13068000Y131658000D01*
X-13322000Y131658000D01*
X-14515814Y131658000D01*
X-14636481Y131428109D01*
X-15711898Y131428109D01*
X-15670000Y131638740D01*
X-15670000Y131931260D01*
X-15711897Y132141891D01*
X-14636481Y132141891D01*
X-14515814Y131912000D01*
X-13322000Y131912000D01*
X-13322000Y133105155D01*
X-13068000Y133105155D01*
X-13068000Y131912000D01*
X-11874186Y131912000D01*
X-11753519Y132141891D01*
X-10676481Y132141891D01*
X-10555814Y131912000D01*
X-9362000Y131912000D01*
X-9362000Y133105155D01*
X-9108000Y133105155D01*
X-9108000Y131912000D01*
X-7914186Y131912000D01*
X-7793519Y132141891D01*
X-7890843Y132416252D01*
X-8039822Y132666355D01*
X-8234731Y132882588D01*
X-8468080Y133056641D01*
X-8730901Y133181825D01*
X-8878110Y133226476D01*
X-9108000Y133105155D01*
X-9362000Y133105155D01*
X-9591890Y133226476D01*
X-9739099Y133181825D01*
X-10001920Y133056641D01*
X-10235269Y132882588D01*
X-10430178Y132666355D01*
X-10579157Y132416252D01*
X-10676481Y132141891D01*
X-11753519Y132141891D01*
X-11850843Y132416252D01*
X-11999822Y132666355D01*
X-12194731Y132882588D01*
X-12428080Y133056641D01*
X-12690901Y133181825D01*
X-12838110Y133226476D01*
X-13068000Y133105155D01*
X-13322000Y133105155D01*
X-13551890Y133226476D01*
X-13699099Y133181825D01*
X-13961920Y133056641D01*
X-14195269Y132882588D01*
X-14390178Y132666355D01*
X-14539157Y132416252D01*
X-14636481Y132141891D01*
X-15711897Y132141891D01*
X-15727068Y132218158D01*
X-15839010Y132488411D01*
X-16001525Y132731632D01*
X-16208368Y132938475D01*
X-16451589Y133100990D01*
X-16721842Y133212932D01*
X-17008740Y133270000D01*
X-17301260Y133270000D01*
X-17588158Y133212932D01*
X-17858411Y133100990D01*
X-18101632Y132938475D01*
X-18308475Y132731632D01*
X-18470990Y132488411D01*
X-18582932Y132218158D01*
X-18640000Y131931260D01*
X-19630000Y131931260D01*
X-19687068Y132218158D01*
X-19799010Y132488411D01*
X-19961525Y132731632D01*
X-20168368Y132938475D01*
X-20411589Y133100990D01*
X-20681842Y133212932D01*
X-20968740Y133270000D01*
X-21261260Y133270000D01*
X-21548158Y133212932D01*
X-21818411Y133100990D01*
X-22061632Y132938475D01*
X-22268475Y132731632D01*
X-22430990Y132488411D01*
X-22542932Y132218158D01*
X-22600000Y131931260D01*
X-23590000Y131931260D01*
X-23647068Y132218158D01*
X-23759010Y132488411D01*
X-23921525Y132731632D01*
X-24128368Y132938475D01*
X-24371589Y133100990D01*
X-24641842Y133212932D01*
X-24928740Y133270000D01*
X-25221260Y133270000D01*
X-25508158Y133212932D01*
X-25778411Y133100990D01*
X-26021632Y132938475D01*
X-26228475Y132731632D01*
X-26390990Y132488411D01*
X-26502932Y132218158D01*
X-26560000Y131931260D01*
X-27550000Y131931260D01*
X-27607068Y132218158D01*
X-27719010Y132488411D01*
X-27881525Y132731632D01*
X-28088368Y132938475D01*
X-28331589Y133100990D01*
X-28601842Y133212932D01*
X-28888740Y133270000D01*
X-29181260Y133270000D01*
X-29468158Y133212932D01*
X-29738411Y133100990D01*
X-29981632Y132938475D01*
X-30188475Y132731632D01*
X-30350990Y132488411D01*
X-30462932Y132218158D01*
X-30520000Y131931260D01*
X-31510000Y131931260D01*
X-31567068Y132218158D01*
X-31679010Y132488411D01*
X-31841525Y132731632D01*
X-32048368Y132938475D01*
X-32291589Y133100990D01*
X-32561842Y133212932D01*
X-32848740Y133270000D01*
X-33141260Y133270000D01*
X-33428158Y133212932D01*
X-33698411Y133100990D01*
X-33941632Y132938475D01*
X-34148475Y132731632D01*
X-34310990Y132488411D01*
X-34422932Y132218158D01*
X-34480000Y131931260D01*
X-35470000Y131931260D01*
X-35527068Y132218158D01*
X-35639010Y132488411D01*
X-35801525Y132731632D01*
X-36008368Y132938475D01*
X-36251589Y133100990D01*
X-36521842Y133212932D01*
X-36808740Y133270000D01*
X-37101260Y133270000D01*
X-37388158Y133212932D01*
X-37658411Y133100990D01*
X-37901632Y132938475D01*
X-38108475Y132731632D01*
X-38270990Y132488411D01*
X-38382932Y132218158D01*
X-38440000Y131931260D01*
X-39430000Y131931260D01*
X-39487068Y132218158D01*
X-39599010Y132488411D01*
X-39761525Y132731632D01*
X-39968368Y132938475D01*
X-40211589Y133100990D01*
X-40481842Y133212932D01*
X-40768740Y133270000D01*
X-41061260Y133270000D01*
X-41348158Y133212932D01*
X-41618411Y133100990D01*
X-41861632Y132938475D01*
X-42068475Y132731632D01*
X-42230990Y132488411D01*
X-42342932Y132218158D01*
X-42400000Y131931260D01*
X-43390000Y131931260D01*
X-43447068Y132218158D01*
X-43559010Y132488411D01*
X-43721525Y132731632D01*
X-43928368Y132938475D01*
X-44171589Y133100990D01*
X-44441842Y133212932D01*
X-44728740Y133270000D01*
X-45021260Y133270000D01*
X-45308158Y133212932D01*
X-45578411Y133100990D01*
X-45821632Y132938475D01*
X-46028475Y132731632D01*
X-46190990Y132488411D01*
X-46302932Y132218158D01*
X-46360000Y131931260D01*
X-47350000Y131931260D01*
X-47407068Y132218158D01*
X-47519010Y132488411D01*
X-47681525Y132731632D01*
X-47888368Y132938475D01*
X-48131589Y133100990D01*
X-48401842Y133212932D01*
X-48688740Y133270000D01*
X-48981260Y133270000D01*
X-49268158Y133212932D01*
X-49538411Y133100990D01*
X-49781632Y132938475D01*
X-49988475Y132731632D01*
X-50150990Y132488411D01*
X-50262932Y132218158D01*
X-50320000Y131931260D01*
X-51310000Y131931260D01*
X-51367068Y132218158D01*
X-51479010Y132488411D01*
X-51641525Y132731632D01*
X-51848368Y132938475D01*
X-52091589Y133100990D01*
X-52361842Y133212932D01*
X-52648740Y133270000D01*
X-52941260Y133270000D01*
X-53228158Y133212932D01*
X-53498411Y133100990D01*
X-53741632Y132938475D01*
X-53948475Y132731632D01*
X-54110990Y132488411D01*
X-54222932Y132218158D01*
X-54280000Y131931260D01*
X-55270000Y131931260D01*
X-55327068Y132218158D01*
X-55439010Y132488411D01*
X-55601525Y132731632D01*
X-55808368Y132938475D01*
X-56051589Y133100990D01*
X-56321842Y133212932D01*
X-56608740Y133270000D01*
X-56901260Y133270000D01*
X-57188158Y133212932D01*
X-57458411Y133100990D01*
X-57701632Y132938475D01*
X-57908475Y132731632D01*
X-58070990Y132488411D01*
X-58182932Y132218158D01*
X-58240000Y131931260D01*
X-59230000Y131931260D01*
X-59287068Y132218158D01*
X-59399010Y132488411D01*
X-59561525Y132731632D01*
X-59768368Y132938475D01*
X-60011589Y133100990D01*
X-60281842Y133212932D01*
X-60568740Y133270000D01*
X-60861260Y133270000D01*
X-61148158Y133212932D01*
X-61418411Y133100990D01*
X-61661632Y132938475D01*
X-61868475Y132731632D01*
X-62030990Y132488411D01*
X-62142932Y132218158D01*
X-62200000Y131931260D01*
X-63190000Y131931260D01*
X-63247068Y132218158D01*
X-63359010Y132488411D01*
X-63521525Y132731632D01*
X-63728368Y132938475D01*
X-63971589Y133100990D01*
X-64241842Y133212932D01*
X-64528740Y133270000D01*
X-64821260Y133270000D01*
X-65108158Y133212932D01*
X-65378411Y133100990D01*
X-65621632Y132938475D01*
X-65828475Y132731632D01*
X-65990990Y132488411D01*
X-66102932Y132218158D01*
X-66160000Y131931260D01*
X-67150000Y131931260D01*
X-67207068Y132218158D01*
X-67319010Y132488411D01*
X-67481525Y132731632D01*
X-67688368Y132938475D01*
X-67931589Y133100990D01*
X-68201842Y133212932D01*
X-68488740Y133270000D01*
X-68781260Y133270000D01*
X-69068158Y133212932D01*
X-69338411Y133100990D01*
X-69581632Y132938475D01*
X-69788475Y132731632D01*
X-69950990Y132488411D01*
X-70062932Y132218158D01*
X-70120000Y131931260D01*
X-71110000Y131931260D01*
X-71167068Y132218158D01*
X-71279010Y132488411D01*
X-71441525Y132731632D01*
X-71648368Y132938475D01*
X-71891589Y133100990D01*
X-72161842Y133212932D01*
X-72448740Y133270000D01*
X-72741260Y133270000D01*
X-73028158Y133212932D01*
X-73298411Y133100990D01*
X-73541632Y132938475D01*
X-73748475Y132731632D01*
X-73910990Y132488411D01*
X-74022932Y132218158D01*
X-74080000Y131931260D01*
X-75070000Y131931260D01*
X-75127068Y132218158D01*
X-75239010Y132488411D01*
X-75401525Y132731632D01*
X-75608368Y132938475D01*
X-75851589Y133100990D01*
X-76121842Y133212932D01*
X-76408740Y133270000D01*
X-76701260Y133270000D01*
X-76988158Y133212932D01*
X-77258411Y133100990D01*
X-77501632Y132938475D01*
X-77708475Y132731632D01*
X-77870990Y132488411D01*
X-77982932Y132218158D01*
X-78040000Y131931260D01*
X-79184077Y131931260D01*
X-79073519Y132141891D01*
X-79170843Y132416252D01*
X-79319822Y132666355D01*
X-79514731Y132882588D01*
X-79748080Y133056641D01*
X-80010901Y133181825D01*
X-80158110Y133226476D01*
X-80388000Y133105155D01*
X-80642000Y133105155D01*
X-80871890Y133226476D01*
X-81019099Y133181825D01*
X-81281920Y133056641D01*
X-81515269Y132882588D01*
X-81710178Y132666355D01*
X-81859157Y132416252D01*
X-81956481Y132141891D01*
X-83033519Y132141891D01*
X-83130843Y132416252D01*
X-83279822Y132666355D01*
X-83474731Y132882588D01*
X-83708080Y133056641D01*
X-83970901Y133181825D01*
X-84118110Y133226476D01*
X-84348000Y133105155D01*
X-84602000Y133105155D01*
X-84831890Y133226476D01*
X-84979099Y133181825D01*
X-85241920Y133056641D01*
X-85475269Y132882588D01*
X-85670178Y132666355D01*
X-85819157Y132416252D01*
X-85916481Y132141891D01*
X-86991897Y132141891D01*
X-87007068Y132218158D01*
X-87119010Y132488411D01*
X-87281525Y132731632D01*
X-87488368Y132938475D01*
X-87731589Y133100990D01*
X-88001842Y133212932D01*
X-88288740Y133270000D01*
X-88581260Y133270000D01*
X-88868158Y133212932D01*
X-89138411Y133100990D01*
X-89381632Y132938475D01*
X-89588475Y132731632D01*
X-89750990Y132488411D01*
X-89862932Y132218158D01*
X-89903985Y132011772D01*
X-90927920Y132021347D01*
X-90967068Y132218158D01*
X-91079010Y132488411D01*
X-91241525Y132731632D01*
X-91448368Y132938475D01*
X-91691589Y133100990D01*
X-91961842Y133212932D01*
X-92248740Y133270000D01*
X-92541260Y133270000D01*
X-92828158Y133212932D01*
X-93098411Y133100990D01*
X-93341632Y132938475D01*
X-93548475Y132731632D01*
X-93710990Y132488411D01*
X-93822932Y132218158D01*
X-93856632Y132048736D01*
X-94895300Y132058450D01*
X-94927068Y132218158D01*
X-95039010Y132488411D01*
X-95201525Y132731632D01*
X-95408368Y132938475D01*
X-95651589Y133100990D01*
X-95921842Y133212932D01*
X-96208740Y133270000D01*
X-96501260Y133270000D01*
X-96788158Y133212932D01*
X-97058411Y133100990D01*
X-97301632Y132938475D01*
X-97508475Y132731632D01*
X-97670990Y132488411D01*
X-97782932Y132218158D01*
X-97809279Y132085701D01*
X-98862680Y132095553D01*
X-98887068Y132218158D01*
X-98999010Y132488411D01*
X-99161525Y132731632D01*
X-99368368Y132938475D01*
X-99611589Y133100990D01*
X-99881842Y133212932D01*
X-100168740Y133270000D01*
X-100461260Y133270000D01*
X-100748158Y133212932D01*
X-101018411Y133100990D01*
X-101261632Y132938475D01*
X-101468475Y132731632D01*
X-101630990Y132488411D01*
X-101742932Y132218158D01*
X-101761927Y132122666D01*
X-102830060Y132132655D01*
X-102847068Y132218158D01*
X-102959010Y132488411D01*
X-103121525Y132731632D01*
X-103328368Y132938475D01*
X-103571589Y133100990D01*
X-103841842Y133212932D01*
X-104128740Y133270000D01*
X-104421260Y133270000D01*
X-104708158Y133212932D01*
X-104978411Y133100990D01*
X-105221632Y132938475D01*
X-105428475Y132731632D01*
X-105590990Y132488411D01*
X-105702932Y132218158D01*
X-105714574Y132159631D01*
X-106797441Y132169758D01*
X-106807068Y132218158D01*
X-106919010Y132488411D01*
X-107081525Y132731632D01*
X-107288368Y132938475D01*
X-107531589Y133100990D01*
X-107801842Y133212932D01*
X-108088740Y133270000D01*
X-108381260Y133270000D01*
X-108668158Y133212932D01*
X-108938411Y133100990D01*
X-109181632Y132938475D01*
X-109388475Y132731632D01*
X-109550990Y132488411D01*
X-109662932Y132218158D01*
X-109667221Y132196596D01*
X-110764821Y132206860D01*
X-110767068Y132218158D01*
X-110879010Y132488411D01*
X-111041525Y132731632D01*
X-111248368Y132938475D01*
X-111491589Y133100990D01*
X-111761842Y133212932D01*
X-112048740Y133270000D01*
X-112341260Y133270000D01*
X-112628158Y133212932D01*
X-112898411Y133100990D01*
X-113141632Y132938475D01*
X-113348475Y132731632D01*
X-113510990Y132488411D01*
X-113616565Y132233530D01*
X-114737778Y132244015D01*
X-114839010Y132488411D01*
X-115001525Y132731632D01*
X-115208368Y132938475D01*
X-115451589Y133100990D01*
X-115721842Y133212932D01*
X-116008740Y133270000D01*
X-116301260Y133270000D01*
X-116588158Y133212932D01*
X-116858411Y133100990D01*
X-117101632Y132938475D01*
X-117308475Y132731632D01*
X-117470990Y132488411D01*
X-117582932Y132218158D01*
X-117640000Y131931260D01*
X-117640000Y131638740D01*
X-117596210Y131418592D01*
X-126936002Y122078799D01*
X-126965000Y122055001D01*
X-126988798Y122026003D01*
X-126988799Y122026002D01*
X-127059974Y121939276D01*
X-127130546Y121807246D01*
X-127142970Y121766287D01*
X-127170734Y121674757D01*
X-127174002Y121663985D01*
X-127188676Y121515000D01*
X-127184999Y121477667D01*
X-127184999Y121182322D01*
X-127192333Y121168601D01*
X-127199560Y121144776D01*
X-127202000Y121119960D01*
X-127185000Y67687465D01*
X-127185000Y66172107D01*
X-131110107Y62247000D01*
X-171948000Y62247000D01*
X-171948000Y63100000D01*
X-131793639Y63100000D01*
X-131760000Y63096687D01*
X-131726361Y63100000D01*
X-131726353Y63100000D01*
X-131625717Y63109912D01*
X-131496594Y63149081D01*
X-131377593Y63212688D01*
X-131273289Y63298289D01*
X-131251840Y63324424D01*
X-128299422Y66276842D01*
X-128273289Y66298289D01*
X-128250955Y66325502D01*
X-128215292Y66368958D01*
X-128187688Y66402593D01*
X-128124170Y66521427D01*
X-128124081Y66521593D01*
X-128084912Y66650717D01*
X-128075018Y66751173D01*
X-128075000Y66751353D01*
X-128075000Y66751361D01*
X-128071687Y66785000D01*
X-128075000Y66818639D01*
X-128075000Y130935000D01*
X-125563072Y130935000D01*
X-125550812Y130810518D01*
X-125514502Y130690820D01*
X-125455537Y130580506D01*
X-125376185Y130483815D01*
X-125279494Y130404463D01*
X-125169180Y130345498D01*
X-125049482Y130309188D01*
X-124925000Y130296928D01*
X-124360750Y130300000D01*
X-124202000Y130458750D01*
X-124202000Y131658000D01*
X-123948000Y131658000D01*
X-123948000Y130458750D01*
X-123789250Y130300000D01*
X-123225000Y130296928D01*
X-123100518Y130309188D01*
X-122980820Y130345498D01*
X-122870506Y130404463D01*
X-122773815Y130483815D01*
X-122694463Y130580506D01*
X-122635498Y130690820D01*
X-122599188Y130810518D01*
X-122586928Y130935000D01*
X-122589612Y131428109D01*
X-121556481Y131428109D01*
X-121459157Y131153748D01*
X-121310178Y130903645D01*
X-121115269Y130687412D01*
X-120881920Y130513359D01*
X-120619099Y130388175D01*
X-120471890Y130343524D01*
X-120242000Y130464845D01*
X-120242000Y131658000D01*
X-119988000Y131658000D01*
X-119988000Y130464845D01*
X-119758110Y130343524D01*
X-119610901Y130388175D01*
X-119348080Y130513359D01*
X-119114731Y130687412D01*
X-118919822Y130903645D01*
X-118770843Y131153748D01*
X-118673519Y131428109D01*
X-118794186Y131658000D01*
X-119988000Y131658000D01*
X-120242000Y131658000D01*
X-121435814Y131658000D01*
X-121556481Y131428109D01*
X-122589612Y131428109D01*
X-122590000Y131499250D01*
X-122748750Y131658000D01*
X-123948000Y131658000D01*
X-124202000Y131658000D01*
X-125401250Y131658000D01*
X-125560000Y131499250D01*
X-125563072Y130935000D01*
X-128075000Y130935000D01*
X-128075000Y132635000D01*
X-125563072Y132635000D01*
X-125560000Y132070750D01*
X-125401250Y131912000D01*
X-124202000Y131912000D01*
X-124202000Y133111250D01*
X-123948000Y133111250D01*
X-123948000Y131912000D01*
X-122748750Y131912000D01*
X-122590000Y132070750D01*
X-122589613Y132141891D01*
X-121556481Y132141891D01*
X-121435814Y131912000D01*
X-120242000Y131912000D01*
X-120242000Y133105155D01*
X-119988000Y133105155D01*
X-119988000Y131912000D01*
X-118794186Y131912000D01*
X-118673519Y132141891D01*
X-118770843Y132416252D01*
X-118919822Y132666355D01*
X-119114731Y132882588D01*
X-119348080Y133056641D01*
X-119610901Y133181825D01*
X-119758110Y133226476D01*
X-119988000Y133105155D01*
X-120242000Y133105155D01*
X-120471890Y133226476D01*
X-120619099Y133181825D01*
X-120881920Y133056641D01*
X-121115269Y132882588D01*
X-121310178Y132666355D01*
X-121459157Y132416252D01*
X-121556481Y132141891D01*
X-122589613Y132141891D01*
X-122586928Y132635000D01*
X-122599188Y132759482D01*
X-122635498Y132879180D01*
X-122694463Y132989494D01*
X-122773815Y133086185D01*
X-122870506Y133165537D01*
X-122980820Y133224502D01*
X-123100518Y133260812D01*
X-123225000Y133273072D01*
X-123789250Y133270000D01*
X-123948000Y133111250D01*
X-124202000Y133111250D01*
X-124360750Y133270000D01*
X-124925000Y133273072D01*
X-125049482Y133260812D01*
X-125169180Y133224502D01*
X-125279494Y133165537D01*
X-125376185Y133086185D01*
X-125455537Y132989494D01*
X-125514502Y132879180D01*
X-125550812Y132759482D01*
X-125563072Y132635000D01*
X-128075000Y132635000D01*
X-128075000Y133501264D01*
X-125476228Y136100036D01*
X-6348701Y136114965D01*
X-3750000Y133516264D01*
G37*
%TD.AperFunction*%
%TD*%
M02*
