M48
; DRILL file {KiCad (5.1.9-0-10_14)} date Thursday, February 25, 2021 at 09:43:55 PM
; FORMAT={3:3/ absolute / metric / suppress leading zeros}
; #@! TF.CreationDate,2021-02-25T21:43:55+01:00
; #@! TF.GenerationSoftware,Kicad,Pcbnew,(5.1.9-0-10_14)
FMAT,2
METRIC,TZ
T1C1.317
T2C3.500
%
G90
G05
T1
X-124075Y131785
X-120115Y131785
X-116155Y131785
X-112195Y131785
X-108235Y131785
X-104275Y131785
X-100315Y131785
X-96355Y131785
X-92395Y131785
X-88435Y131785
X-84475Y131785
X-80515Y131785
X-76555Y131785
X-72595Y131785
X-68635Y131785
X-64675Y131785
X-60715Y131785
X-56755Y131785
X-52795Y131785
X-48835Y131785
X-44875Y131785
X-40915Y131785
X-36955Y131785
X-32995Y131785
X-29035Y131785
X-25075Y131785
X-21115Y131785
X-17155Y131785
X-13195Y131785
X-9235Y131785
T2
X-180275Y9780
X-180265Y-32220
X-161275Y-11220
X-161265Y51780
X-161265Y30780
X-161265Y-52220
X-131515Y9790
X-128515Y-32190
X-115785Y114770
X-115775Y93770
X-115775Y72770
X-109515Y30790
X-95285Y51770
X-90535Y-11230
X-90525Y-52230
X-81035Y-32230
X-66785Y30770
X-62025Y9770
X-57285Y114770
X-57285Y93770
X-57285Y72770
X-19275Y93770
X-19275Y51770
X-14535Y-52230
X-14525Y-11230
X9225Y30770
X13965Y9770
X18715Y-32230
X18725Y114770
X18725Y72770
X23475Y-11230
X56715Y93770
X56715Y51770
X56725Y114770
X56725Y-52230
X76975Y-32230
X85225Y30770
X89975Y9770
X94715Y114770
X94725Y72770
X99475Y-11230
X102465Y-52230
X127965Y-32230
X132725Y51770
X156215Y30780
X160715Y-32220
X160715Y-52220
X160725Y9780
X160725Y-11220
X179715Y51780
X198715Y9780
X198715Y-32220
X198725Y-11220
X217725Y51780
X217725Y-52220
X226735Y30780
X245725Y9780
X245735Y-32220
X264725Y51780
X302725Y-11220
X302725Y-32220
X302735Y9780
X302735Y-53220
T0
M30
