%TF.GenerationSoftware,KiCad,Pcbnew,(5.1.9-0-10_14)*%
%TF.CreationDate,2021-02-25T21:43:52+01:00*%
%TF.ProjectId,mtf122,6d746631-3232-42e6-9b69-6361645f7063,rev?*%
%TF.SameCoordinates,PXe1237f8PYe7db780*%
%TF.FileFunction,Copper,L2,Bot*%
%TF.FilePolarity,Positive*%
%FSLAX46Y46*%
G04 Gerber Fmt 4.6, Leading zero omitted, Abs format (unit mm)*
G04 Created by KiCad (PCBNEW (5.1.9-0-10_14)) date 2021-02-25 21:43:52*
%MOMM*%
%LPD*%
G01*
G04 APERTURE LIST*
%TA.AperFunction,Profile*%
%ADD10C,0.100000*%
%TD*%
%TA.AperFunction,SMDPad,CuDef*%
%ADD11R,6.985000X12.700000*%
%TD*%
%TA.AperFunction,SMDPad,CuDef*%
%ADD12C,1.000000*%
%TD*%
%TA.AperFunction,SMDPad,CuDef*%
%ADD13R,2.540000X5.080000*%
%TD*%
%TA.AperFunction,ComponentPad*%
%ADD14O,1.700000X1.700000*%
%TD*%
%TA.AperFunction,ComponentPad*%
%ADD15R,1.700000X1.700000*%
%TD*%
%TA.AperFunction,Conductor*%
%ADD16C,1.270000*%
%TD*%
%TA.AperFunction,Conductor*%
%ADD17C,0.250000*%
%TD*%
%TA.AperFunction,Conductor*%
%ADD18C,0.254000*%
%TD*%
%TA.AperFunction,Conductor*%
%ADD19C,0.150000*%
%TD*%
G04 APERTURE END LIST*
D10*
X119255000Y126830000D02*
X122255000Y123830000D01*
X-3065000Y129830000D02*
X-65000Y126830000D01*
X-6065000Y136800000D02*
X-3065000Y133800000D01*
X122255000Y123830000D02*
X122240000Y66785000D01*
X-125760000Y136785000D02*
X-6065000Y136800000D01*
X-65000Y126830000D02*
X119255000Y126830000D01*
X-3065000Y133800000D02*
X-3065000Y129830000D01*
X-131760000Y63785000D02*
X-128760000Y66785000D01*
X125240000Y63785000D02*
X122240000Y66785000D01*
X-128760000Y133785000D02*
X-125760000Y136785000D01*
X-128760000Y133785000D02*
X-128760000Y66785000D01*
X311240000Y60785000D02*
X308240000Y63785000D01*
X-188760000Y60785000D02*
X-185760000Y63785000D01*
X308240000Y-57215000D02*
X311240000Y-54215000D01*
X-185760000Y-57215000D02*
X-188760000Y-54215000D01*
X125240000Y63785000D02*
X308240000Y63785000D01*
X-188760000Y60785000D02*
X-188760000Y-54215000D01*
X-185760000Y-57215000D02*
X308240000Y-57215000D01*
X-185760000Y63785000D02*
X-131760000Y63785000D01*
X311240000Y60785000D02*
X311240000Y-54215000D01*
D11*
%TO.P,SW1,COL*%
%TO.N,COL_1*%
X-108887500Y104350000D03*
%TD*%
%TO.P,SW3,COL*%
%TO.N,COL_3*%
X-70887500Y104350000D03*
%TD*%
%TO.P,SW5,COL*%
%TO.N,COL_5*%
X-32887500Y104350000D03*
%TD*%
%TO.P,SW7,COL*%
%TO.N,COL_7*%
X5112500Y104350000D03*
%TD*%
%TO.P,SW9,COL*%
%TO.N,COL_9*%
X43112500Y104350000D03*
%TD*%
%TO.P,SW11,COL*%
%TO.N,COL_B*%
X81112500Y104350000D03*
%TD*%
%TO.P,SW13,COL*%
%TO.N,COL_1*%
X-108887500Y83350000D03*
%TD*%
%TO.P,SW15,COL*%
%TO.N,COL_3*%
X-70887500Y83350000D03*
%TD*%
%TO.P,SW17,COL*%
%TO.N,COL_5*%
X-32887500Y83350000D03*
%TD*%
%TO.P,SW19,COL*%
%TO.N,COL_7*%
X5112500Y83350000D03*
%TD*%
%TO.P,SW21,COL*%
%TO.N,COL_9*%
X43112500Y83350000D03*
%TD*%
%TO.P,SW23,COL*%
%TO.N,COL_B*%
X81112500Y83350000D03*
%TD*%
%TO.P,SW25,COL*%
%TO.N,COL_1*%
X-174887500Y41350000D03*
%TD*%
%TO.P,SW27,COL*%
%TO.N,COL_2*%
X-127887500Y41350000D03*
%TD*%
%TO.P,SW29,COL*%
%TO.N,COL_4*%
X-89887500Y41350000D03*
%TD*%
%TO.P,SW31,COL*%
%TO.N,COL_5*%
X-51887500Y41350000D03*
%TD*%
%TO.P,SW33,COL*%
%TO.N,COL_7*%
X-13887500Y41350000D03*
%TD*%
%TO.P,SW35,COL*%
%TO.N,COL_8*%
X24112500Y41350000D03*
%TD*%
%TO.P,SW37,COL*%
%TO.N,COL_9*%
X62112500Y41350000D03*
%TD*%
%TO.P,SW39,COL*%
%TO.N,COL_B*%
X100112500Y41350000D03*
%TD*%
%TO.P,SW42,COL*%
%TO.N,COL_D*%
X166112500Y41350000D03*
%TD*%
%TO.P,SW44,COL*%
%TO.N,COL_E*%
X204112500Y41350000D03*
%TD*%
%TO.P,SW46,COL*%
%TO.N,COL_F*%
X251112500Y41350000D03*
%TD*%
%TO.P,SW48,COL*%
%TO.N,COL_G*%
X289112500Y41350000D03*
%TD*%
%TO.P,SW49,COL*%
%TO.N,COL_1*%
X-174887500Y20350000D03*
%TD*%
%TO.P,SW51,COL*%
%TO.N,COL_2*%
X-123137500Y20350000D03*
%TD*%
%TO.P,SW52,COL*%
%TO.N,COL_3*%
X-99387500Y20350000D03*
%TD*%
%TO.P,SW53,COL*%
%TO.N,COL_4*%
X-80387500Y20350000D03*
%TD*%
%TO.P,SW56,COL*%
%TO.N,COL_6*%
X-23387500Y20350000D03*
%TD*%
%TO.P,SW57,COL*%
%TO.N,COL_7*%
X-4387500Y20350000D03*
%TD*%
%TO.P,SW60,COL*%
%TO.N,COL_9*%
X52612500Y20350000D03*
%TD*%
%TO.P,SW64,COL*%
%TO.N,COL_C*%
X133362500Y20350000D03*
%TD*%
%TO.P,SW66,COL*%
%TO.N,COL_D*%
X185112500Y20350000D03*
%TD*%
%TO.P,SW68,COL*%
%TO.N,COL_E*%
X232112500Y20350000D03*
%TD*%
%TO.P,SW71,COL*%
%TO.N,COL_G*%
X289112500Y20350000D03*
%TD*%
%TO.P,SW72,COL*%
%TO.N,COL_1*%
X-174887500Y-650000D03*
%TD*%
%TO.P,SW76,COL*%
%TO.N,COL_4*%
X-75637500Y-650000D03*
%TD*%
%TO.P,SW78,COL*%
%TO.N,COL_6*%
X-37637500Y-650000D03*
%TD*%
%TO.P,SW80,COL*%
%TO.N,COL_7*%
X362500Y-650000D03*
%TD*%
%TO.P,SW82,COL*%
%TO.N,COL_9*%
X38362500Y-650000D03*
%TD*%
%TO.P,SW84,COL*%
%TO.N,COL_A*%
X76362500Y-650000D03*
%TD*%
%TO.P,SW86,COL*%
%TO.N,COL_B*%
X114362500Y-650000D03*
%TD*%
%TO.P,SW88,COL*%
%TO.N,COL_D*%
X185112500Y-650000D03*
%TD*%
%TO.P,SW89,COL*%
%TO.N,COL_E*%
X232112500Y-650000D03*
%TD*%
%TO.P,SW91,COL*%
%TO.N,COL_F*%
X270112500Y-650000D03*
%TD*%
%TO.P,SW93,COL*%
%TO.N,COL_1*%
X-174887500Y-21650000D03*
%TD*%
%TO.P,SW96,COL*%
%TO.N,COL_3*%
X-104137500Y-21650000D03*
%TD*%
%TO.P,SW99,COL*%
%TO.N,COL_5*%
X-47137500Y-21650000D03*
%TD*%
%TO.P,SW100,COL*%
%TO.N,COL_6*%
X-28137500Y-21650000D03*
%TD*%
%TO.P,SW102,COL*%
%TO.N,COL_7*%
X9862500Y-21650000D03*
%TD*%
%TO.P,SW103,COL*%
%TO.N,COL_8*%
X28862500Y-21650000D03*
%TD*%
%TO.P,SW104,COL*%
%TO.N,COL_9*%
X47862500Y-21650000D03*
%TD*%
%TO.P,SW106,COL*%
%TO.N,COL_A*%
X85862500Y-21650000D03*
%TD*%
%TO.P,SW110,COL*%
%TO.N,COL_D*%
X185112500Y-21650000D03*
%TD*%
%TO.P,SW112,COL*%
%TO.N,COL_E*%
X232112500Y-21650000D03*
%TD*%
%TO.P,SW115,COL*%
%TO.N,COL_G*%
X289112500Y-21650000D03*
%TD*%
%TO.P,SW116,COL*%
%TO.N,COL_1*%
X-174887500Y-42650000D03*
%TD*%
%TO.P,SW119,COL*%
%TO.N,COL_4*%
X-75637500Y-42650000D03*
%TD*%
%TO.P,SW120,COL*%
%TO.N,COL_6*%
X5112500Y-42650000D03*
%TD*%
%TO.P,SW121,COL*%
%TO.N,COL_8*%
X85862500Y-42650000D03*
%TD*%
%TO.P,SW123,COL*%
%TO.N,COL_D*%
X185112500Y-42650000D03*
%TD*%
%TO.P,SW124,COL*%
%TO.N,COL_E*%
X232112500Y-42650000D03*
%TD*%
%TO.P,SW126,COL*%
%TO.N,COL_F*%
X270112500Y-42650000D03*
%TD*%
%TO.P,SW20,COL*%
%TO.N,COL_8*%
X32367500Y83350000D03*
%TD*%
%TO.P,SW8,COL*%
%TO.N,COL_8*%
X32367500Y104350000D03*
%TD*%
%TO.P,SW10,COL*%
%TO.N,COL_A*%
X70367500Y104350000D03*
%TD*%
%TO.P,SW6,COL*%
%TO.N,COL_6*%
X-5632500Y104350000D03*
%TD*%
%TO.P,SW22,COL*%
%TO.N,COL_A*%
X70367500Y83350000D03*
%TD*%
%TO.P,SW24,COL*%
%TO.N,COL_C*%
X108367500Y83350000D03*
%TD*%
%TO.P,SW18,COL*%
%TO.N,COL_6*%
X-5632500Y83350000D03*
%TD*%
%TO.P,SW2,COL*%
%TO.N,COL_2*%
X-81632500Y104350000D03*
%TD*%
%TO.P,SW16,COL*%
%TO.N,COL_4*%
X-43632500Y83350000D03*
%TD*%
%TO.P,SW4,COL*%
%TO.N,COL_4*%
X-43632500Y104350000D03*
%TD*%
%TO.P,SW12,COL*%
%TO.N,COL_C*%
X108367500Y104350000D03*
%TD*%
%TO.P,SW14,COL*%
%TO.N,COL_2*%
X-81632500Y83350000D03*
%TD*%
%TO.P,SW127,COL*%
%TO.N,COL_G*%
X297367500Y-42650000D03*
%TD*%
%TO.P,SW125,COL*%
%TO.N,COL_F*%
X259367500Y-42650000D03*
%TD*%
%TO.P,SW122,COL*%
%TO.N,COL_C*%
X141617500Y-42650000D03*
%TD*%
%TO.P,SW118,COL*%
%TO.N,COL_3*%
X-114882500Y-42650000D03*
%TD*%
%TO.P,SW117,COL*%
%TO.N,COL_2*%
X-147632500Y-42650000D03*
%TD*%
%TO.P,SW114,COL*%
%TO.N,COL_G*%
X278367500Y-21650000D03*
%TD*%
%TO.P,SW113,COL*%
%TO.N,COL_F*%
X259367500Y-21650000D03*
%TD*%
%TO.P,SW111,COL*%
%TO.N,COL_E*%
X212367500Y-21650000D03*
%TD*%
%TO.P,SW109,COL*%
%TO.N,COL_D*%
X174367500Y-21650000D03*
%TD*%
%TO.P,SW108,COL*%
%TO.N,COL_C*%
X137617500Y-21650000D03*
%TD*%
%TO.P,SW107,COL*%
%TO.N,COL_B*%
X113117500Y-21650000D03*
%TD*%
%TO.P,SW105,COL*%
%TO.N,COL_A*%
X75117500Y-21650000D03*
%TD*%
%TO.P,SW101,COL*%
%TO.N,COL_7*%
X-882500Y-21650000D03*
%TD*%
%TO.P,SW98,COL*%
%TO.N,COL_5*%
X-57882500Y-21650000D03*
%TD*%
%TO.P,SW97,COL*%
%TO.N,COL_4*%
X-76882500Y-21650000D03*
%TD*%
%TO.P,SW95,COL*%
%TO.N,COL_3*%
X-117257500Y-21650000D03*
%TD*%
%TO.P,SW94,COL*%
%TO.N,COL_2*%
X-147632500Y-21650000D03*
%TD*%
%TO.P,SW92,COL*%
%TO.N,COL_G*%
X297367500Y-650000D03*
%TD*%
%TO.P,SW90,COL*%
%TO.N,COL_F*%
X259367500Y-650000D03*
%TD*%
%TO.P,SW87,COL*%
%TO.N,COL_C*%
X143992500Y-650000D03*
%TD*%
%TO.P,SW85,COL*%
%TO.N,COL_B*%
X103617500Y-650000D03*
%TD*%
%TO.P,SW83,COL*%
%TO.N,COL_A*%
X65617500Y-650000D03*
%TD*%
%TO.P,SW81,COL*%
%TO.N,COL_8*%
X27617500Y-650000D03*
%TD*%
%TO.P,SW79,COL*%
%TO.N,COL_7*%
X-10382500Y-650000D03*
%TD*%
%TO.P,SW77,COL*%
%TO.N,COL_5*%
X-48382500Y-650000D03*
%TD*%
%TO.P,SW75,COL*%
%TO.N,COL_4*%
X-86382500Y-650000D03*
%TD*%
%TO.P,SW74,COL*%
%TO.N,COL_3*%
X-114882500Y-650000D03*
%TD*%
%TO.P,SW73,COL*%
%TO.N,COL_2*%
X-147632500Y-650000D03*
%TD*%
%TO.P,SW70,COL*%
%TO.N,COL_G*%
X278367500Y20350000D03*
%TD*%
%TO.P,SW69,COL*%
%TO.N,COL_F*%
X259367500Y20350000D03*
%TD*%
%TO.P,SW67,COL*%
%TO.N,COL_E*%
X212367500Y20350000D03*
%TD*%
%TO.P,SW65,COL*%
%TO.N,COL_D*%
X174367500Y20350000D03*
%TD*%
%TO.P,SW63,COL*%
%TO.N,COL_C*%
X117867500Y20350000D03*
%TD*%
%TO.P,SW62,COL*%
%TO.N,COL_B*%
X98867500Y20350000D03*
%TD*%
%TO.P,SW61,COL*%
%TO.N,COL_A*%
X79867500Y20350000D03*
%TD*%
%TO.P,SW59,COL*%
%TO.N,COL_9*%
X41867500Y20350000D03*
%TD*%
%TO.P,SW58,COL*%
%TO.N,COL_8*%
X22867500Y20350000D03*
%TD*%
%TO.P,SW55,COL*%
%TO.N,COL_6*%
X-34132500Y20350000D03*
%TD*%
%TO.P,SW54,COL*%
%TO.N,COL_5*%
X-53132500Y20350000D03*
%TD*%
%TO.P,SW50,COL*%
%TO.N,COL_2*%
X-147632500Y20350000D03*
%TD*%
%TO.P,SW47,COL*%
%TO.N,COL_G*%
X278367500Y41350000D03*
%TD*%
%TO.P,SW45,COL*%
%TO.N,COL_F*%
X240367500Y41350000D03*
%TD*%
%TO.P,SW43,COL*%
%TO.N,COL_E*%
X193367500Y41350000D03*
%TD*%
%TO.P,SW41,COL*%
%TO.N,COL_D*%
X146367500Y41350000D03*
%TD*%
%TO.P,SW40,COL*%
%TO.N,COL_C*%
X127367500Y41350000D03*
%TD*%
%TO.P,SW38,COL*%
%TO.N,COL_A*%
X89367500Y41350000D03*
%TD*%
%TO.P,SW36,COL*%
%TO.N,COL_9*%
X51367500Y41350000D03*
%TD*%
%TO.P,SW34,COL*%
%TO.N,COL_8*%
X13367500Y41350000D03*
%TD*%
%TO.P,SW32,COL*%
%TO.N,COL_6*%
X-24632500Y41350000D03*
%TD*%
%TO.P,SW30,COL*%
%TO.N,COL_5*%
X-62632500Y41350000D03*
%TD*%
%TO.P,SW28,COL*%
%TO.N,COL_3*%
X-100632500Y41350000D03*
%TD*%
%TO.P,SW26,COL*%
%TO.N,COL_1*%
X-147632500Y41350000D03*
%TD*%
D12*
%TO.P,COL_G_TP24,1*%
%TO.N,COL_G*%
X297375000Y-52560000D03*
%TD*%
%TO.P,COL_F_TP23,1*%
%TO.N,COL_F*%
X270105000Y-52500000D03*
%TD*%
%TO.P,COL_E_TP22,1*%
%TO.N,COL_E*%
X232135000Y-52480000D03*
%TD*%
%TO.P,COL_D_TP21,1*%
%TO.N,COL_D*%
X185115000Y-52500000D03*
%TD*%
%TO.P,COL_C_TP20,1*%
%TO.N,COL_C*%
X141615000Y-52960000D03*
%TD*%
%TO.P,COL_B_TP19,1*%
%TO.N,COL_B*%
X115305000Y-45920000D03*
%TD*%
%TO.P,COL_A_TP18,1*%
%TO.N,COL_A*%
X85865000Y-30100000D03*
%TD*%
%TO.P,COL_9_TP17,1*%
%TO.N,COL_9*%
X47865000Y-36210000D03*
%TD*%
%TO.P,COL_8_TP16,1*%
%TO.N,COL_8*%
X85875000Y-52810000D03*
%TD*%
%TO.P,COL_7_TP15,1*%
%TO.N,COL_7*%
X9875000Y-30200000D03*
%TD*%
%TO.P,COL_6_TP14,1*%
%TO.N,COL_6*%
X5125000Y-52860000D03*
%TD*%
%TO.P,COL_5_TP13,1*%
%TO.N,COL_5*%
X-57885000Y-30250000D03*
%TD*%
%TO.P,COL_4_TP12,1*%
%TO.N,COL_4*%
X-75585000Y-52890000D03*
%TD*%
%TO.P,COL_3_TP11,1*%
%TO.N,COL_3*%
X-114885000Y-52890000D03*
%TD*%
%TO.P,COL_2_TP10,1*%
%TO.N,COL_2*%
X-147645000Y-52870000D03*
%TD*%
%TO.P,COL_1_TP9,1*%
%TO.N,COL_1*%
X-174875000Y-52930000D03*
%TD*%
D13*
%TO.P,CAL1,COL*%
%TO.N,COL_B*%
X115295000Y-39150000D03*
%TD*%
D14*
%TO.P,J1,4*%
%TO.N,ROW_2*%
X-112195000Y131785000D03*
D15*
%TO.P,J1,1*%
%TO.N,GND*%
X-124075000Y131785000D03*
D14*
%TO.P,J1,2*%
X-120115000Y131785000D03*
%TO.P,J1,3*%
%TO.N,ROW_1*%
X-116155000Y131785000D03*
%TO.P,J1,5*%
%TO.N,ROW_3*%
X-108235000Y131785000D03*
%TO.P,J1,6*%
%TO.N,ROW_4*%
X-104275000Y131785000D03*
%TO.P,J1,7*%
%TO.N,ROW_5*%
X-100315000Y131785000D03*
%TO.P,J1,8*%
%TO.N,ROW_6*%
X-96355000Y131785000D03*
%TO.P,J1,9*%
%TO.N,ROW_7*%
X-92395000Y131785000D03*
%TO.P,J1,10*%
%TO.N,ROW_8*%
X-88435000Y131785000D03*
%TO.P,J1,11*%
%TO.N,GND*%
X-84475000Y131785000D03*
%TO.P,J1,12*%
X-80515000Y131785000D03*
%TO.P,J1,13*%
%TO.N,COL_1*%
X-76555000Y131785000D03*
%TO.P,J1,14*%
%TO.N,COL_2*%
X-72595000Y131785000D03*
%TO.P,J1,15*%
%TO.N,COL_3*%
X-68635000Y131785000D03*
%TO.P,J1,16*%
%TO.N,COL_4*%
X-64675000Y131785000D03*
%TO.P,J1,17*%
%TO.N,COL_5*%
X-60715000Y131785000D03*
%TO.P,J1,18*%
%TO.N,COL_6*%
X-56755000Y131785000D03*
%TO.P,J1,19*%
%TO.N,COL_7*%
X-52795000Y131785000D03*
%TO.P,J1,20*%
%TO.N,COL_8*%
X-48835000Y131785000D03*
%TO.P,J1,21*%
%TO.N,COL_9*%
X-44875000Y131785000D03*
%TO.P,J1,22*%
%TO.N,COL_A*%
X-40915000Y131785000D03*
%TO.P,J1,23*%
%TO.N,COL_B*%
X-36955000Y131785000D03*
%TO.P,J1,24*%
%TO.N,COL_C*%
X-32995000Y131785000D03*
%TO.P,J1,25*%
%TO.N,COL_D*%
X-29035000Y131785000D03*
%TO.P,J1,26*%
%TO.N,COL_E*%
X-25075000Y131785000D03*
%TO.P,J1,27*%
%TO.N,COL_F*%
X-21115000Y131785000D03*
%TO.P,J1,28*%
%TO.N,COL_G*%
X-17155000Y131785000D03*
%TO.P,J1,29*%
%TO.N,GND*%
X-13195000Y131785000D03*
%TO.P,J1,30*%
X-9235000Y131785000D03*
%TD*%
D16*
%TO.N,GND*%
X-84715001Y13331999D02*
X-84715001Y27368001D01*
X-84548001Y13164999D02*
X-84715001Y13331999D01*
X-79037010Y13164999D02*
X-84548001Y13164999D01*
X-79037010Y6535001D02*
X-79037010Y13164999D01*
X-79798001Y6535001D02*
X-79037010Y6535001D01*
X-79965001Y6368001D02*
X-79798001Y6535001D01*
X-79965001Y312010D02*
X-79965001Y6368001D01*
X-82054999Y312010D02*
X-79965001Y312010D01*
X-82054999Y6368001D02*
X-82054999Y312010D01*
X-82221999Y6535001D02*
X-82054999Y6368001D01*
X-90543001Y6535001D02*
X-82221999Y6535001D01*
X-90710001Y6368001D02*
X-90543001Y6535001D01*
X-90710001Y-7668001D02*
X-90710001Y6368001D01*
X-90543001Y-7835001D02*
X-90710001Y-7668001D01*
X-82221999Y-7835001D02*
X-90543001Y-7835001D01*
X-82054999Y-7668001D02*
X-82221999Y-7835001D01*
X-82054999Y-1612010D02*
X-82054999Y-7668001D01*
X-79965001Y-1612010D02*
X-82054999Y-1612010D01*
X-78159999Y-14464999D02*
X-78159999Y-13964999D01*
X-79965001Y-49668001D02*
X-79965001Y-35631999D01*
X-79965001Y-35631999D02*
X-79798001Y-35464999D01*
X-79798001Y-35464999D02*
X-76599510Y-35464999D01*
X-76599510Y-35464999D02*
X-76599510Y-28835001D01*
X-76599510Y-28835001D02*
X-81043001Y-28835001D01*
X-81043001Y-28835001D02*
X-81210001Y-28668001D01*
X-81210001Y-28668001D02*
X-81210001Y-14631999D01*
X-81210001Y-14631999D02*
X-81043001Y-14464999D01*
X-81043001Y-14464999D02*
X-78159999Y-14464999D01*
X-78159999Y-13964999D02*
X-77844510Y-13649510D01*
X-77844510Y-13649510D02*
X-77844510Y-7835001D01*
X-79798001Y-7835001D02*
X-79965001Y-7668001D01*
X-77844510Y-7835001D02*
X-79798001Y-7835001D01*
X-79965001Y-7668001D02*
X-79965001Y-1612010D01*
X265784999Y-49668001D02*
X265784999Y-43739999D01*
X265784999Y-43739999D02*
X265657010Y-43612010D01*
X265657010Y-43612010D02*
X263695001Y-43612010D01*
X263695001Y-43612010D02*
X263695001Y-49668001D01*
X-27203477Y-43612010D02*
X-25057010Y-43612010D01*
X-29099510Y-41715977D02*
X-27203477Y-43612010D01*
X-29099510Y-28835001D02*
X-29099510Y-41715977D01*
X30155976Y-41687990D02*
X29824510Y-41356524D01*
X81701999Y-35464999D02*
X81425000Y-35741998D01*
X90190001Y-35631999D02*
X90023001Y-35464999D01*
X29824510Y-41356524D02*
X29824510Y-28835001D01*
X90023001Y-49835001D02*
X90190001Y-49668001D01*
X90023001Y-35464999D02*
X81701999Y-35464999D01*
X90190001Y-49668001D02*
X90190001Y-35631999D01*
X81425000Y-35741998D02*
X81425000Y-41687990D01*
X81425000Y-41687990D02*
X30155976Y-41687990D01*
X-31030001Y-28835001D02*
X-46075000Y-28835001D01*
X-31030001Y-28835001D02*
X-29099510Y-28835001D01*
X30969999Y-28835001D02*
X45925000Y-28835001D01*
X29824510Y-28835001D02*
X30969999Y-28835001D01*
X180784999Y-49668001D02*
X180784999Y-48880000D01*
X145945001Y-48880000D02*
X145945001Y-49668001D01*
X263695001Y-49668001D02*
X263528001Y-49835001D01*
X265784999Y-48880000D02*
X265784999Y-49668001D01*
X263695001Y-49668001D02*
X263695001Y-48880000D01*
X29359023Y-43612010D02*
X31692990Y-43612010D01*
X-11075000Y-7880000D02*
X-11119999Y-7835001D01*
X-11075000Y-14464999D02*
X-11075000Y-7880000D01*
X-5043001Y-14464999D02*
X-11075000Y-14464999D01*
X-71476999Y-49835001D02*
X-72030001Y-49835001D01*
X88880001Y-49835001D02*
X90023001Y-49835001D01*
X180784999Y-48880000D02*
X145945001Y-48880000D01*
X263528001Y-49835001D02*
X257880001Y-49835001D01*
X271880001Y-49835001D02*
X294969999Y-49835001D01*
X293206999Y-49835001D02*
X294969999Y-49835001D01*
X-26807010Y-43612010D02*
X-25057010Y-43612010D01*
X-33030001Y-49835001D02*
X-26807010Y-43612010D01*
X-71476999Y-49835001D02*
X-33030001Y-49835001D01*
X31692990Y-43612010D02*
X29692990Y-43612010D01*
X-120075000Y131975000D02*
X-120265000Y131785000D01*
X9273001Y-35464999D02*
X951999Y-35464999D01*
X9440001Y-49668001D02*
X9440001Y-35631999D01*
X9440001Y-35631999D02*
X9273001Y-35464999D01*
X951999Y-35464999D02*
X784999Y-35631999D01*
X9273001Y-49835001D02*
X9440001Y-49668001D01*
X-13030000Y131620000D02*
X-13195000Y131785000D01*
X-9235000Y131785000D02*
X-9400000Y131620000D01*
X784999Y-37230000D02*
X784999Y-35631999D01*
X-1095000Y-37230000D02*
X784999Y-37230000D01*
X-1095000Y-37227510D02*
X-1095000Y-37230000D01*
X-1280149Y-37227510D02*
X-1095000Y-37227510D01*
X-1842510Y-36665149D02*
X-1280149Y-37227510D01*
X-5210001Y-28668001D02*
X-5043001Y-28835001D01*
X-1842510Y-28835001D02*
X-1842510Y-36665149D01*
X-5043001Y-28835001D02*
X-1842510Y-28835001D01*
X-5210001Y-14631999D02*
X-5210001Y-28668001D01*
X-5043001Y-14464999D02*
X-5210001Y-14631999D01*
X-172119999Y-49835001D02*
X-170726999Y-49835001D01*
X-163030001Y-49835001D02*
X-172119999Y-49835001D01*
X-162325000Y-49130000D02*
X-163030001Y-49835001D01*
X-160325000Y-49130000D02*
X-162325000Y-49130000D01*
X-159619999Y-49835001D02*
X-160325000Y-49130000D01*
X-148592510Y-49835001D02*
X-159619999Y-49835001D01*
X-148592510Y-51841708D02*
X-148592510Y-49835001D01*
X-148980001Y-52229199D02*
X-148592510Y-51841708D01*
X-148980001Y-53510801D02*
X-148980001Y-52229199D01*
X-148285801Y-54205001D02*
X-148980001Y-53510801D01*
X-147004199Y-54205001D02*
X-148285801Y-54205001D01*
X-146309999Y-52229199D02*
X-146309999Y-53510801D01*
X-146309999Y-53510801D02*
X-147004199Y-54205001D01*
X-146672490Y-51866708D02*
X-146309999Y-52229199D01*
X-146672490Y-49835001D02*
X-146672490Y-51866708D01*
X-143471999Y-49835001D02*
X-146672490Y-49835001D01*
X23131033Y-49840000D02*
X29359023Y-43612010D01*
X9278000Y-49840000D02*
X23131033Y-49840000D01*
X9273001Y-49835001D02*
X9278000Y-49840000D01*
X227784999Y-48880000D02*
X227784999Y-49668001D01*
X214925000Y-49835001D02*
X215880001Y-48880000D01*
X215880001Y-48880000D02*
X227784999Y-48880000D01*
X189275000Y-49840000D02*
X192425000Y-49840000D01*
X192429999Y-49835001D02*
X214925000Y-49835001D01*
X192425000Y-49840000D02*
X192429999Y-49835001D01*
X274273001Y-49835001D02*
X271880001Y-49835001D01*
X274278002Y-49830000D02*
X274273001Y-49835001D01*
X274845000Y-49830000D02*
X274278002Y-49830000D01*
X255206999Y-49835001D02*
X257880001Y-49835001D01*
X255039999Y-49668001D02*
X255206999Y-49835001D01*
X255039999Y-35631999D02*
X255039999Y-49668001D01*
X255206999Y-35464999D02*
X255039999Y-35631999D01*
X255039999Y-14631999D02*
X255039999Y-28668001D01*
X255206999Y-14464999D02*
X255039999Y-14631999D01*
X258405490Y-7835001D02*
X258405490Y-14464999D01*
X255039999Y-7668001D02*
X255206999Y-7835001D01*
X258405490Y13164999D02*
X258405490Y6535001D01*
X255039999Y27368001D02*
X255039999Y13331999D01*
X246951999Y34164999D02*
X252903224Y34164999D01*
X246784999Y34331999D02*
X246951999Y34164999D01*
X255039999Y6368001D02*
X255039999Y-7668001D01*
X246784999Y40387990D02*
X246784999Y34331999D01*
X236206999Y34164999D02*
X244528001Y34164999D01*
X236273001Y-35464999D02*
X233074510Y-35464999D01*
X244732990Y42312010D02*
X244695001Y42349999D01*
X244695001Y40387990D02*
X246784999Y40387990D01*
X246784999Y42312010D02*
X244732990Y42312010D01*
X246951999Y48535001D02*
X246784999Y48368001D01*
X250152490Y48535001D02*
X246951999Y48535001D01*
X252903224Y34164999D02*
X255509443Y27535001D01*
X246784999Y48368001D02*
X246784999Y42312010D01*
X236273001Y-14464999D02*
X233074510Y-14464999D01*
X227784999Y27368001D02*
X227784999Y21312010D01*
X244528001Y48535001D02*
X236206999Y48535001D01*
X244528001Y34164999D02*
X244695001Y34331999D01*
X233074510Y-28835001D02*
X236273001Y-28835001D01*
X227784999Y21312010D02*
X216695001Y21312010D01*
X250152490Y60500000D02*
X250152490Y48535001D01*
X205072510Y48535001D02*
X205072510Y60500000D01*
X207970557Y34164999D02*
X208273001Y34164999D01*
X255206999Y6535001D02*
X255039999Y6368001D01*
X210576776Y27535001D02*
X207970557Y34164999D01*
X255039999Y-28668001D02*
X255206999Y-28835001D01*
X216528001Y27535001D02*
X210576776Y27535001D01*
X255206999Y13164999D02*
X258405490Y13164999D01*
X208440001Y34331999D02*
X208440001Y48368001D01*
X208273001Y34164999D02*
X208440001Y34331999D01*
X216695001Y27368001D02*
X216528001Y27535001D01*
X236273001Y6535001D02*
X233074510Y6535001D01*
X216695001Y21312010D02*
X216695001Y27368001D01*
X258405490Y-14464999D02*
X255206999Y-14464999D01*
X236039999Y48368001D02*
X236039999Y34331999D01*
X236206999Y48535001D02*
X236039999Y48368001D01*
X236607001Y-49835001D02*
X236440001Y-49668001D01*
X244695001Y42349999D02*
X244695001Y48368001D01*
X208440001Y48368001D02*
X208273001Y48535001D01*
X227951999Y27535001D02*
X227784999Y27368001D01*
X258405490Y-35464999D02*
X255206999Y-35464999D01*
X236273001Y27535001D02*
X227951999Y27535001D01*
X208273001Y48535001D02*
X205072510Y48535001D01*
X236273001Y13164999D02*
X236440001Y13331999D01*
X233074510Y-14464999D02*
X233074510Y-7835001D01*
X236440001Y27368001D02*
X236273001Y27535001D01*
X255206999Y-7835001D02*
X258405490Y-7835001D01*
X236440001Y13331999D02*
X236440001Y27368001D01*
X233074510Y6535001D02*
X233074510Y13164999D01*
X233074510Y13164999D02*
X236273001Y13164999D01*
X258405490Y-28835001D02*
X258405490Y-35464999D01*
X236440001Y-14631999D02*
X236273001Y-14464999D01*
X236273001Y-28835001D02*
X236440001Y-28668001D01*
X258405490Y6535001D02*
X255206999Y6535001D01*
X255206999Y27535001D02*
X255039999Y27368001D01*
X236440001Y6368001D02*
X236273001Y6535001D01*
X255039999Y13331999D02*
X255206999Y13164999D01*
X205072510Y60500000D02*
X250152490Y60500000D01*
X257880001Y-49835001D02*
X236607001Y-49835001D01*
X233074510Y-7835001D02*
X236273001Y-7835001D01*
X236440001Y-35631999D02*
X236273001Y-35464999D01*
X255206999Y-28835001D02*
X258405490Y-28835001D01*
X244695001Y48368001D02*
X244528001Y48535001D01*
X255509443Y27535001D02*
X255206999Y27535001D01*
X236273001Y-7835001D02*
X236440001Y-7668001D01*
X236039999Y34331999D02*
X236206999Y34164999D01*
X236440001Y-49668001D02*
X236440001Y-35631999D01*
X236440001Y-7668001D02*
X236440001Y6368001D01*
X236440001Y-28668001D02*
X236440001Y-14631999D01*
X244695001Y34331999D02*
X244695001Y40387990D01*
X233074510Y-35464999D02*
X233074510Y-28835001D01*
X274440001Y-35631999D02*
X274440001Y-49668001D01*
X265784999Y-41687990D02*
X265784999Y-35631999D01*
X263528001Y-35464999D02*
X263695001Y-35631999D01*
X260329510Y-35464999D02*
X263528001Y-35464999D01*
X263528001Y-28835001D02*
X260329510Y-28835001D01*
X260329510Y-28835001D02*
X260329510Y-35464999D01*
X263695001Y-28668001D02*
X263528001Y-28835001D01*
X263528001Y-14464999D02*
X263695001Y-14631999D01*
X263528001Y-7835001D02*
X260329510Y-7835001D01*
X263695001Y-1612010D02*
X263695001Y-7668001D01*
X265784999Y-7668001D02*
X265784999Y-1612010D01*
X274440001Y6368001D02*
X274440001Y-7668001D01*
X265951999Y6535001D02*
X274273001Y6535001D01*
X260329510Y-14464999D02*
X263528001Y-14464999D01*
X265784999Y6368001D02*
X265951999Y6535001D01*
X263695001Y312010D02*
X265784999Y312010D01*
X263528001Y6535001D02*
X263695001Y6368001D01*
X265951999Y-35464999D02*
X274273001Y-35464999D01*
X260329510Y6535001D02*
X263528001Y6535001D01*
X260329510Y13164999D02*
X260329510Y6535001D01*
X265784999Y-1612010D02*
X263695001Y-1612010D01*
X263528001Y13164999D02*
X260329510Y13164999D01*
X263695001Y13331999D02*
X263528001Y13164999D01*
X263528001Y27535001D02*
X263695001Y27368001D01*
X263695001Y27368001D02*
X263695001Y13331999D01*
X257576776Y27535001D02*
X263528001Y27535001D01*
X263695001Y6368001D02*
X263695001Y312010D01*
X254970557Y34164999D02*
X257576776Y27535001D01*
X255273001Y34164999D02*
X254970557Y34164999D01*
X255273001Y48535001D02*
X255440001Y48368001D01*
X274039999Y27368001D02*
X274206999Y27535001D01*
X277407490Y48535001D02*
X277407490Y60950000D01*
X274206999Y-28835001D02*
X274039999Y-28668001D01*
X274206999Y48535001D02*
X277407490Y48535001D01*
X274039999Y48368001D02*
X274206999Y48535001D01*
X277405490Y34164999D02*
X274206999Y34164999D01*
X255440001Y48368001D02*
X255440001Y34331999D01*
X282528001Y-14464999D02*
X282695001Y-14631999D01*
X274206999Y27535001D02*
X277405490Y27535001D01*
X263695001Y-41687990D02*
X265784999Y-41687990D01*
X263695001Y-7668001D02*
X263528001Y-7835001D01*
X274440001Y-7668001D02*
X274273001Y-7835001D01*
X293509443Y6535001D02*
X290903223Y13164999D01*
X282528001Y13164999D02*
X274206999Y13164999D01*
X265784999Y312010D02*
X265784999Y6368001D01*
X282695001Y19387990D02*
X282695001Y13331999D01*
X284784999Y19387990D02*
X282695001Y19387990D01*
X274273001Y-7835001D02*
X265951999Y-7835001D01*
X284784999Y13331999D02*
X284784999Y19387990D01*
X284951999Y13164999D02*
X284784999Y13331999D01*
X274273001Y6535001D02*
X274440001Y6368001D01*
X282695001Y13331999D02*
X282528001Y13164999D01*
X290903223Y13164999D02*
X284951999Y13164999D01*
X282695001Y-28668001D02*
X282528001Y-28835001D01*
X293206999Y6535001D02*
X293509443Y6535001D01*
X263695001Y-14631999D02*
X263695001Y-28668001D01*
X293039999Y6368001D02*
X293206999Y6535001D01*
X293206999Y-7835001D02*
X293039999Y-7668001D01*
X293039999Y-7668001D02*
X293039999Y6368001D01*
X293509442Y-7835001D02*
X293206999Y-7835001D01*
X263695001Y-35631999D02*
X263695001Y-41687990D01*
X290903222Y-14464999D02*
X293509442Y-7835001D01*
X252072510Y60950000D02*
X252072510Y48535001D01*
X284784999Y-14631999D02*
X284951999Y-14464999D01*
X274039999Y-28668001D02*
X274039999Y-14631999D01*
X274039999Y-14631999D02*
X274206999Y-14464999D01*
X284951999Y-14464999D02*
X290903222Y-14464999D01*
X282695001Y-22612010D02*
X282695001Y-28668001D01*
X282528001Y-28835001D02*
X274206999Y-28835001D01*
X284784999Y-20687990D02*
X284784999Y-14631999D01*
X277405490Y27535001D02*
X277405490Y34164999D01*
X290903224Y-28835001D02*
X284951999Y-28835001D01*
X274206999Y-14464999D02*
X282528001Y-14464999D01*
X255440001Y34331999D02*
X255273001Y34164999D01*
X274039999Y34331999D02*
X274039999Y48368001D01*
X293039999Y-49668001D02*
X293039999Y-35631999D01*
X284784999Y-28668001D02*
X284784999Y-22612010D01*
X274440001Y-49668001D02*
X274273001Y-49835001D01*
X284951999Y-28835001D02*
X284784999Y-28668001D01*
X265951999Y-7835001D02*
X265784999Y-7668001D01*
X274206999Y34164999D02*
X274039999Y34331999D01*
X282695001Y-20687990D02*
X284784999Y-20687990D01*
X260329510Y-7835001D02*
X260329510Y-14464999D01*
X282695001Y-14631999D02*
X282695001Y-20687990D01*
X265784999Y-35631999D02*
X265951999Y-35464999D01*
X252072510Y48535001D02*
X255273001Y48535001D01*
X293509443Y-35464999D02*
X290903224Y-28835001D01*
X274273001Y-35464999D02*
X274440001Y-35631999D01*
X274206999Y13164999D02*
X274039999Y13331999D01*
X293206999Y-35464999D02*
X293509443Y-35464999D01*
X274039999Y13331999D02*
X274039999Y27368001D01*
X293039999Y-35631999D02*
X293206999Y-35464999D01*
X277407490Y60950000D02*
X252072510Y60950000D01*
X284784999Y-22612010D02*
X282695001Y-22612010D01*
X293206999Y-49835001D02*
X293039999Y-49668001D01*
X189440001Y-35631999D02*
X189440001Y-49668001D01*
X186074510Y-35464999D02*
X189273001Y-35464999D01*
X186074510Y-28835001D02*
X186074510Y-35464999D01*
X189440001Y-28668001D02*
X189273001Y-28835001D01*
X189273001Y-14464999D02*
X189440001Y-14631999D01*
X186074510Y-14464999D02*
X189273001Y-14464999D01*
X189273001Y6535001D02*
X189440001Y6368001D01*
X189273001Y-28835001D02*
X186074510Y-28835001D01*
X189273001Y13164999D02*
X186074510Y13164999D01*
X189440001Y27368001D02*
X189440001Y13331999D01*
X189273001Y27535001D02*
X189440001Y27368001D01*
X189440001Y6368001D02*
X189440001Y-7668001D01*
X178528001Y27535001D02*
X178695001Y27368001D01*
X172576777Y27535001D02*
X178528001Y27535001D01*
X169970557Y34164999D02*
X172576777Y27535001D01*
X180784999Y21312010D02*
X180784999Y27368001D01*
X170440001Y34331999D02*
X170273001Y34164999D01*
X189273001Y-7835001D02*
X186074510Y-7835001D01*
X178695001Y21312010D02*
X180784999Y21312010D01*
X170440001Y48368001D02*
X170440001Y34331999D01*
X199784999Y48368001D02*
X199951999Y48535001D01*
X197695001Y42312010D02*
X199784999Y42312010D01*
X197528001Y48535001D02*
X197695001Y48368001D01*
X189440001Y-49668001D02*
X189273001Y-49835001D01*
X189039999Y34331999D02*
X189039999Y48368001D01*
X189206999Y34164999D02*
X189039999Y34331999D01*
X197528001Y34164999D02*
X189206999Y34164999D01*
X186074510Y13164999D02*
X186074510Y6535001D01*
X199657010Y40387990D02*
X197695001Y40387990D01*
X186074510Y-7835001D02*
X186074510Y-14464999D01*
X203152490Y48535001D02*
X203152490Y60010000D01*
X199784999Y34331999D02*
X199784999Y40260001D01*
X189273001Y-35464999D02*
X189440001Y-35631999D01*
X199951999Y34164999D02*
X199784999Y34331999D01*
X170273001Y48535001D02*
X170440001Y48368001D01*
X167072510Y48535001D02*
X170273001Y48535001D01*
X208509443Y27535001D02*
X205903224Y34164999D01*
X199784999Y40260001D02*
X199657010Y40387990D01*
X208206999Y27535001D02*
X208509443Y27535001D01*
X208039999Y13331999D02*
X208039999Y27368001D01*
X199784999Y42312010D02*
X199784999Y48368001D01*
X208206999Y13164999D02*
X208039999Y13331999D01*
X216695001Y13331999D02*
X216528001Y13164999D01*
X216695001Y19387990D02*
X216695001Y13331999D01*
X178695001Y27368001D02*
X178695001Y21312010D01*
X227951999Y6535001D02*
X231150490Y6535001D01*
X208206999Y-14464999D02*
X216528001Y-14464999D01*
X227784999Y-14631999D02*
X227951999Y-14464999D01*
X170273001Y34164999D02*
X169970557Y34164999D01*
X227784999Y-20687990D02*
X227784999Y-14631999D01*
X189206999Y48535001D02*
X197528001Y48535001D01*
X231150490Y-28835001D02*
X227951999Y-28835001D01*
X227951999Y-35464999D02*
X231150490Y-35464999D01*
X216695001Y-14631999D02*
X216695001Y-20687990D01*
X197695001Y34331999D02*
X197528001Y34164999D01*
X231150490Y6535001D02*
X231150490Y13164999D01*
X231150490Y-7835001D02*
X227951999Y-7835001D01*
X208039999Y-14631999D02*
X208206999Y-14464999D01*
X227951999Y-14464999D02*
X231150490Y-14464999D01*
X216528001Y-28835001D02*
X208206999Y-28835001D01*
X208039999Y-28668001D02*
X208039999Y-14631999D01*
X231150490Y13164999D02*
X227951999Y13164999D01*
X216528001Y13164999D02*
X208206999Y13164999D01*
X199951999Y48535001D02*
X203152490Y48535001D01*
X227951999Y13164999D02*
X227784999Y13331999D01*
X227784999Y13331999D02*
X227784999Y19387990D01*
X189440001Y-7668001D02*
X189273001Y-7835001D01*
X208206999Y-28835001D02*
X208039999Y-28668001D01*
X227951999Y-28835001D02*
X227784999Y-28668001D01*
X216695001Y-22612010D02*
X216695001Y-28668001D01*
X227784999Y-49668001D02*
X227784999Y-35631999D01*
X227784999Y-22612010D02*
X216695001Y-22612010D01*
X167072510Y60010000D02*
X167072510Y48535001D01*
X216528001Y-14464999D02*
X216695001Y-14631999D01*
X227784999Y19387990D02*
X216695001Y19387990D01*
X197695001Y48368001D02*
X197695001Y42312010D01*
X227784999Y6368001D02*
X227951999Y6535001D01*
X189039999Y48368001D02*
X189206999Y48535001D01*
X216695001Y-28668001D02*
X216528001Y-28835001D01*
X189440001Y13331999D02*
X189273001Y13164999D01*
X180784999Y27368001D02*
X180951999Y27535001D01*
X216695001Y-20687990D02*
X227784999Y-20687990D01*
X227951999Y-7835001D02*
X227784999Y-7668001D01*
X203152490Y60010000D02*
X167072510Y60010000D01*
X231150490Y-14464999D02*
X231150490Y-7835001D01*
X227784999Y-7668001D02*
X227784999Y6368001D01*
X189440001Y-14631999D02*
X189440001Y-28668001D01*
X180951999Y27535001D02*
X189273001Y27535001D01*
X231150490Y-35464999D02*
X231150490Y-28835001D01*
X197695001Y40387990D02*
X197695001Y34331999D01*
X227784999Y-35631999D02*
X227951999Y-35464999D01*
X208039999Y27368001D02*
X208206999Y27535001D01*
X227784999Y-28668001D02*
X227784999Y-22612010D01*
X186074510Y6535001D02*
X189273001Y6535001D01*
X205903224Y34164999D02*
X199951999Y34164999D01*
X184150490Y-35464999D02*
X180951999Y-35464999D01*
X184150490Y-28835001D02*
X184150490Y-35464999D01*
X180784999Y-35631999D02*
X180784999Y-49668001D01*
X180784999Y-28668001D02*
X180951999Y-28835001D01*
X178528001Y-28835001D02*
X178695001Y-28668001D01*
X178695001Y-14631999D02*
X178528001Y-14464999D01*
X178695001Y-20687990D02*
X178695001Y-14631999D01*
X178695001Y-22612010D02*
X180784999Y-22612010D01*
X180617010Y-20687990D02*
X178695001Y-20687990D01*
X180617010Y-14687990D02*
X180617010Y-20687990D01*
X184150490Y-14464999D02*
X180840001Y-14464999D01*
X184150490Y-7835001D02*
X184150490Y-14464999D01*
X178528001Y-14464999D02*
X170206999Y-14464999D01*
X184150490Y6535001D02*
X180951999Y6535001D01*
X109335000Y122650000D02*
X117375000Y122650000D01*
X180951999Y13164999D02*
X184150490Y13164999D01*
X180784999Y13331999D02*
X180951999Y13164999D01*
X180784999Y19387990D02*
X180784999Y13331999D01*
X180840001Y-14464999D02*
X180617010Y-14687990D01*
X178695001Y13331999D02*
X178695001Y19387990D01*
X118084682Y65790876D02*
X118084489Y65065013D01*
X178528001Y13164999D02*
X178695001Y13331999D01*
X142206999Y34164999D02*
X150528001Y34164999D01*
X180784999Y-7668001D02*
X180951999Y-7835001D01*
X170206999Y13164999D02*
X178528001Y13164999D01*
X170039999Y27368001D02*
X170039999Y13331999D01*
X170039999Y-14631999D02*
X170039999Y-28668001D01*
X180951999Y6535001D02*
X180784999Y6368001D01*
X117375000Y122650000D02*
X118084682Y121940318D01*
X170509443Y27535001D02*
X170206999Y27535001D01*
X167903224Y34164999D02*
X170509443Y27535001D01*
X170206999Y-28835001D02*
X178528001Y-28835001D01*
X161784999Y34331999D02*
X161951999Y34164999D01*
X170039999Y-28668001D02*
X170206999Y-28835001D01*
X161784999Y40387990D02*
X161784999Y34331999D01*
X170206999Y-14464999D02*
X170039999Y-14631999D01*
X142039999Y48368001D02*
X142039999Y34331999D01*
X118084682Y121940318D02*
X118084682Y65790876D01*
X150695001Y34331999D02*
X150695001Y40387990D01*
X180951999Y-35464999D02*
X180784999Y-35631999D01*
X161784999Y42312010D02*
X150695001Y42312010D01*
X161784999Y48368001D02*
X161784999Y42312010D01*
X170039999Y13331999D02*
X170206999Y13164999D01*
X118084489Y65065013D02*
X118525000Y64624266D01*
X161951999Y48535001D02*
X161784999Y48368001D01*
X165152489Y48535001D02*
X161951999Y48535001D01*
X150695001Y48368001D02*
X150528001Y48535001D01*
X150528001Y34164999D02*
X150695001Y34331999D01*
X178695001Y-28668001D02*
X178695001Y-22612010D01*
X184150490Y13164999D02*
X184150490Y6535001D01*
X123575000Y59560000D02*
X165152489Y59560000D01*
X142206999Y48535001D02*
X142039999Y48368001D01*
X118525000Y64624266D02*
X118525000Y64610000D01*
X150695001Y40387990D02*
X161784999Y40387990D01*
X118525000Y64610000D02*
X123575000Y59560000D01*
X165152489Y59560000D02*
X165152489Y48535001D01*
X178695001Y19387990D02*
X180784999Y19387990D01*
X109335000Y111680000D02*
X109335000Y122650000D01*
X150695001Y42312010D02*
X150695001Y48368001D01*
X142039999Y34331999D02*
X142206999Y34164999D01*
X180784999Y6368001D02*
X180784999Y-7668001D01*
X170206999Y27535001D02*
X170039999Y27368001D01*
X150528001Y48535001D02*
X142206999Y48535001D01*
X180951999Y-28835001D02*
X184150490Y-28835001D01*
X180784999Y-22612010D02*
X180784999Y-28668001D01*
X109415000Y111600000D02*
X109335000Y111680000D01*
X180951999Y-7835001D02*
X184150490Y-7835001D01*
X161951999Y34164999D02*
X167903224Y34164999D01*
X114332990Y-35774999D02*
X113356999Y-35774999D01*
X108789999Y-28668001D02*
X108956999Y-28835001D01*
X108956999Y-14464999D02*
X108789999Y-14631999D01*
X112155490Y-7835001D02*
X112155490Y-14464999D01*
X110034999Y-7668001D02*
X110201999Y-7835001D01*
X110201999Y-7835001D02*
X112155490Y-7835001D01*
X107945001Y-1612010D02*
X110034999Y-1612010D01*
X107778001Y-7835001D02*
X107945001Y-7668001D01*
X99289999Y6368001D02*
X99289999Y-7668001D01*
X100462990Y6535001D02*
X99456999Y6535001D01*
X94706999Y13164999D02*
X100462990Y13164999D01*
X94539999Y13331999D02*
X94706999Y13164999D01*
X94706999Y27535001D02*
X94539999Y27368001D01*
X97905490Y34164999D02*
X97905490Y27535001D01*
X95951999Y34164999D02*
X97905490Y34164999D01*
X95784999Y34331999D02*
X95951999Y34164999D01*
X95951999Y48535001D02*
X95784999Y48368001D01*
X99150490Y52534024D02*
X99150490Y48535001D01*
X80150490Y71534023D02*
X99150490Y52534024D01*
X80150490Y76164999D02*
X80150490Y71534023D01*
X76784999Y76331999D02*
X76951999Y76164999D01*
X76951999Y90535001D02*
X76784999Y90368001D01*
X80150490Y90535001D02*
X76951999Y90535001D01*
X80150490Y97164999D02*
X80150490Y90535001D01*
X76951999Y97164999D02*
X80150490Y97164999D01*
X107945001Y-7668001D02*
X107945001Y-1612010D01*
X99456999Y-7835001D02*
X107778001Y-7835001D01*
X99289999Y-7668001D02*
X99456999Y-7835001D01*
X76784999Y97331999D02*
X76951999Y97164999D01*
X100462990Y13164999D02*
X100462990Y6535001D01*
X76784999Y111368001D02*
X76784999Y97331999D01*
X76951999Y111535001D02*
X76784999Y111368001D01*
X108956999Y-28835001D02*
X114332990Y-28835001D01*
X80150490Y111535001D02*
X76951999Y111535001D01*
X74528001Y90535001D02*
X71329510Y90535001D01*
X74695001Y76331999D02*
X74695001Y90368001D01*
X114332990Y-28835001D02*
X114332990Y-35774999D01*
X71329510Y111535001D02*
X71329510Y121690000D01*
X84195001Y27368001D02*
X84028001Y27535001D01*
X90329510Y48535001D02*
X90329510Y53518477D01*
X112155490Y-14464999D02*
X108956999Y-14464999D01*
X110034999Y-1612010D02*
X110034999Y-7668001D01*
X93695001Y48368001D02*
X93528001Y48535001D01*
X87330486Y34164999D02*
X93528001Y34164999D01*
X86823477Y33657990D02*
X87330486Y34164999D01*
X108789999Y-14631999D02*
X108789999Y-28668001D01*
X71329510Y97164999D02*
X74528001Y97164999D01*
X99150490Y48535001D02*
X95951999Y48535001D01*
X74695001Y90368001D02*
X74528001Y90535001D01*
X113356999Y-35774999D02*
X113189999Y-35941999D01*
X84323476Y33657990D02*
X86823477Y33657990D01*
X94539999Y27368001D02*
X94539999Y13331999D01*
X80829510Y30164024D02*
X84323476Y33657990D01*
X74695001Y97331999D02*
X74695001Y111368001D01*
X80523001Y-7835001D02*
X80690001Y-7668001D01*
X93528001Y48535001D02*
X90329510Y48535001D01*
X84195001Y13331999D02*
X84195001Y27368001D01*
X84028001Y27535001D02*
X80829510Y27535001D01*
X84028001Y13164999D02*
X84195001Y13331999D01*
X76951999Y76164999D02*
X80150490Y76164999D01*
X93695001Y34331999D02*
X93695001Y48368001D01*
X93528001Y34164999D02*
X93695001Y34331999D01*
X74528001Y111535001D02*
X71329510Y111535001D01*
X80829510Y27535001D02*
X80829510Y30164024D01*
X74695001Y111368001D02*
X74528001Y111535001D01*
X80690001Y6368001D02*
X80523001Y6535001D01*
X90023001Y-14464999D02*
X81701999Y-14464999D01*
X90329510Y53518477D02*
X71329510Y72518476D01*
X78887010Y13164999D02*
X84028001Y13164999D01*
X80690001Y-7668001D02*
X80690001Y6368001D01*
X78887010Y6535001D02*
X78887010Y13164999D01*
X80150490Y121690000D02*
X80150490Y111535001D01*
X71329510Y121690000D02*
X80150490Y121690000D01*
X76784999Y90368001D02*
X76784999Y76331999D01*
X81701999Y-14464999D02*
X81534999Y-14631999D01*
X80523001Y6535001D02*
X78887010Y6535001D01*
X71329510Y90535001D02*
X71329510Y97164999D01*
X90190001Y-28668001D02*
X90190001Y-14631999D01*
X79445001Y-20687990D02*
X79445001Y-14631999D01*
X76079510Y-7835001D02*
X80523001Y-7835001D01*
X76079510Y-14464999D02*
X76079510Y-7835001D01*
X113189999Y-35941999D02*
X113189999Y-42358001D01*
X71329510Y76164999D02*
X74528001Y76164999D01*
X74528001Y76164999D02*
X74695001Y76331999D01*
X97905490Y27535001D02*
X94706999Y27535001D01*
X81534999Y-20687990D02*
X79445001Y-20687990D01*
X79278001Y-14464999D02*
X76079510Y-14464999D01*
X79445001Y-14631999D02*
X79278001Y-14464999D01*
X99456999Y6535001D02*
X99289999Y6368001D01*
X81534999Y-14631999D02*
X81534999Y-20687990D01*
X90190001Y-14631999D02*
X90023001Y-14464999D01*
X95784999Y48368001D02*
X95784999Y34331999D01*
X74528001Y97164999D02*
X74695001Y97331999D01*
X71329510Y72518476D02*
X71329510Y76164999D01*
X90023001Y-28835001D02*
X90190001Y-28668001D01*
X27900490Y-42153477D02*
X29359023Y-43612010D01*
X27900490Y-28835001D02*
X27900490Y-42153477D01*
X24701999Y-28835001D02*
X27900490Y-28835001D01*
X24534999Y-28668001D02*
X24701999Y-28835001D01*
X27900490Y-7855490D02*
X27900490Y-14464999D01*
X23477488Y-7855490D02*
X27900490Y-7855490D01*
X23289999Y6368001D02*
X23289999Y-7668001D01*
X23456999Y6535001D02*
X23289999Y6368001D01*
X24462990Y6535001D02*
X23456999Y6535001D01*
X18539999Y13331999D02*
X18706999Y13164999D01*
X18706999Y27535001D02*
X18539999Y27368001D01*
X21905490Y27535001D02*
X18706999Y27535001D01*
X18539999Y27368001D02*
X18539999Y13331999D01*
X21905490Y34164999D02*
X21905490Y27535001D01*
X17695001Y40387990D02*
X19784999Y40387990D01*
X17695001Y34331999D02*
X17695001Y40387990D01*
X9039999Y34331999D02*
X9206999Y34164999D01*
X17528001Y48535001D02*
X9206999Y48535001D01*
X23150490Y48535001D02*
X19951999Y48535001D01*
X31405490Y66773476D02*
X23150490Y58518477D01*
X31405490Y76164999D02*
X31405490Y66773476D01*
X28039999Y76331999D02*
X28206999Y76164999D01*
X28039999Y90368001D02*
X28039999Y76331999D01*
X24534999Y-14631999D02*
X24534999Y-28668001D01*
X24701999Y-14464999D02*
X24534999Y-14631999D01*
X28206999Y90535001D02*
X28039999Y90368001D01*
X17528001Y34164999D02*
X17695001Y34331999D01*
X31405490Y90535001D02*
X28206999Y90535001D01*
X28206999Y97164999D02*
X31405490Y97164999D01*
X28039999Y97331999D02*
X28206999Y97164999D01*
X-59999Y27368001D02*
X-226999Y27535001D01*
X28206999Y111535001D02*
X28039999Y111368001D01*
X14023001Y-28835001D02*
X14190001Y-28668001D01*
X31405490Y120240000D02*
X31405490Y111535001D01*
X18706999Y13164999D02*
X24462990Y13164999D01*
X4523001Y6535001D02*
X-1112990Y6535001D01*
X-9559999Y48368001D02*
X-9726999Y48535001D01*
X6074510Y120240000D02*
X31405490Y120240000D01*
X9273001Y111535001D02*
X6074510Y111535001D01*
X28206999Y76164999D02*
X31405490Y76164999D01*
X6074510Y111535001D02*
X6074510Y120240000D01*
X17695001Y48368001D02*
X17528001Y48535001D01*
X6074510Y97164999D02*
X9273001Y97164999D01*
X9440001Y76331999D02*
X9440001Y90368001D01*
X9273001Y76164999D02*
X9440001Y76331999D01*
X-12925490Y48535001D02*
X-12925490Y52721524D01*
X9440001Y97331999D02*
X9440001Y111368001D01*
X19951999Y34164999D02*
X21905490Y34164999D01*
X19784999Y34331999D02*
X19951999Y34164999D01*
X6074510Y76164999D02*
X9273001Y76164999D01*
X6074510Y90535001D02*
X6074510Y97164999D01*
X27900490Y-14464999D02*
X24701999Y-14464999D01*
X19784999Y40387990D02*
X19784999Y34331999D01*
X-12925490Y52721524D02*
X6074510Y71721523D01*
X-9559999Y34331999D02*
X-9559999Y48368001D01*
X-9626665Y34265334D02*
X-9559999Y34331999D01*
X23289999Y-7668001D02*
X23477488Y-7855490D01*
X19784999Y42312010D02*
X17695001Y42312010D01*
X19784999Y48368001D02*
X19784999Y42312010D01*
X31405490Y97164999D02*
X31405490Y90535001D01*
X14023001Y-14464999D02*
X5701999Y-14464999D01*
X-226999Y27535001D02*
X-6581990Y27535001D01*
X23150490Y58518477D02*
X23150490Y48535001D01*
X9273001Y90535001D02*
X6074510Y90535001D01*
X3278001Y-14464999D02*
X2925000Y-14464999D01*
X5701999Y-14464999D02*
X5534999Y-14631999D01*
X-1112990Y6535001D02*
X-1112990Y13164999D01*
X-59999Y13331999D02*
X-59999Y27368001D01*
X9440001Y90368001D02*
X9273001Y90535001D01*
X9206999Y34164999D02*
X17528001Y34164999D01*
X-1112990Y13164999D02*
X-226999Y13164999D01*
X2925000Y-7835001D02*
X4523001Y-7835001D01*
X4690001Y-7668001D02*
X4690001Y6368001D01*
X9206999Y48535001D02*
X9039999Y48368001D01*
X2925000Y-14464999D02*
X2925000Y-7835001D01*
X4523001Y-7835001D02*
X4690001Y-7668001D01*
X9039999Y48368001D02*
X9039999Y34331999D01*
X-6581990Y27535001D02*
X-9626665Y34265334D01*
X3445001Y-14631999D02*
X3278001Y-14464999D01*
X5534999Y-20687990D02*
X3445001Y-20687990D01*
X28039999Y111368001D02*
X28039999Y97331999D01*
X-9726999Y48535001D02*
X-12925490Y48535001D01*
X19951999Y48535001D02*
X19784999Y48368001D01*
X5534999Y-14631999D02*
X5534999Y-20687990D01*
X-226999Y13164999D02*
X-59999Y13331999D01*
X4690001Y6368001D02*
X4523001Y6535001D01*
X14190001Y-28668001D02*
X14190001Y-14631999D01*
X9440001Y111368001D02*
X9273001Y111535001D01*
X9273001Y97164999D02*
X9440001Y97331999D01*
X24462990Y13164999D02*
X24462990Y6535001D01*
X14190001Y-14631999D02*
X14023001Y-14464999D01*
X17695001Y42312010D02*
X17695001Y48368001D01*
X31405490Y111535001D02*
X28206999Y111535001D01*
X6074510Y71721523D02*
X6074510Y76164999D01*
X3445001Y-20687990D02*
X3445001Y-14631999D01*
X925000Y-14464999D02*
X-5043001Y-14464999D01*
X925000Y-7835001D02*
X925000Y-14464999D01*
X-6054999Y3120000D02*
X-3965001Y3120000D01*
X-6221999Y-7835001D02*
X-6054999Y-7668001D01*
X-14710001Y-7668001D02*
X-14543001Y-7835001D01*
X-14710001Y6368001D02*
X-14710001Y-7668001D01*
X-6221999Y6535001D02*
X-14543001Y6535001D01*
X-6054999Y5120000D02*
X-6054999Y6368001D01*
X-3798001Y6535001D02*
X-4075000Y6258002D01*
X-14543001Y6535001D02*
X-14710001Y6368001D01*
X-3037010Y13164999D02*
X-3037010Y6535001D01*
X-8548001Y13164999D02*
X-3037010Y13164999D01*
X-8715001Y13331999D02*
X-8548001Y13164999D01*
X-8715001Y27368001D02*
X-8715001Y13331999D01*
X-8648335Y27434666D02*
X-8715001Y27368001D01*
X-11693008Y34164999D02*
X-8648335Y27434666D01*
X-18048001Y34164999D02*
X-11693008Y34164999D01*
X-18215001Y34331999D02*
X-18048001Y34164999D01*
X-14849510Y48535001D02*
X-18048001Y48535001D01*
X-3037010Y6535001D02*
X-3798001Y6535001D01*
X4150490Y72518476D02*
X-14849510Y53518477D01*
X4150490Y76164999D02*
X4150490Y72518476D01*
X951999Y76164999D02*
X4150490Y76164999D01*
X784999Y76331999D02*
X951999Y76164999D01*
X-14543001Y-7835001D02*
X-6221999Y-7835001D01*
X784999Y90368001D02*
X784999Y76331999D01*
X951999Y90535001D02*
X784999Y90368001D01*
X-3965001Y3120000D02*
X-3965001Y-7668001D01*
X951999Y97164999D02*
X4150490Y97164999D01*
X784999Y111368001D02*
X784999Y97331999D01*
X-4075000Y6258002D02*
X-4075000Y5120000D01*
X951999Y111535001D02*
X784999Y111368001D01*
X4150490Y111535001D02*
X951999Y111535001D01*
X-1304999Y111368001D02*
X-1471999Y111535001D01*
X-1471999Y97164999D02*
X-1304999Y97331999D01*
X4150490Y119780000D02*
X4150490Y111535001D01*
X-33376665Y-7734666D02*
X-33309999Y-7668001D01*
X-4670490Y90535001D02*
X-4670490Y97164999D01*
X-33476999Y6535001D02*
X-35112990Y6535001D01*
X-4670490Y97164999D02*
X-1471999Y97164999D01*
X-3965001Y-7668001D02*
X-3798001Y-7835001D01*
X-1471999Y90535001D02*
X-4670490Y90535001D01*
X-1304999Y76331999D02*
X-1304999Y90368001D01*
X-23976999Y-14464999D02*
X-30331990Y-14464999D01*
X-23670490Y52721524D02*
X-4670490Y71721523D01*
X-6054999Y6368001D02*
X-6221999Y6535001D01*
X-22425490Y34164999D02*
X-20471999Y34164999D01*
X-27175490Y-28835001D02*
X-23976999Y-28835001D01*
X-29971999Y13164999D02*
X-29804999Y13331999D01*
X-22425490Y27535001D02*
X-22425490Y34164999D01*
X-20304999Y34331999D02*
X-20304999Y48368001D01*
X-4670490Y71721523D02*
X-4670490Y76164999D01*
X-19226999Y27535001D02*
X-22425490Y27535001D01*
X-19059999Y27368001D02*
X-19226999Y27535001D01*
X-19059999Y13331999D02*
X-19059999Y27368001D01*
X-4670490Y119780000D02*
X4150490Y119780000D01*
X-19226999Y13164999D02*
X-19059999Y13331999D01*
X-27715001Y19387990D02*
X-27715001Y13331999D01*
X-1304999Y90368001D02*
X-1471999Y90535001D01*
X-6054999Y-7668001D02*
X-6054999Y3120000D01*
X784999Y-41687990D02*
X-26406524Y-41687990D01*
X-33309999Y6368001D02*
X-33476999Y6535001D01*
X-18048001Y48535001D02*
X-18215001Y48368001D01*
X-30331990Y-14464999D02*
X-33376665Y-7734666D01*
X-27548001Y13164999D02*
X-19226999Y13164999D01*
X-20471999Y34164999D02*
X-20304999Y34331999D01*
X-26406524Y-41687990D02*
X-27175490Y-40919024D01*
X784999Y-35631999D02*
X784999Y-41687990D01*
X-20304999Y48368001D02*
X-20471999Y48535001D01*
X-4075000Y5120000D02*
X-6054999Y5120000D01*
X-27715001Y13331999D02*
X-27548001Y13164999D01*
X-4670490Y111535001D02*
X-4670490Y119780000D01*
X-18215001Y48368001D02*
X-18215001Y34331999D01*
X-1304999Y97331999D02*
X-1304999Y111368001D01*
X-1471999Y111535001D02*
X-4670490Y111535001D01*
X-4670490Y76164999D02*
X-1471999Y76164999D01*
X4150490Y97164999D02*
X4150490Y90535001D01*
X-23809999Y-14631999D02*
X-23976999Y-14464999D01*
X-23809999Y-28668001D02*
X-23809999Y-14631999D01*
X784999Y97331999D02*
X951999Y97164999D01*
X-29804999Y19387990D02*
X-27715001Y19387990D01*
X4150490Y90535001D02*
X951999Y90535001D01*
X-23976999Y-28835001D02*
X-23809999Y-28668001D01*
X-20471999Y48535001D02*
X-23670490Y48535001D01*
X-27175490Y-40919024D02*
X-27175490Y-28835001D01*
X-23670490Y48535001D02*
X-23670490Y52721524D01*
X-3798001Y-7835001D02*
X925000Y-7835001D01*
X-29804999Y13331999D02*
X-29804999Y19387990D01*
X-35112990Y6535001D02*
X-35112990Y13164999D01*
X-1471999Y76164999D02*
X-1304999Y76331999D01*
X-35112990Y13164999D02*
X-29971999Y13164999D01*
X-14849510Y53518477D02*
X-14849510Y48535001D01*
X-33309999Y-7668001D02*
X-33309999Y6368001D01*
X-79965001Y-48880000D02*
X-79965001Y-49668001D01*
X-110554999Y-48880000D02*
X-79965001Y-48880000D01*
X-110554999Y-35631999D02*
X-110554999Y-48880000D01*
X-110721999Y-35464999D02*
X-110554999Y-35631999D01*
X-116295490Y-35464999D02*
X-110721999Y-35464999D01*
X-116295490Y-28835001D02*
X-116295490Y-35464999D01*
X-112807010Y-22612010D02*
X-112929999Y-22734999D01*
X-108465001Y-22612010D02*
X-112807010Y-22612010D01*
X-108465001Y-28668001D02*
X-108465001Y-22612010D01*
X-99976999Y-28835001D02*
X-108298001Y-28835001D01*
X-99809999Y-28668001D02*
X-99976999Y-28835001D01*
X-99809999Y-14631999D02*
X-99809999Y-28668001D01*
X-99976999Y-14464999D02*
X-99809999Y-14631999D01*
X-108298001Y-14464999D02*
X-99976999Y-14464999D01*
X-108465001Y-14631999D02*
X-108298001Y-14464999D01*
X-112929999Y-20687990D02*
X-108465001Y-20687990D01*
X-108298001Y-28835001D02*
X-108465001Y-28668001D01*
X-113096999Y-14464999D02*
X-112929999Y-14631999D01*
X-116295490Y-14464999D02*
X-113096999Y-14464999D01*
X-116295490Y-7835001D02*
X-116295490Y-14464999D01*
X-110721999Y-7835001D02*
X-116295490Y-7835001D01*
X-110554999Y-7668001D02*
X-110721999Y-7835001D01*
X-110554999Y3594673D02*
X-110554999Y-7668001D01*
X-103719962Y12858033D02*
X-110554999Y3594673D01*
X-103412996Y13164999D02*
X-103719962Y12858033D01*
X-95226999Y13164999D02*
X-103412996Y13164999D01*
X-95059999Y13331999D02*
X-95226999Y13164999D01*
X-112929999Y-28668001D02*
X-113096999Y-28835001D01*
X-95059999Y27368001D02*
X-95059999Y13331999D01*
X-94215001Y48368001D02*
X-94048001Y48535001D01*
X-99670490Y48535001D02*
X-96471999Y48535001D01*
X-99670490Y51164024D02*
X-99670490Y48535001D01*
X-96176524Y54657990D02*
X-99670490Y51164024D01*
X-90849510Y48535001D02*
X-90849510Y50705977D01*
X-96471999Y48535001D02*
X-96304999Y48368001D01*
X-89176523Y54657990D02*
X-96176524Y54657990D01*
X-72112990Y71721524D02*
X-89176523Y54657990D01*
X-72112990Y76164999D02*
X-72112990Y71721524D01*
X-66726999Y76164999D02*
X-72112990Y76164999D01*
X-66559999Y76331999D02*
X-66726999Y76164999D01*
X-95226999Y27535001D02*
X-95059999Y27368001D01*
X-66559999Y90368001D02*
X-66559999Y76331999D01*
X-66726999Y90535001D02*
X-66559999Y90368001D01*
X-69925490Y90535001D02*
X-66726999Y90535001D01*
X-96471999Y34164999D02*
X-98425490Y34164999D01*
X-96304999Y34331999D02*
X-96471999Y34164999D01*
X-98425490Y34164999D02*
X-98425490Y27535001D01*
X-69925490Y97164999D02*
X-69925490Y90535001D01*
X-66726999Y97164999D02*
X-69925490Y97164999D01*
X-66559999Y97331999D02*
X-66726999Y97164999D01*
X-66559999Y111368001D02*
X-66559999Y97331999D01*
X-66726999Y111535001D02*
X-66559999Y111368001D01*
X-69925490Y111535001D02*
X-66726999Y111535001D01*
X-69925490Y118340000D02*
X-69925490Y111535001D01*
X-112929999Y-22734999D02*
X-112929999Y-28668001D01*
X-44594510Y118340000D02*
X-69925490Y118340000D01*
X-44594510Y111535001D02*
X-44594510Y118340000D01*
X-47793001Y111535001D02*
X-44594510Y111535001D01*
X-112929999Y-14631999D02*
X-112929999Y-20687990D01*
X-47960001Y111368001D02*
X-47793001Y111535001D01*
X-47793001Y97164999D02*
X-47960001Y97331999D01*
X-47960001Y97331999D02*
X-47960001Y111368001D01*
X-44594510Y97164999D02*
X-47793001Y97164999D01*
X-44594510Y90535001D02*
X-44594510Y97164999D01*
X-47793001Y90535001D02*
X-44594510Y90535001D01*
X-47960001Y90368001D02*
X-47793001Y90535001D01*
X-47960001Y76331999D02*
X-47960001Y90368001D01*
X-47793001Y76164999D02*
X-47960001Y76331999D01*
X-44594510Y76164999D02*
X-47793001Y76164999D01*
X-98425490Y27535001D02*
X-95226999Y27535001D01*
X-44594510Y71960976D02*
X-44594510Y76164999D01*
X-96304999Y48368001D02*
X-96304999Y34331999D01*
X-53435486Y63120000D02*
X-44594510Y71960976D01*
X-78435486Y63120000D02*
X-53435486Y63120000D01*
X-90849510Y50705977D02*
X-78435486Y63120000D01*
X-94048001Y48535001D02*
X-90849510Y48535001D01*
X-108465001Y-20687990D02*
X-108465001Y-14631999D01*
X-84618712Y27374035D02*
X-87690815Y34164999D01*
X-87690815Y34164999D02*
X-94048001Y34164999D01*
X-113096999Y-28835001D02*
X-116295490Y-28835001D01*
X-94215001Y34331999D02*
X-94215001Y48368001D01*
X-94048001Y34164999D02*
X-94215001Y34331999D01*
X-119043001Y-35464999D02*
X-119210001Y-35631999D01*
X-118219510Y-28835001D02*
X-118219510Y-35464999D01*
X-121418001Y-28835001D02*
X-118219510Y-28835001D01*
X-118219510Y-35464999D02*
X-119043001Y-35464999D01*
X-118219510Y-14464999D02*
X-121418001Y-14464999D01*
X-118219510Y-7835001D02*
X-118219510Y-14464999D01*
X-119043001Y6535001D02*
X-119210001Y6368001D01*
X-110776534Y6535001D02*
X-119043001Y6535001D01*
X-105176523Y50657990D02*
X-97676524Y58157990D01*
X-104960001Y34331999D02*
X-104793001Y34164999D01*
X-103548001Y27535001D02*
X-103715001Y27368001D01*
X-104960001Y48368001D02*
X-104960001Y34331999D01*
X-101594510Y51960977D02*
X-101594510Y48535001D01*
X-96973477Y56582010D02*
X-101594510Y51960977D01*
X-143471999Y-35464999D02*
X-146670490Y-35464999D01*
X-74965012Y76082010D02*
X-74037010Y76082010D01*
X-71849510Y118820000D02*
X-71849510Y111535001D01*
X-75215001Y90368001D02*
X-75215001Y76331999D01*
X-121418001Y-14464999D02*
X-121585001Y-14631999D01*
X-75048001Y90535001D02*
X-75215001Y90368001D01*
X-71849510Y90535001D02*
X-75048001Y90535001D01*
X-77304999Y111368001D02*
X-77471999Y111535001D01*
X-75048001Y97164999D02*
X-71849510Y97164999D01*
X-75215001Y111368001D02*
X-75215001Y97331999D01*
X-75215001Y76331999D02*
X-74965012Y76082010D01*
X-71849510Y111535001D02*
X-75048001Y111535001D01*
X-75215001Y97331999D02*
X-75048001Y97164999D01*
X-127465001Y19387990D02*
X-127465001Y13331999D01*
X-80670490Y118820000D02*
X-71849510Y118820000D01*
X-126925490Y50409024D02*
X-126676524Y50657990D01*
X-74037010Y72518476D02*
X-89973476Y56582010D01*
X-80670490Y111535001D02*
X-80670490Y118820000D01*
X-74037010Y76082010D02*
X-74037010Y72518476D01*
X-77471999Y111535001D02*
X-80670490Y111535001D01*
X-143471999Y6535001D02*
X-146670490Y6535001D01*
X-80670490Y97164999D02*
X-77471999Y97164999D01*
X-121585001Y-28668001D02*
X-121418001Y-28835001D01*
X-119043001Y-7835001D02*
X-118219510Y-7835001D01*
X-143304999Y-35631999D02*
X-143471999Y-35464999D01*
X-80670490Y90535001D02*
X-80670490Y97164999D01*
X-77471999Y97164999D02*
X-77304999Y97331999D01*
X-77304999Y90368001D02*
X-77471999Y90535001D01*
X-77304999Y76331999D02*
X-77304999Y90368001D01*
X-80670490Y76120000D02*
X-77516998Y76120000D01*
X-119210001Y6368001D02*
X-119210001Y-7668001D01*
X-80670490Y68164023D02*
X-80670490Y76120000D01*
X-90676523Y58157990D02*
X-80670490Y68164023D01*
X-127465001Y13331999D02*
X-127298001Y13164999D01*
X-103715001Y27368001D02*
X-103715001Y16105327D01*
X-123726999Y48535001D02*
X-126925490Y48535001D01*
X-146670490Y-35464999D02*
X-146670490Y-28835001D01*
X-123559999Y48368001D02*
X-123726999Y48535001D01*
X-124612990Y34120000D02*
X-123771998Y34120000D01*
X-77471999Y90535001D02*
X-80670490Y90535001D01*
X-118976999Y27535001D02*
X-124612990Y27535001D01*
X-104793001Y34164999D02*
X-100349510Y34164999D01*
X-143471999Y-7835001D02*
X-143304999Y-7668001D01*
X-143075000Y13561998D02*
X-143075000Y19387990D01*
X-118809999Y27368001D02*
X-118976999Y27535001D01*
X-118976999Y13164999D02*
X-118809999Y13331999D01*
X-127298001Y13164999D02*
X-118976999Y13164999D01*
X-143075000Y19387990D02*
X-127465001Y19387990D01*
X-146670490Y13164999D02*
X-143471999Y13164999D01*
X-146670490Y6535001D02*
X-146670490Y13164999D01*
X-100349510Y34164999D02*
X-100349510Y27535001D01*
X-104793001Y48535001D02*
X-104960001Y48368001D01*
X-119210001Y-7668001D02*
X-119043001Y-7835001D01*
X-143304999Y6368001D02*
X-143471999Y6535001D01*
X-146670490Y-7835001D02*
X-143471999Y-7835001D01*
X-100349510Y27535001D02*
X-103548001Y27535001D01*
X-146670490Y-28835001D02*
X-143471999Y-28835001D01*
X-97676524Y58157990D02*
X-90676523Y58157990D01*
X-118809999Y13331999D02*
X-118809999Y27368001D01*
X-121585001Y-14631999D02*
X-121585001Y-28668001D01*
X-103715001Y16105327D02*
X-110776534Y6535001D01*
X-143304999Y-49668001D02*
X-143304999Y-35631999D01*
X-126925490Y48535001D02*
X-126925490Y50409024D01*
X-143304999Y-14631999D02*
X-143471999Y-14464999D01*
X-143304999Y-28668001D02*
X-143304999Y-14631999D01*
X-143471999Y-28835001D02*
X-143304999Y-28668001D01*
X-124612990Y27535001D02*
X-124612990Y34120000D01*
X-123559999Y34331999D02*
X-123559999Y48368001D01*
X-126676524Y50657990D02*
X-105176523Y50657990D01*
X-89973476Y56582010D02*
X-96973477Y56582010D01*
X-101594510Y48535001D02*
X-104793001Y48535001D01*
X-71849510Y97164999D02*
X-71849510Y90535001D01*
X-146670490Y-14464999D02*
X-146670490Y-7835001D01*
X-77516998Y76120000D02*
X-77304999Y76331999D01*
X-143471999Y-14464999D02*
X-146670490Y-14464999D01*
X-143471999Y-49835001D02*
X-143304999Y-49668001D01*
X-119210001Y-35631999D02*
X-119210001Y-49668001D01*
X-143304999Y-7668001D02*
X-143304999Y6368001D01*
X-75048001Y111535001D02*
X-75215001Y111368001D01*
X-123771998Y34120000D02*
X-123559999Y34331999D01*
X-143471999Y13164999D02*
X-143075000Y13561998D01*
X-77304999Y97331999D02*
X-77304999Y111368001D01*
X-151960001Y-49668001D02*
X-151793001Y-49835001D01*
X-151960001Y-35631999D02*
X-151960001Y-49668001D01*
X-151793001Y-28835001D02*
X-148594510Y-28835001D01*
X-151960001Y-28668001D02*
X-151793001Y-28835001D01*
X-148594510Y-14464999D02*
X-151793001Y-14464999D01*
X-148594510Y-7835001D02*
X-148594510Y-14464999D01*
X-151793001Y34164999D02*
X-143471999Y34164999D01*
X-151960001Y-7668001D02*
X-151793001Y-7835001D01*
X-151960001Y6368001D02*
X-151960001Y-7668001D01*
X-151793001Y6535001D02*
X-151960001Y6368001D01*
X-148594510Y6535001D02*
X-151793001Y6535001D01*
X-143304999Y21312010D02*
X-143304999Y27368001D01*
X-82594510Y97164999D02*
X-82594510Y90535001D01*
X-127465001Y21312010D02*
X-143304999Y21312010D01*
X-126537010Y34164999D02*
X-126537010Y27535001D01*
X-132048001Y34164999D02*
X-126537010Y34164999D01*
X-85793001Y76164999D02*
X-82594510Y76164999D01*
X-126537010Y27535001D02*
X-127298001Y27535001D01*
X-85960001Y76331999D02*
X-85793001Y76164999D01*
X-127298001Y27535001D02*
X-127465001Y27368001D01*
X-170559999Y27368001D02*
X-170726999Y27535001D01*
X-85960001Y97331999D02*
X-85793001Y97164999D01*
X-85960001Y111368001D02*
X-85960001Y97331999D01*
X-132215001Y34331999D02*
X-132048001Y34164999D01*
X-132048001Y48535001D02*
X-132215001Y48368001D01*
X-143471999Y27535001D02*
X-151793001Y27535001D01*
X-151793001Y27535001D02*
X-151960001Y27368001D01*
X-128849510Y51205977D02*
X-128849510Y48535001D01*
X-127473477Y52582010D02*
X-128849510Y51205977D01*
X-98473477Y60082010D02*
X-105973476Y52582010D01*
X-109676523Y54157990D02*
X-107925490Y55909023D01*
X-82594510Y68960976D02*
X-91473476Y60082010D01*
X-170559999Y-49668001D02*
X-170559999Y-35631999D01*
X-82594510Y76164999D02*
X-82594510Y68960976D01*
X-151793001Y-14464999D02*
X-151960001Y-14631999D01*
X-148594510Y13164999D02*
X-148594510Y6535001D01*
X-170726999Y27535001D02*
X-173925490Y27535001D01*
X-85960001Y90368001D02*
X-85960001Y76331999D01*
X-148594510Y-28835001D02*
X-148594510Y-35464999D01*
X-85793001Y90535001D02*
X-85960001Y90368001D01*
X-91473476Y60082010D02*
X-98473477Y60082010D01*
X-82594510Y111535001D02*
X-85793001Y111535001D01*
X-85793001Y111535001D02*
X-85960001Y111368001D01*
X-82594510Y90535001D02*
X-85793001Y90535001D01*
X-85793001Y97164999D02*
X-82594510Y97164999D01*
X-82594510Y119300000D02*
X-82594510Y111535001D01*
X-107925490Y119300000D02*
X-82594510Y119300000D01*
X-107925490Y111535001D02*
X-107925490Y119300000D01*
X-170559999Y13331999D02*
X-170559999Y27368001D01*
X-104726999Y111535001D02*
X-107925490Y111535001D01*
X-132215001Y48368001D02*
X-132215001Y34331999D01*
X-104559999Y97331999D02*
X-104559999Y111368001D01*
X-173925490Y27535001D02*
X-173925490Y34164999D01*
X-105973476Y52582010D02*
X-127473477Y52582010D01*
X-173925490Y13120000D02*
X-170771998Y13120000D01*
X-107925490Y90535001D02*
X-107925490Y97164999D01*
X-104726999Y90535001D02*
X-107925490Y90535001D01*
X-107925490Y76164999D02*
X-104726999Y76164999D01*
X-170726999Y-49835001D02*
X-170559999Y-49668001D01*
X-104726999Y76164999D02*
X-104559999Y76331999D01*
X-143304999Y27368001D02*
X-143471999Y27535001D01*
X-151793001Y-35464999D02*
X-151960001Y-35631999D01*
X-128676524Y54157990D02*
X-109676523Y54157990D01*
X-107925490Y97164999D02*
X-104726999Y97164999D01*
X-170771998Y13120000D02*
X-170559999Y13331999D01*
X-151960001Y-14631999D02*
X-151960001Y-28668001D01*
X-142446523Y40387990D02*
X-128676524Y54157990D01*
X-143304999Y40387990D02*
X-142446523Y40387990D01*
X-151793001Y13164999D02*
X-148594510Y13164999D01*
X-143304999Y34331999D02*
X-143304999Y40387990D01*
X-143471999Y34164999D02*
X-143304999Y34331999D01*
X-104559999Y76331999D02*
X-104559999Y90368001D01*
X-173925490Y34164999D02*
X-170726999Y34164999D01*
X-173925490Y-7835001D02*
X-170726999Y-7835001D01*
X-148594510Y-35464999D02*
X-151793001Y-35464999D01*
X-104559999Y90368001D02*
X-104726999Y90535001D01*
X-107925490Y55909023D02*
X-107925490Y76164999D01*
X-128849510Y48535001D02*
X-132048001Y48535001D01*
X-151793001Y-7835001D02*
X-148594510Y-7835001D01*
X-104559999Y111368001D02*
X-104726999Y111535001D01*
X-170559999Y40387990D02*
X-151960001Y40387990D01*
X-170726999Y6535001D02*
X-173925490Y6535001D01*
X-170559999Y-7668001D02*
X-170559999Y6368001D01*
X-170726999Y-7835001D02*
X-170559999Y-7668001D01*
X-170559999Y6368001D02*
X-170726999Y6535001D01*
X-170726999Y34164999D02*
X-170559999Y34331999D01*
X-173925490Y-35464999D02*
X-173925490Y-28835001D01*
X-104726999Y97164999D02*
X-104559999Y97331999D01*
X-170559999Y34331999D02*
X-170559999Y40387990D01*
X-173925490Y6535001D02*
X-173925490Y13120000D01*
X-151960001Y34331999D02*
X-151793001Y34164999D01*
X-151960001Y13331999D02*
X-151793001Y13164999D01*
X-170726999Y-14464999D02*
X-173925490Y-14464999D01*
X-170559999Y-14631999D02*
X-170726999Y-14464999D01*
X-170559999Y-28668001D02*
X-170559999Y-14631999D01*
X-173925490Y-14464999D02*
X-173925490Y-7835001D01*
X-173925490Y-28835001D02*
X-170726999Y-28835001D01*
X-170726999Y-28835001D02*
X-170559999Y-28668001D01*
X-151960001Y40387990D02*
X-151960001Y34331999D01*
X-170726999Y-35464999D02*
X-173925490Y-35464999D01*
X-151960001Y27368001D02*
X-151960001Y13331999D01*
X-170559999Y-35631999D02*
X-170726999Y-35464999D01*
X-127465001Y27368001D02*
X-127465001Y21312010D01*
X-120115000Y131785000D02*
X-120115000Y131540000D01*
D17*
X-124075000Y131785000D02*
X-124075000Y131770000D01*
D16*
X-3400000Y125950000D02*
X-3394993Y125944993D01*
D17*
X121366754Y111622798D02*
X121366780Y111622772D01*
D16*
X121366754Y115011754D02*
X121366754Y111622798D01*
X121366754Y123466654D02*
X121366754Y115011754D01*
X118888415Y125944993D02*
X121366754Y123466654D01*
X-3394993Y125944993D02*
X118888415Y125944993D01*
X-9525000Y125950000D02*
X-3400000Y125950000D01*
X-9945000Y126370000D02*
X-9525000Y125950000D01*
X137456999Y-49835001D02*
X139880001Y-49835001D01*
X137289999Y-49668001D02*
X137456999Y-49835001D01*
X137289999Y-35631999D02*
X137289999Y-49668001D01*
X137456999Y-35464999D02*
X137289999Y-35631999D01*
X139964990Y-35464999D02*
X137456999Y-35464999D01*
X139964990Y-28835001D02*
X139964990Y-35464999D01*
X133456999Y-28835001D02*
X139964990Y-28835001D01*
X133289999Y-28668001D02*
X133456999Y-28835001D01*
X133289999Y-14631999D02*
X133289999Y-28668001D01*
X133456999Y-14464999D02*
X133289999Y-14631999D01*
X139964990Y-14464999D02*
X133456999Y-14464999D01*
X139964990Y-7967992D02*
X139964990Y-14464999D01*
X139664999Y-7668001D02*
X139964990Y-7967992D01*
X139664999Y5769055D02*
X139664999Y-7668001D01*
X135921244Y13164999D02*
X139664999Y5769055D01*
X129201999Y13164999D02*
X135921244Y13164999D01*
X129034999Y13331999D02*
X129201999Y13164999D01*
X129034999Y19387990D02*
X129034999Y13331999D01*
X122195001Y19387990D02*
X129034999Y19387990D01*
X122195001Y13331999D02*
X122195001Y19387990D01*
X113706999Y13164999D02*
X122028001Y13164999D01*
X122028001Y13164999D02*
X122195001Y13331999D01*
X113539999Y13331999D02*
X113706999Y13164999D01*
X113706999Y27535001D02*
X113539999Y27368001D01*
X113539999Y27368001D02*
X113539999Y13331999D01*
X122028001Y27535001D02*
X113706999Y27535001D01*
X122195001Y27368001D02*
X122028001Y27535001D01*
X122195001Y21312010D02*
X122195001Y27368001D01*
X129034999Y21312010D02*
X122195001Y21312010D01*
X129034999Y27368001D02*
X129034999Y21312010D01*
X129201999Y27535001D02*
X129034999Y27368001D01*
X129462990Y27535001D02*
X129201999Y27535001D01*
X129462990Y34164999D02*
X129462990Y27535001D01*
X123206999Y34164999D02*
X129462990Y34164999D01*
X123039999Y34331999D02*
X123206999Y34164999D01*
X123039999Y48368001D02*
X123039999Y34331999D01*
X123206999Y48535001D02*
X123039999Y48368001D01*
X126405490Y48535001D02*
X123206999Y48535001D01*
X126405490Y51779024D02*
X126405490Y48535001D01*
X126026524Y52157990D02*
X126405490Y51779024D01*
X114587010Y52157990D02*
X126026524Y52157990D01*
X107405490Y59339510D02*
X114587010Y52157990D01*
X107405490Y76164999D02*
X107405490Y59339510D01*
X104206999Y76164999D02*
X107405490Y76164999D01*
X104039999Y76331999D02*
X104206999Y76164999D01*
X104039999Y90368001D02*
X104039999Y76331999D01*
X104206999Y90535001D02*
X104039999Y90368001D01*
X107405490Y90535001D02*
X104206999Y90535001D01*
X107405490Y97164999D02*
X107405490Y90535001D01*
X104206999Y97164999D02*
X107405490Y97164999D01*
X104039999Y97331999D02*
X104206999Y97164999D01*
X104039999Y111368001D02*
X104039999Y97331999D01*
X104206999Y111535001D02*
X104039999Y111368001D01*
X107405490Y111535001D02*
X104206999Y111535001D01*
X107405490Y122140000D02*
X107405490Y111535001D01*
X85440001Y97331999D02*
X85440001Y111368001D01*
X85273001Y97164999D02*
X85440001Y97331999D01*
X82074510Y97164999D02*
X85273001Y97164999D01*
X82074510Y90535001D02*
X82074510Y97164999D01*
X85273001Y90535001D02*
X82074510Y90535001D01*
X85440001Y90368001D02*
X85273001Y90535001D01*
X85440001Y76331999D02*
X85440001Y90368001D01*
X101074510Y48535001D02*
X101074510Y53330977D01*
X101074510Y53330977D02*
X82074510Y72330976D01*
X82074510Y76164999D02*
X85273001Y76164999D01*
X82074510Y72330976D02*
X82074510Y76164999D01*
X85273001Y76164999D02*
X85440001Y76331999D01*
X104440001Y34331999D02*
X104440001Y48368001D01*
X82074510Y122140000D02*
X107405490Y122140000D01*
X82074510Y111535001D02*
X82074510Y122140000D01*
X85273001Y111535001D02*
X82074510Y111535001D01*
X85440001Y111368001D02*
X85273001Y111535001D01*
X104273001Y34164999D02*
X104440001Y34331999D01*
X117445001Y-28668001D02*
X117445001Y-14631999D01*
X103028001Y13164999D02*
X103195001Y13331999D01*
X103195001Y13331999D02*
X103195001Y27368001D01*
X102387010Y13164999D02*
X103028001Y13164999D01*
X102387010Y6535001D02*
X102387010Y13164999D01*
X107778001Y6535001D02*
X102387010Y6535001D01*
X103028001Y27535001D02*
X99829510Y27535001D01*
X103195001Y27368001D02*
X103028001Y27535001D01*
X99829510Y34164999D02*
X104273001Y34164999D01*
X99829510Y27535001D02*
X99829510Y34164999D01*
X104273001Y48535001D02*
X101074510Y48535001D01*
X104440001Y48368001D02*
X104273001Y48535001D01*
X110034999Y6368001D02*
X110034999Y312010D01*
X110034999Y312010D02*
X107945001Y312010D01*
X107945001Y6368001D02*
X107778001Y6535001D01*
X107945001Y312010D02*
X107945001Y6368001D01*
X116257010Y-35774999D02*
X116257010Y-28835001D01*
X116257010Y-28835001D02*
X117278001Y-28835001D01*
X110201999Y6535001D02*
X110034999Y6368001D01*
X118523001Y6535001D02*
X110201999Y6535001D01*
X118690001Y6368001D02*
X118523001Y6535001D01*
X118690001Y-7668001D02*
X118690001Y6368001D01*
X118523001Y-7835001D02*
X118690001Y-7668001D01*
X114079510Y-14464999D02*
X114079510Y-7835001D01*
X117278001Y-14464999D02*
X114079510Y-14464999D01*
X114079510Y-7835001D02*
X118523001Y-7835001D01*
X117445001Y-14631999D02*
X117278001Y-14464999D01*
X117278001Y-28835001D02*
X117445001Y-28668001D01*
X117233001Y-35774999D02*
X116257010Y-35774999D01*
X117400001Y-42358001D02*
X117400001Y-35941999D01*
X117233001Y-42525001D02*
X117400001Y-42358001D01*
X117400001Y-35941999D02*
X117233001Y-35774999D01*
X112695001Y111368001D02*
X112528001Y111535001D01*
X112695001Y97331999D02*
X112695001Y111368001D01*
X112528001Y97164999D02*
X112695001Y97331999D01*
X109329510Y97164999D02*
X112528001Y97164999D01*
X109329510Y90535001D02*
X109329510Y97164999D01*
X109329510Y76164999D02*
X112528001Y76164999D01*
X109329510Y60165490D02*
X109329510Y76164999D01*
X126823477Y54082010D02*
X115412990Y54082010D01*
X128329510Y52575977D02*
X126823477Y54082010D01*
X128329510Y48535001D02*
X128329510Y52575977D01*
X141885010Y-35464999D02*
X141885010Y-28727992D01*
X141945001Y-28668001D02*
X141945001Y-14900001D01*
X148320001Y-7668001D02*
X148320001Y6368001D01*
X148153001Y-7835001D02*
X148320001Y-7668001D01*
X131528001Y48535001D02*
X128329510Y48535001D01*
X112695001Y76331999D02*
X112695001Y90368001D01*
X112528001Y76164999D02*
X112695001Y76331999D01*
X131695001Y34331999D02*
X131695001Y48368001D01*
X112528001Y111535001D02*
X109329510Y111535001D01*
X145945001Y-35631999D02*
X145778001Y-35464999D01*
X131387010Y27535001D02*
X131387010Y34164999D01*
X137690001Y27368001D02*
X137523001Y27535001D01*
X115412990Y54082010D02*
X109329510Y60165490D01*
X137690001Y13930945D02*
X137690001Y27368001D01*
X141885010Y-28727992D02*
X141945001Y-28668001D01*
X148153001Y6535001D02*
X141433757Y6535001D01*
X141885010Y-7835001D02*
X148153001Y-7835001D01*
X131528001Y34164999D02*
X131695001Y34331999D01*
X148320001Y6368001D02*
X148153001Y6535001D01*
X131387010Y34164999D02*
X131528001Y34164999D01*
X141945001Y-14900001D02*
X141885010Y-14840010D01*
X112528001Y90535001D02*
X109329510Y90535001D01*
X112695001Y90368001D02*
X112528001Y90535001D01*
X141433757Y6535001D02*
X137690001Y13930945D01*
X141885010Y-14840010D02*
X141885010Y-7835001D01*
X145778001Y-35464999D02*
X141885010Y-35464999D01*
X131695001Y48368001D02*
X131528001Y48535001D01*
X137523001Y27535001D02*
X131387010Y27535001D01*
X145945001Y-49668001D02*
X145945001Y-35631999D01*
X296407490Y-51551708D02*
X296407490Y-49835001D01*
X296039999Y-53200801D02*
X296039999Y-51919199D01*
X298015801Y-53895001D02*
X296734199Y-53895001D01*
X298710001Y-53200801D02*
X298015801Y-53895001D01*
X298710001Y-51919199D02*
X298710001Y-53200801D01*
X298327510Y-51536708D02*
X298710001Y-51919199D01*
X298327510Y-49835001D02*
X298327510Y-51536708D01*
X301528001Y-35464999D02*
X301695001Y-35631999D01*
X295576778Y-35464999D02*
X301528001Y-35464999D01*
X279327510Y48535001D02*
X282528001Y48535001D01*
X293440001Y-14631999D02*
X293440001Y-28668001D01*
X293273001Y34164999D02*
X284951999Y34164999D01*
X293273001Y-14464999D02*
X293440001Y-14631999D01*
X284951999Y34164999D02*
X284784999Y34331999D01*
X292970557Y-14464999D02*
X293273001Y-14464999D01*
X295576777Y-7835001D02*
X292970557Y-14464999D01*
X301695001Y6368001D02*
X301695001Y-7668001D01*
X295576778Y6535001D02*
X301528001Y6535001D01*
X292970557Y-28835001D02*
X295576778Y-35464999D01*
X292970557Y13164999D02*
X295576778Y6535001D01*
X293273001Y13164999D02*
X292970557Y13164999D01*
X293440001Y13331999D02*
X293273001Y13164999D01*
X293440001Y27368001D02*
X293440001Y13331999D01*
X293273001Y-28835001D02*
X292970557Y-28835001D01*
X282695001Y40387990D02*
X282695001Y34331999D01*
X293273001Y27535001D02*
X293440001Y27368001D01*
X284951999Y27535001D02*
X293273001Y27535001D01*
X293440001Y-28668001D02*
X293273001Y-28835001D01*
X284784999Y27368001D02*
X284951999Y27535001D01*
X284784999Y21312010D02*
X284784999Y27368001D01*
X296734199Y-53895001D02*
X296039999Y-53200801D01*
X301528001Y-7835001D02*
X295576777Y-7835001D01*
X301695001Y-7668001D02*
X301528001Y-7835001D01*
X282695001Y27368001D02*
X282695001Y21312010D01*
X284784999Y48368001D02*
X284951999Y48535001D01*
X282695001Y34331999D02*
X282528001Y34164999D01*
X293440001Y34331999D02*
X293273001Y34164999D01*
X284784999Y40387990D02*
X282695001Y40387990D01*
X279329510Y27535001D02*
X282528001Y27535001D01*
X121366780Y111622772D02*
X121354895Y66418650D01*
X282528001Y34164999D02*
X279329510Y34164999D01*
X284784999Y34331999D02*
X284784999Y40387990D01*
X282695001Y48368001D02*
X282695001Y42312010D01*
X282695001Y42312010D02*
X284784999Y42312010D01*
X279329510Y34164999D02*
X279329510Y27535001D01*
X296407490Y-49835001D02*
X293206999Y-49835001D01*
X284951999Y48535001D02*
X293273001Y48535001D01*
X282528001Y27535001D02*
X282695001Y27368001D01*
X301695001Y-35631999D02*
X301695001Y-49668001D01*
X293440001Y48368001D02*
X293440001Y34331999D01*
X301528001Y6535001D02*
X301695001Y6368001D01*
X293273001Y48535001D02*
X293440001Y48368001D01*
X301695001Y-49668001D02*
X301528001Y-49835001D01*
X279327510Y62899990D02*
X279327510Y48535001D01*
X296039999Y-51919199D02*
X296407490Y-51551708D01*
X124873283Y62899990D02*
X279327510Y62899990D01*
X284784999Y42312010D02*
X284784999Y48368001D01*
X121354895Y66418650D02*
X121873186Y65900087D01*
X282695001Y21312010D02*
X284784999Y21312010D01*
X282528001Y48535001D02*
X282695001Y48368001D01*
X301528001Y-49835001D02*
X298327510Y-49835001D01*
X121873186Y65900087D02*
X124873283Y62899990D01*
X265951999Y-49835001D02*
X265784999Y-49668001D01*
X269152490Y-49835001D02*
X265951999Y-49835001D01*
X274273001Y-49835001D02*
X271072510Y-49835001D01*
X269152490Y-51486708D02*
X269152490Y-49835001D01*
X268769999Y-51869199D02*
X269152490Y-51486708D01*
X271440001Y-53150801D02*
X270745801Y-53845001D01*
X269464199Y-53845001D02*
X268769999Y-53150801D01*
X268769999Y-53150801D02*
X268769999Y-51869199D01*
X271072510Y-51501708D02*
X271440001Y-51869199D01*
X271072510Y-49835001D02*
X271072510Y-51501708D01*
X271440001Y-51869199D02*
X271440001Y-53150801D01*
X270745801Y-53845001D02*
X269464199Y-53845001D01*
X236509999Y-49835001D02*
X236515000Y-49830000D01*
X233072510Y-51441708D02*
X233072510Y-49835001D01*
X233470001Y-51839199D02*
X233072510Y-51441708D01*
X232775801Y-53815001D02*
X233470001Y-53120801D01*
X230799999Y-51839199D02*
X230799999Y-53120801D01*
X233072510Y-49835001D02*
X236509999Y-49835001D01*
X231152490Y-51486708D02*
X230799999Y-51839199D01*
X231152490Y-49835001D02*
X231152490Y-51486708D01*
X231494199Y-53815001D02*
X232775801Y-53815001D01*
X227951999Y-49835001D02*
X231152490Y-49835001D01*
X233470001Y-53120801D02*
X233470001Y-51839199D01*
X230799999Y-53120801D02*
X231494199Y-53815001D01*
X227784999Y-49668001D02*
X227951999Y-49835001D01*
X180956998Y-49840000D02*
X180784999Y-49668001D01*
X183779999Y-51859199D02*
X184152490Y-51486708D01*
X184152490Y-51486708D02*
X184152490Y-49840000D01*
X184474199Y-53835001D02*
X183779999Y-53140801D01*
X183779999Y-53140801D02*
X183779999Y-51859199D01*
X186072510Y-51481708D02*
X186450001Y-51859199D01*
X185755801Y-53835001D02*
X184474199Y-53835001D01*
X186450001Y-51859199D02*
X186450001Y-53140801D01*
X184152490Y-49840000D02*
X180956998Y-49840000D01*
X189545000Y-49840000D02*
X186072510Y-49840000D01*
X186072510Y-49840000D02*
X186072510Y-51481708D01*
X186450001Y-53140801D02*
X185755801Y-53835001D01*
X142577510Y-49835001D02*
X145778001Y-49835001D01*
X140279999Y-53600801D02*
X140974199Y-54295001D01*
X142577510Y-51946708D02*
X142577510Y-49835001D01*
X145778001Y-49835001D02*
X145945001Y-49668001D01*
X142255801Y-54295001D02*
X142950001Y-53600801D01*
X140974199Y-54295001D02*
X142255801Y-54295001D01*
X142950001Y-52319199D02*
X142577510Y-51946708D01*
X140279999Y-52319199D02*
X140279999Y-53600801D01*
X142950001Y-53600801D02*
X142950001Y-52319199D01*
X139880001Y-49835001D02*
X140657490Y-49835001D01*
X140657490Y-51941708D02*
X140279999Y-52319199D01*
X140657490Y-49835001D02*
X140657490Y-51941708D01*
X121570001Y-42525001D02*
X128880001Y-49835001D01*
X116255010Y-42540000D02*
X121555002Y-42540000D01*
X116255010Y-44894208D02*
X116255010Y-42540000D01*
X116640001Y-45279199D02*
X116255010Y-44894208D01*
X116640001Y-46560801D02*
X116640001Y-45279199D01*
X121555002Y-42540000D02*
X121570001Y-42525001D01*
X115945801Y-47255001D02*
X116640001Y-46560801D01*
X114664199Y-47255001D02*
X115945801Y-47255001D01*
X113969999Y-45279199D02*
X113969999Y-46560801D01*
X128880001Y-49835001D02*
X139880001Y-49835001D01*
X114334990Y-42525001D02*
X114334990Y-44914208D01*
X114334990Y-44914208D02*
X113969999Y-45279199D01*
X88880001Y-49835001D02*
X98969999Y-49835001D01*
X113356999Y-42525001D02*
X114334990Y-42525001D01*
X113969999Y-46560801D02*
X114664199Y-47255001D01*
X106285000Y-42520000D02*
X113351998Y-42520000D01*
X98969999Y-49835001D02*
X106285000Y-42520000D01*
X113351998Y-42520000D02*
X113356999Y-42525001D01*
X86822510Y-28835001D02*
X91960001Y-28835001D01*
X87200001Y-29459199D02*
X86822510Y-29081708D01*
X87200001Y-30740801D02*
X87200001Y-29459199D01*
X86822510Y-29081708D02*
X86822510Y-28835001D01*
X86505801Y-31435001D02*
X87200001Y-30740801D01*
X84529999Y-30740801D02*
X85224199Y-31435001D01*
X84529999Y-29459199D02*
X84529999Y-30740801D01*
X84902490Y-29086708D02*
X84529999Y-29459199D01*
X84902490Y-28835001D02*
X84902490Y-29086708D01*
X81534999Y-28668001D02*
X81701999Y-28835001D01*
X81534999Y-22612010D02*
X81534999Y-28668001D01*
X79445001Y-28668001D02*
X79445001Y-22612010D01*
X79278001Y-28835001D02*
X79445001Y-28668001D01*
X73425010Y-36459991D02*
X73425010Y-28835001D01*
X72067351Y-37022352D02*
X72862649Y-37022352D01*
X71504990Y-36459991D02*
X72067351Y-37022352D01*
X43701999Y-28835001D02*
X46902490Y-28835001D01*
X70789999Y-14631999D02*
X70789999Y-28668001D01*
X26387010Y13120000D02*
X26983002Y13120000D01*
X72034999Y-1612010D02*
X72034999Y-7668001D01*
X69945001Y-1612010D02*
X72034999Y-1612010D01*
X43534999Y-28668001D02*
X43701999Y-28835001D01*
X69945001Y-7668001D02*
X69945001Y-1612010D01*
X69778001Y6535001D02*
X61456999Y6535001D01*
X66206999Y111535001D02*
X66039999Y111368001D01*
X69945001Y312010D02*
X69945001Y6368001D01*
X78905490Y30960977D02*
X78905490Y27535001D01*
X76962990Y13164999D02*
X76962990Y6535001D01*
X75539999Y13331999D02*
X75706999Y13164999D01*
X42623336Y-7734667D02*
X42690001Y-7668001D01*
X46529999Y-36850801D02*
X47224199Y-37545001D01*
X75706999Y27535001D02*
X75539999Y27368001D01*
X38784999Y76331999D02*
X38951999Y76164999D01*
X85039999Y35582010D02*
X83526523Y35582010D01*
X61456999Y6535001D02*
X61289999Y6368001D01*
X88405490Y48535001D02*
X85206999Y48535001D01*
X85206999Y48535001D02*
X85039999Y48368001D01*
X69405490Y71721523D02*
X88405490Y52721524D01*
X28273001Y34164999D02*
X28440001Y34331999D01*
X42690001Y-7668001D02*
X42690001Y6368001D01*
X66206999Y76164999D02*
X69405490Y76164999D01*
X66039999Y76331999D02*
X66206999Y76164999D01*
X66039999Y90368001D02*
X66039999Y76331999D01*
X69405490Y76164999D02*
X69405490Y71721523D01*
X66206999Y90535001D02*
X66039999Y90368001D01*
X85224199Y-31435001D02*
X86505801Y-31435001D01*
X61289999Y6368001D02*
X61289999Y-7668001D01*
X66039999Y111368001D02*
X66039999Y97331999D01*
X69405490Y121200000D02*
X69405490Y111535001D01*
X33190001Y-28668001D02*
X33190001Y-14631999D01*
X52190001Y-28668001D02*
X52190001Y-14631999D01*
X44074510Y111535001D02*
X44074510Y121200000D01*
X47440001Y97331999D02*
X47440001Y111368001D01*
X36528001Y76164999D02*
X36695001Y76331999D01*
X44074510Y97164999D02*
X47273001Y97164999D01*
X44074510Y90535001D02*
X44074510Y97164999D01*
X33329510Y76164999D02*
X36528001Y76164999D01*
X45668010Y-14464999D02*
X42623336Y-7734667D01*
X47440001Y90368001D02*
X47273001Y90535001D01*
X47440001Y76331999D02*
X47440001Y90368001D01*
X46195001Y27368001D02*
X46028001Y27535001D01*
X47273001Y76164999D02*
X47440001Y76331999D01*
X44074510Y76164999D02*
X47273001Y76164999D01*
X48451999Y27535001D02*
X48284999Y27368001D01*
X55528001Y48535001D02*
X52329510Y48535001D01*
X55695001Y48368001D02*
X55528001Y48535001D01*
X52023001Y-14464999D02*
X45668010Y-14464999D01*
X72034999Y-7668001D02*
X72201999Y-7835001D01*
X76962990Y6535001D02*
X72201999Y6535001D01*
X44074510Y121200000D02*
X69405490Y121200000D01*
X55695001Y42312010D02*
X55695001Y48368001D01*
X57784999Y42312010D02*
X55695001Y42312010D01*
X57951999Y48535001D02*
X57784999Y48368001D01*
X66273001Y48535001D02*
X57951999Y48535001D01*
X36528001Y111535001D02*
X33329510Y111535001D01*
X66440001Y48368001D02*
X66273001Y48535001D01*
X46195001Y19387990D02*
X48284999Y19387990D01*
X57784999Y34331999D02*
X57951999Y34164999D01*
X57784999Y40387990D02*
X57784999Y34331999D01*
X34034999Y-7668001D02*
X34201999Y-7835001D01*
X55695001Y40387990D02*
X57784999Y40387990D01*
X55695001Y34331999D02*
X55695001Y40387990D01*
X33329510Y97164999D02*
X36528001Y97164999D01*
X55528001Y34164999D02*
X55695001Y34331999D01*
X53574510Y34164999D02*
X55528001Y34164999D01*
X70956999Y-28835001D02*
X71504990Y-28835001D01*
X66039999Y97331999D02*
X66206999Y97164999D01*
X53574510Y27535001D02*
X53574510Y34164999D01*
X27028001Y27535001D02*
X23829510Y27535001D01*
X56940001Y27368001D02*
X56773001Y27535001D01*
X56940001Y13331999D02*
X56940001Y27368001D01*
X91960001Y-28835001D02*
X110925000Y-28835001D01*
X56773001Y13164999D02*
X56940001Y13331999D01*
X81701999Y-28835001D02*
X84902490Y-28835001D01*
X48284999Y13331999D02*
X48451999Y13164999D01*
X49200001Y-35569199D02*
X48822510Y-35191708D01*
X48284999Y19387990D02*
X48284999Y13331999D01*
X38784999Y111368001D02*
X38784999Y97331999D01*
X66206999Y97164999D02*
X69405490Y97164999D01*
X47273001Y90535001D02*
X44074510Y90535001D01*
X33329510Y90535001D02*
X33329510Y97164999D01*
X40887010Y13164999D02*
X46028001Y13164999D01*
X66273001Y34164999D02*
X66440001Y34331999D01*
X38951999Y76164999D02*
X42150490Y76164999D01*
X42523001Y6535001D02*
X40887010Y6535001D01*
X42690001Y6368001D02*
X42523001Y6535001D01*
X69405490Y97164999D02*
X69405490Y90535001D01*
X47273001Y97164999D02*
X47440001Y97331999D01*
X48822510Y-28835001D02*
X52023001Y-28835001D01*
X70789999Y-28668001D02*
X70956999Y-28835001D01*
X49200001Y-36850801D02*
X49200001Y-35569199D01*
X75706999Y13164999D02*
X76962990Y13164999D01*
X48822510Y-35191708D02*
X48822510Y-28835001D01*
X83526523Y35582010D02*
X78905490Y30960977D01*
X70956999Y-14464999D02*
X70789999Y-14631999D01*
X47273001Y111535001D02*
X44074510Y111535001D01*
X46529999Y-35569199D02*
X46529999Y-36850801D01*
X40556991Y-7835001D02*
X43601664Y-14565334D01*
X72201999Y-7835001D02*
X74155490Y-7835001D01*
X33023001Y-28835001D02*
X33190001Y-28668001D01*
X52190001Y-14631999D02*
X52023001Y-14464999D01*
X37706999Y13164999D02*
X38962990Y13164999D01*
X46902490Y-35196708D02*
X46529999Y-35569199D01*
X66440001Y34331999D02*
X66440001Y48368001D01*
X34201999Y-7835001D02*
X40556991Y-7835001D01*
X34034999Y6368001D02*
X34034999Y-7668001D01*
X56773001Y27535001D02*
X53574510Y27535001D01*
X37539999Y27368001D02*
X37539999Y13331999D01*
X46028001Y27535001D02*
X37706999Y27535001D01*
X61289999Y-7668001D02*
X61456999Y-7835001D01*
X72034999Y6368001D02*
X72034999Y312010D01*
X78905490Y27535001D02*
X75706999Y27535001D01*
X48284999Y21312010D02*
X46195001Y21312010D01*
X38784999Y97331999D02*
X38951999Y97164999D01*
X23829510Y27535001D02*
X23829510Y34164999D01*
X23829510Y34164999D02*
X28273001Y34164999D01*
X51650490Y27535001D02*
X48451999Y27535001D01*
X47206999Y34164999D02*
X51650490Y34164999D01*
X46195001Y21312010D02*
X46195001Y27368001D01*
X61456999Y-7835001D02*
X69778001Y-7835001D01*
X48451999Y13164999D02*
X56773001Y13164999D01*
X47039999Y34331999D02*
X47206999Y34164999D01*
X43601664Y-14565334D02*
X43534999Y-14631999D01*
X57784999Y48368001D02*
X57784999Y42312010D01*
X72201999Y6535001D02*
X72034999Y6368001D01*
X47039999Y48368001D02*
X47039999Y34331999D01*
X42150490Y65976523D02*
X50405490Y57721524D01*
X37539999Y13331999D02*
X37706999Y13164999D01*
X79445001Y-22612010D02*
X81534999Y-22612010D01*
X69945001Y6368001D02*
X69778001Y6535001D01*
X28440001Y48368001D02*
X28273001Y48535001D01*
X42150490Y76164999D02*
X42150490Y65976523D01*
X57951999Y34164999D02*
X66273001Y34164999D01*
X72862649Y-37022352D02*
X73425010Y-36459991D01*
X50405490Y48535001D02*
X47206999Y48535001D01*
X31945001Y6368001D02*
X31778001Y6535001D01*
X31778001Y6535001D02*
X26387010Y6535001D01*
X52023001Y-28835001D02*
X52190001Y-28668001D01*
X88405490Y52721524D02*
X88405490Y48535001D01*
X69778001Y-7835001D02*
X69945001Y-7668001D01*
X38784999Y90368001D02*
X38784999Y76331999D01*
X30969999Y-28835001D02*
X33023001Y-28835001D01*
X42150490Y90535001D02*
X38951999Y90535001D01*
X47224199Y-37545001D02*
X48505801Y-37545001D01*
X34201999Y6535001D02*
X34034999Y6368001D01*
X74155490Y-7835001D02*
X74155490Y-14464999D01*
X33329510Y120700000D02*
X42150490Y120700000D01*
X38951999Y90535001D02*
X38784999Y90368001D01*
X31945001Y-7668001D02*
X31945001Y6368001D01*
X52329510Y48535001D02*
X52329510Y58518477D01*
X40887010Y6535001D02*
X40887010Y13164999D01*
X69405490Y111535001D02*
X66206999Y111535001D01*
X36695001Y111368001D02*
X36528001Y111535001D01*
X46902490Y-28835001D02*
X46902490Y-35196708D01*
X75539999Y27368001D02*
X75539999Y13331999D01*
X48284999Y27368001D02*
X48284999Y21312010D01*
X38962990Y13164999D02*
X38962990Y6535001D01*
X46195001Y13331999D02*
X46195001Y19387990D01*
X36695001Y97331999D02*
X36695001Y111368001D01*
X36528001Y97164999D02*
X36695001Y97331999D01*
X36528001Y90535001D02*
X33329510Y90535001D01*
X52329510Y58518477D02*
X44074510Y66773476D01*
X36695001Y76331999D02*
X36695001Y90368001D01*
X69405490Y90535001D02*
X66206999Y90535001D01*
X50405490Y57721524D02*
X50405490Y48535001D01*
X44074510Y66773476D02*
X44074510Y76164999D01*
X73425010Y-28835001D02*
X79278001Y-28835001D01*
X47206999Y48535001D02*
X47039999Y48368001D01*
X42150490Y120700000D02*
X42150490Y111535001D01*
X33329510Y65976523D02*
X33329510Y76164999D01*
X37706999Y27535001D02*
X37539999Y27368001D01*
X28273001Y48535001D02*
X25074510Y48535001D01*
X48505801Y-37545001D02*
X49200001Y-36850801D01*
X51650490Y34164999D02*
X51650490Y27535001D01*
X42150490Y97164999D02*
X42150490Y90535001D01*
X42150490Y111535001D02*
X38951999Y111535001D01*
X85039999Y48368001D02*
X85039999Y35582010D01*
X25074510Y57721524D02*
X33329510Y65976523D01*
X31778001Y-7835001D02*
X31945001Y-7668001D01*
X29824510Y-7835001D02*
X31778001Y-7835001D01*
X25074510Y48535001D02*
X25074510Y57721524D01*
X38951999Y111535001D02*
X38784999Y111368001D01*
X33329510Y111535001D02*
X33329510Y120700000D01*
X27195001Y13331999D02*
X27195001Y27368001D01*
X29824510Y-14464999D02*
X29824510Y-7835001D01*
X33023001Y-14464999D02*
X29824510Y-14464999D01*
X33190001Y-14631999D02*
X33023001Y-14464999D01*
X26387010Y6535001D02*
X26387010Y13120000D01*
X38951999Y97164999D02*
X42150490Y97164999D01*
X27195001Y27368001D02*
X27028001Y27535001D01*
X36695001Y90368001D02*
X36528001Y90535001D01*
X74155490Y-14464999D02*
X70956999Y-14464999D01*
X26983002Y13120000D02*
X27195001Y13331999D01*
X43534999Y-14631999D02*
X43534999Y-28668001D01*
X38962990Y6535001D02*
X34201999Y6535001D01*
X72034999Y312010D02*
X69945001Y312010D01*
X46028001Y13164999D02*
X46195001Y13331999D01*
X47440001Y111368001D02*
X47273001Y111535001D01*
X71504990Y-28835001D02*
X71504990Y-36459991D01*
X28440001Y34331999D02*
X28440001Y48368001D01*
X86822510Y-49835001D02*
X88880001Y-49835001D01*
X86822510Y-51781708D02*
X86822510Y-49835001D01*
X87210001Y-52169199D02*
X86822510Y-51781708D01*
X87210001Y-53450801D02*
X87210001Y-52169199D01*
X84539999Y-52169199D02*
X84539999Y-53450801D01*
X81534999Y-49668001D02*
X81701999Y-49835001D01*
X84539999Y-53450801D02*
X85234199Y-54145001D01*
X84902490Y-49835001D02*
X84902490Y-51806708D01*
X84902490Y-51806708D02*
X84539999Y-52169199D01*
X81701999Y-49835001D02*
X84902490Y-49835001D01*
X85234199Y-54145001D02*
X86515801Y-54145001D01*
X81534999Y-43612010D02*
X81534999Y-49668001D01*
X86515801Y-54145001D02*
X87210001Y-53450801D01*
X31692990Y-43612010D02*
X81534999Y-43612010D01*
X10822510Y-29171708D02*
X10822510Y-28840000D01*
X11210001Y-29559199D02*
X10822510Y-29171708D01*
X11210001Y-30840801D02*
X11210001Y-29559199D01*
X9234199Y-31535001D02*
X10515801Y-31535001D01*
X8539999Y-30840801D02*
X9234199Y-31535001D01*
X8539999Y-29559199D02*
X8539999Y-30840801D01*
X8902490Y-29196708D02*
X8539999Y-29559199D01*
X5706998Y-28840000D02*
X8902490Y-28840000D01*
X5534999Y-28668001D02*
X5706998Y-28840000D01*
X16955000Y-28840000D02*
X16959999Y-28835001D01*
X5534999Y-22612010D02*
X5534999Y-28668001D01*
X3278001Y-28835001D02*
X3445001Y-28668001D01*
X3445001Y-28668001D02*
X3445001Y-22612010D01*
X10822510Y-28840000D02*
X16955000Y-28840000D01*
X77510Y-28835001D02*
X3278001Y-28835001D01*
X951999Y-35643001D02*
X77510Y-36517490D01*
X8902490Y-28840000D02*
X8902490Y-29196708D01*
X3445001Y-22612010D02*
X5534999Y-22612010D01*
X10515801Y-31535001D02*
X11210001Y-30840801D01*
X77510Y-36517490D02*
X77510Y-28835001D01*
X16959999Y-28835001D02*
X25925000Y-28835001D01*
X951999Y-35464999D02*
X951999Y-35643001D01*
X6072510Y-51831708D02*
X6072510Y-49835001D01*
X6460001Y-53500801D02*
X6460001Y-52219199D01*
X6460001Y-52219199D02*
X6072510Y-51831708D01*
X3789999Y-53500801D02*
X4484199Y-54195001D01*
X3789999Y-52219199D02*
X3789999Y-53500801D01*
X4152490Y-51856708D02*
X3789999Y-52219199D01*
X4152490Y-49835001D02*
X4152490Y-51856708D01*
X6072510Y-49835001D02*
X9273001Y-49835001D01*
X5765801Y-54195001D02*
X6460001Y-53500801D01*
X784999Y-49668001D02*
X951999Y-49835001D01*
X951999Y-49835001D02*
X4152490Y-49835001D01*
X784999Y-43612010D02*
X784999Y-49668001D01*
X4484199Y-54195001D02*
X5765801Y-54195001D01*
X-25057010Y-43612010D02*
X784999Y-43612010D01*
X-35443009Y-7835001D02*
X-32398336Y-14565334D01*
X-41798001Y-7835001D02*
X-35443009Y-7835001D01*
X-41965001Y-7668001D02*
X-41798001Y-7835001D01*
X-41965001Y6368001D02*
X-41965001Y-7668001D01*
X-38460001Y13331999D02*
X-38293001Y13164999D01*
X-41798001Y6535001D02*
X-41965001Y6368001D01*
X-33849510Y72518477D02*
X-52849510Y53518477D01*
X-51465001Y-22612010D02*
X-51465001Y-28668001D01*
X-37037010Y6535001D02*
X-41798001Y6535001D01*
X-37037010Y13164999D02*
X-37037010Y6535001D01*
X-6594510Y97164999D02*
X-6594510Y90535001D01*
X-38293001Y27535001D02*
X-38460001Y27368001D01*
X-29971999Y27535001D02*
X-38293001Y27535001D01*
X-72554999Y-28668001D02*
X-72554999Y-14631999D01*
X-24349510Y34164999D02*
X-24349510Y27535001D01*
X-28960001Y34331999D02*
X-28793001Y34164999D01*
X-28960001Y48368001D02*
X-28960001Y34331999D01*
X-29804999Y21312010D02*
X-29804999Y27368001D01*
X-48971999Y27535001D02*
X-52170490Y27535001D01*
X-28793001Y48535001D02*
X-28960001Y48368001D01*
X-53721999Y-14464999D02*
X-62043001Y-14464999D01*
X-25594510Y53518477D02*
X-25594510Y48535001D01*
X-27715001Y27368001D02*
X-27715001Y21312010D01*
X-42670490Y71164023D02*
X-42670490Y76164999D01*
X-9960001Y76331999D02*
X-9793001Y76164999D01*
X-44054999Y6368001D02*
X-44221999Y6535001D01*
X-29804999Y27368001D02*
X-29971999Y27535001D01*
X-9793001Y97164999D02*
X-6594510Y97164999D01*
X-9960001Y97331999D02*
X-9793001Y97164999D01*
X-6594510Y119300000D02*
X-6594510Y111535001D01*
X-53721999Y-28835001D02*
X-53554999Y-28668001D01*
X-31925490Y119300000D02*
X-6594510Y119300000D01*
X-71476999Y-35464999D02*
X-74675490Y-35464999D01*
X-71309999Y-7668001D02*
X-71309999Y6368001D01*
X-31925490Y111535001D02*
X-31925490Y119300000D01*
X-28559999Y111368001D02*
X-28726999Y111535001D01*
X-28726999Y97164999D02*
X-28559999Y97331999D01*
X-46177490Y-28835001D02*
X-42976999Y-28835001D01*
X-31925490Y97164999D02*
X-28726999Y97164999D01*
X-31925490Y90535001D02*
X-31925490Y97164999D01*
X-28726999Y76164999D02*
X-28559999Y76331999D01*
X-31925490Y76164999D02*
X-28726999Y76164999D01*
X-31925490Y71721523D02*
X-31925490Y76164999D01*
X-76059999Y27368001D02*
X-76226999Y27535001D01*
X-50925490Y48535001D02*
X-50925490Y52721524D01*
X-32465001Y-28668001D02*
X-32298001Y-28835001D01*
X-47726999Y48535001D02*
X-50925490Y48535001D01*
X-52170490Y34164999D02*
X-47726999Y34164999D01*
X-6594510Y76164999D02*
X-6594510Y72518477D01*
X-48804999Y13331999D02*
X-48804999Y27368001D01*
X-49612990Y13164999D02*
X-48971999Y13164999D01*
X-57210012Y13082010D02*
X-51537010Y13082010D01*
X-49612990Y6535001D02*
X-49612990Y13164999D01*
X-42976999Y-28835001D02*
X-42809999Y-28668001D01*
X-44221999Y6535001D02*
X-49612990Y6535001D01*
X-44221999Y-7835001D02*
X-44054999Y-7668001D01*
X-71476999Y-49835001D02*
X-71309999Y-49668001D01*
X-46175490Y-7835001D02*
X-44221999Y-7835001D01*
X-54094510Y27535001D02*
X-57293001Y27535001D01*
X-42976999Y-14464999D02*
X-46175490Y-14464999D01*
X-27548001Y27535001D02*
X-27715001Y27368001D01*
X-42809999Y-28668001D02*
X-42809999Y-14631999D01*
X-46177490Y-36605149D02*
X-46177490Y-28835001D01*
X-47535149Y-37167510D02*
X-46739851Y-37167510D01*
X-42809999Y-14631999D02*
X-42976999Y-14464999D01*
X-48097510Y-36605149D02*
X-47535149Y-37167510D01*
X-39471999Y111535001D02*
X-42490001Y111535001D01*
X-9960001Y111368001D02*
X-9960001Y97331999D01*
X-75920490Y-7835001D02*
X-71476999Y-7835001D01*
X-51298001Y-28835001D02*
X-48097510Y-28835001D01*
X-53554999Y-22612010D02*
X-51465001Y-22612010D01*
X-53554999Y-28668001D02*
X-53554999Y-22612010D01*
X-47726999Y34164999D02*
X-47559999Y34331999D01*
X-57293001Y27535001D02*
X-57460001Y27368001D01*
X-28793001Y34164999D02*
X-24349510Y34164999D01*
X-48971999Y13164999D02*
X-48804999Y13331999D01*
X-47559999Y34331999D02*
X-47559999Y48368001D01*
X-32298001Y-28835001D02*
X-31030001Y-28835001D01*
X-33849510Y118840000D02*
X-33849510Y111535001D01*
X-56922490Y-29236708D02*
X-56922490Y-28835001D01*
X-76226999Y27535001D02*
X-82584186Y27535001D01*
X-56549999Y-29609199D02*
X-56922490Y-29236708D01*
X-27715001Y21312010D02*
X-29804999Y21312010D01*
X-56549999Y-30890801D02*
X-56549999Y-29609199D01*
X-58525801Y-31585001D02*
X-57244199Y-31585001D01*
X-28559999Y97331999D02*
X-28559999Y111368001D01*
X-59220001Y-29609199D02*
X-59220001Y-30890801D01*
X-58842510Y-29231708D02*
X-59220001Y-29609199D01*
X-58842510Y-28835001D02*
X-58842510Y-29231708D01*
X-62210001Y-14631999D02*
X-62210001Y-28668001D01*
X-59220001Y-30890801D02*
X-58525801Y-31585001D01*
X-51465001Y-14631999D02*
X-51465001Y-20687990D01*
X-51298001Y-14464999D02*
X-51465001Y-14631999D01*
X-48099510Y-14464999D02*
X-51298001Y-14464999D01*
X-52543001Y6535001D02*
X-52710001Y6368001D01*
X-38293001Y13164999D02*
X-37037010Y13164999D01*
X-48099510Y-7835001D02*
X-48099510Y-14464999D01*
X-9793001Y111535001D02*
X-9960001Y111368001D01*
X-52710001Y6368001D02*
X-52710001Y-7668001D01*
X-62043001Y-14464999D02*
X-62210001Y-14631999D01*
X-51465001Y-20687990D02*
X-53554999Y-20687990D01*
X-6594510Y111535001D02*
X-9793001Y111535001D01*
X-51537010Y6535001D02*
X-52543001Y6535001D01*
X-56022512Y34139510D02*
X-54094510Y34139510D01*
X-85559999Y48368001D02*
X-85726999Y48535001D01*
X-56048001Y48535001D02*
X-56215001Y48368001D01*
X-51537010Y13082010D02*
X-51537010Y6535001D01*
X-72721999Y-28835001D02*
X-72554999Y-28668001D01*
X-58304999Y34331999D02*
X-58304999Y40387990D01*
X-9793001Y90535001D02*
X-9960001Y90368001D01*
X-71309999Y6368001D02*
X-71476999Y6535001D01*
X-37048001Y76164999D02*
X-33849510Y76164999D01*
X-57460001Y13331999D02*
X-57210012Y13082010D01*
X-28559999Y76331999D02*
X-28559999Y90368001D01*
X-58471999Y34164999D02*
X-58304999Y34331999D01*
X-38460001Y27368001D02*
X-38460001Y13331999D01*
X-32465001Y-14631999D02*
X-32465001Y-28668001D01*
X-39304999Y76331999D02*
X-39304999Y90368001D01*
X-66793001Y34164999D02*
X-58471999Y34164999D01*
X-66793001Y48535001D02*
X-66960001Y48368001D01*
X-58304999Y48368001D02*
X-58471999Y48535001D01*
X-66960001Y48368001D02*
X-66960001Y34331999D01*
X-39471999Y76164999D02*
X-39304999Y76331999D01*
X-56215001Y40387990D02*
X-56215001Y34331999D01*
X-76226999Y13164999D02*
X-76059999Y13331999D01*
X-56215001Y42312010D02*
X-58304999Y42312010D01*
X-58471999Y48535001D02*
X-66793001Y48535001D01*
X-56215001Y48368001D02*
X-56215001Y42312010D01*
X-52170490Y27535001D02*
X-52170490Y34164999D01*
X-77714514Y61120000D02*
X-52714513Y61120000D01*
X-77112990Y6535001D02*
X-77112990Y13164999D01*
X-62210001Y-28668001D02*
X-62043001Y-28835001D01*
X-52849510Y48535001D02*
X-56048001Y48535001D01*
X-52849510Y53518477D02*
X-52849510Y48535001D01*
X-9793001Y76164999D02*
X-6594510Y76164999D01*
X-6594510Y90535001D02*
X-9793001Y90535001D01*
X-33849510Y90535001D02*
X-37048001Y90535001D01*
X-33849510Y76164999D02*
X-33849510Y72518477D01*
X-46175490Y-14464999D02*
X-46175490Y-7835001D01*
X-37215001Y90368001D02*
X-37215001Y76331999D01*
X-57244199Y-31585001D02*
X-56549999Y-30890801D01*
X-37048001Y90535001D02*
X-37215001Y90368001D01*
X-72721999Y-14464999D02*
X-75920490Y-14464999D01*
X-37048001Y97164999D02*
X-33849510Y97164999D01*
X-88925490Y48535001D02*
X-88925490Y49909024D01*
X-52714513Y61120000D02*
X-42670490Y71164023D01*
X-37048001Y111535001D02*
X-37215001Y111368001D01*
X-24349510Y27535001D02*
X-27548001Y27535001D01*
X-42670490Y118840000D02*
X-33849510Y118840000D01*
X-47559999Y48368001D02*
X-47726999Y48535001D01*
X-57460001Y27368001D02*
X-57460001Y13331999D01*
X-42670490Y111715490D02*
X-42670490Y118840000D01*
X-42490001Y111535001D02*
X-42670490Y111715490D01*
X-85559999Y34331999D02*
X-85559999Y48368001D01*
X-9960001Y90368001D02*
X-9960001Y76331999D01*
X-52710001Y-7668001D02*
X-52543001Y-7835001D01*
X-39304999Y111368001D02*
X-39471999Y111535001D01*
X-33849510Y111535001D02*
X-37048001Y111535001D01*
X-53554999Y-20687990D02*
X-53554999Y-14631999D01*
X-25594510Y48535001D02*
X-28793001Y48535001D01*
X-39471999Y97164999D02*
X-39304999Y97331999D01*
X-62043001Y-28835001D02*
X-58842510Y-28835001D01*
X-54094510Y34139510D02*
X-54094510Y27535001D01*
X-39471999Y90535001D02*
X-42670490Y90535001D01*
X-39304999Y97331999D02*
X-39304999Y111368001D01*
X-32398336Y-14565334D02*
X-32465001Y-14631999D01*
X-33849510Y97164999D02*
X-33849510Y90535001D01*
X-58304999Y40387990D02*
X-56215001Y40387990D01*
X-46739851Y-37167510D02*
X-46177490Y-36605149D01*
X-42670490Y97164999D02*
X-39471999Y97164999D01*
X-28726999Y90535001D02*
X-31925490Y90535001D01*
X-85628175Y34263823D02*
X-85559999Y34331999D01*
X-66960001Y34331999D02*
X-66793001Y34164999D01*
X-82584186Y27535001D02*
X-85628175Y34263823D01*
X-6594510Y72518477D02*
X-25594510Y53518477D01*
X-88925490Y49909024D02*
X-77714514Y61120000D01*
X-48097510Y-28835001D02*
X-48097510Y-36605149D01*
X-71309999Y-49668001D02*
X-71309999Y-35631999D01*
X-76059999Y13331999D02*
X-76059999Y27368001D01*
X-44054999Y-7668001D02*
X-44054999Y6368001D01*
X-56215001Y34331999D02*
X-56022512Y34139510D01*
X-28726999Y111535001D02*
X-31925490Y111535001D01*
X-28559999Y90368001D02*
X-28726999Y90535001D01*
X-37215001Y111368001D02*
X-37215001Y97331999D01*
X-72554999Y-14631999D02*
X-72721999Y-14464999D01*
X-42670490Y76164999D02*
X-39471999Y76164999D01*
X-71476999Y-7835001D02*
X-71309999Y-7668001D01*
X-58304999Y42312010D02*
X-58304999Y48368001D01*
X-71476999Y6535001D02*
X-77112990Y6535001D01*
X-56922490Y-28835001D02*
X-53721999Y-28835001D01*
X-52543001Y-7835001D02*
X-48099510Y-7835001D01*
X-77112990Y13164999D02*
X-76226999Y13164999D01*
X-42670490Y90535001D02*
X-42670490Y97164999D01*
X-51465001Y-28668001D02*
X-51298001Y-28835001D01*
X-48804999Y27368001D02*
X-48971999Y27535001D01*
X-37215001Y76331999D02*
X-37048001Y76164999D01*
X-37215001Y97331999D02*
X-37048001Y97164999D01*
X-75920490Y-14464999D02*
X-75920490Y-7835001D01*
X-53554999Y-14631999D02*
X-53721999Y-14464999D01*
X-74675490Y-28835001D02*
X-72721999Y-28835001D01*
X-74675490Y-35464999D02*
X-74675490Y-28835001D01*
X-50925490Y52721524D02*
X-31925490Y71721523D01*
X-85726999Y48535001D02*
X-88925490Y48535001D01*
X-71309999Y-35631999D02*
X-71476999Y-35464999D01*
X-39304999Y90368001D02*
X-39471999Y90535001D01*
X-74677490Y-49835001D02*
X-71476999Y-49835001D01*
X-74677490Y-51821708D02*
X-74677490Y-49835001D01*
X-74249999Y-53530801D02*
X-74249999Y-52249199D01*
X-74944199Y-54225001D02*
X-74249999Y-53530801D01*
X-76225801Y-54225001D02*
X-74944199Y-54225001D01*
X-76920001Y-53530801D02*
X-76225801Y-54225001D01*
X-76920001Y-52249199D02*
X-76920001Y-53530801D01*
X-76597510Y-51926708D02*
X-76920001Y-52249199D01*
X-76597510Y-49835001D02*
X-76597510Y-51926708D01*
X-74249999Y-52249199D02*
X-74677490Y-51821708D01*
X-79798001Y-49835001D02*
X-76597510Y-49835001D01*
X-79965001Y-49668001D02*
X-79798001Y-49835001D01*
X-143469999Y-49835001D02*
X-143471999Y-49833001D01*
X-115842510Y-49840000D02*
X-124685000Y-49840000D01*
X-115842510Y-51871708D02*
X-115842510Y-49840000D01*
X-143471999Y-49833001D02*
X-143471999Y-49835001D01*
X-124689999Y-49835001D02*
X-143469999Y-49835001D01*
X-114244199Y-54225001D02*
X-115525801Y-54225001D01*
X-115525801Y-54225001D02*
X-116220001Y-53530801D01*
X-113922490Y-49840000D02*
X-113922490Y-51876708D01*
X-113549999Y-53530801D02*
X-114244199Y-54225001D01*
X-124685000Y-49840000D02*
X-124689999Y-49835001D01*
X-110635000Y-49840000D02*
X-113922490Y-49840000D01*
X-113549999Y-52249199D02*
X-113549999Y-53530801D01*
X-116220001Y-52249199D02*
X-115842510Y-51871708D01*
X-116220001Y-53530801D02*
X-116220001Y-52249199D01*
X-113922490Y-51876708D02*
X-113549999Y-52249199D01*
X-173927490Y-49835001D02*
X-170726999Y-49835001D01*
X-173927490Y-51901708D02*
X-173927490Y-49835001D01*
X-179048001Y-49835001D02*
X-175847510Y-49835001D01*
X-179215001Y-35631999D02*
X-179215001Y-49668001D01*
X-179048001Y-28835001D02*
X-175849510Y-28835001D01*
X-179215001Y-49668001D02*
X-179048001Y-49835001D01*
X-179215001Y-28668001D02*
X-179048001Y-28835001D01*
X-179215001Y-14631999D02*
X-179215001Y-28668001D01*
X-173539999Y-52289199D02*
X-173927490Y-51901708D01*
X-174234199Y-54265001D02*
X-173539999Y-53570801D01*
X-175849510Y-14464999D02*
X-179048001Y-14464999D01*
X-175849510Y-7835001D02*
X-175849510Y-14464999D01*
X-176210001Y-52289199D02*
X-176210001Y-53570801D01*
X-113048001Y111535001D02*
X-113215001Y111368001D01*
X-179215001Y-7668001D02*
X-179048001Y-7835001D01*
X-175849510Y27535001D02*
X-179048001Y27535001D01*
X-179048001Y6535001D02*
X-179215001Y6368001D01*
X-113215001Y97331999D02*
X-113048001Y97164999D01*
X-179048001Y13164999D02*
X-175849510Y13164999D01*
X-175849510Y34120000D02*
X-175849510Y27535001D01*
X-179048001Y-14464999D02*
X-179215001Y-14631999D01*
X-113048001Y90535001D02*
X-113215001Y90368001D01*
X-179215001Y27368001D02*
X-179215001Y13331999D01*
X-173539999Y-53570801D02*
X-173539999Y-52289199D01*
X-109849510Y76164999D02*
X-109849510Y56705976D01*
X-179003002Y34120000D02*
X-175849510Y34120000D01*
X-179215001Y34331999D02*
X-179003002Y34120000D01*
X-179048001Y48535001D02*
X-179215001Y48368001D01*
X-175847510Y-51926708D02*
X-176210001Y-52289199D01*
X-151793001Y48535001D02*
X-151960001Y48368001D01*
X-170726999Y48535001D02*
X-179048001Y48535001D01*
X-179048001Y-7835001D02*
X-175849510Y-7835001D01*
X-113215001Y76331999D02*
X-113048001Y76164999D01*
X-175849510Y13164999D02*
X-175849510Y6535001D01*
X-179215001Y13331999D02*
X-179048001Y13164999D01*
X-151960001Y42312010D02*
X-170559999Y42312010D01*
X-151960001Y48368001D02*
X-151960001Y42312010D01*
X-175849510Y-35464999D02*
X-179048001Y-35464999D01*
X-175849510Y6535001D02*
X-179048001Y6535001D01*
X-175847510Y-49835001D02*
X-175847510Y-51926708D01*
X-179215001Y48368001D02*
X-179215001Y34331999D01*
X-179048001Y-35464999D02*
X-179215001Y-35631999D01*
X-109849510Y97164999D02*
X-109849510Y90535001D01*
X-143304999Y48368001D02*
X-143471999Y48535001D01*
X-143471999Y48535001D02*
X-151793001Y48535001D01*
X-129435486Y56120000D02*
X-143243476Y42312010D01*
X-143304999Y42312010D02*
X-143304999Y48368001D01*
X-170559999Y48368001D02*
X-170726999Y48535001D01*
X-113048001Y97164999D02*
X-109849510Y97164999D01*
X-143243476Y42312010D02*
X-143304999Y42312010D01*
X-113048001Y76164999D02*
X-109849510Y76164999D01*
X-113215001Y111368001D02*
X-113215001Y97331999D01*
X-110435486Y56120000D02*
X-129435486Y56120000D01*
X-109849510Y90535001D02*
X-113048001Y90535001D01*
X-175849510Y-28835001D02*
X-175849510Y-35464999D01*
X-113215001Y90368001D02*
X-113215001Y76331999D01*
X-176210001Y-53570801D02*
X-175515801Y-54265001D01*
X-109849510Y56705976D02*
X-110435486Y56120000D01*
X-175515801Y-54265001D02*
X-174234199Y-54265001D01*
X-109849510Y111535001D02*
X-113048001Y111535001D01*
X-170559999Y42312010D02*
X-170559999Y48368001D01*
X-179215001Y6368001D02*
X-179215001Y-7668001D01*
X-179048001Y27535001D02*
X-179215001Y27368001D01*
X-109849510Y121250000D02*
X-109849510Y111535001D01*
%TO.N,COL_G*%
X-17230000Y131620000D02*
X-17395000Y131785000D01*
D18*
X289112500Y20350000D02*
X278367500Y20350000D01*
X278367500Y20350000D02*
X278367500Y41350000D01*
X297367500Y-650000D02*
X289112500Y20350000D01*
X289112500Y-21650000D02*
X297367500Y-650000D01*
X289112500Y-21650000D02*
X278367500Y-21650000D01*
X278367500Y41350000D02*
X289112500Y41350000D01*
X297367500Y-42650000D02*
X289112500Y-21650000D01*
D17*
X297367500Y-42650000D02*
X297367500Y-52507500D01*
X-10354982Y124984982D02*
X-17155000Y131785000D01*
X120394781Y66021252D02*
X120394990Y66816553D01*
X120394990Y66816553D02*
X120406564Y110841492D01*
X120406564Y110841492D02*
X120406564Y123058436D01*
X120913318Y65502442D02*
X120394781Y66021252D01*
X278367500Y61910000D02*
X124505614Y61910000D01*
X124505614Y61910000D02*
X120913318Y65502296D01*
X120913318Y65502296D02*
X120913318Y65502442D01*
X120406564Y123058436D02*
X118480018Y124984982D01*
X278367500Y41350000D02*
X278367500Y61910000D01*
X118480018Y124984982D02*
X-10354982Y124984982D01*
D18*
%TO.N,COL_E*%
X232112500Y20350000D02*
X212367500Y20350000D01*
X232112500Y-21650000D02*
X212367500Y-21650000D01*
X232112500Y-650000D02*
X232112500Y20350000D01*
X232112500Y-21650000D02*
X232112500Y-650000D01*
X204112500Y41350000D02*
X193367500Y41350000D01*
X232112500Y-42650000D02*
X232112500Y-21650000D01*
X212367500Y20350000D02*
X204112500Y41350000D01*
D17*
X232112500Y-42650000D02*
X232112500Y-52442500D01*
X204112500Y41350000D02*
X204112500Y60990000D01*
X119506542Y110844915D02*
X119506542Y122658458D01*
X124152505Y60990000D02*
X119935127Y65207378D01*
X204112500Y60990000D02*
X124152505Y60990000D01*
X118080040Y124084960D02*
X-17374960Y124084960D01*
X119935127Y65207378D02*
X119935127Y65207990D01*
X119506542Y122658458D02*
X118080040Y124084960D01*
X119494664Y65648688D02*
X119506542Y110844915D01*
X-17374960Y124084960D02*
X-25075000Y131785000D01*
X119935127Y65207990D02*
X119494664Y65648688D01*
D18*
%TO.N,COL_C*%
X108367500Y104350000D02*
X108367500Y83350000D01*
X130425000Y38292500D02*
X127367500Y41350000D01*
X133362500Y20350000D02*
X133362500Y23182500D01*
X133362500Y23182500D02*
X130425000Y26120000D01*
X133362500Y20350000D02*
X117867500Y20350000D01*
X130425000Y26120000D02*
X130425000Y38292500D01*
X143992500Y-650000D02*
X133362500Y20350000D01*
D17*
X143992500Y-650000D02*
X143992500Y-3562500D01*
X143992500Y-3562500D02*
X140925000Y-6630000D01*
X140925000Y-41957500D02*
X141617500Y-42650000D01*
X140925000Y-6630000D02*
X140925000Y-41957500D01*
X137617500Y-21650000D02*
X140925000Y-21650000D01*
X141617500Y-42650000D02*
X141617500Y-52752500D01*
D18*
X-24340000Y123130000D02*
X-32995000Y131785000D01*
X108367500Y123130000D02*
X-24340000Y123130000D01*
X108367500Y104350000D02*
X108367500Y123130000D01*
X108367500Y75120000D02*
X108367500Y83350000D01*
X108367500Y59747500D02*
X108367500Y75120000D01*
X127367500Y41350000D02*
X127367500Y52177500D01*
X114995000Y53120000D02*
X108367500Y59747500D01*
X126425000Y53120000D02*
X114995000Y53120000D01*
X127367500Y52177500D02*
X126425000Y53120000D01*
%TO.N,COL_A*%
X70367500Y72120000D02*
X70367500Y83350000D01*
X89367500Y41350000D02*
X89367500Y53120000D01*
X76362500Y-650000D02*
X76362500Y2557500D01*
X85862500Y-21650000D02*
X75117500Y-21650000D01*
X77925000Y4120000D02*
X77925000Y18407500D01*
X75117500Y-1895000D02*
X76362500Y-650000D01*
X65617500Y-650000D02*
X76362500Y-650000D01*
X70367500Y104350000D02*
X70367500Y83350000D01*
X77925000Y18407500D02*
X79867500Y20350000D01*
X76362500Y2557500D02*
X77925000Y4120000D01*
X89367500Y53120000D02*
X70367500Y72120000D01*
X75117500Y-21650000D02*
X75117500Y-1895000D01*
X89367500Y39562500D02*
X89367500Y41350000D01*
X86425000Y36620000D02*
X89367500Y39562500D01*
X83925000Y34620000D02*
X86425000Y34620000D01*
X86425000Y34620000D02*
X86425000Y36620000D01*
X79867500Y30562500D02*
X83925000Y34620000D01*
X79867500Y20350000D02*
X79867500Y30562500D01*
D17*
X72465000Y-31551540D02*
X72465000Y-36062342D01*
X72465000Y-24302500D02*
X72465000Y-31551540D01*
X75117500Y-21650000D02*
X72465000Y-24302500D01*
X85862500Y-21650000D02*
X85862500Y-29972500D01*
D18*
X-31320000Y122190000D02*
X-40915000Y131785000D01*
X70367500Y122190000D02*
X-31320000Y122190000D01*
X70367500Y104350000D02*
X70367500Y122190000D01*
%TO.N,COL_8*%
X25425000Y17792500D02*
X22867500Y20350000D01*
X27617500Y2427500D02*
X25425000Y4620000D01*
X24112500Y41350000D02*
X24112500Y58120000D01*
X32367500Y83350000D02*
X32367500Y66375000D01*
X27617500Y-650000D02*
X27617500Y2427500D01*
X32367500Y66375000D02*
X24112500Y58120000D01*
X25425000Y4620000D02*
X25425000Y17792500D01*
X32367500Y104350000D02*
X32367500Y83350000D01*
X28862500Y-21650000D02*
X28862500Y-1895000D01*
X28862500Y-1895000D02*
X27617500Y-650000D01*
X22867500Y20350000D02*
X22867500Y40105000D01*
X22867500Y40105000D02*
X24112500Y41350000D01*
X13367500Y41350000D02*
X24112500Y41350000D01*
X28862500Y-41755000D02*
X28862500Y-21650000D01*
X29757500Y-42650000D02*
X28862500Y-41755000D01*
X85862500Y-42650000D02*
X29757500Y-42650000D01*
D17*
X85862500Y-42650000D02*
X85862500Y-52637844D01*
D18*
X-38290000Y121240000D02*
X-48835000Y131785000D01*
X32367500Y121240000D02*
X-38290000Y121240000D01*
X32367500Y104350000D02*
X32367500Y121240000D01*
%TO.N,COL_6*%
X-5632500Y104350000D02*
X-5632500Y83350000D01*
X-37637500Y1057500D02*
X-36075000Y2620000D01*
X-23387500Y40105000D02*
X-24632500Y41350000D01*
X-23387500Y20350000D02*
X-34132500Y20350000D01*
X-24632500Y41350000D02*
X-24632500Y53120000D01*
X-37637500Y-650000D02*
X-37637500Y1057500D01*
X-5632500Y72120000D02*
X-24632500Y53120000D01*
X-36075000Y18407500D02*
X-34132500Y20350000D01*
X-28137500Y-21650000D02*
X-37637500Y-650000D01*
X-36075000Y2620000D02*
X-36075000Y18407500D01*
X-5632500Y83350000D02*
X-5632500Y72120000D01*
X-23387500Y20350000D02*
X-23387500Y40105000D01*
X-28137500Y-41317500D02*
X-28137500Y-21650000D01*
X-26805000Y-42650000D02*
X-28137500Y-41317500D01*
X5112500Y-42650000D02*
X-26805000Y-42650000D01*
D17*
X5112500Y-42650000D02*
X5112500Y-52927500D01*
D18*
X-45240000Y120270000D02*
X-56755000Y131785000D01*
X-5632500Y120270000D02*
X-45240000Y120270000D01*
X-5632500Y104350000D02*
X-5632500Y120270000D01*
%TO.N,COL_4*%
X-75637500Y2682500D02*
X-78075000Y5120000D01*
X-43632500Y104350000D02*
X-43632500Y83350000D01*
X-78075000Y5120000D02*
X-78075000Y18037500D01*
X-76882500Y-21650000D02*
X-76882500Y-1895000D01*
X-78075000Y18037500D02*
X-80387500Y20350000D01*
X-75637500Y-650000D02*
X-75637500Y2682500D01*
X-76882500Y-1895000D02*
X-75637500Y-650000D01*
X-75637500Y-650000D02*
X-86382500Y-650000D01*
X-75637500Y-42650000D02*
X-75637500Y-22895000D01*
X-75637500Y-22895000D02*
X-76882500Y-21650000D01*
D17*
X-80387500Y20350000D02*
X-89887500Y41350000D01*
D18*
X-89887500Y50307500D02*
X-89887500Y41350000D01*
X-78075000Y62120000D02*
X-89887500Y50307500D01*
X-53075000Y62120000D02*
X-78075000Y62120000D01*
X-43632500Y71562500D02*
X-53075000Y62120000D01*
X-43632500Y83350000D02*
X-43632500Y71562500D01*
D17*
X-75637500Y-42650000D02*
X-75637500Y-52842500D01*
D18*
X-52220000Y119330000D02*
X-64675000Y131785000D01*
X-43632500Y119330000D02*
X-52220000Y119330000D01*
X-43632500Y104350000D02*
X-43632500Y119330000D01*
%TO.N,COL_2*%
X-123137500Y20350000D02*
X-123137500Y22682500D01*
X-125575000Y39037500D02*
X-127887500Y41350000D01*
X-125575000Y25120000D02*
X-125575000Y39037500D01*
X-147632500Y-42650000D02*
X-147632500Y-21650000D01*
X-147632500Y20350000D02*
X-123137500Y20350000D01*
X-147632500Y-21650000D02*
X-147632500Y-650000D01*
X-81632500Y104350000D02*
X-81632500Y83350000D01*
X-147632500Y-650000D02*
X-147632500Y20350000D01*
X-123137500Y22682500D02*
X-125575000Y25120000D01*
X-127075000Y51620000D02*
X-127887500Y50807500D01*
X-105575000Y51620000D02*
X-127075000Y51620000D01*
X-98075000Y59120000D02*
X-105575000Y51620000D01*
X-91075000Y59120000D02*
X-98075000Y59120000D01*
X-127887500Y50807500D02*
X-127887500Y41350000D01*
X-81632500Y68562500D02*
X-91075000Y59120000D01*
X-81632500Y83350000D02*
X-81632500Y68562500D01*
D17*
X-147632500Y-42650000D02*
X-147632500Y-52897500D01*
D18*
X-60995000Y120185000D02*
X-72595000Y131785000D01*
X-61135000Y119790000D02*
X-60995000Y119930000D01*
X-81632500Y119790000D02*
X-61135000Y119790000D01*
X-60995000Y119930000D02*
X-60995000Y120185000D01*
X-81632500Y104350000D02*
X-81632500Y119790000D01*
%TO.N,COL_F*%
X259367500Y20350000D02*
X251112500Y41350000D01*
X259367500Y-650000D02*
X259367500Y20350000D01*
X259367500Y-42650000D02*
X270112500Y-42650000D01*
X259367500Y-21650000D02*
X259367500Y-42650000D01*
X251112500Y41350000D02*
X240367500Y41350000D01*
X259367500Y-650000D02*
X259367500Y-21650000D01*
X259367500Y-650000D02*
X270112500Y-650000D01*
D17*
X270112500Y-42650000D02*
X270112500Y-52502500D01*
X-13864971Y124534971D02*
X-21115000Y131785000D01*
X118280029Y124534971D02*
X-13864971Y124534971D01*
X119944931Y66630272D02*
X119956553Y110837819D01*
X119944722Y65834969D02*
X119944931Y66630272D01*
X120385138Y65394321D02*
X119944722Y65834969D01*
X124318985Y61460000D02*
X120385138Y65393847D01*
X251112500Y61460000D02*
X124318985Y61460000D01*
X120385138Y65393847D02*
X120385138Y65394321D01*
X251112500Y41350000D02*
X251112500Y61460000D01*
X119956553Y122858447D02*
X118280029Y124534971D01*
X119956553Y110837819D02*
X119956553Y122858447D01*
D18*
%TO.N,COL_D*%
X185112500Y-21650000D02*
X185112500Y-42650000D01*
X185112500Y-650000D02*
X185112500Y-21650000D01*
X185112500Y20350000D02*
X174367500Y20350000D01*
X185112500Y-21650000D02*
X174367500Y-21650000D01*
X185112500Y20350000D02*
X185112500Y-650000D01*
X174367500Y20350000D02*
X166112500Y41350000D01*
X166112500Y41350000D02*
X146367500Y41350000D01*
D17*
X185112500Y-42650000D02*
X185112500Y-52422500D01*
D18*
X-28185001Y130935001D02*
X-29035000Y131785000D01*
D17*
X119485011Y65021013D02*
X119485011Y65021766D01*
X123966035Y60539989D02*
X119485011Y65021013D01*
X166112500Y41350000D02*
X166112500Y60539989D01*
X-20860000Y123610000D02*
X-29035000Y131785000D01*
X119485011Y65021766D02*
X119044605Y65462407D01*
X119044796Y122480204D02*
X117915000Y123610000D01*
X119044796Y66188269D02*
X119044796Y122480204D01*
X119044605Y65462407D02*
X119044796Y66188269D01*
X166112500Y60539989D02*
X123966035Y60539989D01*
X117915000Y123610000D02*
X-20860000Y123610000D01*
D18*
%TO.N,COL_B*%
X114362500Y-650000D02*
X103617500Y-650000D01*
X81112500Y71932500D02*
X81112500Y83350000D01*
X98867500Y20350000D02*
X98867500Y40105000D01*
X81112500Y104350000D02*
X81112500Y83350000D01*
X100112500Y41350000D02*
X100112500Y52932500D01*
X103617500Y1927500D02*
X101425000Y4120000D01*
X101425000Y4120000D02*
X101425000Y17792500D01*
X103617500Y-650000D02*
X103617500Y1927500D01*
X101425000Y17792500D02*
X98867500Y20350000D01*
X113117500Y-1895000D02*
X114362500Y-650000D01*
X115295000Y-23827500D02*
X113117500Y-21650000D01*
X100112500Y52932500D02*
X81112500Y71932500D01*
X98867500Y40105000D02*
X100112500Y41350000D01*
X113117500Y-21650000D02*
X113117500Y-1895000D01*
X115295000Y-39150000D02*
X115295000Y-23827500D01*
D17*
X115295000Y-39150000D02*
X115295000Y-45840000D01*
D18*
X81112500Y122670000D02*
X-27840000Y122670000D01*
X-27840000Y122670000D02*
X-36955000Y131785000D01*
X81112500Y104350000D02*
X81112500Y122670000D01*
%TO.N,COL_9*%
X43112500Y104350000D02*
X43112500Y83350000D01*
X51367500Y58120000D02*
X51367500Y41350000D01*
X43112500Y83350000D02*
X43112500Y66375000D01*
X38362500Y-650000D02*
X38362500Y2557500D01*
X52612500Y20350000D02*
X52612500Y40105000D01*
X52612500Y20350000D02*
X41867500Y20350000D01*
X43112500Y66375000D02*
X51367500Y58120000D01*
X38362500Y2557500D02*
X39925000Y4120000D01*
X62112500Y41350000D02*
X51367500Y41350000D01*
X47862500Y-21650000D02*
X38362500Y-650000D01*
X39925000Y4120000D02*
X39925000Y18407500D01*
X39925000Y18407500D02*
X41867500Y20350000D01*
X52612500Y40105000D02*
X51367500Y41350000D01*
D17*
X47862500Y-21650000D02*
X47862500Y-36087500D01*
D18*
X43112500Y121700000D02*
X-34790000Y121700000D01*
X-34790000Y121700000D02*
X-44875000Y131785000D01*
X43112500Y104350000D02*
X43112500Y121700000D01*
%TO.N,COL_7*%
X-4387500Y20350000D02*
X-13887500Y41350000D01*
X-13887500Y41350000D02*
X-13887500Y53120000D01*
X-2075000Y5120000D02*
X-2075000Y18037500D01*
X5112500Y83350000D02*
X5112500Y72120000D01*
X5112500Y72120000D02*
X-13887500Y53120000D01*
X-2075000Y18037500D02*
X-4387500Y20350000D01*
X362500Y2682500D02*
X-2075000Y5120000D01*
X362500Y-650000D02*
X362500Y2682500D01*
X362500Y4120000D02*
X-10382500Y4120000D01*
X9862500Y-21650000D02*
X-882500Y-21650000D01*
X5112500Y104350000D02*
X5112500Y83350000D01*
X-882500Y-1895000D02*
X362500Y-650000D01*
X1925000Y-21650000D02*
X1925000Y-1895000D01*
D17*
X-882500Y-21650000D02*
X-882500Y-36267500D01*
X9862500Y-21650000D02*
X9862500Y-30057500D01*
D18*
X-41770000Y120760000D02*
X-52795000Y131785000D01*
X5112500Y120760000D02*
X-41770000Y120760000D01*
X5112500Y104350000D02*
X5112500Y120760000D01*
%TO.N,COL_5*%
X-32887500Y83350000D02*
X-32887500Y72120000D01*
X-32887500Y72120000D02*
X-51887500Y53120000D01*
X-50575000Y5120000D02*
X-50575000Y17792500D01*
X-51887500Y41350000D02*
X-51887500Y53120000D01*
X-50575000Y17792500D02*
X-53132500Y20350000D01*
X-48382500Y2927500D02*
X-50575000Y5120000D01*
X-48382500Y-650000D02*
X-48382500Y2927500D01*
X-47137500Y-21650000D02*
X-57882500Y-21650000D01*
X-53132500Y40105000D02*
X-51887500Y41350000D01*
X-47137500Y-21650000D02*
X-47137500Y-1895000D01*
X-47137500Y-1895000D02*
X-48382500Y-650000D01*
X-53132500Y20350000D02*
X-53132500Y40105000D01*
X-62632500Y41350000D02*
X-51887500Y41350000D01*
X-32887500Y104350000D02*
X-32887500Y83350000D01*
D17*
X-47137500Y-21650000D02*
X-47137500Y-36207500D01*
X-57882500Y-21650000D02*
X-57882500Y-30127500D01*
D18*
X-48740000Y119810000D02*
X-60715000Y131785000D01*
X-32887500Y119810000D02*
X-48740000Y119810000D01*
X-32887500Y104350000D02*
X-32887500Y119810000D01*
%TO.N,COL_3*%
X-104137500Y-21650000D02*
X-117257500Y-21650000D01*
X-117257500Y-3025000D02*
X-114882500Y-650000D01*
X-117257500Y-21650000D02*
X-117257500Y-40275000D01*
X-117257500Y-21650000D02*
X-117257500Y-3025000D01*
X-117257500Y-40275000D02*
X-114882500Y-42650000D01*
X-70887500Y104350000D02*
X-70887500Y83350000D01*
X-99387500Y20350000D02*
X-99387500Y40105000D01*
X-99387500Y40105000D02*
X-100632500Y41350000D01*
X-99387500Y20350000D02*
X-114882500Y-650000D01*
X-100632500Y51562500D02*
X-100632500Y41350000D01*
X-96575000Y55620000D02*
X-100632500Y51562500D01*
X-89575000Y55620000D02*
X-96575000Y55620000D01*
X-73075000Y72120000D02*
X-89575000Y55620000D01*
X-73075000Y77120000D02*
X-73075000Y72120000D01*
D17*
X-114882500Y-42650000D02*
X-114882500Y-52837500D01*
D18*
X-70887500Y104350000D02*
X-70887500Y119320000D01*
X-56635000Y119785000D02*
X-68635000Y131785000D01*
X-56635000Y119520000D02*
X-56635000Y119785000D01*
X-56835000Y119320000D02*
X-56635000Y119520000D01*
X-70887500Y119320000D02*
X-56835000Y119320000D01*
%TO.N,COL_1*%
X-147632500Y41350000D02*
X-174887500Y41350000D01*
X-174887500Y-21650000D02*
X-174887500Y-650000D01*
X-108887500Y104350000D02*
X-108887500Y83350000D01*
X-174887500Y20350000D02*
X-174887500Y41350000D01*
X-174887500Y-42650000D02*
X-174887500Y-21650000D01*
X-174887500Y-650000D02*
X-174887500Y20350000D01*
X-142845000Y41350000D02*
X-147632500Y41350000D01*
X-129075000Y55120000D02*
X-142845000Y41350000D01*
X-110075000Y55120000D02*
X-129075000Y55120000D01*
X-108887500Y56307500D02*
X-110075000Y55120000D01*
X-108887500Y83350000D02*
X-108887500Y56307500D01*
D17*
X-174887500Y-42650000D02*
X-174887500Y-52807500D01*
D18*
X-65415000Y120645000D02*
X-76555000Y131785000D01*
X-65415000Y120440000D02*
X-65415000Y120645000D01*
X-65585000Y120270000D02*
X-65415000Y120440000D01*
X-108887500Y120270000D02*
X-65585000Y120270000D01*
X-108887500Y104350000D02*
X-108887500Y120270000D01*
%TD*%
%TO.N,GND*%
X-3750000Y133516264D02*
X-3749999Y129863649D01*
X-3753313Y129830000D01*
X-3740088Y129695717D01*
X-3700918Y129566594D01*
X-3637311Y129447593D01*
X-3612825Y129417757D01*
X-3573160Y129369424D01*
X-3573153Y129369417D01*
X-3551710Y129343289D01*
X-3525582Y129321846D01*
X-573160Y126369424D01*
X-551711Y126343289D01*
X-447407Y126257688D01*
X-369858Y126216237D01*
X-328407Y126194081D01*
X-199283Y126154912D01*
X-98647Y126145000D01*
X-98639Y126145000D01*
X-65000Y126141687D01*
X-31361Y126145000D01*
X223201Y126145000D01*
X221399Y125744982D01*
X-10040180Y125744982D01*
X-15713791Y131418592D01*
X-15711898Y131428109D01*
X-14636481Y131428109D01*
X-14539157Y131153748D01*
X-14390178Y130903645D01*
X-14195269Y130687412D01*
X-13961920Y130513359D01*
X-13699099Y130388175D01*
X-13551890Y130343524D01*
X-13322000Y130464845D01*
X-13322000Y131658000D01*
X-13068000Y131658000D01*
X-13068000Y130464845D01*
X-12838110Y130343524D01*
X-12690901Y130388175D01*
X-12428080Y130513359D01*
X-12194731Y130687412D01*
X-11999822Y130903645D01*
X-11850843Y131153748D01*
X-11753519Y131428109D01*
X-10676481Y131428109D01*
X-10579157Y131153748D01*
X-10430178Y130903645D01*
X-10235269Y130687412D01*
X-10001920Y130513359D01*
X-9739099Y130388175D01*
X-9591890Y130343524D01*
X-9362000Y130464845D01*
X-9362000Y131658000D01*
X-9108000Y131658000D01*
X-9108000Y130464845D01*
X-8878110Y130343524D01*
X-8730901Y130388175D01*
X-8468080Y130513359D01*
X-8234731Y130687412D01*
X-8039822Y130903645D01*
X-7890843Y131153748D01*
X-7793519Y131428109D01*
X-7914186Y131658000D01*
X-9108000Y131658000D01*
X-9362000Y131658000D01*
X-10555814Y131658000D01*
X-10676481Y131428109D01*
X-11753519Y131428109D01*
X-11874186Y131658000D01*
X-13068000Y131658000D01*
X-13322000Y131658000D01*
X-14515814Y131658000D01*
X-14636481Y131428109D01*
X-15711898Y131428109D01*
X-15670000Y131638740D01*
X-15670000Y131931260D01*
X-15711897Y132141891D01*
X-14636481Y132141891D01*
X-14515814Y131912000D01*
X-13322000Y131912000D01*
X-13322000Y133105155D01*
X-13068000Y133105155D01*
X-13068000Y131912000D01*
X-11874186Y131912000D01*
X-11753519Y132141891D01*
X-10676481Y132141891D01*
X-10555814Y131912000D01*
X-9362000Y131912000D01*
X-9362000Y133105155D01*
X-9108000Y133105155D01*
X-9108000Y131912000D01*
X-7914186Y131912000D01*
X-7793519Y132141891D01*
X-7890843Y132416252D01*
X-8039822Y132666355D01*
X-8234731Y132882588D01*
X-8468080Y133056641D01*
X-8730901Y133181825D01*
X-8878110Y133226476D01*
X-9108000Y133105155D01*
X-9362000Y133105155D01*
X-9591890Y133226476D01*
X-9739099Y133181825D01*
X-10001920Y133056641D01*
X-10235269Y132882588D01*
X-10430178Y132666355D01*
X-10579157Y132416252D01*
X-10676481Y132141891D01*
X-11753519Y132141891D01*
X-11850843Y132416252D01*
X-11999822Y132666355D01*
X-12194731Y132882588D01*
X-12428080Y133056641D01*
X-12690901Y133181825D01*
X-12838110Y133226476D01*
X-13068000Y133105155D01*
X-13322000Y133105155D01*
X-13551890Y133226476D01*
X-13699099Y133181825D01*
X-13961920Y133056641D01*
X-14195269Y132882588D01*
X-14390178Y132666355D01*
X-14539157Y132416252D01*
X-14636481Y132141891D01*
X-15711897Y132141891D01*
X-15727068Y132218158D01*
X-15839010Y132488411D01*
X-16001525Y132731632D01*
X-16208368Y132938475D01*
X-16451589Y133100990D01*
X-16721842Y133212932D01*
X-17008740Y133270000D01*
X-17301260Y133270000D01*
X-17588158Y133212932D01*
X-17858411Y133100990D01*
X-18101632Y132938475D01*
X-18308475Y132731632D01*
X-18470990Y132488411D01*
X-18512086Y132389195D01*
X-18574002Y132273359D01*
X-18646623Y132033963D01*
X-18658143Y131917000D01*
X-19630000Y131917000D01*
X-19630000Y131931260D01*
X-19687068Y132218158D01*
X-19799010Y132488411D01*
X-19961525Y132731632D01*
X-20168368Y132938475D01*
X-20411589Y133100990D01*
X-20681842Y133212932D01*
X-20968740Y133270000D01*
X-21261260Y133270000D01*
X-21548158Y133212932D01*
X-21818411Y133100990D01*
X-22061632Y132938475D01*
X-22268475Y132731632D01*
X-22430990Y132488411D01*
X-22542932Y132218158D01*
X-22600000Y131931260D01*
X-22600000Y131917000D01*
X-23590000Y131917000D01*
X-23590000Y131931260D01*
X-23647068Y132218158D01*
X-23759010Y132488411D01*
X-23921525Y132731632D01*
X-24128368Y132938475D01*
X-24371589Y133100990D01*
X-24641842Y133212932D01*
X-24928740Y133270000D01*
X-25221260Y133270000D01*
X-25508158Y133212932D01*
X-25778411Y133100990D01*
X-26021632Y132938475D01*
X-26228475Y132731632D01*
X-26390990Y132488411D01*
X-26502932Y132218158D01*
X-26560000Y131931260D01*
X-26560000Y131917000D01*
X-27550000Y131917000D01*
X-27550000Y131931260D01*
X-27607068Y132218158D01*
X-27719010Y132488411D01*
X-27881525Y132731632D01*
X-28088368Y132938475D01*
X-28331589Y133100990D01*
X-28601842Y133212932D01*
X-28888740Y133270000D01*
X-29181260Y133270000D01*
X-29468158Y133212932D01*
X-29738411Y133100990D01*
X-29981632Y132938475D01*
X-30188475Y132731632D01*
X-30350990Y132488411D01*
X-30462932Y132218158D01*
X-30520000Y131931260D01*
X-30520000Y131917000D01*
X-31510000Y131917000D01*
X-31510000Y131931260D01*
X-31567068Y132218158D01*
X-31679010Y132488411D01*
X-31841525Y132731632D01*
X-32048368Y132938475D01*
X-32291589Y133100990D01*
X-32561842Y133212932D01*
X-32848740Y133270000D01*
X-33141260Y133270000D01*
X-33428158Y133212932D01*
X-33698411Y133100990D01*
X-33941632Y132938475D01*
X-34148475Y132731632D01*
X-34310990Y132488411D01*
X-34422932Y132218158D01*
X-34480000Y131931260D01*
X-34480000Y131917000D01*
X-35470000Y131917000D01*
X-35470000Y131931260D01*
X-35527068Y132218158D01*
X-35639010Y132488411D01*
X-35801525Y132731632D01*
X-36008368Y132938475D01*
X-36251589Y133100990D01*
X-36521842Y133212932D01*
X-36808740Y133270000D01*
X-37101260Y133270000D01*
X-37388158Y133212932D01*
X-37658411Y133100990D01*
X-37901632Y132938475D01*
X-38108475Y132731632D01*
X-38270990Y132488411D01*
X-38382932Y132218158D01*
X-38440000Y131931260D01*
X-38440000Y131917000D01*
X-39430000Y131917000D01*
X-39430000Y131931260D01*
X-39487068Y132218158D01*
X-39599010Y132488411D01*
X-39761525Y132731632D01*
X-39968368Y132938475D01*
X-40211589Y133100990D01*
X-40481842Y133212932D01*
X-40768740Y133270000D01*
X-41061260Y133270000D01*
X-41348158Y133212932D01*
X-41618411Y133100990D01*
X-41861632Y132938475D01*
X-42068475Y132731632D01*
X-42230990Y132488411D01*
X-42342932Y132218158D01*
X-42400000Y131931260D01*
X-42400000Y131917000D01*
X-43390000Y131917000D01*
X-43390000Y131931260D01*
X-43447068Y132218158D01*
X-43559010Y132488411D01*
X-43721525Y132731632D01*
X-43928368Y132938475D01*
X-44171589Y133100990D01*
X-44441842Y133212932D01*
X-44728740Y133270000D01*
X-45021260Y133270000D01*
X-45308158Y133212932D01*
X-45578411Y133100990D01*
X-45821632Y132938475D01*
X-46028475Y132731632D01*
X-46190990Y132488411D01*
X-46302932Y132218158D01*
X-46360000Y131931260D01*
X-46360000Y131917000D01*
X-47350000Y131917000D01*
X-47350000Y131931260D01*
X-47407068Y132218158D01*
X-47519010Y132488411D01*
X-47681525Y132731632D01*
X-47888368Y132938475D01*
X-48131589Y133100990D01*
X-48401842Y133212932D01*
X-48688740Y133270000D01*
X-48981260Y133270000D01*
X-49268158Y133212932D01*
X-49538411Y133100990D01*
X-49781632Y132938475D01*
X-49988475Y132731632D01*
X-50150990Y132488411D01*
X-50262932Y132218158D01*
X-50320000Y131931260D01*
X-50320000Y131917000D01*
X-51310000Y131917000D01*
X-51310000Y131931260D01*
X-51367068Y132218158D01*
X-51479010Y132488411D01*
X-51641525Y132731632D01*
X-51848368Y132938475D01*
X-52091589Y133100990D01*
X-52361842Y133212932D01*
X-52648740Y133270000D01*
X-52941260Y133270000D01*
X-53228158Y133212932D01*
X-53498411Y133100990D01*
X-53741632Y132938475D01*
X-53948475Y132731632D01*
X-54110990Y132488411D01*
X-54222932Y132218158D01*
X-54280000Y131931260D01*
X-54280000Y131917000D01*
X-55270000Y131917000D01*
X-55270000Y131931260D01*
X-55327068Y132218158D01*
X-55439010Y132488411D01*
X-55601525Y132731632D01*
X-55808368Y132938475D01*
X-56051589Y133100990D01*
X-56321842Y133212932D01*
X-56608740Y133270000D01*
X-56901260Y133270000D01*
X-57188158Y133212932D01*
X-57458411Y133100990D01*
X-57701632Y132938475D01*
X-57908475Y132731632D01*
X-58070990Y132488411D01*
X-58182932Y132218158D01*
X-58240000Y131931260D01*
X-58240000Y131917000D01*
X-59230000Y131917000D01*
X-59230000Y131931260D01*
X-59287068Y132218158D01*
X-59399010Y132488411D01*
X-59561525Y132731632D01*
X-59768368Y132938475D01*
X-60011589Y133100990D01*
X-60281842Y133212932D01*
X-60568740Y133270000D01*
X-60861260Y133270000D01*
X-61148158Y133212932D01*
X-61418411Y133100990D01*
X-61661632Y132938475D01*
X-61868475Y132731632D01*
X-62030990Y132488411D01*
X-62142932Y132218158D01*
X-62200000Y131931260D01*
X-62200000Y131917000D01*
X-63190000Y131917000D01*
X-63190000Y131931260D01*
X-63247068Y132218158D01*
X-63359010Y132488411D01*
X-63521525Y132731632D01*
X-63728368Y132938475D01*
X-63971589Y133100990D01*
X-64241842Y133212932D01*
X-64528740Y133270000D01*
X-64821260Y133270000D01*
X-65108158Y133212932D01*
X-65378411Y133100990D01*
X-65621632Y132938475D01*
X-65828475Y132731632D01*
X-65990990Y132488411D01*
X-66102932Y132218158D01*
X-66160000Y131931260D01*
X-66160000Y131917000D01*
X-67150000Y131917000D01*
X-67150000Y131931260D01*
X-67207068Y132218158D01*
X-67319010Y132488411D01*
X-67481525Y132731632D01*
X-67688368Y132938475D01*
X-67931589Y133100990D01*
X-68201842Y133212932D01*
X-68488740Y133270000D01*
X-68781260Y133270000D01*
X-69068158Y133212932D01*
X-69338411Y133100990D01*
X-69581632Y132938475D01*
X-69788475Y132731632D01*
X-69950990Y132488411D01*
X-70062932Y132218158D01*
X-70120000Y131931260D01*
X-70120000Y131917000D01*
X-71110000Y131917000D01*
X-71110000Y131931260D01*
X-71167068Y132218158D01*
X-71279010Y132488411D01*
X-71441525Y132731632D01*
X-71648368Y132938475D01*
X-71891589Y133100990D01*
X-72161842Y133212932D01*
X-72448740Y133270000D01*
X-72741260Y133270000D01*
X-73028158Y133212932D01*
X-73298411Y133100990D01*
X-73541632Y132938475D01*
X-73748475Y132731632D01*
X-73910990Y132488411D01*
X-74022932Y132218158D01*
X-74080000Y131931260D01*
X-74080000Y131917000D01*
X-75070000Y131917000D01*
X-75070000Y131931260D01*
X-75127068Y132218158D01*
X-75239010Y132488411D01*
X-75401525Y132731632D01*
X-75608368Y132938475D01*
X-75851589Y133100990D01*
X-76121842Y133212932D01*
X-76408740Y133270000D01*
X-76701260Y133270000D01*
X-76988158Y133212932D01*
X-77258411Y133100990D01*
X-77501632Y132938475D01*
X-77708475Y132731632D01*
X-77870990Y132488411D01*
X-77982932Y132218158D01*
X-78040000Y131931260D01*
X-78040000Y131638740D01*
X-77982932Y131351842D01*
X-77870990Y131081589D01*
X-77708475Y130838368D01*
X-77501632Y130631525D01*
X-77258411Y130469010D01*
X-76988158Y130357068D01*
X-76701260Y130300000D01*
X-76408740Y130300000D01*
X-76190951Y130343321D01*
X-66879631Y121032000D01*
X-108850074Y121032000D01*
X-108887500Y121035686D01*
X-108924925Y121032000D01*
X-108924926Y121032000D01*
X-109036878Y121020974D01*
X-109180515Y120977402D01*
X-109312892Y120906645D01*
X-109428922Y120811422D01*
X-109524145Y120695392D01*
X-109594902Y120563015D01*
X-109638474Y120419378D01*
X-109646912Y120333703D01*
X-123625152Y120317000D01*
X-123649925Y120314530D01*
X-123673741Y120307275D01*
X-123695684Y120295512D01*
X-123714910Y120279695D01*
X-123730681Y120260431D01*
X-123742391Y120238461D01*
X-123749589Y120214628D01*
X-123752000Y120189886D01*
X-123702047Y64522306D01*
X-129517857Y58667000D01*
X-182385000Y58667000D01*
X-182409776Y58664560D01*
X-182433601Y58657333D01*
X-182455557Y58645597D01*
X-182473573Y58631016D01*
X-183963573Y57181016D01*
X-183979627Y57161987D01*
X-183991661Y57140193D01*
X-183999211Y57116469D01*
X-184002000Y57090000D01*
X-184002000Y-53880000D01*
X-183999560Y-53904776D01*
X-183992333Y-53928601D01*
X-183980597Y-53950557D01*
X-183961268Y-53973204D01*
X-181811268Y-55963204D01*
X-181791427Y-55978243D01*
X-181769033Y-55989122D01*
X-181744948Y-55995424D01*
X-181725003Y-55997000D01*
X307904997Y-56007000D01*
X307929774Y-56004560D01*
X307953598Y-55997334D01*
X307975555Y-55985598D01*
X307994803Y-55969803D01*
X310014803Y-53949803D01*
X310030597Y-53930557D01*
X310042333Y-53908601D01*
X310049560Y-53884776D01*
X310052000Y-53860245D01*
X310272000Y60369755D01*
X310269607Y60394537D01*
X310262426Y60418375D01*
X310250732Y60440354D01*
X310234200Y60460401D01*
X308634200Y62039143D01*
X308614850Y62054808D01*
X308592815Y62066397D01*
X308568943Y62073465D01*
X308544837Y62075742D01*
X279118573Y62037967D01*
X279116503Y62058986D01*
X279073046Y62202247D01*
X279002474Y62334276D01*
X278907501Y62450001D01*
X278791776Y62544974D01*
X278659747Y62615546D01*
X278516486Y62659003D01*
X278492000Y62661415D01*
X278492000Y63100000D01*
X307956264Y63100000D01*
X310555000Y60501264D01*
X310555001Y-53931263D01*
X307956264Y-56530000D01*
X-185476264Y-56530000D01*
X-188075000Y-53931264D01*
X-188075000Y60501264D01*
X-185476264Y63100000D01*
X-131793639Y63100000D01*
X-131760000Y63096687D01*
X-131726361Y63100000D01*
X-131726353Y63100000D01*
X-131625717Y63109912D01*
X-131496594Y63149081D01*
X-131377593Y63212688D01*
X-131273289Y63298289D01*
X-131251840Y63324424D01*
X-128299422Y66276842D01*
X-128273289Y66298289D01*
X-128241472Y66337057D01*
X-128227312Y66354312D01*
X-128187688Y66402593D01*
X-128124170Y66521427D01*
X-128124081Y66521593D01*
X-128084912Y66650717D01*
X-128084380Y66656114D01*
X-128075000Y66751353D01*
X-128075000Y66751361D01*
X-128071687Y66785000D01*
X-128075000Y66818639D01*
X-128075000Y130935000D01*
X-125563072Y130935000D01*
X-125550812Y130810518D01*
X-125514502Y130690820D01*
X-125455537Y130580506D01*
X-125376185Y130483815D01*
X-125279494Y130404463D01*
X-125169180Y130345498D01*
X-125049482Y130309188D01*
X-124925000Y130296928D01*
X-124360750Y130300000D01*
X-124202000Y130458750D01*
X-124202000Y131658000D01*
X-123948000Y131658000D01*
X-123948000Y130458750D01*
X-123789250Y130300000D01*
X-123225000Y130296928D01*
X-123100518Y130309188D01*
X-122980820Y130345498D01*
X-122870506Y130404463D01*
X-122773815Y130483815D01*
X-122694463Y130580506D01*
X-122635498Y130690820D01*
X-122599188Y130810518D01*
X-122586928Y130935000D01*
X-122589612Y131428109D01*
X-121556481Y131428109D01*
X-121459157Y131153748D01*
X-121310178Y130903645D01*
X-121115269Y130687412D01*
X-120881920Y130513359D01*
X-120619099Y130388175D01*
X-120471890Y130343524D01*
X-120242000Y130464845D01*
X-120242000Y131658000D01*
X-119988000Y131658000D01*
X-119988000Y130464845D01*
X-119758110Y130343524D01*
X-119610901Y130388175D01*
X-119348080Y130513359D01*
X-119114731Y130687412D01*
X-118919822Y130903645D01*
X-118770843Y131153748D01*
X-118673519Y131428109D01*
X-118794186Y131658000D01*
X-119988000Y131658000D01*
X-120242000Y131658000D01*
X-121435814Y131658000D01*
X-121556481Y131428109D01*
X-122589612Y131428109D01*
X-122590000Y131499250D01*
X-122748750Y131658000D01*
X-123948000Y131658000D01*
X-124202000Y131658000D01*
X-125401250Y131658000D01*
X-125560000Y131499250D01*
X-125563072Y130935000D01*
X-128075000Y130935000D01*
X-128075000Y132635000D01*
X-125563072Y132635000D01*
X-125560000Y132070750D01*
X-125401250Y131912000D01*
X-124202000Y131912000D01*
X-124202000Y133111250D01*
X-123948000Y133111250D01*
X-123948000Y131912000D01*
X-122748750Y131912000D01*
X-122590000Y132070750D01*
X-122589613Y132141891D01*
X-121556481Y132141891D01*
X-121435814Y131912000D01*
X-120242000Y131912000D01*
X-120242000Y133105155D01*
X-119988000Y133105155D01*
X-119988000Y131912000D01*
X-118794186Y131912000D01*
X-118784077Y131931260D01*
X-117640000Y131931260D01*
X-117640000Y131638740D01*
X-117582932Y131351842D01*
X-117470990Y131081589D01*
X-117308475Y130838368D01*
X-117101632Y130631525D01*
X-116858411Y130469010D01*
X-116588158Y130357068D01*
X-116301260Y130300000D01*
X-116008740Y130300000D01*
X-115721842Y130357068D01*
X-115451589Y130469010D01*
X-115208368Y130631525D01*
X-115001525Y130838368D01*
X-114839010Y131081589D01*
X-114727068Y131351842D01*
X-114670000Y131638740D01*
X-114670000Y131931260D01*
X-113680000Y131931260D01*
X-113680000Y131638740D01*
X-113622932Y131351842D01*
X-113510990Y131081589D01*
X-113348475Y130838368D01*
X-113141632Y130631525D01*
X-112898411Y130469010D01*
X-112628158Y130357068D01*
X-112341260Y130300000D01*
X-112048740Y130300000D01*
X-111761842Y130357068D01*
X-111491589Y130469010D01*
X-111248368Y130631525D01*
X-111041525Y130838368D01*
X-110879010Y131081589D01*
X-110767068Y131351842D01*
X-110710000Y131638740D01*
X-110710000Y131931260D01*
X-109720000Y131931260D01*
X-109720000Y131638740D01*
X-109662932Y131351842D01*
X-109550990Y131081589D01*
X-109388475Y130838368D01*
X-109181632Y130631525D01*
X-108938411Y130469010D01*
X-108668158Y130357068D01*
X-108381260Y130300000D01*
X-108088740Y130300000D01*
X-107801842Y130357068D01*
X-107531589Y130469010D01*
X-107288368Y130631525D01*
X-107081525Y130838368D01*
X-106919010Y131081589D01*
X-106807068Y131351842D01*
X-106750000Y131638740D01*
X-106750000Y131931260D01*
X-105760000Y131931260D01*
X-105760000Y131638740D01*
X-105702932Y131351842D01*
X-105590990Y131081589D01*
X-105428475Y130838368D01*
X-105221632Y130631525D01*
X-104978411Y130469010D01*
X-104708158Y130357068D01*
X-104421260Y130300000D01*
X-104128740Y130300000D01*
X-103841842Y130357068D01*
X-103571589Y130469010D01*
X-103328368Y130631525D01*
X-103121525Y130838368D01*
X-102959010Y131081589D01*
X-102847068Y131351842D01*
X-102790000Y131638740D01*
X-102790000Y131931260D01*
X-101800000Y131931260D01*
X-101800000Y131638740D01*
X-101742932Y131351842D01*
X-101630990Y131081589D01*
X-101468475Y130838368D01*
X-101261632Y130631525D01*
X-101018411Y130469010D01*
X-100748158Y130357068D01*
X-100461260Y130300000D01*
X-100168740Y130300000D01*
X-99881842Y130357068D01*
X-99611589Y130469010D01*
X-99368368Y130631525D01*
X-99161525Y130838368D01*
X-98999010Y131081589D01*
X-98887068Y131351842D01*
X-98830000Y131638740D01*
X-98830000Y131931260D01*
X-97840000Y131931260D01*
X-97840000Y131638740D01*
X-97782932Y131351842D01*
X-97670990Y131081589D01*
X-97508475Y130838368D01*
X-97301632Y130631525D01*
X-97058411Y130469010D01*
X-96788158Y130357068D01*
X-96501260Y130300000D01*
X-96208740Y130300000D01*
X-95921842Y130357068D01*
X-95651589Y130469010D01*
X-95408368Y130631525D01*
X-95201525Y130838368D01*
X-95039010Y131081589D01*
X-94927068Y131351842D01*
X-94870000Y131638740D01*
X-94870000Y131931260D01*
X-93880000Y131931260D01*
X-93880000Y131638740D01*
X-93822932Y131351842D01*
X-93710990Y131081589D01*
X-93548475Y130838368D01*
X-93341632Y130631525D01*
X-93098411Y130469010D01*
X-92828158Y130357068D01*
X-92541260Y130300000D01*
X-92248740Y130300000D01*
X-91961842Y130357068D01*
X-91691589Y130469010D01*
X-91448368Y130631525D01*
X-91241525Y130838368D01*
X-91079010Y131081589D01*
X-90967068Y131351842D01*
X-90910000Y131638740D01*
X-90910000Y131931260D01*
X-89920000Y131931260D01*
X-89920000Y131638740D01*
X-89862932Y131351842D01*
X-89750990Y131081589D01*
X-89588475Y130838368D01*
X-89381632Y130631525D01*
X-89138411Y130469010D01*
X-88868158Y130357068D01*
X-88581260Y130300000D01*
X-88288740Y130300000D01*
X-88001842Y130357068D01*
X-87731589Y130469010D01*
X-87488368Y130631525D01*
X-87281525Y130838368D01*
X-87119010Y131081589D01*
X-87007068Y131351842D01*
X-86991898Y131428109D01*
X-85916481Y131428109D01*
X-85819157Y131153748D01*
X-85670178Y130903645D01*
X-85475269Y130687412D01*
X-85241920Y130513359D01*
X-84979099Y130388175D01*
X-84831890Y130343524D01*
X-84602000Y130464845D01*
X-84602000Y131658000D01*
X-84348000Y131658000D01*
X-84348000Y130464845D01*
X-84118110Y130343524D01*
X-83970901Y130388175D01*
X-83708080Y130513359D01*
X-83474731Y130687412D01*
X-83279822Y130903645D01*
X-83130843Y131153748D01*
X-83033519Y131428109D01*
X-81956481Y131428109D01*
X-81859157Y131153748D01*
X-81710178Y130903645D01*
X-81515269Y130687412D01*
X-81281920Y130513359D01*
X-81019099Y130388175D01*
X-80871890Y130343524D01*
X-80642000Y130464845D01*
X-80642000Y131658000D01*
X-80388000Y131658000D01*
X-80388000Y130464845D01*
X-80158110Y130343524D01*
X-80010901Y130388175D01*
X-79748080Y130513359D01*
X-79514731Y130687412D01*
X-79319822Y130903645D01*
X-79170843Y131153748D01*
X-79073519Y131428109D01*
X-79194186Y131658000D01*
X-80388000Y131658000D01*
X-80642000Y131658000D01*
X-81835814Y131658000D01*
X-81956481Y131428109D01*
X-83033519Y131428109D01*
X-83154186Y131658000D01*
X-84348000Y131658000D01*
X-84602000Y131658000D01*
X-85795814Y131658000D01*
X-85916481Y131428109D01*
X-86991898Y131428109D01*
X-86950000Y131638740D01*
X-86950000Y131931260D01*
X-86991897Y132141891D01*
X-85916481Y132141891D01*
X-85795814Y131912000D01*
X-84602000Y131912000D01*
X-84602000Y133105155D01*
X-84348000Y133105155D01*
X-84348000Y131912000D01*
X-83154186Y131912000D01*
X-83033519Y132141891D01*
X-81956481Y132141891D01*
X-81835814Y131912000D01*
X-80642000Y131912000D01*
X-80642000Y133105155D01*
X-80388000Y133105155D01*
X-80388000Y131912000D01*
X-79194186Y131912000D01*
X-79073519Y132141891D01*
X-79170843Y132416252D01*
X-79319822Y132666355D01*
X-79514731Y132882588D01*
X-79748080Y133056641D01*
X-80010901Y133181825D01*
X-80158110Y133226476D01*
X-80388000Y133105155D01*
X-80642000Y133105155D01*
X-80871890Y133226476D01*
X-81019099Y133181825D01*
X-81281920Y133056641D01*
X-81515269Y132882588D01*
X-81710178Y132666355D01*
X-81859157Y132416252D01*
X-81956481Y132141891D01*
X-83033519Y132141891D01*
X-83130843Y132416252D01*
X-83279822Y132666355D01*
X-83474731Y132882588D01*
X-83708080Y133056641D01*
X-83970901Y133181825D01*
X-84118110Y133226476D01*
X-84348000Y133105155D01*
X-84602000Y133105155D01*
X-84831890Y133226476D01*
X-84979099Y133181825D01*
X-85241920Y133056641D01*
X-85475269Y132882588D01*
X-85670178Y132666355D01*
X-85819157Y132416252D01*
X-85916481Y132141891D01*
X-86991897Y132141891D01*
X-87007068Y132218158D01*
X-87119010Y132488411D01*
X-87281525Y132731632D01*
X-87488368Y132938475D01*
X-87731589Y133100990D01*
X-88001842Y133212932D01*
X-88288740Y133270000D01*
X-88581260Y133270000D01*
X-88868158Y133212932D01*
X-89138411Y133100990D01*
X-89381632Y132938475D01*
X-89588475Y132731632D01*
X-89750990Y132488411D01*
X-89862932Y132218158D01*
X-89920000Y131931260D01*
X-90910000Y131931260D01*
X-90967068Y132218158D01*
X-91079010Y132488411D01*
X-91241525Y132731632D01*
X-91448368Y132938475D01*
X-91691589Y133100990D01*
X-91961842Y133212932D01*
X-92248740Y133270000D01*
X-92541260Y133270000D01*
X-92828158Y133212932D01*
X-93098411Y133100990D01*
X-93341632Y132938475D01*
X-93548475Y132731632D01*
X-93710990Y132488411D01*
X-93822932Y132218158D01*
X-93880000Y131931260D01*
X-94870000Y131931260D01*
X-94927068Y132218158D01*
X-95039010Y132488411D01*
X-95201525Y132731632D01*
X-95408368Y132938475D01*
X-95651589Y133100990D01*
X-95921842Y133212932D01*
X-96208740Y133270000D01*
X-96501260Y133270000D01*
X-96788158Y133212932D01*
X-97058411Y133100990D01*
X-97301632Y132938475D01*
X-97508475Y132731632D01*
X-97670990Y132488411D01*
X-97782932Y132218158D01*
X-97840000Y131931260D01*
X-98830000Y131931260D01*
X-98887068Y132218158D01*
X-98999010Y132488411D01*
X-99161525Y132731632D01*
X-99368368Y132938475D01*
X-99611589Y133100990D01*
X-99881842Y133212932D01*
X-100168740Y133270000D01*
X-100461260Y133270000D01*
X-100748158Y133212932D01*
X-101018411Y133100990D01*
X-101261632Y132938475D01*
X-101468475Y132731632D01*
X-101630990Y132488411D01*
X-101742932Y132218158D01*
X-101800000Y131931260D01*
X-102790000Y131931260D01*
X-102847068Y132218158D01*
X-102959010Y132488411D01*
X-103121525Y132731632D01*
X-103328368Y132938475D01*
X-103571589Y133100990D01*
X-103841842Y133212932D01*
X-104128740Y133270000D01*
X-104421260Y133270000D01*
X-104708158Y133212932D01*
X-104978411Y133100990D01*
X-105221632Y132938475D01*
X-105428475Y132731632D01*
X-105590990Y132488411D01*
X-105702932Y132218158D01*
X-105760000Y131931260D01*
X-106750000Y131931260D01*
X-106807068Y132218158D01*
X-106919010Y132488411D01*
X-107081525Y132731632D01*
X-107288368Y132938475D01*
X-107531589Y133100990D01*
X-107801842Y133212932D01*
X-108088740Y133270000D01*
X-108381260Y133270000D01*
X-108668158Y133212932D01*
X-108938411Y133100990D01*
X-109181632Y132938475D01*
X-109388475Y132731632D01*
X-109550990Y132488411D01*
X-109662932Y132218158D01*
X-109720000Y131931260D01*
X-110710000Y131931260D01*
X-110767068Y132218158D01*
X-110879010Y132488411D01*
X-111041525Y132731632D01*
X-111248368Y132938475D01*
X-111491589Y133100990D01*
X-111761842Y133212932D01*
X-112048740Y133270000D01*
X-112341260Y133270000D01*
X-112628158Y133212932D01*
X-112898411Y133100990D01*
X-113141632Y132938475D01*
X-113348475Y132731632D01*
X-113510990Y132488411D01*
X-113622932Y132218158D01*
X-113680000Y131931260D01*
X-114670000Y131931260D01*
X-114727068Y132218158D01*
X-114839010Y132488411D01*
X-115001525Y132731632D01*
X-115208368Y132938475D01*
X-115451589Y133100990D01*
X-115721842Y133212932D01*
X-116008740Y133270000D01*
X-116301260Y133270000D01*
X-116588158Y133212932D01*
X-116858411Y133100990D01*
X-117101632Y132938475D01*
X-117308475Y132731632D01*
X-117470990Y132488411D01*
X-117582932Y132218158D01*
X-117640000Y131931260D01*
X-118784077Y131931260D01*
X-118673519Y132141891D01*
X-118770843Y132416252D01*
X-118919822Y132666355D01*
X-119114731Y132882588D01*
X-119348080Y133056641D01*
X-119610901Y133181825D01*
X-119758110Y133226476D01*
X-119988000Y133105155D01*
X-120242000Y133105155D01*
X-120471890Y133226476D01*
X-120619099Y133181825D01*
X-120881920Y133056641D01*
X-121115269Y132882588D01*
X-121310178Y132666355D01*
X-121459157Y132416252D01*
X-121556481Y132141891D01*
X-122589613Y132141891D01*
X-122586928Y132635000D01*
X-122599188Y132759482D01*
X-122635498Y132879180D01*
X-122694463Y132989494D01*
X-122773815Y133086185D01*
X-122870506Y133165537D01*
X-122980820Y133224502D01*
X-123100518Y133260812D01*
X-123225000Y133273072D01*
X-123789250Y133270000D01*
X-123948000Y133111250D01*
X-124202000Y133111250D01*
X-124360750Y133270000D01*
X-124925000Y133273072D01*
X-125049482Y133260812D01*
X-125169180Y133224502D01*
X-125279494Y133165537D01*
X-125376185Y133086185D01*
X-125455537Y132989494D01*
X-125514502Y132879180D01*
X-125550812Y132759482D01*
X-125563072Y132635000D01*
X-128075000Y132635000D01*
X-128075000Y133501264D01*
X-125476228Y136100036D01*
X-6348701Y136114965D01*
X-3750000Y133516264D01*
%TA.AperFunction,Conductor*%
D19*
G36*
X-3750000Y133516264D02*
G01*
X-3749999Y129863649D01*
X-3753313Y129830000D01*
X-3740088Y129695717D01*
X-3700918Y129566594D01*
X-3637311Y129447593D01*
X-3612825Y129417757D01*
X-3573160Y129369424D01*
X-3573153Y129369417D01*
X-3551710Y129343289D01*
X-3525582Y129321846D01*
X-573160Y126369424D01*
X-551711Y126343289D01*
X-447407Y126257688D01*
X-369858Y126216237D01*
X-328407Y126194081D01*
X-199283Y126154912D01*
X-98647Y126145000D01*
X-98639Y126145000D01*
X-65000Y126141687D01*
X-31361Y126145000D01*
X223201Y126145000D01*
X221399Y125744982D01*
X-10040180Y125744982D01*
X-15713791Y131418592D01*
X-15711898Y131428109D01*
X-14636481Y131428109D01*
X-14539157Y131153748D01*
X-14390178Y130903645D01*
X-14195269Y130687412D01*
X-13961920Y130513359D01*
X-13699099Y130388175D01*
X-13551890Y130343524D01*
X-13322000Y130464845D01*
X-13322000Y131658000D01*
X-13068000Y131658000D01*
X-13068000Y130464845D01*
X-12838110Y130343524D01*
X-12690901Y130388175D01*
X-12428080Y130513359D01*
X-12194731Y130687412D01*
X-11999822Y130903645D01*
X-11850843Y131153748D01*
X-11753519Y131428109D01*
X-10676481Y131428109D01*
X-10579157Y131153748D01*
X-10430178Y130903645D01*
X-10235269Y130687412D01*
X-10001920Y130513359D01*
X-9739099Y130388175D01*
X-9591890Y130343524D01*
X-9362000Y130464845D01*
X-9362000Y131658000D01*
X-9108000Y131658000D01*
X-9108000Y130464845D01*
X-8878110Y130343524D01*
X-8730901Y130388175D01*
X-8468080Y130513359D01*
X-8234731Y130687412D01*
X-8039822Y130903645D01*
X-7890843Y131153748D01*
X-7793519Y131428109D01*
X-7914186Y131658000D01*
X-9108000Y131658000D01*
X-9362000Y131658000D01*
X-10555814Y131658000D01*
X-10676481Y131428109D01*
X-11753519Y131428109D01*
X-11874186Y131658000D01*
X-13068000Y131658000D01*
X-13322000Y131658000D01*
X-14515814Y131658000D01*
X-14636481Y131428109D01*
X-15711898Y131428109D01*
X-15670000Y131638740D01*
X-15670000Y131931260D01*
X-15711897Y132141891D01*
X-14636481Y132141891D01*
X-14515814Y131912000D01*
X-13322000Y131912000D01*
X-13322000Y133105155D01*
X-13068000Y133105155D01*
X-13068000Y131912000D01*
X-11874186Y131912000D01*
X-11753519Y132141891D01*
X-10676481Y132141891D01*
X-10555814Y131912000D01*
X-9362000Y131912000D01*
X-9362000Y133105155D01*
X-9108000Y133105155D01*
X-9108000Y131912000D01*
X-7914186Y131912000D01*
X-7793519Y132141891D01*
X-7890843Y132416252D01*
X-8039822Y132666355D01*
X-8234731Y132882588D01*
X-8468080Y133056641D01*
X-8730901Y133181825D01*
X-8878110Y133226476D01*
X-9108000Y133105155D01*
X-9362000Y133105155D01*
X-9591890Y133226476D01*
X-9739099Y133181825D01*
X-10001920Y133056641D01*
X-10235269Y132882588D01*
X-10430178Y132666355D01*
X-10579157Y132416252D01*
X-10676481Y132141891D01*
X-11753519Y132141891D01*
X-11850843Y132416252D01*
X-11999822Y132666355D01*
X-12194731Y132882588D01*
X-12428080Y133056641D01*
X-12690901Y133181825D01*
X-12838110Y133226476D01*
X-13068000Y133105155D01*
X-13322000Y133105155D01*
X-13551890Y133226476D01*
X-13699099Y133181825D01*
X-13961920Y133056641D01*
X-14195269Y132882588D01*
X-14390178Y132666355D01*
X-14539157Y132416252D01*
X-14636481Y132141891D01*
X-15711897Y132141891D01*
X-15727068Y132218158D01*
X-15839010Y132488411D01*
X-16001525Y132731632D01*
X-16208368Y132938475D01*
X-16451589Y133100990D01*
X-16721842Y133212932D01*
X-17008740Y133270000D01*
X-17301260Y133270000D01*
X-17588158Y133212932D01*
X-17858411Y133100990D01*
X-18101632Y132938475D01*
X-18308475Y132731632D01*
X-18470990Y132488411D01*
X-18512086Y132389195D01*
X-18574002Y132273359D01*
X-18646623Y132033963D01*
X-18658143Y131917000D01*
X-19630000Y131917000D01*
X-19630000Y131931260D01*
X-19687068Y132218158D01*
X-19799010Y132488411D01*
X-19961525Y132731632D01*
X-20168368Y132938475D01*
X-20411589Y133100990D01*
X-20681842Y133212932D01*
X-20968740Y133270000D01*
X-21261260Y133270000D01*
X-21548158Y133212932D01*
X-21818411Y133100990D01*
X-22061632Y132938475D01*
X-22268475Y132731632D01*
X-22430990Y132488411D01*
X-22542932Y132218158D01*
X-22600000Y131931260D01*
X-22600000Y131917000D01*
X-23590000Y131917000D01*
X-23590000Y131931260D01*
X-23647068Y132218158D01*
X-23759010Y132488411D01*
X-23921525Y132731632D01*
X-24128368Y132938475D01*
X-24371589Y133100990D01*
X-24641842Y133212932D01*
X-24928740Y133270000D01*
X-25221260Y133270000D01*
X-25508158Y133212932D01*
X-25778411Y133100990D01*
X-26021632Y132938475D01*
X-26228475Y132731632D01*
X-26390990Y132488411D01*
X-26502932Y132218158D01*
X-26560000Y131931260D01*
X-26560000Y131917000D01*
X-27550000Y131917000D01*
X-27550000Y131931260D01*
X-27607068Y132218158D01*
X-27719010Y132488411D01*
X-27881525Y132731632D01*
X-28088368Y132938475D01*
X-28331589Y133100990D01*
X-28601842Y133212932D01*
X-28888740Y133270000D01*
X-29181260Y133270000D01*
X-29468158Y133212932D01*
X-29738411Y133100990D01*
X-29981632Y132938475D01*
X-30188475Y132731632D01*
X-30350990Y132488411D01*
X-30462932Y132218158D01*
X-30520000Y131931260D01*
X-30520000Y131917000D01*
X-31510000Y131917000D01*
X-31510000Y131931260D01*
X-31567068Y132218158D01*
X-31679010Y132488411D01*
X-31841525Y132731632D01*
X-32048368Y132938475D01*
X-32291589Y133100990D01*
X-32561842Y133212932D01*
X-32848740Y133270000D01*
X-33141260Y133270000D01*
X-33428158Y133212932D01*
X-33698411Y133100990D01*
X-33941632Y132938475D01*
X-34148475Y132731632D01*
X-34310990Y132488411D01*
X-34422932Y132218158D01*
X-34480000Y131931260D01*
X-34480000Y131917000D01*
X-35470000Y131917000D01*
X-35470000Y131931260D01*
X-35527068Y132218158D01*
X-35639010Y132488411D01*
X-35801525Y132731632D01*
X-36008368Y132938475D01*
X-36251589Y133100990D01*
X-36521842Y133212932D01*
X-36808740Y133270000D01*
X-37101260Y133270000D01*
X-37388158Y133212932D01*
X-37658411Y133100990D01*
X-37901632Y132938475D01*
X-38108475Y132731632D01*
X-38270990Y132488411D01*
X-38382932Y132218158D01*
X-38440000Y131931260D01*
X-38440000Y131917000D01*
X-39430000Y131917000D01*
X-39430000Y131931260D01*
X-39487068Y132218158D01*
X-39599010Y132488411D01*
X-39761525Y132731632D01*
X-39968368Y132938475D01*
X-40211589Y133100990D01*
X-40481842Y133212932D01*
X-40768740Y133270000D01*
X-41061260Y133270000D01*
X-41348158Y133212932D01*
X-41618411Y133100990D01*
X-41861632Y132938475D01*
X-42068475Y132731632D01*
X-42230990Y132488411D01*
X-42342932Y132218158D01*
X-42400000Y131931260D01*
X-42400000Y131917000D01*
X-43390000Y131917000D01*
X-43390000Y131931260D01*
X-43447068Y132218158D01*
X-43559010Y132488411D01*
X-43721525Y132731632D01*
X-43928368Y132938475D01*
X-44171589Y133100990D01*
X-44441842Y133212932D01*
X-44728740Y133270000D01*
X-45021260Y133270000D01*
X-45308158Y133212932D01*
X-45578411Y133100990D01*
X-45821632Y132938475D01*
X-46028475Y132731632D01*
X-46190990Y132488411D01*
X-46302932Y132218158D01*
X-46360000Y131931260D01*
X-46360000Y131917000D01*
X-47350000Y131917000D01*
X-47350000Y131931260D01*
X-47407068Y132218158D01*
X-47519010Y132488411D01*
X-47681525Y132731632D01*
X-47888368Y132938475D01*
X-48131589Y133100990D01*
X-48401842Y133212932D01*
X-48688740Y133270000D01*
X-48981260Y133270000D01*
X-49268158Y133212932D01*
X-49538411Y133100990D01*
X-49781632Y132938475D01*
X-49988475Y132731632D01*
X-50150990Y132488411D01*
X-50262932Y132218158D01*
X-50320000Y131931260D01*
X-50320000Y131917000D01*
X-51310000Y131917000D01*
X-51310000Y131931260D01*
X-51367068Y132218158D01*
X-51479010Y132488411D01*
X-51641525Y132731632D01*
X-51848368Y132938475D01*
X-52091589Y133100990D01*
X-52361842Y133212932D01*
X-52648740Y133270000D01*
X-52941260Y133270000D01*
X-53228158Y133212932D01*
X-53498411Y133100990D01*
X-53741632Y132938475D01*
X-53948475Y132731632D01*
X-54110990Y132488411D01*
X-54222932Y132218158D01*
X-54280000Y131931260D01*
X-54280000Y131917000D01*
X-55270000Y131917000D01*
X-55270000Y131931260D01*
X-55327068Y132218158D01*
X-55439010Y132488411D01*
X-55601525Y132731632D01*
X-55808368Y132938475D01*
X-56051589Y133100990D01*
X-56321842Y133212932D01*
X-56608740Y133270000D01*
X-56901260Y133270000D01*
X-57188158Y133212932D01*
X-57458411Y133100990D01*
X-57701632Y132938475D01*
X-57908475Y132731632D01*
X-58070990Y132488411D01*
X-58182932Y132218158D01*
X-58240000Y131931260D01*
X-58240000Y131917000D01*
X-59230000Y131917000D01*
X-59230000Y131931260D01*
X-59287068Y132218158D01*
X-59399010Y132488411D01*
X-59561525Y132731632D01*
X-59768368Y132938475D01*
X-60011589Y133100990D01*
X-60281842Y133212932D01*
X-60568740Y133270000D01*
X-60861260Y133270000D01*
X-61148158Y133212932D01*
X-61418411Y133100990D01*
X-61661632Y132938475D01*
X-61868475Y132731632D01*
X-62030990Y132488411D01*
X-62142932Y132218158D01*
X-62200000Y131931260D01*
X-62200000Y131917000D01*
X-63190000Y131917000D01*
X-63190000Y131931260D01*
X-63247068Y132218158D01*
X-63359010Y132488411D01*
X-63521525Y132731632D01*
X-63728368Y132938475D01*
X-63971589Y133100990D01*
X-64241842Y133212932D01*
X-64528740Y133270000D01*
X-64821260Y133270000D01*
X-65108158Y133212932D01*
X-65378411Y133100990D01*
X-65621632Y132938475D01*
X-65828475Y132731632D01*
X-65990990Y132488411D01*
X-66102932Y132218158D01*
X-66160000Y131931260D01*
X-66160000Y131917000D01*
X-67150000Y131917000D01*
X-67150000Y131931260D01*
X-67207068Y132218158D01*
X-67319010Y132488411D01*
X-67481525Y132731632D01*
X-67688368Y132938475D01*
X-67931589Y133100990D01*
X-68201842Y133212932D01*
X-68488740Y133270000D01*
X-68781260Y133270000D01*
X-69068158Y133212932D01*
X-69338411Y133100990D01*
X-69581632Y132938475D01*
X-69788475Y132731632D01*
X-69950990Y132488411D01*
X-70062932Y132218158D01*
X-70120000Y131931260D01*
X-70120000Y131917000D01*
X-71110000Y131917000D01*
X-71110000Y131931260D01*
X-71167068Y132218158D01*
X-71279010Y132488411D01*
X-71441525Y132731632D01*
X-71648368Y132938475D01*
X-71891589Y133100990D01*
X-72161842Y133212932D01*
X-72448740Y133270000D01*
X-72741260Y133270000D01*
X-73028158Y133212932D01*
X-73298411Y133100990D01*
X-73541632Y132938475D01*
X-73748475Y132731632D01*
X-73910990Y132488411D01*
X-74022932Y132218158D01*
X-74080000Y131931260D01*
X-74080000Y131917000D01*
X-75070000Y131917000D01*
X-75070000Y131931260D01*
X-75127068Y132218158D01*
X-75239010Y132488411D01*
X-75401525Y132731632D01*
X-75608368Y132938475D01*
X-75851589Y133100990D01*
X-76121842Y133212932D01*
X-76408740Y133270000D01*
X-76701260Y133270000D01*
X-76988158Y133212932D01*
X-77258411Y133100990D01*
X-77501632Y132938475D01*
X-77708475Y132731632D01*
X-77870990Y132488411D01*
X-77982932Y132218158D01*
X-78040000Y131931260D01*
X-78040000Y131638740D01*
X-77982932Y131351842D01*
X-77870990Y131081589D01*
X-77708475Y130838368D01*
X-77501632Y130631525D01*
X-77258411Y130469010D01*
X-76988158Y130357068D01*
X-76701260Y130300000D01*
X-76408740Y130300000D01*
X-76190951Y130343321D01*
X-66879631Y121032000D01*
X-108850074Y121032000D01*
X-108887500Y121035686D01*
X-108924925Y121032000D01*
X-108924926Y121032000D01*
X-109036878Y121020974D01*
X-109180515Y120977402D01*
X-109312892Y120906645D01*
X-109428922Y120811422D01*
X-109524145Y120695392D01*
X-109594902Y120563015D01*
X-109638474Y120419378D01*
X-109646912Y120333703D01*
X-123625152Y120317000D01*
X-123649925Y120314530D01*
X-123673741Y120307275D01*
X-123695684Y120295512D01*
X-123714910Y120279695D01*
X-123730681Y120260431D01*
X-123742391Y120238461D01*
X-123749589Y120214628D01*
X-123752000Y120189886D01*
X-123702047Y64522306D01*
X-129517857Y58667000D01*
X-182385000Y58667000D01*
X-182409776Y58664560D01*
X-182433601Y58657333D01*
X-182455557Y58645597D01*
X-182473573Y58631016D01*
X-183963573Y57181016D01*
X-183979627Y57161987D01*
X-183991661Y57140193D01*
X-183999211Y57116469D01*
X-184002000Y57090000D01*
X-184002000Y-53880000D01*
X-183999560Y-53904776D01*
X-183992333Y-53928601D01*
X-183980597Y-53950557D01*
X-183961268Y-53973204D01*
X-181811268Y-55963204D01*
X-181791427Y-55978243D01*
X-181769033Y-55989122D01*
X-181744948Y-55995424D01*
X-181725003Y-55997000D01*
X307904997Y-56007000D01*
X307929774Y-56004560D01*
X307953598Y-55997334D01*
X307975555Y-55985598D01*
X307994803Y-55969803D01*
X310014803Y-53949803D01*
X310030597Y-53930557D01*
X310042333Y-53908601D01*
X310049560Y-53884776D01*
X310052000Y-53860245D01*
X310272000Y60369755D01*
X310269607Y60394537D01*
X310262426Y60418375D01*
X310250732Y60440354D01*
X310234200Y60460401D01*
X308634200Y62039143D01*
X308614850Y62054808D01*
X308592815Y62066397D01*
X308568943Y62073465D01*
X308544837Y62075742D01*
X279118573Y62037967D01*
X279116503Y62058986D01*
X279073046Y62202247D01*
X279002474Y62334276D01*
X278907501Y62450001D01*
X278791776Y62544974D01*
X278659747Y62615546D01*
X278516486Y62659003D01*
X278492000Y62661415D01*
X278492000Y63100000D01*
X307956264Y63100000D01*
X310555000Y60501264D01*
X310555001Y-53931263D01*
X307956264Y-56530000D01*
X-185476264Y-56530000D01*
X-188075000Y-53931264D01*
X-188075000Y60501264D01*
X-185476264Y63100000D01*
X-131793639Y63100000D01*
X-131760000Y63096687D01*
X-131726361Y63100000D01*
X-131726353Y63100000D01*
X-131625717Y63109912D01*
X-131496594Y63149081D01*
X-131377593Y63212688D01*
X-131273289Y63298289D01*
X-131251840Y63324424D01*
X-128299422Y66276842D01*
X-128273289Y66298289D01*
X-128241472Y66337057D01*
X-128227312Y66354312D01*
X-128187688Y66402593D01*
X-128124170Y66521427D01*
X-128124081Y66521593D01*
X-128084912Y66650717D01*
X-128084380Y66656114D01*
X-128075000Y66751353D01*
X-128075000Y66751361D01*
X-128071687Y66785000D01*
X-128075000Y66818639D01*
X-128075000Y130935000D01*
X-125563072Y130935000D01*
X-125550812Y130810518D01*
X-125514502Y130690820D01*
X-125455537Y130580506D01*
X-125376185Y130483815D01*
X-125279494Y130404463D01*
X-125169180Y130345498D01*
X-125049482Y130309188D01*
X-124925000Y130296928D01*
X-124360750Y130300000D01*
X-124202000Y130458750D01*
X-124202000Y131658000D01*
X-123948000Y131658000D01*
X-123948000Y130458750D01*
X-123789250Y130300000D01*
X-123225000Y130296928D01*
X-123100518Y130309188D01*
X-122980820Y130345498D01*
X-122870506Y130404463D01*
X-122773815Y130483815D01*
X-122694463Y130580506D01*
X-122635498Y130690820D01*
X-122599188Y130810518D01*
X-122586928Y130935000D01*
X-122589612Y131428109D01*
X-121556481Y131428109D01*
X-121459157Y131153748D01*
X-121310178Y130903645D01*
X-121115269Y130687412D01*
X-120881920Y130513359D01*
X-120619099Y130388175D01*
X-120471890Y130343524D01*
X-120242000Y130464845D01*
X-120242000Y131658000D01*
X-119988000Y131658000D01*
X-119988000Y130464845D01*
X-119758110Y130343524D01*
X-119610901Y130388175D01*
X-119348080Y130513359D01*
X-119114731Y130687412D01*
X-118919822Y130903645D01*
X-118770843Y131153748D01*
X-118673519Y131428109D01*
X-118794186Y131658000D01*
X-119988000Y131658000D01*
X-120242000Y131658000D01*
X-121435814Y131658000D01*
X-121556481Y131428109D01*
X-122589612Y131428109D01*
X-122590000Y131499250D01*
X-122748750Y131658000D01*
X-123948000Y131658000D01*
X-124202000Y131658000D01*
X-125401250Y131658000D01*
X-125560000Y131499250D01*
X-125563072Y130935000D01*
X-128075000Y130935000D01*
X-128075000Y132635000D01*
X-125563072Y132635000D01*
X-125560000Y132070750D01*
X-125401250Y131912000D01*
X-124202000Y131912000D01*
X-124202000Y133111250D01*
X-123948000Y133111250D01*
X-123948000Y131912000D01*
X-122748750Y131912000D01*
X-122590000Y132070750D01*
X-122589613Y132141891D01*
X-121556481Y132141891D01*
X-121435814Y131912000D01*
X-120242000Y131912000D01*
X-120242000Y133105155D01*
X-119988000Y133105155D01*
X-119988000Y131912000D01*
X-118794186Y131912000D01*
X-118784077Y131931260D01*
X-117640000Y131931260D01*
X-117640000Y131638740D01*
X-117582932Y131351842D01*
X-117470990Y131081589D01*
X-117308475Y130838368D01*
X-117101632Y130631525D01*
X-116858411Y130469010D01*
X-116588158Y130357068D01*
X-116301260Y130300000D01*
X-116008740Y130300000D01*
X-115721842Y130357068D01*
X-115451589Y130469010D01*
X-115208368Y130631525D01*
X-115001525Y130838368D01*
X-114839010Y131081589D01*
X-114727068Y131351842D01*
X-114670000Y131638740D01*
X-114670000Y131931260D01*
X-113680000Y131931260D01*
X-113680000Y131638740D01*
X-113622932Y131351842D01*
X-113510990Y131081589D01*
X-113348475Y130838368D01*
X-113141632Y130631525D01*
X-112898411Y130469010D01*
X-112628158Y130357068D01*
X-112341260Y130300000D01*
X-112048740Y130300000D01*
X-111761842Y130357068D01*
X-111491589Y130469010D01*
X-111248368Y130631525D01*
X-111041525Y130838368D01*
X-110879010Y131081589D01*
X-110767068Y131351842D01*
X-110710000Y131638740D01*
X-110710000Y131931260D01*
X-109720000Y131931260D01*
X-109720000Y131638740D01*
X-109662932Y131351842D01*
X-109550990Y131081589D01*
X-109388475Y130838368D01*
X-109181632Y130631525D01*
X-108938411Y130469010D01*
X-108668158Y130357068D01*
X-108381260Y130300000D01*
X-108088740Y130300000D01*
X-107801842Y130357068D01*
X-107531589Y130469010D01*
X-107288368Y130631525D01*
X-107081525Y130838368D01*
X-106919010Y131081589D01*
X-106807068Y131351842D01*
X-106750000Y131638740D01*
X-106750000Y131931260D01*
X-105760000Y131931260D01*
X-105760000Y131638740D01*
X-105702932Y131351842D01*
X-105590990Y131081589D01*
X-105428475Y130838368D01*
X-105221632Y130631525D01*
X-104978411Y130469010D01*
X-104708158Y130357068D01*
X-104421260Y130300000D01*
X-104128740Y130300000D01*
X-103841842Y130357068D01*
X-103571589Y130469010D01*
X-103328368Y130631525D01*
X-103121525Y130838368D01*
X-102959010Y131081589D01*
X-102847068Y131351842D01*
X-102790000Y131638740D01*
X-102790000Y131931260D01*
X-101800000Y131931260D01*
X-101800000Y131638740D01*
X-101742932Y131351842D01*
X-101630990Y131081589D01*
X-101468475Y130838368D01*
X-101261632Y130631525D01*
X-101018411Y130469010D01*
X-100748158Y130357068D01*
X-100461260Y130300000D01*
X-100168740Y130300000D01*
X-99881842Y130357068D01*
X-99611589Y130469010D01*
X-99368368Y130631525D01*
X-99161525Y130838368D01*
X-98999010Y131081589D01*
X-98887068Y131351842D01*
X-98830000Y131638740D01*
X-98830000Y131931260D01*
X-97840000Y131931260D01*
X-97840000Y131638740D01*
X-97782932Y131351842D01*
X-97670990Y131081589D01*
X-97508475Y130838368D01*
X-97301632Y130631525D01*
X-97058411Y130469010D01*
X-96788158Y130357068D01*
X-96501260Y130300000D01*
X-96208740Y130300000D01*
X-95921842Y130357068D01*
X-95651589Y130469010D01*
X-95408368Y130631525D01*
X-95201525Y130838368D01*
X-95039010Y131081589D01*
X-94927068Y131351842D01*
X-94870000Y131638740D01*
X-94870000Y131931260D01*
X-93880000Y131931260D01*
X-93880000Y131638740D01*
X-93822932Y131351842D01*
X-93710990Y131081589D01*
X-93548475Y130838368D01*
X-93341632Y130631525D01*
X-93098411Y130469010D01*
X-92828158Y130357068D01*
X-92541260Y130300000D01*
X-92248740Y130300000D01*
X-91961842Y130357068D01*
X-91691589Y130469010D01*
X-91448368Y130631525D01*
X-91241525Y130838368D01*
X-91079010Y131081589D01*
X-90967068Y131351842D01*
X-90910000Y131638740D01*
X-90910000Y131931260D01*
X-89920000Y131931260D01*
X-89920000Y131638740D01*
X-89862932Y131351842D01*
X-89750990Y131081589D01*
X-89588475Y130838368D01*
X-89381632Y130631525D01*
X-89138411Y130469010D01*
X-88868158Y130357068D01*
X-88581260Y130300000D01*
X-88288740Y130300000D01*
X-88001842Y130357068D01*
X-87731589Y130469010D01*
X-87488368Y130631525D01*
X-87281525Y130838368D01*
X-87119010Y131081589D01*
X-87007068Y131351842D01*
X-86991898Y131428109D01*
X-85916481Y131428109D01*
X-85819157Y131153748D01*
X-85670178Y130903645D01*
X-85475269Y130687412D01*
X-85241920Y130513359D01*
X-84979099Y130388175D01*
X-84831890Y130343524D01*
X-84602000Y130464845D01*
X-84602000Y131658000D01*
X-84348000Y131658000D01*
X-84348000Y130464845D01*
X-84118110Y130343524D01*
X-83970901Y130388175D01*
X-83708080Y130513359D01*
X-83474731Y130687412D01*
X-83279822Y130903645D01*
X-83130843Y131153748D01*
X-83033519Y131428109D01*
X-81956481Y131428109D01*
X-81859157Y131153748D01*
X-81710178Y130903645D01*
X-81515269Y130687412D01*
X-81281920Y130513359D01*
X-81019099Y130388175D01*
X-80871890Y130343524D01*
X-80642000Y130464845D01*
X-80642000Y131658000D01*
X-80388000Y131658000D01*
X-80388000Y130464845D01*
X-80158110Y130343524D01*
X-80010901Y130388175D01*
X-79748080Y130513359D01*
X-79514731Y130687412D01*
X-79319822Y130903645D01*
X-79170843Y131153748D01*
X-79073519Y131428109D01*
X-79194186Y131658000D01*
X-80388000Y131658000D01*
X-80642000Y131658000D01*
X-81835814Y131658000D01*
X-81956481Y131428109D01*
X-83033519Y131428109D01*
X-83154186Y131658000D01*
X-84348000Y131658000D01*
X-84602000Y131658000D01*
X-85795814Y131658000D01*
X-85916481Y131428109D01*
X-86991898Y131428109D01*
X-86950000Y131638740D01*
X-86950000Y131931260D01*
X-86991897Y132141891D01*
X-85916481Y132141891D01*
X-85795814Y131912000D01*
X-84602000Y131912000D01*
X-84602000Y133105155D01*
X-84348000Y133105155D01*
X-84348000Y131912000D01*
X-83154186Y131912000D01*
X-83033519Y132141891D01*
X-81956481Y132141891D01*
X-81835814Y131912000D01*
X-80642000Y131912000D01*
X-80642000Y133105155D01*
X-80388000Y133105155D01*
X-80388000Y131912000D01*
X-79194186Y131912000D01*
X-79073519Y132141891D01*
X-79170843Y132416252D01*
X-79319822Y132666355D01*
X-79514731Y132882588D01*
X-79748080Y133056641D01*
X-80010901Y133181825D01*
X-80158110Y133226476D01*
X-80388000Y133105155D01*
X-80642000Y133105155D01*
X-80871890Y133226476D01*
X-81019099Y133181825D01*
X-81281920Y133056641D01*
X-81515269Y132882588D01*
X-81710178Y132666355D01*
X-81859157Y132416252D01*
X-81956481Y132141891D01*
X-83033519Y132141891D01*
X-83130843Y132416252D01*
X-83279822Y132666355D01*
X-83474731Y132882588D01*
X-83708080Y133056641D01*
X-83970901Y133181825D01*
X-84118110Y133226476D01*
X-84348000Y133105155D01*
X-84602000Y133105155D01*
X-84831890Y133226476D01*
X-84979099Y133181825D01*
X-85241920Y133056641D01*
X-85475269Y132882588D01*
X-85670178Y132666355D01*
X-85819157Y132416252D01*
X-85916481Y132141891D01*
X-86991897Y132141891D01*
X-87007068Y132218158D01*
X-87119010Y132488411D01*
X-87281525Y132731632D01*
X-87488368Y132938475D01*
X-87731589Y133100990D01*
X-88001842Y133212932D01*
X-88288740Y133270000D01*
X-88581260Y133270000D01*
X-88868158Y133212932D01*
X-89138411Y133100990D01*
X-89381632Y132938475D01*
X-89588475Y132731632D01*
X-89750990Y132488411D01*
X-89862932Y132218158D01*
X-89920000Y131931260D01*
X-90910000Y131931260D01*
X-90967068Y132218158D01*
X-91079010Y132488411D01*
X-91241525Y132731632D01*
X-91448368Y132938475D01*
X-91691589Y133100990D01*
X-91961842Y133212932D01*
X-92248740Y133270000D01*
X-92541260Y133270000D01*
X-92828158Y133212932D01*
X-93098411Y133100990D01*
X-93341632Y132938475D01*
X-93548475Y132731632D01*
X-93710990Y132488411D01*
X-93822932Y132218158D01*
X-93880000Y131931260D01*
X-94870000Y131931260D01*
X-94927068Y132218158D01*
X-95039010Y132488411D01*
X-95201525Y132731632D01*
X-95408368Y132938475D01*
X-95651589Y133100990D01*
X-95921842Y133212932D01*
X-96208740Y133270000D01*
X-96501260Y133270000D01*
X-96788158Y133212932D01*
X-97058411Y133100990D01*
X-97301632Y132938475D01*
X-97508475Y132731632D01*
X-97670990Y132488411D01*
X-97782932Y132218158D01*
X-97840000Y131931260D01*
X-98830000Y131931260D01*
X-98887068Y132218158D01*
X-98999010Y132488411D01*
X-99161525Y132731632D01*
X-99368368Y132938475D01*
X-99611589Y133100990D01*
X-99881842Y133212932D01*
X-100168740Y133270000D01*
X-100461260Y133270000D01*
X-100748158Y133212932D01*
X-101018411Y133100990D01*
X-101261632Y132938475D01*
X-101468475Y132731632D01*
X-101630990Y132488411D01*
X-101742932Y132218158D01*
X-101800000Y131931260D01*
X-102790000Y131931260D01*
X-102847068Y132218158D01*
X-102959010Y132488411D01*
X-103121525Y132731632D01*
X-103328368Y132938475D01*
X-103571589Y133100990D01*
X-103841842Y133212932D01*
X-104128740Y133270000D01*
X-104421260Y133270000D01*
X-104708158Y133212932D01*
X-104978411Y133100990D01*
X-105221632Y132938475D01*
X-105428475Y132731632D01*
X-105590990Y132488411D01*
X-105702932Y132218158D01*
X-105760000Y131931260D01*
X-106750000Y131931260D01*
X-106807068Y132218158D01*
X-106919010Y132488411D01*
X-107081525Y132731632D01*
X-107288368Y132938475D01*
X-107531589Y133100990D01*
X-107801842Y133212932D01*
X-108088740Y133270000D01*
X-108381260Y133270000D01*
X-108668158Y133212932D01*
X-108938411Y133100990D01*
X-109181632Y132938475D01*
X-109388475Y132731632D01*
X-109550990Y132488411D01*
X-109662932Y132218158D01*
X-109720000Y131931260D01*
X-110710000Y131931260D01*
X-110767068Y132218158D01*
X-110879010Y132488411D01*
X-111041525Y132731632D01*
X-111248368Y132938475D01*
X-111491589Y133100990D01*
X-111761842Y133212932D01*
X-112048740Y133270000D01*
X-112341260Y133270000D01*
X-112628158Y133212932D01*
X-112898411Y133100990D01*
X-113141632Y132938475D01*
X-113348475Y132731632D01*
X-113510990Y132488411D01*
X-113622932Y132218158D01*
X-113680000Y131931260D01*
X-114670000Y131931260D01*
X-114727068Y132218158D01*
X-114839010Y132488411D01*
X-115001525Y132731632D01*
X-115208368Y132938475D01*
X-115451589Y133100990D01*
X-115721842Y133212932D01*
X-116008740Y133270000D01*
X-116301260Y133270000D01*
X-116588158Y133212932D01*
X-116858411Y133100990D01*
X-117101632Y132938475D01*
X-117308475Y132731632D01*
X-117470990Y132488411D01*
X-117582932Y132218158D01*
X-117640000Y131931260D01*
X-118784077Y131931260D01*
X-118673519Y132141891D01*
X-118770843Y132416252D01*
X-118919822Y132666355D01*
X-119114731Y132882588D01*
X-119348080Y133056641D01*
X-119610901Y133181825D01*
X-119758110Y133226476D01*
X-119988000Y133105155D01*
X-120242000Y133105155D01*
X-120471890Y133226476D01*
X-120619099Y133181825D01*
X-120881920Y133056641D01*
X-121115269Y132882588D01*
X-121310178Y132666355D01*
X-121459157Y132416252D01*
X-121556481Y132141891D01*
X-122589613Y132141891D01*
X-122586928Y132635000D01*
X-122599188Y132759482D01*
X-122635498Y132879180D01*
X-122694463Y132989494D01*
X-122773815Y133086185D01*
X-122870506Y133165537D01*
X-122980820Y133224502D01*
X-123100518Y133260812D01*
X-123225000Y133273072D01*
X-123789250Y133270000D01*
X-123948000Y133111250D01*
X-124202000Y133111250D01*
X-124360750Y133270000D01*
X-124925000Y133273072D01*
X-125049482Y133260812D01*
X-125169180Y133224502D01*
X-125279494Y133165537D01*
X-125376185Y133086185D01*
X-125455537Y132989494D01*
X-125514502Y132879180D01*
X-125550812Y132759482D01*
X-125563072Y132635000D01*
X-128075000Y132635000D01*
X-128075000Y133501264D01*
X-125476228Y136100036D01*
X-6348701Y136114965D01*
X-3750000Y133516264D01*
G37*
%TD.AperFunction*%
%TD*%
M02*
