%TF.GenerationSoftware,KiCad,Pcbnew,(5.1.9-0-10_14)*%
%TF.CreationDate,2021-02-25T21:43:52+01:00*%
%TF.ProjectId,mtf122,6d746631-3232-42e6-9b69-6361645f7063,rev?*%
%TF.SameCoordinates,PXe1237f8PYe7db780*%
%TF.FileFunction,Soldermask,Top*%
%TF.FilePolarity,Negative*%
%FSLAX46Y46*%
G04 Gerber Fmt 4.6, Leading zero omitted, Abs format (unit mm)*
G04 Created by KiCad (PCBNEW (5.1.9-0-10_14)) date 2021-02-25 21:43:52*
%MOMM*%
%LPD*%
G01*
G04 APERTURE LIST*
%TA.AperFunction,Profile*%
%ADD10C,0.100000*%
%TD*%
%ADD11C,1.000000*%
%ADD12C,3.500000*%
%ADD13O,1.700000X1.700000*%
%ADD14R,1.700000X1.700000*%
G04 APERTURE END LIST*
D10*
X119255000Y126830000D02*
X122255000Y123830000D01*
X-3065000Y129830000D02*
X-65000Y126830000D01*
X-6065000Y136800000D02*
X-3065000Y133800000D01*
X122255000Y123830000D02*
X122240000Y66785000D01*
X-125760000Y136785000D02*
X-6065000Y136800000D01*
X-65000Y126830000D02*
X119255000Y126830000D01*
X-3065000Y133800000D02*
X-3065000Y129830000D01*
X-131760000Y63785000D02*
X-128760000Y66785000D01*
X125240000Y63785000D02*
X122240000Y66785000D01*
X-128760000Y133785000D02*
X-125760000Y136785000D01*
X-128760000Y133785000D02*
X-128760000Y66785000D01*
X311240000Y60785000D02*
X308240000Y63785000D01*
X-188760000Y60785000D02*
X-185760000Y63785000D01*
X308240000Y-57215000D02*
X311240000Y-54215000D01*
X-185760000Y-57215000D02*
X-188760000Y-54215000D01*
X125240000Y63785000D02*
X308240000Y63785000D01*
X-188760000Y60785000D02*
X-188760000Y-54215000D01*
X-185760000Y-57215000D02*
X308240000Y-57215000D01*
X-185760000Y63785000D02*
X-131760000Y63785000D01*
X311240000Y60785000D02*
X311240000Y-54215000D01*
D11*
%TO.C,ROW_8_TP8*%
X305325000Y41360000D03*
%TD*%
%TO.C,ROW_7_TP7*%
X290395000Y31110000D03*
%TD*%
%TO.C,ROW_6_TP6*%
X297595000Y30130000D03*
%TD*%
%TO.C,ROW_5_TP5*%
X305365000Y20360000D03*
%TD*%
%TO.C,ROW_4_TP4*%
X290445000Y-10370000D03*
%TD*%
%TO.C,ROW_3_TP3*%
X297625000Y-11340000D03*
%TD*%
%TO.C,ROW_2_TP2*%
X305365000Y-21650000D03*
%TD*%
%TO.C,ROW_1_TP1*%
X297675000Y-32440000D03*
%TD*%
D12*
%TO.C,H1*%
X-180275000Y9780000D03*
%TD*%
%TO.C,H2*%
X-180265000Y-32220000D03*
%TD*%
%TO.C,H3*%
X-161265000Y51780000D03*
%TD*%
%TO.C,H4*%
X-161265000Y30780000D03*
%TD*%
%TO.C,H5*%
X-161275000Y-11220000D03*
%TD*%
%TO.C,H6*%
X-161265000Y-52220000D03*
%TD*%
%TO.C,H7*%
X-131515000Y9790000D03*
%TD*%
%TO.C,H8*%
X-128515000Y-32190000D03*
%TD*%
%TO.C,H9*%
X-115785000Y114770000D03*
%TD*%
%TO.C,H10*%
X-115775000Y93770000D03*
%TD*%
%TO.C,H11*%
X-115775000Y72770000D03*
%TD*%
%TO.C,H12*%
X-109515000Y30790000D03*
%TD*%
%TO.C,H13*%
X-95285000Y51770000D03*
%TD*%
%TO.C,H14*%
X-90535000Y-11230000D03*
%TD*%
%TO.C,H15*%
X-90525000Y-52230000D03*
%TD*%
%TO.C,H16*%
X-81035000Y-32230000D03*
%TD*%
%TO.C,H17*%
X-66785000Y30770000D03*
%TD*%
%TO.C,H18*%
X-62025000Y9770000D03*
%TD*%
%TO.C,H19*%
X-57285000Y114770000D03*
%TD*%
%TO.C,H20*%
X-57285000Y93770000D03*
%TD*%
%TO.C,H21*%
X-57285000Y72770000D03*
%TD*%
%TO.C,H22*%
X-19275000Y93770000D03*
%TD*%
%TO.C,H23*%
X-19275000Y51770000D03*
%TD*%
%TO.C,H24*%
X-14525000Y-11230000D03*
%TD*%
%TO.C,H25*%
X-14535000Y-52230000D03*
%TD*%
%TO.C,H26*%
X9225000Y30770000D03*
%TD*%
%TO.C,H27*%
X13965000Y9770000D03*
%TD*%
%TO.C,H28*%
X18725000Y114770000D03*
%TD*%
%TO.C,H29*%
X18725000Y72770000D03*
%TD*%
%TO.C,H30*%
X18715000Y-32230000D03*
%TD*%
%TO.C,H31*%
X23475000Y-11230000D03*
%TD*%
%TO.C,H32*%
X56725000Y114770000D03*
%TD*%
%TO.C,H33*%
X56715000Y93770000D03*
%TD*%
%TO.C,H34*%
X56715000Y51770000D03*
%TD*%
%TO.C,H35*%
X56725000Y-52230000D03*
%TD*%
%TO.C,H36*%
X76975000Y-32230000D03*
%TD*%
%TO.C,H37*%
X85225000Y30770000D03*
%TD*%
%TO.C,H38*%
X89975000Y9770000D03*
%TD*%
%TO.C,H39*%
X94715000Y114770000D03*
%TD*%
%TO.C,H40*%
X94725000Y72770000D03*
%TD*%
%TO.C,H41*%
X99475000Y-11230000D03*
%TD*%
%TO.C,H42*%
X102465000Y-52230000D03*
%TD*%
%TO.C,H43*%
X127965000Y-32230000D03*
%TD*%
%TO.C,H44*%
X132725000Y51770000D03*
%TD*%
%TO.C,H45*%
X156215000Y30780000D03*
%TD*%
%TO.C,H46*%
X160725000Y9780000D03*
%TD*%
%TO.C,H47*%
X160725000Y-11220000D03*
%TD*%
%TO.C,H48*%
X160715000Y-32220000D03*
%TD*%
%TO.C,H49*%
X160715000Y-52220000D03*
%TD*%
%TO.C,H50*%
X179715000Y51780000D03*
%TD*%
%TO.C,H51*%
X198715000Y9780000D03*
%TD*%
%TO.C,H52*%
X198725000Y-11220000D03*
%TD*%
%TO.C,H53*%
X198715000Y-32220000D03*
%TD*%
%TO.C,H54*%
X217725000Y51780000D03*
%TD*%
%TO.C,H55*%
X217725000Y-52220000D03*
%TD*%
%TO.C,H56*%
X226735000Y30780000D03*
%TD*%
%TO.C,H57*%
X245725000Y9780000D03*
%TD*%
%TO.C,H58*%
X245735000Y-32220000D03*
%TD*%
%TO.C,H59*%
X264725000Y51780000D03*
%TD*%
%TO.C,H60*%
X302735000Y9780000D03*
%TD*%
%TO.C,H61*%
X302725000Y-11220000D03*
%TD*%
%TO.C,H62*%
X302725000Y-32220000D03*
%TD*%
%TO.C,H63*%
X302735000Y-53220000D03*
%TD*%
D13*
%TO.C,J1*%
X-112195000Y131785000D03*
D14*
X-124075000Y131785000D03*
D13*
X-120115000Y131785000D03*
X-116155000Y131785000D03*
X-108235000Y131785000D03*
X-104275000Y131785000D03*
X-100315000Y131785000D03*
X-96355000Y131785000D03*
X-92395000Y131785000D03*
X-88435000Y131785000D03*
X-84475000Y131785000D03*
X-80515000Y131785000D03*
X-76555000Y131785000D03*
X-72595000Y131785000D03*
X-68635000Y131785000D03*
X-64675000Y131785000D03*
X-60715000Y131785000D03*
X-56755000Y131785000D03*
X-52795000Y131785000D03*
X-48835000Y131785000D03*
X-44875000Y131785000D03*
X-40915000Y131785000D03*
X-36955000Y131785000D03*
X-32995000Y131785000D03*
X-29035000Y131785000D03*
X-25075000Y131785000D03*
X-21115000Y131785000D03*
X-17155000Y131785000D03*
X-13195000Y131785000D03*
X-9235000Y131785000D03*
%TD*%
M02*
