%TF.GenerationSoftware,KiCad,Pcbnew,(5.1.9-0-10_14)*%
%TF.CreationDate,2021-02-25T21:43:52+01:00*%
%TF.ProjectId,mtf122,6d746631-3232-42e6-9b69-6361645f7063,rev?*%
%TF.SameCoordinates,PXe1237f8PYe7db780*%
%TF.FileFunction,Profile,NP*%
%FSLAX46Y46*%
G04 Gerber Fmt 4.6, Leading zero omitted, Abs format (unit mm)*
G04 Created by KiCad (PCBNEW (5.1.9-0-10_14)) date 2021-02-25 21:43:52*
%MOMM*%
%LPD*%
G01*
G04 APERTURE LIST*
%TA.AperFunction,Profile*%
%ADD10C,0.100000*%
%TD*%
G04 APERTURE END LIST*
D10*
X119255000Y126830000D02*
X122255000Y123830000D01*
X-3065000Y129830000D02*
X-65000Y126830000D01*
X-6065000Y136800000D02*
X-3065000Y133800000D01*
X122255000Y123830000D02*
X122240000Y66785000D01*
X-125760000Y136785000D02*
X-6065000Y136800000D01*
X-65000Y126830000D02*
X119255000Y126830000D01*
X-3065000Y133800000D02*
X-3065000Y129830000D01*
X-131760000Y63785000D02*
X-128760000Y66785000D01*
X125240000Y63785000D02*
X122240000Y66785000D01*
X-128760000Y133785000D02*
X-125760000Y136785000D01*
X-128760000Y133785000D02*
X-128760000Y66785000D01*
X311240000Y60785000D02*
X308240000Y63785000D01*
X-188760000Y60785000D02*
X-185760000Y63785000D01*
X308240000Y-57215000D02*
X311240000Y-54215000D01*
X-185760000Y-57215000D02*
X-188760000Y-54215000D01*
X125240000Y63785000D02*
X308240000Y63785000D01*
X-188760000Y60785000D02*
X-188760000Y-54215000D01*
X-185760000Y-57215000D02*
X308240000Y-57215000D01*
X-185760000Y63785000D02*
X-131760000Y63785000D01*
X311240000Y60785000D02*
X311240000Y-54215000D01*
M02*
