  0
SECTION
  2
HEADER
  9
$ACADVER
  1
AC1014
  9
$HANDSEED
  5
FFFF
  9
$MEASUREMENT
 70
     1
  0
ENDSEC
  0
SECTION
  2
TABLES
  0
TABLE
  2
VPORT
  5
8
330
0
100
AcDbSymbolTable
 70
     4
  0
VPORT
  5
2E
330
8
100
AcDbSymbolTableRecord
100
AcDbViewportTableRecord
  2
*ACTIVE
 70
     0
 10
0.0
 20
0.0
 11
1.0
 21
1.0
 12
210.0
 22
148.5
 13
0.0
 23
0.0
 14
10.0
 24
10.0
 15
10.0
 25
10.0
 16
0.0
 26
0.0
 36
1.0
 17
0.0
 27
0.0
 37
0.0
 40
341.0
 41
1.24
 42
50.0
 43
0.0
 44
0.0
 50
0.0
 51
0.0
 71
     0
 72
   100
 73
     1
 74
     3
 75
     0
 76
     0
 77
     0
 78
     0
  0
ENDTAB
  0
TABLE
  2
LTYPE
  5
5
330
0
100
AcDbSymbolTable
 70
     1
  0
LTYPE
  5
14
330
5
100
AcDbSymbolTableRecord
100
AcDbLinetypeTableRecord
  2
BYBLOCK
 70
     0
  3

 72
    65
 73
     0
 40
0.0
  0
LTYPE
  5
15
330
5
100
AcDbSymbolTableRecord
100
AcDbLinetypeTableRecord
  2
BYLAYER
 70
     0
  3

 72
    65
 73
     0
 40
0.0
  0
LTYPE
  5
16
330
5
100
AcDbSymbolTableRecord
100
AcDbLinetypeTableRecord
  2
CONTINUOUS
 70
     0
  3
Solid line
 72
    65
 73
     0
 40
0.0
  0
ENDTAB
  0
TABLE
  2
LAYER
  5
2
100
AcDbSymbolTable
 70
1
  0
LAYER
  5
50
100
AcDbSymbolTableRecord
100
AcDbLayerTableRecord
  2
0
 70
0
  6
CONTINUOUS
  0
ENDTAB
  0
TABLE
  2
STYLE
  5
3
330
0
100
AcDbSymbolTable
 70
     1
  0
STYLE
  5
11
330
3
100
AcDbSymbolTableRecord
100
AcDbTextStyleTableRecord
  2
STANDARD
 70
     0
 40
0.0
 41
1.0
 50
0.0
 71
     0
 42
2.5
  3
txt
  4

  0
ENDTAB
  0
TABLE
  2
VIEW
  5
6
330
0
100
AcDbSymbolTable
 70
     0
  0
ENDTAB
  0
TABLE
  2
UCS
  5
7
330
0
100
AcDbSymbolTable
 70
     0
  0
ENDTAB
  0
TABLE
  2
APPID
  5
9
330
0
100
AcDbSymbolTable
 70
     2
  0
APPID
  5
12
330
9
100
AcDbSymbolTableRecord
100
AcDbRegAppTableRecord
  2
ACAD
 70
     0
  0
ENDTAB
  0
TABLE
  2
DIMSTYLE
  5
A
330
0
100
AcDbSymbolTable
 70
     1
  0
DIMSTYLE
105
27
330
A
100
AcDbSymbolTableRecord
100
AcDbDimStyleTableRecord
  2
ISO-25
 70
     0
  3

  4

  5

  6

  7

 40
1.0
 41
2.5
 42
0.625
 43
3.75
 44
1.25
 45
0.0
 46
0.0
 47
0.0
 48
0.0
140
2.5
141
2.5
142
0.0
143
0.03937007874016
144
1.0
145
0.0
146
1.0
147
0.625
 71
     0
 72
     0
 73
     0
 74
     0
 75
     0
 76
     0
 77
     1
 78
     8
170
     0
171
     3
172
     1
173
     0
174
     0
175
     0
176
     0
177
     0
178
     0
270
     2
271
     2
272
     2
273
     2
274
     3
340
11
275
     0
280
     0
281
     0
282
     0
283
     0
284
     8
285
     0
286
     0
287
     3
288
     0
  0
ENDTAB
  0
TABLE
  2
BLOCK_RECORD
  5
1
330
0
100
AcDbSymbolTable
 70
     1
  0
BLOCK_RECORD
  5
1F
330
1
100
AcDbSymbolTableRecord
100
AcDbBlockTableRecord
  2
*MODEL_SPACE
  0
BLOCK_RECORD
  5
1B
330
1
100
AcDbSymbolTableRecord
100
AcDbBlockTableRecord
  2
*PAPER_SPACE
  0
ENDTAB
  0
ENDSEC
  0
SECTION
  2
BLOCKS
  0
BLOCK
  5
20
330
1F
100
AcDbEntity
  8
0
100
AcDbBlockBegin
  2
*MODEL_SPACE
 70
     0
 10
0.0
 20
0.0
 30
0.0
  3
*MODEL_SPACE
  1

  0
ENDBLK
  5
21
330
1F
100
AcDbEntity
  8
0
100
AcDbBlockEnd
  0
BLOCK
  5
1C
330
1B
100
AcDbEntity
 67
     1
  8
0
100
AcDbBlockBegin
  2
*PAPER_SPACE
  1

  0
ENDBLK
  5
1D
330
1B
100
AcDbEntity
 67
     1
  8
0
100
AcDbBlockEnd
  0
ENDSEC
  0
SECTION
  2
ENTITIES
  0
SPLINE
  5
100
100
AcDbEntity
  8
0
 62
7
100
AcDbSpline
 70
8
 71
3
 72
8
 73
4
 74
0
 40
0
 40
0
 40
0
 40
0
 40
1
 40
1
 40
1
 40
1
 10
4.099151
 20
4.882293
 30
0.0
 10
4.132444
 20
4.906666
 30
0.0
 10
4.167092
 20
4.928384
 30
0.0
 10
4.202589
 20
4.948216
 30
0.0
  0
SPLINE
  5
101
100
AcDbEntity
  8
0
 62
7
100
AcDbSpline
 70
8
 71
3
 72
8
 73
4
 74
0
 40
0
 40
0
 40
0
 40
0
 40
1
 40
1
 40
1
 40
1
 10
4.202589
 20
4.948216
 30
0.0
 10
4.161835
 20
4.993563
 30
0.0
 10
4.125143
 20
5.043477
 30
0.0
 10
4.092460
 20
5.097904
 30
0.0
  0
SPLINE
  5
102
100
AcDbEntity
  8
0
 62
7
100
AcDbSpline
 70
8
 71
3
 72
8
 73
4
 74
0
 40
0
 40
0
 40
0
 40
0
 40
1
 40
1
 40
1
 40
1
 10
4.092460
 20
5.097904
 30
0.0
 10
4.041272
 20
5.086328
 30
0.0
 10
3.987721
 20
5.072443
 30
0.0
 10
3.931250
 20
5.055663
 30
0.0
  0
SPLINE
  5
103
100
AcDbEntity
  8
0
 62
7
100
AcDbSpline
 70
8
 71
3
 72
8
 73
4
 74
0
 40
0
 40
0
 40
0
 40
0
 40
1
 40
1
 40
1
 40
1
 10
3.931250
 20
5.055663
 30
0.0
 10
2.673746
 20
4.682533
 30
0.0
 10
0.607748
 20
2.643429
 30
0.0
 10
0.587012
 20
2.622880
 30
0.0
  0
SPLINE
  5
104
100
AcDbEntity
  8
0
 62
7
100
AcDbSpline
 70
8
 71
3
 72
8
 73
4
 74
0
 40
0
 40
0
 40
0
 40
0
 40
1
 40
1
 40
1
 40
1
 10
0.587012
 20
2.622880
 30
0.0
 10
0.445528
 20
2.482564
 30
0.0
 10
0.378278
 20
2.340842
 30
0.0
 10
0.407058
 20
2.243802
 30
0.0
  0
SPLINE
  5
105
100
AcDbEntity
  8
0
 62
7
100
AcDbSpline
 70
8
 71
3
 72
8
 73
4
 74
0
 40
0
 40
0
 40
0
 40
0
 40
1
 40
1
 40
1
 40
1
 10
0.407058
 20
2.243802
 30
0.0
 10
0.435838
 20
2.146763
 30
0.0
 10
0.569542
 20
2.064671
 30
0.0
 10
0.764657
 20
2.024262
 30
0.0
  0
SPLINE
  5
106
100
AcDbEntity
  8
0
 62
7
100
AcDbSpline
 70
8
 71
3
 72
8
 73
4
 74
0
 40
0
 40
0
 40
0
 40
0
 40
1
 40
1
 40
1
 40
1
 10
0.764657
 20
2.024262
 30
0.0
 10
0.780985
 20
2.020864
 30
0.0
 10
2.414381
 20
1.685858
 30
0.0
 10
3.760190
 20
1.685858
 30
0.0
  0
SPLINE
  5
107
100
AcDbEntity
  8
0
 62
7
100
AcDbSpline
 70
8
 71
3
 72
8
 73
4
 74
0
 40
0
 40
0
 40
0
 40
0
 40
1
 40
1
 40
1
 40
1
 10
3.760190
 20
1.685858
 30
0.0
 10
3.979438
 20
1.685858
 30
0.0
 10
4.178349
 20
1.694779
 30
0.0
 10
4.356418
 20
1.712275
 30
0.0
  0
SPLINE
  5
108
100
AcDbEntity
  8
0
 62
7
100
AcDbSpline
 70
8
 71
3
 72
8
 73
4
 74
0
 40
0
 40
0
 40
0
 40
0
 40
1
 40
1
 40
1
 40
1
 10
4.356418
 20
1.712275
 30
0.0
 10
4.356524
 20
1.712090
 30
0.0
 10
4.356604
 20
1.711904
 30
0.0
 10
4.356737
 20
1.711744
 30
0.0
  0
SPLINE
  5
109
100
AcDbEntity
  8
0
 62
7
100
AcDbSpline
 70
8
 71
3
 72
8
 73
4
 74
0
 40
0
 40
0
 40
0
 40
0
 40
1
 40
1
 40
1
 40
1
 10
4.356737
 20
1.711744
 30
0.0
 10
3.981190
 20
2.398853
 30
0.0
 10
3.660362
 20
3.168266
 30
0.0
 10
3.660362
 20
3.791840
 30
0.0
  0
SPLINE
  5
10a
100
AcDbEntity
  8
0
 62
7
100
AcDbSpline
 70
8
 71
3
 72
8
 73
4
 74
0
 40
0
 40
0
 40
0
 40
0
 40
1
 40
1
 40
1
 40
1
 10
3.660362
 20
3.791840
 30
0.0
 10
3.660309
 20
4.309322
 30
0.0
 10
3.803864
 20
4.666019
 30
0.0
 10
4.099151
 20
4.882293
 30
0.0
  0
SPLINE
  5
10b
100
AcDbEntity
  8
0
 62
7
100
AcDbSpline
 70
8
 71
3
 72
8
 73
4
 74
0
 40
0
 40
0
 40
0
 40
0
 40
1
 40
1
 40
1
 40
1
 10
3.905284
 20
5.609598
 30
0.0
 10
3.863707
 20
5.598739
 30
0.0
 10
3.821227
 20
5.587748
 30
0.0
 10
3.777208
 20
5.574685
 30
0.0
  0
SPLINE
  5
10c
100
AcDbEntity
  8
0
 62
7
100
AcDbSpline
 70
8
 71
3
 72
8
 73
4
 74
0
 40
0
 40
0
 40
0
 40
0
 40
1
 40
1
 40
1
 40
1
 10
3.777208
 20
5.574685
 30
0.0
 10
3.377235
 20
5.455981
 30
0.0
 10
2.918269
 20
5.199457
 30
0.0
 10
2.465410
 20
4.892382
 30
0.0
  0
SPLINE
  5
10d
100
AcDbEntity
  8
0
 62
7
100
AcDbSpline
 70
8
 71
3
 72
8
 73
4
 74
0
 40
0
 40
0
 40
0
 40
0
 40
1
 40
1
 40
1
 40
1
 10
2.465410
 20
4.892382
 30
0.0
 10
2.465410
 20
4.892382
 30
0.0
 10
2.420248
 20
4.861584
 30
0.0
 10
2.376149
 20
4.895409
 30
0.0
  0
SPLINE
  5
10e
100
AcDbEntity
  8
0
 62
7
100
AcDbSpline
 70
8
 71
3
 72
8
 73
4
 74
0
 40
0
 40
0
 40
0
 40
0
 40
1
 40
1
 40
1
 40
1
 10
2.376149
 20
4.895409
 30
0.0
 10
1.319893
 20
5.706027
 30
0.0
 10
0.089310
 20
8.259267
 30
0.0
 10
0.076778
 20
8.285551
 30
0.0
  0
SPLINE
  5
10f
100
AcDbEntity
  8
0
 62
7
100
AcDbSpline
 70
8
 71
3
 72
8
 73
4
 74
0
 40
0
 40
0
 40
0
 40
0
 40
1
 40
1
 40
1
 40
1
 10
0.076778
 20
8.285551
 30
0.0
 10
-0.009110
 20
8.465691
 30
0.0
 10
-0.023686
 20
8.624008
 30
0.0
 10
0.036821
 20
8.719905
 30
0.0
  0
SPLINE
  5
110
100
AcDbEntity
  8
0
 62
7
100
AcDbSpline
 70
8
 71
3
 72
8
 73
4
 74
0
 40
0
 40
0
 40
0
 40
0
 40
1
 40
1
 40
1
 40
1
 10
0.036821
 20
8.719905
 30
0.0
 10
0.091036
 20
8.805821
 30
0.0
 10
0.213855
 20
8.853132
 30
0.0
 10
0.382659
 20
8.853132
 30
0.0
  0
SPLINE
  5
111
100
AcDbEntity
  8
0
 62
7
100
AcDbSpline
 70
8
 71
3
 72
8
 73
4
 74
0
 40
0
 40
0
 40
0
 40
0
 40
1
 40
1
 40
1
 40
1
 10
0.382659
 20
8.853132
 30
0.0
 10
0.409899
 20
8.853132
 30
0.0
 10
0.438519
 20
8.851858
 30
0.0
 10
0.467644
 20
8.849336
 30
0.0
  0
SPLINE
  5
112
100
AcDbEntity
  8
0
 62
7
100
AcDbSpline
 70
8
 71
3
 72
8
 73
4
 74
0
 40
0
 40
0
 40
0
 40
0
 40
1
 40
1
 40
1
 40
1
 10
0.467644
 20
8.849336
 30
0.0
 10
0.495522
 20
8.846920
 30
0.0
 10
3.113304
 20
8.635026
 30
0.0
 10
4.306770
 20
7.967405
 30
0.0
  0
SPLINE
  5
113
100
AcDbEntity
  8
0
 62
7
100
AcDbSpline
 70
8
 71
3
 72
8
 73
4
 74
0
 40
0
 40
0
 40
0
 40
0
 40
1
 40
1
 40
1
 40
1
 10
4.306770
 20
7.967405
 30
0.0
 10
4.357719
 20
7.938890
 30
0.0
 10
4.359445
 20
7.893650
 30
0.0
 10
4.351559
 20
7.874534
 30
0.0
  0
SPLINE
  5
114
100
AcDbEntity
  8
0
 62
7
100
AcDbSpline
 70
8
 71
3
 72
8
 73
4
 74
0
 40
0
 40
0
 40
0
 40
0
 40
1
 40
1
 40
1
 40
1
 10
4.351559
 20
7.874534
 30
0.0
 10
4.089088
 20
7.239755
 30
0.0
 10
3.889567
 20
6.575479
 30
0.0
 10
3.889567
 20
6.022952
 30
0.0
  0
SPLINE
  5
115
100
AcDbEntity
  8
0
 62
7
100
AcDbSpline
 70
8
 71
3
 72
8
 73
4
 74
0
 40
0
 40
0
 40
0
 40
0
 40
1
 40
1
 40
1
 40
1
 10
3.889567
 20
6.022952
 30
0.0
 10
3.889567
 20
5.880379
 30
0.0
 10
3.898647
 20
5.749728
 30
0.0
 10
3.916276
 20
5.629856
 30
0.0
  0
SPLINE
  5
116
100
AcDbEntity
  8
0
 62
7
100
AcDbSpline
 70
8
 71
3
 72
8
 73
4
 74
0
 40
0
 40
0
 40
0
 40
0
 40
1
 40
1
 40
1
 40
1
 10
3.916276
 20
5.629856
 30
0.0
 10
3.916223
 20
5.629829
 30
0.0
 10
3.921347
 20
5.613793
 30
0.0
 10
3.905284
 20
5.609598
 30
0.0
  0
LWPOLYLINE
  5
117
100
AcDbEntity
  8
0
 62
7
100
AcDbPolyline
 90
1
 70
1
 10
4.099151
 20
4.882293
 30
0.0
  0
SPLINE
  5
118
100
AcDbEntity
  8
0
 62
7
100
AcDbSpline
 70
8
 71
3
 72
8
 73
4
 74
0
 40
0
 40
0
 40
0
 40
0
 40
1
 40
1
 40
1
 40
1
 10
7.789146
 20
4.585918
 30
0.0
 10
7.614103
 20
4.585918
 30
0.0
 10
7.419998
 20
4.575856
 30
0.0
 10
7.214503
 20
4.565183
 30
0.0
  0
SPLINE
  5
119
100
AcDbEntity
  8
0
 62
7
100
AcDbSpline
 70
8
 71
3
 72
8
 73
4
 74
0
 40
0
 40
0
 40
0
 40
0
 40
1
 40
1
 40
1
 40
1
 10
7.214503
 20
4.565183
 30
0.0
 10
6.972687
 20
4.552625
 30
0.0
 10
6.722641
 20
4.539668
 30
0.0
 10
6.456798
 20
4.539668
 30
0.0
  0
SPLINE
  5
11a
100
AcDbEntity
  8
0
 62
7
100
AcDbSpline
 70
8
 71
3
 72
8
 73
4
 74
0
 40
0
 40
0
 40
0
 40
0
 40
1
 40
1
 40
1
 40
1
 10
6.456798
 20
4.539668
 30
0.0
 10
6.190929
 20
4.539668
 30
0.0
 10
5.940883
 20
4.552651
 30
0.0
 10
5.699094
 20
4.565183
 30
0.0
  0
SPLINE
  5
11b
100
AcDbEntity
  8
0
 62
7
100
AcDbSpline
 70
8
 71
3
 72
8
 73
4
 74
0
 40
0
 40
0
 40
0
 40
0
 40
1
 40
1
 40
1
 40
1
 10
5.699094
 20
4.565183
 30
0.0
 10
5.493625
 20
4.575856
 30
0.0
 10
5.299520
 20
4.585918
 30
0.0
 10
5.124503
 20
4.585918
 30
0.0
  0
SPLINE
  5
11c
100
AcDbEntity
  8
0
 62
7
100
AcDbSpline
 70
8
 71
3
 72
8
 73
4
 74
0
 40
0
 40
0
 40
0
 40
0
 40
1
 40
1
 40
1
 40
1
 10
5.124503
 20
4.585918
 30
0.0
 10
4.473688
 20
4.585918
 30
0.0
 10
4.201633
 20
4.475577
 30
0.0
 10
4.201633
 20
3.791814
 30
0.0
  0
SPLINE
  5
11d
100
AcDbEntity
  8
0
 62
7
100
AcDbSpline
 70
8
 71
3
 72
8
 73
4
 74
0
 40
0
 40
0
 40
0
 40
0
 40
1
 40
1
 40
1
 40
1
 10
4.201633
 20
3.791814
 30
0.0
 10
4.201633
 20
2.507123
 30
0.0
 10
5.931404
 20
0.296083
 30
0.0
 10
5.948901
 20
0.273914
 30
0.0
  0
SPLINE
  5
11e
100
AcDbEntity
  8
0
 62
7
100
AcDbSpline
 70
8
 71
3
 72
8
 73
4
 74
0
 40
0
 40
0
 40
0
 40
0
 40
1
 40
1
 40
1
 40
1
 10
5.948901
 20
0.273914
 30
0.0
 10
6.088101
 20
0.097305
 30
0.0
 10
6.268481
 20
0.000000
 30
0.0
 10
6.456772
 20
0.000000
 30
0.0
  0
SPLINE
  5
11f
100
AcDbEntity
  8
0
 62
7
100
AcDbSpline
 70
8
 71
3
 72
8
 73
4
 74
0
 40
0
 40
0
 40
0
 40
0
 40
1
 40
1
 40
1
 40
1
 10
6.456772
 20
0.000000
 30
0.0
 10
6.645063
 20
0.000000
 30
0.0
 10
6.825442
 20
0.097278
 30
0.0
 10
6.964696
 20
0.273967
 30
0.0
  0
SPLINE
  5
120
100
AcDbEntity
  8
0
 62
7
100
AcDbSpline
 70
8
 71
3
 72
8
 73
4
 74
0
 40
0
 40
0
 40
0
 40
0
 40
1
 40
1
 40
1
 40
1
 10
6.964696
 20
0.273967
 30
0.0
 10
6.982139
 20
0.296110
 30
0.0
 10
8.711937
 20
2.507149
 30
0.0
 10
8.711937
 20
3.791840
 30
0.0
  0
SPLINE
  5
121
100
AcDbEntity
  8
0
 62
7
100
AcDbSpline
 70
8
 71
3
 72
8
 73
4
 74
0
 40
0
 40
0
 40
0
 40
0
 40
1
 40
1
 40
1
 40
1
 10
8.711937
 20
3.791840
 30
0.0
 10
8.712017
 20
4.475551
 30
0.0
 10
8.439934
 20
4.585918
 30
0.0
 10
7.789146
 20
4.585918
 30
0.0
  0
LWPOLYLINE
  5
122
100
AcDbEntity
  8
0
 62
7
100
AcDbPolyline
 90
1
 70
1
 10
3.905284
 20
5.609598
 30
0.0
  0
SPLINE
  5
123
100
AcDbEntity
  8
0
 62
7
100
AcDbSpline
 70
8
 71
3
 72
8
 73
4
 74
0
 40
0
 40
0
 40
0
 40
0
 40
1
 40
1
 40
1
 40
1
 10
8.997055
 20
5.627280
 30
0.0
 10
9.014020
 20
5.748002
 30
0.0
 10
9.024162
 20
5.879344
 30
0.0
 10
9.024162
 20
6.022899
 30
0.0
  0
SPLINE
  5
124
100
AcDbEntity
  8
0
 62
7
100
AcDbSpline
 70
8
 71
3
 72
8
 73
4
 74
0
 40
0
 40
0
 40
0
 40
0
 40
1
 40
1
 40
1
 40
1
 10
9.024162
 20
6.022899
 30
0.0
 10
9.024162
 20
6.579966
 30
0.0
 10
8.821322
 20
7.250587
 30
0.0
 10
8.555665
 20
7.890065
 30
0.0
  0
SPLINE
  5
125
100
AcDbEntity
  8
0
 62
7
100
AcDbSpline
 70
8
 71
3
 72
8
 73
4
 74
0
 40
0
 40
0
 40
0
 40
0
 40
1
 40
1
 40
1
 40
1
 10
8.555665
 20
7.890065
 30
0.0
 10
8.549824
 20
7.904137
 30
0.0
 10
8.551178
 20
7.936368
 30
0.0
 10
8.573002
 20
7.948873
 30
0.0
  0
SPLINE
  5
126
100
AcDbEntity
  8
0
 62
7
100
AcDbSpline
 70
8
 71
3
 72
8
 73
4
 74
0
 40
0
 40
0
 40
0
 40
0
 40
1
 40
1
 40
1
 40
1
 10
8.573002
 20
7.948873
 30
0.0
 10
9.753591
 20
8.624698
 30
0.0
 10
12.417889
 20
8.846867
 30
0.0
 10
12.446032
 20
8.849309
 30
0.0
  0
SPLINE
  5
127
100
AcDbEntity
  8
0
 62
7
100
AcDbSpline
 70
8
 71
3
 72
8
 73
4
 74
0
 40
0
 40
0
 40
0
 40
0
 40
1
 40
1
 40
1
 40
1
 10
12.446032
 20
8.849309
 30
0.0
 10
12.475157
 20
8.851831
 30
0.0
 10
12.503777
 20
8.853106
 30
0.0
 10
12.531017
 20
8.853106
 30
0.0
  0
SPLINE
  5
128
100
AcDbEntity
  8
0
 62
7
100
AcDbSpline
 70
8
 71
3
 72
8
 73
4
 74
0
 40
0
 40
0
 40
0
 40
0
 40
1
 40
1
 40
1
 40
1
 10
12.531017
 20
8.853106
 30
0.0
 10
12.699821
 20
8.853106
 30
0.0
 10
12.822640
 20
8.805794
 30
0.0
 10
12.876828
 20
8.719879
 30
0.0
  0
SPLINE
  5
129
100
AcDbEntity
  8
0
 62
7
100
AcDbSpline
 70
8
 71
3
 72
8
 73
4
 74
0
 40
0
 40
0
 40
0
 40
0
 40
1
 40
1
 40
1
 40
1
 10
12.876828
 20
8.719879
 30
0.0
 10
12.937335
 20
8.623981
 30
0.0
 10
12.922786
 20
8.465665
 30
0.0
 10
12.836871
 20
8.285524
 30
0.0
  0
SPLINE
  5
12a
100
AcDbEntity
  8
0
 62
7
100
AcDbSpline
 70
8
 71
3
 72
8
 73
4
 74
0
 40
0
 40
0
 40
0
 40
0
 40
1
 40
1
 40
1
 40
1
 10
12.836871
 20
8.285524
 30
0.0
 10
12.824207
 20
8.258948
 30
0.0
 10
11.577694
 20
5.652556
 30
0.0
 10
10.510048
 20
4.875656
 30
0.0
  0
SPLINE
  5
12b
100
AcDbEntity
  8
0
 62
7
100
AcDbSpline
 70
8
 71
3
 72
8
 73
4
 74
0
 40
0
 40
0
 40
0
 40
0
 40
1
 40
1
 40
1
 40
1
 10
10.510048
 20
4.875656
 30
0.0
 10
10.506782
 20
4.873293
 30
0.0
 10
10.494277
 20
4.859885
 30
0.0
 10
10.474365
 20
4.873983
 30
0.0
  0
SPLINE
  5
12c
100
AcDbEntity
  8
0
 62
7
100
AcDbSpline
 70
8
 71
3
 72
8
 73
4
 74
0
 40
0
 40
0
 40
0
 40
0
 40
1
 40
1
 40
1
 40
1
 10
10.474365
 20
4.873983
 30
0.0
 10
10.015107
 20
5.199298
 30
0.0
 10
9.547007
 20
5.452822
 30
0.0
 10
9.136442
 20
5.574632
 30
0.0
  0
SPLINE
  5
12d
100
AcDbEntity
  8
0
 62
7
100
AcDbSpline
 70
8
 71
3
 72
8
 73
4
 74
0
 40
0
 40
0
 40
0
 40
0
 40
1
 40
1
 40
1
 40
1
 10
9.136442
 20
5.574632
 30
0.0
 10
9.092449
 20
5.587694
 30
0.0
 10
9.050075
 20
5.599031
 30
0.0
 10
9.008445
 20
5.609518
 30
0.0
  0
SPLINE
  5
12e
100
AcDbEntity
  8
0
 62
7
100
AcDbSpline
 70
8
 71
3
 72
8
 73
4
 74
0
 40
0
 40
0
 40
0
 40
0
 40
1
 40
1
 40
1
 40
1
 10
9.008445
 20
5.609518
 30
0.0
 10
9.008472
 20
5.609572
 30
0.0
 10
8.994453
 20
5.608934
 30
0.0
 10
8.997055
 20
5.627280
 30
0.0
  0
LWPOLYLINE
  5
12f
100
AcDbEntity
  8
0
 62
7
100
AcDbPolyline
 90
1
 70
1
 10
7.789146
 20
4.585918
 30
0.0
  0
SPLINE
  5
130
100
AcDbEntity
  8
0
 62
7
100
AcDbSpline
 70
8
 71
3
 72
8
 73
4
 74
0
 40
0
 40
0
 40
0
 40
0
 40
1
 40
1
 40
1
 40
1
 10
8.982453
 20
5.055663
 30
0.0
 10
8.925955
 20
5.072416
 30
0.0
 10
8.872377
 20
5.086302
 30
0.0
 10
8.821216
 20
5.097904
 30
0.0
  0
SPLINE
  5
131
100
AcDbEntity
  8
0
 62
7
100
AcDbSpline
 70
8
 71
3
 72
8
 73
4
 74
0
 40
0
 40
0
 40
0
 40
0
 40
1
 40
1
 40
1
 40
1
 10
8.821216
 20
5.097904
 30
0.0
 10
8.788507
 20
5.043504
 30
0.0
 10
8.751841
 20
4.993616
 30
0.0
 10
8.711114
 20
4.948269
 30
0.0
  0
SPLINE
  5
132
100
AcDbEntity
  8
0
 62
7
100
AcDbSpline
 70
8
 71
3
 72
8
 73
4
 74
0
 40
0
 40
0
 40
0
 40
0
 40
1
 40
1
 40
1
 40
1
 10
8.711114
 20
4.948269
 30
0.0
 10
8.746638
 20
4.928437
 30
0.0
 10
8.781285
 20
4.906746
 30
0.0
 10
8.814578
 20
4.882320
 30
0.0
  0
SPLINE
  5
133
100
AcDbEntity
  8
0
 62
7
100
AcDbSpline
 70
8
 71
3
 72
8
 73
4
 74
0
 40
0
 40
0
 40
0
 40
0
 40
1
 40
1
 40
1
 40
1
 10
8.814578
 20
4.882320
 30
0.0
 10
9.109839
 20
4.666045
 30
0.0
 10
9.253367
 20
4.309349
 30
0.0
 10
9.253367
 20
3.791787
 30
0.0
  0
SPLINE
  5
134
100
AcDbEntity
  8
0
 62
7
100
AcDbSpline
 70
8
 71
3
 72
8
 73
4
 74
0
 40
0
 40
0
 40
0
 40
0
 40
1
 40
1
 40
1
 40
1
 10
9.253367
 20
3.791787
 30
0.0
 10
9.253367
 20
3.168398
 30
0.0
 10
8.932725
 20
2.399251
 30
0.0
 10
8.557284
 20
1.712249
 30
0.0
  0
SPLINE
  5
135
100
AcDbEntity
  8
0
 62
7
100
AcDbSpline
 70
8
 71
3
 72
8
 73
4
 74
0
 40
0
 40
0
 40
0
 40
0
 40
1
 40
1
 40
1
 40
1
 10
8.557284
 20
1.712249
 30
0.0
 10
8.735354
 20
1.694752
 30
0.0
 10
8.934265
 20
1.685832
 30
0.0
 10
9.153540
 20
1.685832
 30
0.0
  0
SPLINE
  5
136
100
AcDbEntity
  8
0
 62
7
100
AcDbSpline
 70
8
 71
3
 72
8
 73
4
 74
0
 40
0
 40
0
 40
0
 40
0
 40
1
 40
1
 40
1
 40
1
 10
9.153540
 20
1.685832
 30
0.0
 10
9.153619
 20
1.685832
 30
0.0
 10
9.153725
 20
1.685832
 30
0.0
 10
9.153832
 20
1.685832
 30
0.0
  0
SPLINE
  5
137
100
AcDbEntity
  8
0
 62
7
100
AcDbSpline
 70
8
 71
3
 72
8
 73
4
 74
0
 40
0
 40
0
 40
0
 40
0
 40
1
 40
1
 40
1
 40
1
 10
9.153832
 20
1.685832
 30
0.0
 10
10.499561
 20
1.685832
 30
0.0
 10
12.132691
 20
2.020837
 30
0.0
 10
12.149046
 20
2.024235
 30
0.0
  0
SPLINE
  5
138
100
AcDbEntity
  8
0
 62
7
100
AcDbSpline
 70
8
 71
3
 72
8
 73
4
 74
0
 40
0
 40
0
 40
0
 40
0
 40
1
 40
1
 40
1
 40
1
 10
12.149046
 20
2.024235
 30
0.0
 10
12.344160
 20
2.064644
 30
0.0
 10
12.477812
 20
2.146736
 30
0.0
 10
12.506645
 20
2.243776
 30
0.0
  0
SPLINE
  5
139
100
AcDbEntity
  8
0
 62
7
100
AcDbSpline
 70
8
 71
3
 72
8
 73
4
 74
0
 40
0
 40
0
 40
0
 40
0
 40
1
 40
1
 40
1
 40
1
 10
12.506645
 20
2.243776
 30
0.0
 10
12.535451
 20
2.340815
 30
0.0
 10
12.468148
 20
2.482538
 30
0.0
 10
12.326690
 20
2.622880
 30
0.0
  0
SPLINE
  5
13a
100
AcDbEntity
  8
0
 62
7
100
AcDbSpline
 70
8
 71
3
 72
8
 73
4
 74
0
 40
0
 40
0
 40
0
 40
0
 40
1
 40
1
 40
1
 40
1
 10
12.326690
 20
2.622880
 30
0.0
 10
12.305955
 20
2.643429
 30
0.0
 10
10.238868
 20
4.682878
 30
0.0
 10
8.982453
 20
5.055663
 30
0.0
  0
LWPOLYLINE
  5
13b
100
AcDbEntity
  8
0
 62
7
100
AcDbPolyline
 90
1
 70
1
 10
8.997055
 20
5.627280
 30
0.0
  0
SPLINE
  5
13c
100
AcDbEntity
  8
0
 62
7
100
AcDbSpline
 70
8
 71
3
 72
8
 73
4
 74
0
 40
0
 40
0
 40
0
 40
0
 40
1
 40
1
 40
1
 40
1
 10
5.225339
 20
5.221573
 30
0.0
 10
5.241880
 20
5.194014
 30
0.0
 10
5.257279
 20
5.165341
 30
0.0
 10
5.271934
 20
5.135976
 30
0.0
  0
SPLINE
  5
13d
100
AcDbEntity
  8
0
 62
7
100
AcDbSpline
 70
8
 71
3
 72
8
 73
4
 74
0
 40
0
 40
0
 40
0
 40
0
 40
1
 40
1
 40
1
 40
1
 10
5.271934
 20
5.135976
 30
0.0
 10
5.419604
 20
5.137065
 30
0.0
 10
5.582620
 20
5.146942
 30
0.0
 10
5.754689
 20
5.157641
 30
0.0
  0
SPLINE
  5
13e
100
AcDbEntity
  8
0
 62
7
100
AcDbSpline
 70
8
 71
3
 72
8
 73
4
 74
0
 40
0
 40
0
 40
0
 40
0
 40
1
 40
1
 40
1
 40
1
 10
5.754689
 20
5.157641
 30
0.0
 10
5.700713
 20
6.172161
 30
0.0
 10
5.510776
 20
6.725751
 30
0.0
 10
5.390638
 20
6.981399
 30
0.0
  0
SPLINE
  5
13f
100
AcDbEntity
  8
0
 62
7
100
AcDbSpline
 70
8
 71
3
 72
8
 73
4
 74
0
 40
0
 40
0
 40
0
 40
0
 40
1
 40
1
 40
1
 40
1
 10
5.390638
 20
6.981399
 30
0.0
 10
5.229641
 20
6.996639
 30
0.0
 10
5.103317
 20
7.142742
 30
0.0
 10
5.103317
 20
7.321050
 30
0.0
  0
SPLINE
  5
140
100
AcDbEntity
  8
0
 62
7
100
AcDbSpline
 70
8
 71
3
 72
8
 73
4
 74
0
 40
0
 40
0
 40
0
 40
0
 40
1
 40
1
 40
1
 40
1
 10
5.103317
 20
7.321050
 30
0.0
 10
5.103317
 20
7.509421
 30
0.0
 10
5.244349
 20
7.662162
 30
0.0
 10
5.418330
 20
7.662162
 30
0.0
  0
SPLINE
  5
141
100
AcDbEntity
  8
0
 62
7
100
AcDbSpline
 70
8
 71
3
 72
8
 73
4
 74
0
 40
0
 40
0
 40
0
 40
0
 40
1
 40
1
 40
1
 40
1
 10
5.418330
 20
7.662162
 30
0.0
 10
5.592284
 20
7.662162
 30
0.0
 10
5.733317
 20
7.509421
 30
0.0
 10
5.733317
 20
7.321050
 30
0.0
  0
SPLINE
  5
142
100
AcDbEntity
  8
0
 62
7
100
AcDbSpline
 70
8
 71
3
 72
8
 73
4
 74
0
 40
0
 40
0
 40
0
 40
0
 40
1
 40
1
 40
1
 40
1
 10
5.733317
 20
7.321050
 30
0.0
 10
5.733317
 20
7.250428
 30
0.0
 10
5.713484
 20
7.184823
 30
0.0
 10
5.679553
 20
7.130370
 30
0.0
  0
SPLINE
  5
143
100
AcDbEntity
  8
0
 62
7
100
AcDbSpline
 70
8
 71
3
 72
8
 73
4
 74
0
 40
0
 40
0
 40
0
 40
0
 40
1
 40
1
 40
1
 40
1
 10
5.679553
 20
7.130370
 30
0.0
 10
5.820294
 20
6.835057
 30
0.0
 10
6.022391
 20
6.237686
 30
0.0
 10
6.078968
 20
5.176120
 30
0.0
  0
SPLINE
  5
144
100
AcDbEntity
  8
0
 62
7
100
AcDbSpline
 70
8
 71
3
 72
8
 73
4
 74
0
 40
0
 40
0
 40
0
 40
0
 40
1
 40
1
 40
1
 40
1
 10
6.078968
 20
5.176120
 30
0.0
 10
6.149670
 20
5.179465
 30
0.0
 10
6.221408
 20
5.182200
 30
0.0
 10
6.294446
 20
5.183899
 30
0.0
  0
LWPOLYLINE
  5
145
100
AcDbEntity
  8
0
 62
7
100
AcDbPolyline
 90
1
 70
1
 10
8.982453
 20
5.055663
 30
0.0
  0
SPLINE
  5
146
100
AcDbEntity
  8
0
 62
7
100
AcDbSpline
 70
8
 71
3
 72
8
 73
4
 74
0
 40
0
 40
0
 40
0
 40
0
 40
1
 40
1
 40
1
 40
1
 10
6.294446
 20
7.651675
 30
0.0
 10
6.203142
 20
7.711412
 30
0.0
 10
6.141865
 20
7.819576
 30
0.0
 10
6.141865
 20
7.943590
 30
0.0
  0
SPLINE
  5
147
100
AcDbEntity
  8
0
 62
7
100
AcDbSpline
 70
8
 71
3
 72
8
 73
4
 74
0
 40
0
 40
0
 40
0
 40
0
 40
1
 40
1
 40
1
 40
1
 10
6.141865
 20
7.943590
 30
0.0
 10
6.141865
 20
8.131907
 30
0.0
 10
6.282871
 20
8.284648
 30
0.0
 10
6.456851
 20
8.284648
 30
0.0
  0
SPLINE
  5
148
100
AcDbEntity
  8
0
 62
7
100
AcDbSpline
 70
8
 71
3
 72
8
 73
4
 74
0
 40
0
 40
0
 40
0
 40
0
 40
1
 40
1
 40
1
 40
1
 10
6.456851
 20
8.284648
 30
0.0
 10
6.630805
 20
8.284648
 30
0.0
 10
6.771838
 20
8.131907
 30
0.0
 10
6.771838
 20
7.943563
 30
0.0
  0
SPLINE
  5
149
100
AcDbEntity
  8
0
 62
7
100
AcDbSpline
 70
8
 71
3
 72
8
 73
4
 74
0
 40
0
 40
0
 40
0
 40
0
 40
1
 40
1
 40
1
 40
1
 10
6.771838
 20
7.943563
 30
0.0
 10
6.771838
 20
7.819602
 30
0.0
 10
6.710561
 20
7.711385
 30
0.0
 10
6.619256
 20
7.651648
 30
0.0
  0
LWPOLYLINE
  5
14a
100
AcDbEntity
  8
0
 62
7
100
AcDbPolyline
 90
2
 70
0
 10
6.294446
 20
5.183899
 30
0.0
 10
6.294446
 20
7.651675
 30
0.0
  0
SPLINE
  5
14b
100
AcDbEntity
  8
0
 62
7
100
AcDbSpline
 70
8
 71
3
 72
8
 73
4
 74
0
 40
0
 40
0
 40
0
 40
0
 40
1
 40
1
 40
1
 40
1
 10
6.619256
 20
5.183899
 30
0.0
 10
6.693144
 20
5.182147
 30
0.0
 10
6.765705
 20
5.179385
 30
0.0
 10
6.837177
 20
5.175960
 30
0.0
  0
SPLINE
  5
14c
100
AcDbEntity
  8
0
 62
7
100
AcDbSpline
 70
8
 71
3
 72
8
 73
4
 74
0
 40
0
 40
0
 40
0
 40
0
 40
1
 40
1
 40
1
 40
1
 10
6.837177
 20
5.175960
 30
0.0
 10
6.893648
 20
6.235111
 30
0.0
 10
7.094922
 20
6.832163
 30
0.0
 10
7.235636
 20
7.128246
 30
0.0
  0
SPLINE
  5
14d
100
AcDbEntity
  8
0
 62
7
100
AcDbSpline
 70
8
 71
3
 72
8
 73
4
 74
0
 40
0
 40
0
 40
0
 40
0
 40
1
 40
1
 40
1
 40
1
 10
7.235636
 20
7.128246
 30
0.0
 10
7.200829
 20
7.183098
 30
0.0
 10
7.180386
 20
7.249472
 30
0.0
 10
7.180386
 20
7.321077
 30
0.0
  0
SPLINE
  5
14e
100
AcDbEntity
  8
0
 62
7
100
AcDbSpline
 70
8
 71
3
 72
8
 73
4
 74
0
 40
0
 40
0
 40
0
 40
0
 40
1
 40
1
 40
1
 40
1
 10
7.180386
 20
7.321077
 30
0.0
 10
7.180386
 20
7.509448
 30
0.0
 10
7.321365
 20
7.662189
 30
0.0
 10
7.495373
 20
7.662189
 30
0.0
  0
SPLINE
  5
14f
100
AcDbEntity
  8
0
 62
7
100
AcDbSpline
 70
8
 71
3
 72
8
 73
4
 74
0
 40
0
 40
0
 40
0
 40
0
 40
1
 40
1
 40
1
 40
1
 10
7.495373
 20
7.662189
 30
0.0
 10
7.669327
 20
7.662189
 30
0.0
 10
7.810359
 20
7.509448
 30
0.0
 10
7.810359
 20
7.321077
 30
0.0
  0
SPLINE
  5
150
100
AcDbEntity
  8
0
 62
7
100
AcDbSpline
 70
8
 71
3
 72
8
 73
4
 74
0
 40
0
 40
0
 40
0
 40
0
 40
1
 40
1
 40
1
 40
1
 10
7.810359
 20
7.321077
 30
0.0
 10
7.810359
 20
7.143724
 30
0.0
 10
7.685363
 20
6.998099
 30
0.0
 10
7.525560
 20
6.981585
 30
0.0
  0
SPLINE
  5
151
100
AcDbEntity
  8
0
 62
7
100
AcDbSpline
 70
8
 71
3
 72
8
 73
4
 74
0
 40
0
 40
0
 40
0
 40
0
 40
1
 40
1
 40
1
 40
1
 10
7.525560
 20
6.981585
 30
0.0
 10
7.405422
 20
6.725910
 30
0.0
 10
7.215432
 20
6.172241
 30
0.0
 10
7.161456
 20
5.157508
 30
0.0
  0
SPLINE
  5
152
100
AcDbEntity
  8
0
 62
7
100
AcDbSpline
 70
8
 71
3
 72
8
 73
4
 74
0
 40
0
 40
0
 40
0
 40
0
 40
1
 40
1
 40
1
 40
1
 10
7.161456
 20
5.157508
 30
0.0
 10
7.332569
 20
5.146888
 30
0.0
 10
7.494736
 20
5.137092
 30
0.0
 10
7.641689
 20
5.135976
 30
0.0
  0
SPLINE
  5
153
100
AcDbEntity
  8
0
 62
7
100
AcDbSpline
 70
8
 71
3
 72
8
 73
4
 74
0
 40
0
 40
0
 40
0
 40
0
 40
1
 40
1
 40
1
 40
1
 10
7.641689
 20
5.135976
 30
0.0
 10
7.656371
 20
5.165341
 30
0.0
 10
7.671769
 20
5.194041
 30
0.0
 10
7.688310
 20
5.221600
 30
0.0
  0
SPLINE
  5
154
100
AcDbEntity
  8
0
 62
7
100
AcDbSpline
 70
8
 71
3
 72
8
 73
4
 74
0
 40
0
 40
0
 40
0
 40
0
 40
1
 40
1
 40
1
 40
1
 10
7.688310
 20
5.221600
 30
0.0
 10
7.859370
 20
5.506638
 30
0.0
 10
8.118310
 20
5.659326
 30
0.0
 10
8.458493
 20
5.676397
 30
0.0
  0
SPLINE
  5
155
100
AcDbEntity
  8
0
 62
7
100
AcDbSpline
 70
8
 71
3
 72
8
 73
4
 74
0
 40
0
 40
0
 40
0
 40
0
 40
1
 40
1
 40
1
 40
1
 10
8.458493
 20
5.676397
 30
0.0
 10
8.474423
 20
5.773623
 30
0.0
 10
8.482759
 20
5.887893
 30
0.0
 10
8.482759
 20
6.022925
 30
0.0
  0
SPLINE
  5
156
100
AcDbEntity
  8
0
 62
7
100
AcDbSpline
 70
8
 71
3
 72
8
 73
4
 74
0
 40
0
 40
0
 40
0
 40
0
 40
1
 40
1
 40
1
 40
1
 10
8.482759
 20
6.022925
 30
0.0
 10
8.482759
 20
7.440710
 30
0.0
 10
6.887409
 20
9.879308
 30
0.0
 10
6.871293
 20
9.903787
 30
0.0
  0
SPLINE
  5
157
100
AcDbEntity
  8
0
 62
7
100
AcDbSpline
 70
8
 71
3
 72
8
 73
4
 74
0
 40
0
 40
0
 40
0
 40
0
 40
1
 40
1
 40
1
 40
1
 10
6.871293
 20
9.903787
 30
0.0
 10
6.752669
 20
10.083768
 30
0.0
 10
6.605477
 20
10.182931
 30
0.0
 10
6.456825
 20
10.182931
 30
0.0
  0
SPLINE
  5
158
100
AcDbEntity
  8
0
 62
7
100
AcDbSpline
 70
8
 71
3
 72
8
 73
4
 74
0
 40
0
 40
0
 40
0
 40
0
 40
1
 40
1
 40
1
 40
1
 10
6.456825
 20
10.182931
 30
0.0
 10
6.308172
 20
10.182931
 30
0.0
 10
6.160954
 20
10.083795
 30
0.0
 10
6.042329
 20
9.903760
 30
0.0
  0
SPLINE
  5
159
100
AcDbEntity
  8
0
 62
7
100
AcDbSpline
 70
8
 71
3
 72
8
 73
4
 74
0
 40
0
 40
0
 40
0
 40
0
 40
1
 40
1
 40
1
 40
1
 10
6.042329
 20
9.903760
 30
0.0
 10
6.026267
 20
9.879308
 30
0.0
 10
4.430890
 20
7.440737
 30
0.0
 10
4.430890
 20
6.022952
 30
0.0
  0
SPLINE
  5
15a
100
AcDbEntity
  8
0
 62
7
100
AcDbSpline
 70
8
 71
3
 72
8
 73
4
 74
0
 40
0
 40
0
 40
0
 40
0
 40
1
 40
1
 40
1
 40
1
 10
4.430890
 20
6.022952
 30
0.0
 10
4.430890
 20
5.891079
 30
0.0
 10
4.439227
 20
5.775986
 30
0.0
 10
4.455635
 20
5.676397
 30
0.0
  0
SPLINE
  5
15b
100
AcDbEntity
  8
0
 62
7
100
AcDbSpline
 70
8
 71
3
 72
8
 73
4
 74
0
 40
0
 40
0
 40
0
 40
0
 40
1
 40
1
 40
1
 40
1
 10
4.455635
 20
5.676397
 30
0.0
 10
4.795605
 20
5.659220
 30
0.0
 10
5.054385
 20
5.506479
 30
0.0
 10
5.225339
 20
5.221573
 30
0.0
  0
LWPOLYLINE
  5
15c
100
AcDbEntity
  8
0
 62
7
100
AcDbPolyline
 90
2
 70
0
 10
6.619256
 20
7.651648
 30
0.0
 10
6.619256
 20
5.183899
 30
0.0
  0
LWPOLYLINE
  5
15d
100
AcDbEntity
  8
0
 62
7
100
AcDbPolyline
 90
1
 70
1
 10
5.225339
 20
5.221573
 30
0.0
  0
ENDSEC
  0
SECTION
  2
OBJECTS
  0
DICTIONARY
  5
C
330
0
100
AcDbDictionary
  3
ACAD_GROUP
350
D
  3
ACAD_MLINESTYLE
350
17
  0
DICTIONARY
  5
D
330
C
100
AcDbDictionary
  0
DICTIONARY
  5
1A
330
C
100
AcDbDictionary
  0
DICTIONARY
  5
17
330
C
100
AcDbDictionary
  3
STANDARD
350
18
  0
DICTIONARY
  5
19
330
C
100
AcDbDictionary
  0
ENDSEC
  0
EOF
